<?xml version="1.0" encoding="utf-8"?>
<!-- Generator: Adobe Illustrator 24.3.0, SVG Export Plug-In . SVG Version: 6.00 Build 0)  -->
<svg version="1.1" id="Layer_1" xmlns="http://www.w3.org/2000/svg" xmlns:xlink="http://www.w3.org/1999/xlink" x="0px" y="0px"
	 viewBox="0 0 983 535" enable-background="new 0 0 983 535" xml:space="preserve">
<g>
	<path fill="#022433" d="M310.7,191.8c0.4-2.6,1.9-4.8,3.2-7.1c1.3-2.2,2.5-4.4,3.1-6.9c1.3-4.8,2.1-10.4,5.9-14
		c-0.9,0.1-1.7,0.2-2.6,0.4c0.7,0.5,1.2,1.9,1.5,2.6c0.4,1.1,0.8,2.2,1.1,3.3c0.9,3.1,1.5,6.2,2.1,9.4c1.1,6.2,2,12.6,4.4,18.6
		c1,2.5,5,1.4,4-1.1c-2.6-6.6-3.4-13.5-4.7-20.5c-0.6-3.2-1.3-6.4-2.4-9.5c-0.8-2.3-1.8-4.9-3.9-6.4c-0.8-0.5-1.9-0.3-2.6,0.3
		c-4.1,3.9-5.3,9.7-6.7,14.9c-0.7,2.7-1.8,4.9-3.2,7.3c-1.3,2.4-2.9,4.9-3.3,7.6C306.2,193.4,310.2,194.5,310.7,191.8z"/>
	<path fill="#022433" d="M329.9,198.9c3.6,4.2,5,10.3,6.5,15.5c0.8,2.8,1.6,5.5,2.7,8.2c1.4,3.3,3.1,6.5,4.8,9.7
		c2.6,4.8,4.9,9.9,8.3,14.1c1,1.3,2.1,2.5,3,3.8c1.5,2,2.5,4.3,4,6.2c2,2.6,4.1,5.2,6.1,7.8c0.4,0.4,0.6,0.8,1,1.2
		c-0.5-0.8,0.1,0.2,0.3,0.6c0.5,0.9,1.1,1.7,1.6,2.5c1.6,2.4,3.4,4.6,5.3,6.8c8.3,9.6,14.4,21.2,24.5,29.3c3.2,2.5,6,5.4,9.3,7.7
		c3.3,2.2,6.8,4.1,10.2,6.1c6.4,3.7,14,5.7,21.4,5.7c2.7,0,2.7-4.2,0-4.2c-6.5,0.1-13.1-1.6-18.8-4.8c-3-1.6-5.9-3.5-8.8-5.2
		c-3.1-1.9-5.7-4.2-8.4-6.6c-2.4-2.1-4.9-4-7.1-6.4c-2.3-2.4-4.4-5-6.4-7.6c-3.8-5-7.2-10.3-11.3-15.1c-1.8-2-3.6-4-5.1-6.2
		c-1.3-1.9-2.3-3.9-3.7-5.7c-2.1-2.6-4.2-5.3-6.2-7.9c-0.2-0.2-0.9-1.3-0.5-0.6c-0.8-1.3-1.5-2.6-2.3-3.9c-1.1-1.8-2.3-3.4-3.7-5
		c-3-3.7-5.1-7.7-7.4-11.9c-1.9-3.5-3.9-7-5.5-10.6c-1.3-3-2.2-6.2-3.2-9.3c-1.7-5.9-3.5-12.3-7.5-17.1
		C331.1,193.9,328.2,196.9,329.9,198.9z"/>
	<g>
		<path id="horse1" fill="#022433" d="M594.6,328.7c10.3-2,20.5-5.8,31-5.9c4.7-0.1,9.4,0.7,13.8,2c2.1,0.7,4.3,1.4,6.3,2.2
			c2.2,1,3.9,2.3,5.9,3.7c3.6,2.5,7.4,4.4,10.5,7.5c3,2.9,5.5,6.1,7.8,9.6c4.5,6.9,7.8,14.5,11.9,21.6c2.3,4.3,5,8.3,6.7,12.8
			c1.2,3.1,1.9,6.7,2.3,10.1c0.2,2.6,0.5,6-3,6c-3.7-0.1-6.5-2.7-9.7-4c-1.6-0.7-3.6-0.8-5.2,0c-1.9,0.9-2.9,2.7-3.9,4.3
			c-1,1.6-2.8,2.5-4.6,2.6c-2.2,0.1-3.3-1.9-4.2-3.7c-0.9-1.8-1.5-3.7-2.3-5.6c-0.9-2.4-2.3-4.6-3.6-6.7c-2.6-4-5.7-7.6-8.1-11.8
			c-5.2-9.4-10.9-19.1-18.8-26.6c-3.7-3.6-8-6.7-12.5-9c-4.7-2.4-9.4-1.6-14.5-0.9c-2.7,0.5-1.9,4.6,0.6,4.2
			c2.1-0.3,4.3-0.8,6.5-0.9c2.5,0,4.5,0.7,6.7,2c4.1,2.4,8.1,5.2,11.3,8.8c7.3,7.7,12.2,16.7,17.6,25.7c2.7,4.5,6.2,8.3,8.7,12.6
			c2.3,4,3.3,8.7,6,12.5c2.8,3.6,7,4,11,2.1c1.7-0.9,2.8-2.2,3.8-3.7c0.5-0.7,1-1.9,1.8-2.3c1-0.5,2,0.2,2.8,0.6
			c3.3,1.8,6.3,3.8,10.2,3.9c3.7,0.1,6.5-2.2,7.2-5.8s-0.3-7.6-1.1-11.2c-1.1-4.3-2.9-8.4-5.1-12.4s-4.5-7.9-6.6-11.9
			c-2-3.7-3.9-7.5-5.9-11.2c-4.3-7.5-9.5-14.6-16.8-19.6c-2.2-1.5-4.6-2.6-6.7-4.2c-2.2-1.6-4.6-2.8-7-3.8c-5.1-2-10.7-3.3-16.1-3.8
			c-12.2-0.9-23.8,3.5-35.6,5.7C591.3,324.9,591.9,329.1,594.6,328.7z"/>
		<g>
			<path stroke="#000000" stroke-miterlimit="10" d="M439.4,324.1c12.9,0,25.9,0.2,38.8-0.1c12.9-0.3,25.8-1.7,38.7-2
				c6.4-0.2,12.8-0.3,19.1-0.7c6.2-0.4,12.4-1.1,18.7-1.3c11-0.4,23,0.4,32.7,5.3c4.3,2.2,6.9,5.2,9.1,9.1c1,1.9,1.9,3.7,2.6,5.7
				c0.5,1.6,1.2,3.4,1,5.1c-0.2,1.1,0.3,2.2,1.7,2.6c1.2,0.3,2.9-0.4,3-1.5c0.6-3.7-0.8-7.4-2.4-10.7c-1.6-3.3-3.4-6.8-6.2-9.5
				c-7.3-7.1-20-9.5-30.5-10.2c-6.4-0.4-12.8-0.1-19.1,0.4c-6.7,0.6-13.5,1-20.3,1.2c-6.9,0.2-13.7,0.2-20.5,0.6
				c-6.7,0.4-13.4,0.9-20.2,1.3c-15.4,0.9-30.9,0.4-46.5,0.4C436.2,319.9,436.2,324.1,439.4,324.1z"/>
			<path stroke="#000000" stroke-miterlimit="10" d="M289.4,188.6c-3-5.7-4.8-11.9-6.9-18c-1.3-3.9-2.8-7.8-4.2-11.6
				c-2.2-6-4.1-12.1-6-18.2c-0.9-3.3-1.9-6.5-2.6-9.9c-0.3-1.3-0.4-2.1-0.5-3.3c0-0.4-0.1-0.8,0-1.2c0-0.3-0.2,0.3,0-0.1
				c0.1-0.1-0.1,0.3-0.3,0.5c-0.1,0.1-1.3,0.7-1.3,0.4c0,0,0.7,0.5,0.8,0.5c0.8,0.6,1.5,1.5,2.2,2.3c1.5,1.7,2.9,3.5,4.4,5.3
				c4.3,5.3,9.2,10,13.5,15.2c4.6,5.4,9,11.2,13.2,16.9c3.3,4.5,6.2,9.2,9.6,13.7c1.6,2.2,5.3,0.1,3.6-2.1c-3.2-4.3-6-8.8-9.2-13.1
				c-3.9-5.4-8.1-10.6-12.2-15.8c-4.6-5.6-9.7-10.7-14.4-16.2c-1.8-2.1-3.4-4.2-5.2-6.3c-1.3-1.5-2.8-3.4-4.7-4.1
				c-6.9-2.6-3.1,10.6-2.5,13.1c1.9,7.2,4.3,14.4,6.7,21.4c1.3,3.6,2.8,7.2,4,10.9c2.5,7.4,4.6,15,8.2,22
				C287.1,193.1,290.7,191,289.4,188.6z"/>
			<path stroke="#000000" stroke-miterlimit="10" d="M272.4,149.3c1.9,0.2,4-0.2,5.8-0.5c2.7-0.3,5.4-0.8,8.1-1.1
				c1.1-0.2,1.8-1.6,1.5-2.6c-0.4-1.2-1.4-1.6-2.6-1.5c-2.6,0.4-5.3,0.8-7.9,1.1c-0.1,0-0.2,0-0.3,0.1c-0.1,0-0.4,0.1-0.1,0
				s-0.1,0-0.1,0c-0.1,0-0.2,0.1-0.4,0.1c-0.5,0.1-1,0.1-1.5,0.2c-0.8,0.1-1.7,0.2-2.5,0.1c-1.1-0.1-2.2,1.1-2.1,2.1
				C270.3,148.5,271.1,149.3,272.4,149.3z"/>
			<path stroke="#000000" stroke-miterlimit="10" d="M277.6,163.8c6.6-0.8,13.1-1.5,19.7-2.2c1.1-0.1,2.1-0.9,2.1-2.1
				c0-1.1-1-2.2-2.1-2.1c-6.6,0.7-13.2,1.4-19.7,2.2c-1.1,0.1-2.1,0.9-2.1,2.1C275.5,162.7,276.4,163.9,277.6,163.8z"/>
			<path stroke="#000000" stroke-miterlimit="10" d="M283.8,179.8c4.7-0.4,9.5-0.8,14.2-1.1c4.4-0.3,8.7,0.6,13.1,0.3
				c2.7-0.2,2.7-4.4,0-4.2c-4.4,0.3-8.7-0.6-13.1-0.4c-4.7,0.3-9.5,0.7-14.2,1.1C281.1,175.8,281,180,283.8,179.8z"/>
			<path stroke="#000000" stroke-miterlimit="10" d="M270.3,236.1c2.7,0,2.7-4.2,0-4.2S267.6,236.1,270.3,236.1z"/>
			<path stroke="#000000" stroke-miterlimit="10" d="M326.8,246c2.7,0,2.7-4.2,0-4.2C324.1,241.8,324.1,246,326.8,246z"/>
			<path stroke="#000000" stroke-miterlimit="10" d="M269.7,200.1c-0.4-4.6-0.3-9.1-0.4-13.7c-0.1-2.2-0.8-4.2-0.8-6.4
				c-0.1-1.6-0.5-3.4,0-4.9c-0.9,0.5-1.8,1-2.6,1.5c0.7,0.1,1.2,0.8,1.8,1.2c0.8,0.6,1.7,1.1,2.5,1.6c1.6,1.1,2.9,2.6,4.2,4
				c1.4,1.5,2.5,3,3.5,4.7c0.6,1.1,1.8,2.5,1.8,3.8c0,2.7,4.2,2.7,4.2,0c0-2-1.2-3.8-2.2-5.5c-1.2-2-2.5-4-4.1-5.7
				c-1.6-1.6-3.1-3.4-5-4.7c-0.9-0.6-2-1.2-2.9-1.9s-1.6-1.4-2.7-1.6c-1.1-0.2-2.2,0.3-2.6,1.5c-0.5,1.8-0.2,3.7-0.2,5.5
				c0.1,2.2,0.6,4.2,0.8,6.4c0.2,2.4,0,4.8,0,7.2c0,2.3,0.2,4.6,0.4,6.9C265.8,202.8,270,202.9,269.7,200.1z"/>
			<path stroke="#000000" stroke-miterlimit="10" d="M316,193.5c0.4,0,0.9,0,1.3,0c-0.4,0,0.2,0.1,0.3,0.1c0.2,0.1,0.4,0.1,0.6,0.1
				c0.8,0.2,1.9,0.3,2.7,0.1c1.3-0.4,1.9-1.5,2-2.7c0-0.2,0.2-0.5,0,0.1c-0.1,0.4,0,0,0.1-0.2c0.2-0.5,0.3-1.1,0.2-1.6
				c0-0.2-0.1-0.3-0.1-0.5c0,0.5,0.1-0.1,0.1-0.2c0.1-0.5,0.2-1,0.2-1.5c0-0.8,0.1-1.6,0-2.3c0-0.3-0.1-0.6-0.1-0.9
				c-0.1-0.5,0,0.2-0.1-0.2c0-0.4-0.1-0.8-0.1-1.2c-0.1-0.9-0.4-1.8-0.5-2.7c-0.1-0.6-0.8-1.3-1.5-1.5c-0.1,0-0.1,0-0.2-0.1
				c-1.1-0.2-2.3,0.3-2.6,1.5c-0.2,1.1,0.3,2.3,1.5,2.6c0.1,0,0.1,0,0.2,0.1c-0.5-0.5-1-1-1.5-1.5c0.1,0.4,0.1,0.6,0.2,1
				c0.1,0.2,0.1,0.4,0.1,0.5s0.1,0.5,0.1,0.1c0.1,0.8,0.1,1.6,0.2,2.3c0-0.2,0-0.1,0,0.1c0,0.2,0,0.4,0,0.5c0,0.4,0,0.7,0,1.1
				c0,0.4-0.1,0.7,0,1c0,0.3,0.1-0.5,0,0.1c-0.1,0.2-0.1,0.3-0.1,0.5c-0.1,0.4-0.1,0.8-0.1,1.2c0,0.1,0,0.3,0.1,0.5
				c0.1,0.4,0.3-0.8,0.1-0.3c-0.2,0.4-0.4,0.9-0.4,1.5c0,0.4,0.1-0.4,0-0.1c-0.1,0.3,0.1,0.2,0.5-0.4c0.2-0.3,0.4-0.5,0.8-0.5h-0.4
				c-0.1,0-0.5-0.1-0.1,0c-0.4-0.1-0.6-0.2-1-0.2c-0.8-0.2-1.6-0.2-2.5-0.2c-1.1,0-2.2,0.9-2.1,2.1C314,192.6,314.9,193.5,316,193.5
				z"/>
			<path stroke="#000000" stroke-miterlimit="10" d="M356.9,199.2c6.4,8.2,8.5,18.6,8.4,28.8c0,2.7-0.2,5.5-0.6,8.2
				c-0.4,2.5-1,4.8-1.3,7.4c-0.7,5.4-0.8,10.7-0.9,16.1c-0.1,2.7,4.1,2.7,4.2,0c0.1-5.5,0.1-11.2,0.9-16.6c0.4-2.7,1.1-5.4,1.5-8.2
				c0.4-2.9,0.5-5.9,0.4-8.8c-0.2-10.7-3-21.3-9.6-29.8C358.2,194.1,355.2,197.1,356.9,199.2z"/>
			<path stroke="#000000" stroke-miterlimit="10" d="M388.1,232.4c2,4.6,2.7,9.9,3.2,14.9c0.7,6.4,0.8,12.4-0.2,18.7
				c-1.6,10.7-2.7,21.3,0.3,31.9c0.8,2.6,4.8,1.5,4-1.1c-1.4-4.9-1.9-9.6-1.8-14.7c0-6.1,1.2-12,1.9-18.1c0.8-6.2,0.5-12.3-0.3-18.6
				c-0.6-5.2-1.5-10.4-3.6-15.2C390.7,227.8,387.1,230,388.1,232.4z"/>
			<path stroke="#000000" stroke-miterlimit="10" d="M263.7,222.3c0.4-0.8-0.4,0.4-0.5,0.6c-0.4,0.6-0.6,1.2-1.1,1.7
				c-0.9,1.2-2,2.2-2.9,3.4c-1.9,2.7-3.7,5.5-5.3,8.4c-3.2,5.6-6.3,11.3-8.8,17.2c-2.2,5.1-4.3,10.2-5.5,15.6
				c-0.6,2.8-0.7,5.6-1,8.4c-0.4,3.3-0.8,6.5-0.4,9.8c0.7,5.8,3.9,10.7,7.6,15.1c3.8,4.4,9,7.2,14.4,9.4c2.7,1.1,5.3,1.8,8.2,1.9
				c2.5,0.1,4.9,0.5,7.4,0.5c2.6,0,5.3-0.3,7.8-0.8c2.6-0.5,4.8-1.4,7.3-2.3c6.6-2.5,13.5-3.8,20.2-5.9c3.2-1,6.5-1.5,9.6-2.6
				c1.5-0.5,3-1.2,4.6-1.7c1.5-0.5,2.9-1.5,4.4-1.8c2.5-0.5,1.5-4.4-1.1-3.9c-1.2,0.2-2.2,0.9-3.3,1.4c-1.3,0.6-2.7,1-4,1.5
				c-2.7,1-5.4,1.7-8.2,2.3c-2.7,0.6-5.4,1.7-8.1,2.4c-2.9,0.8-5.8,1.5-8.6,2.3c-5,1.5-9.8,3.9-15,4.7c-2.5,0.4-5,0.5-7.5,0.4
				c-1-0.1-2-0.2-3-0.3c-1.5-0.2-3.1-0.1-4.6-0.3c-2.6-0.3-5.2-1.6-7.5-2.6c-2.6-1.1-4.9-2.7-7.1-4.3c-4.1-3.1-7.8-8.2-9.2-13.2
				c-0.9-3-0.8-6-0.4-9c0.3-2.8,0.4-5.7,0.9-8.5c0.4-2.5,1.2-5,1.9-7.4c0.8-2.5,1.8-4.7,2.8-7.1c2.6-6.4,5.8-12.6,9.3-18.6
				c1.8-3.1,3.6-6.1,5.7-9c1.6-2.2,3.9-4,4.9-6.6C268.5,221,264.7,220,263.7,222.3z"/>
			<path stroke="#000000" stroke-miterlimit="10" d="M328.3,297.9c0,5.4,0.2,10.8,0.3,16.2c0.1,2.5-0.4,4.7-0.6,7.2
				c-0.2,2.9-0.2,5.7-0.6,8.5c-0.4,2.6-0.7,5.1-0.8,7.7c-0.1,2.7-0.8,5.4-1.3,8.2c-1,5.5-1.9,11-1.9,16.6c0,2.6,0,5.2,0,7.8
				c0,1.2,0.1,2.5,0.1,3.7c0,1.5-0.3,2.9-0.4,4.4c-0.1,2.7-0.1,5.3-0.4,7.9c-0.4,2.9-0.7,5.7-0.9,8.6c-1,10.6-1.3,21.3-2.2,31.9
				c-1,10.5-0.8,21.1-1.5,31.6c-0.3,4.7-0.1,9.4-0.5,14.1c-0.2,2.6-0.1,5.2-0.6,7.6c-0.6,2.7-1.1,5.2-1.2,7.9
				c-0.1,2.6-0.4,5.1-0.4,7.6s0.1,5.2,0.1,7.8c0,2.6,0.1,5.2,0,7.8c-0.1,2.4-0.9,5-0.1,7.4c0.7,1.9,3,2.6,4.7,3.6
				c2.1,1.2,4.5,1.9,7,2.3c4,0.6,8.4,0.1,10.8-3.3c2.4-3.5,3.4-8.2,4.3-12.2c1.1-4.9,1.7-9.9,2.2-14.9c1-10.1,2.3-20.1,3.5-30.2
				c0.6-5.1,1.1-10.3,1.5-15.5c0.4-4.6,0.3-9.4,1-14c0.2-1.2,0.4-2.5,1.8-2.8c1.7-0.4,3.5-0.4,5.2-0.3c0.7,0.1,1.5,0.1,2.1,0.4
				c0.4,0.2,0.4,0.3,0-0.1c0.3,0.4,0.4,1.1,0.6,1.6c1,2.6,1.9,5.4,2.6,8.1c1.3,5.1,1.9,10.4,2.4,15.6c0.4,5.4,1.2,10.8,2,16.1
				c1.8,11.2,4.3,22.4,6.7,33.5c0.6,2.7,1.2,5.4,1.7,8.1c0.5,2.6,1,5.4,2.5,7.7c2.3,3.5,6.3,4.6,10.6,4.1c4-0.4,8.2-1.1,10.4-4.4
				c1.9-2.7,1.7-6.3,1.5-9.4c-1.5-19.4-3.8-38.8-6.9-58.1c-0.7-4.6-1.5-9-2.3-13.6c-0.3-1.9-0.7-3.7-1-5.5c-0.1-0.8-0.2-1.6-0.3-2.5
				c0,0-0.1-0.6,0-0.7c-0.1,0.1-0.3,0.3,0,0.1c1.2-0.7,3.8-0.1,5.1,0.1c1.7,0.2,3.4,0.5,5.1,0.8c5.4,0.8,10.9,0.1,16.3,0.1
				c2.6,0.1,5,0.5,7.5,0.7c2.9,0.2,5.6,0.6,8.5,0.9c5.6,0.7,11.1,0.1,16.7,0.1c5.9,0.1,11.8,0.5,17.5,1.4c2.5,0.4,4.8,0.2,7.4,0.1
				c3-0.2,6.1,0,9.1,0c5.8,0,11.6-0.5,17.5-0.5c5.9-0.1,11.8,0.2,17.7-0.2c2.9-0.2,5.8-0.4,8.7-0.4c2,0,4.7-0.4,6.5,0.5
				c3.7,1.8,3.6,8.1,3.7,11.3c0.3,8.9,2.4,17.7,3.1,26.6c0.6,8.1,0.7,16.2,1.3,24.3c0.3,4.4,0.4,8.8,0.6,13.1
				c0.1,2.7,0.4,5.4,0.1,8.1c-0.3,2.2,0.1,4.1,1.9,5.8c1.4,1.2,3.1,1.8,5.1,1.9c2,0.1,4.4,0,6.3-0.5c2.1-0.5,4-1.8,4.9-3.6
				c1-1.9,0.8-4.4,0.9-6.5c0.2-4.4,0-8.8,0-13.2c0-2.4,0-4.8,0-7.2c0-2.7,0.3-5.5,0.1-8.2c-0.1-2.4-0.6-4.6-0.3-7
				c0.3-2.9-0.1-5.7-0.2-8.5c-0.3-5.7,0.4-11.3,0.4-17c0-5.6,0.3-11.3-0.1-16.9c-0.1-1.9,0-4.3,2-5.5c0.6-0.3,1.6-0.3,2.4-0.5
				c1.3-0.3,2.6-0.4,4-0.5c2.6-0.3,5.6-0.9,8.3-0.6c1.1,0.1,1.5,0.5,2,1.5c0.6,1,1,2,1.3,3.1c1.5,5,1.9,10.3,2.6,15.4
				c1.3,9.9,2.3,19.7,4.2,29.5s4.6,19.4,6.6,29.2c0.4,2.1,0.8,4.3,1.2,6.4c0.3,1.5,0.3,3.2,1.2,4.6c2,3,7,2.9,10.3,2.7
				c1.7-0.1,3.4-0.1,4.8-1c1.4-0.9,2.2-2.3,2.7-3.8c1.1-3.2,1-6.7,1-9.9c0.1-4.8,0.2-9.5,0.1-14.3c-0.1-5.5,0.1-11.1-0.7-16.6
				s-1.4-11-1.8-16.5c-0.3-5.4-0.8-10.7-1.5-16.1c-1.4-11.2-3-22.2-3.7-33.5c-0.3-5.5-0.2-11.2-0.4-16.7s-1-11-1.3-16.6
				c-0.3-5.3,0-10.6-0.1-16c-0.1-5.1-1.7-10.2-1.7-15.2c0-2.7-4.6-2.7-4.6,0c-0.1,5.4,1.6,10.6,1.7,15.9c0.1,5.5-0.3,11.1,0.2,16.6
				c0.4,5.3,1.1,10.6,1.2,15.9c0.2,5.6,0.1,11.2,0.4,16.7c0.7,11,2.2,21.9,3.6,32.8c0.7,5.4,1.2,10.7,1.5,16.1
				c0.4,5.5,1,11,1.8,16.5c0.7,5.3,0.6,10.6,0.7,15.9c0.1,4.9,0,9.8-0.1,14.6c0,3,0.3,6.6-0.9,9.5c-0.3,0.8-0.6,1.2-1.4,1.3
				c-2,0.4-4.6,0.2-6.6-0.2c-1.4-0.3-1.5-0.6-1.7-1.9c-0.4-2.1-0.6-4.1-1-6.2c-0.9-4.7-2-9.4-3.1-14.1c-2.2-9.5-4.4-19-5.8-28.7
				c-1.4-9.9-2.1-20-4-30c-0.7-3.7-2-9.9-6.6-11.2c-2.2-0.6-5.4-0.2-7.7,0.1c-2.4,0.2-5.1,0.4-7.4,0.9c-2,0.5-3.8,0.6-5.3,2.1
				c-1.7,1.6-3,3.7-3.1,6c-0.1,2.4,0.1,4.9,0.1,7.3c0,3,0,6,0,9.1c0,5.4-0.3,10.9-0.4,16.3c-0.1,2.7,0.3,5.3,0.4,8
				c0.1,2.7-0.6,5.4-0.2,8.2c0.6,4.8,0.2,9.7,0.2,14.5c0,4.7,0.1,9.3,0.1,14.1c0,2.2-0.1,4.3-0.3,6.5c-0.3,2-1.9,2.5-3.9,2.6
				c-1.6,0.1-3.6,0.6-5-0.4c-0.7-0.5-1-0.9-1-1.8c-0.1-1.5,0.3-3.1,0.3-4.6c-0.2-9.1-0.9-18-1.4-27c-0.4-7.4-0.4-14.8-1.5-22.1
				c-0.7-5.3-1.9-10.5-2.2-15.8c-0.3-4-0.1-8.1-1.2-11.9c-1.2-4.2-4.1-7.4-9-7.8c-5.2-0.4-10.4,0.1-15.6,0.4
				c-5.9,0.4-11.8-0.1-17.7,0.1c-5.9,0.2-11.7,0.5-17.6,0.5c-2.7,0-5.6-0.1-8.3,0.1c-2.8,0.2-5.2-0.1-7.9-0.5
				c-5.6-0.8-11.4-1.1-17.1-1.1c-2.6,0-5.2,0.2-7.9,0.3c-3,0.1-5.9-0.2-8.9-0.5c-5.3-0.6-10.6-1.5-15.9-1.5
				c-5.2,0-10.3,0.7-15.4-0.3c-3.3-0.6-7.4-1.3-10.6-0.6c-4.3,0.9-4,4.6-3.5,7.8c0.6,4.1,1.5,8.2,2.2,12.3
				c1.7,9.6,3.1,19.2,4.3,28.8c1.3,9.8,2.4,19.6,3.1,29.4c0.3,3.4,0.9,7.1,0.5,10.6c-0.1,1.2-0.5,2.6-1.5,3.5
				c-1.3,1.2-3.6,1.4-5.4,1.6c-1.7,0.2-3.5,0.4-5.1-0.3c-2.4-1-2.9-3.7-3.4-5.8c-1.2-5.3-2.2-10.6-3.3-15.9c-2.4-11-4.7-22-6.2-33
				c-1.4-10.5-1.7-21.1-4.9-31.3c-0.6-2.1-1.3-4.7-2.6-6.5c-1-1.3-2.8-1.8-4.5-2c-3-0.4-7.2-0.5-9.8,1.1c-3.5,2-3.3,6.6-3.4,9.8
				c-0.3,5.2-0.8,10.4-1.2,15.6c-1,10.3-2.6,20.5-3.6,30.8c-1,9.7-1.3,19.6-4.4,29.1c-0.5,1.6-1.1,3.4-1.9,4.9s-2,2-3.9,2.1
				c-2.2,0.1-4.5-0.4-6.5-1.2c-1-0.4-1.9-1-2.8-1.5c-0.3-0.2-1.3-0.4-1.5-0.6c0-0.1,0-1.3,0-1.5c0.1-2.6,0.4-5.1,0.4-7.6
				c0-2.6,0-5.3,0-7.9c0-2.5-0.1-5,0.1-7.5c0.3-2.7,0-5.6,0.5-8.4c0.5-2.5,1.1-4.7,1.2-7.2c0.1-2.6,0.4-5.2,0.5-7.8
				c0.1-2.2-0.1-4.4,0-6.7c0.1-2.3,0.3-4.6,0.4-6.8c0.3-5.1,0.1-10.3,0.4-15.4c0.3-5.4,0.7-10.9,1.2-16.3
				c0.9-10.6,1.2-21.3,2.2-31.8c0.3-2.7,0.6-5.4,1-8.1c0.3-2.8,0.1-5.6,0.4-8.5c0.3-2.4,0-4.8,0-7.2c0-2.7-0.1-5.4,0.1-8.2
				c0.2-5.5,1.1-11.2,2.2-16.6c0.5-2.5,0.9-4.8,1-7.4s0.6-5.3,1-7.9s0.1-5.1,0.4-7.6c0.3-2.4,0.6-4.7,0.5-7.2
				c-0.1-5.2-0.3-10.4-0.3-15.6C332.9,295.2,328.3,295.2,328.3,297.9z"/>
			<path stroke="#000000" stroke-miterlimit="10" d="M332.9,195.7c1.2-0.8,2.4-0.8,3.9-0.7c1.4,0.1,2.9,0.2,4.3,0.4
				c2.6,0.3,5.4,1.2,7.9,1.8c5.1,1.1,10.3,2.5,14.2,6.2c2.2,2.2,3.8,4.8,5.8,7.2c2,2.3,4.4,4.3,6.7,6.4c2.3,2,4.4,4.1,6.3,6.5
				c0.9,1.2,1.9,2.4,2.9,3.6c1.1,1.3,1.7,2.9,2.6,4.3c3.3,6,7.2,11.6,10.9,17.3c1.7,2.7,3.2,5.5,4,8.6c0.9,3.2,2.2,6.2,3.3,9.3
				c2,6.1,4.3,12.6,8.3,17.8c0.9,1.2,1.9,2.2,2.6,3.5c0.8,1.3,1.3,2.9,2,4.3c1.5,3,3.8,5.5,5.7,8.2c4.2,5.8,9.2,10.9,15.2,14.8
				c1.5,1.1,3.1,1.7,4.7,2.5c1.1,0.5,1.9,1.3,2.9,2c2.7,1.9,5.5,3.6,8.6,4.6c2.6,0.8,3.7-3.3,1.1-4c-2.8-0.9-5.3-2.5-7.6-4.2
				c-0.8-0.6-1.6-1.2-2.5-1.8c-1.4-0.9-2.9-1.3-4.3-2.3c-5.5-3.6-10.3-8.2-14.2-13.6c-1.9-2.7-4.3-5.2-5.8-8.2
				c-0.7-1.3-1.2-2.7-1.9-4c-0.8-1.4-1.8-2.6-2.8-3.9c-4.2-5.4-6.1-12-8.5-18.3c-1.2-3.1-2.2-6.2-3.2-9.3c-1-3.1-2.6-5.9-4.3-8.7
				c-3.7-5.8-7.8-11.5-11-17.6c-3-5.5-7.5-10.4-12.1-14.6c-2.3-2.1-4.7-4.2-6.8-6.6c-1.9-2.3-3.4-4.8-5.7-6.9
				c-4.6-4.2-10.4-5.9-16.3-7.2c-3-0.6-6.2-1.7-9.3-1.8c-3.3-0.1-6.5-1-9.5,1C328.6,193.6,330.7,197.2,332.9,195.7z"/>
			<path stroke="#000000" stroke-miterlimit="10" d="M245.6,212.7c5.7-0.1,11-2.5,15.9-5.4c2.3-1.4,4.4-3.2,6.8-4.4
				c1.2-0.7,2.5-1.3,3.7-2c1.2-0.8,2.2-1.7,3.4-2.4c2.5-1.3,5.1-1.9,7.6-3.1c2.4-1.1,5-1.5,7.6-1.9c6-1,11.9-0.1,18-0.1
				c2.7,0,2.7-4.2,0-4.2c-6,0-11.8-0.9-17.9,0c-2.6,0.4-5.5,0.6-7.9,1.6c-1.2,0.5-2.4,1.1-3.7,1.6c-1.3,0.4-2.6,0.9-3.8,1.5
				c-2.6,1.2-4.6,3-7.1,4.4c-2.4,1.3-4.7,2.7-7,4.3c-4.7,3.1-9.9,6-15.7,6.1C243,208.6,243,212.8,245.6,212.7z"/>
			<path stroke="#000000" stroke-miterlimit="10" d="M243.4,211.1c0.1,2.4,2.5,3.2,4.1,4.5c1.2,0.9,2.4,1.8,3.6,2.6
				c1.3,0.9,2.9,1.5,4.3,2.2c1.2,0.6,2.3,1.5,3.6,1.9c1.5,0.5,3,0.9,4.4,1.3c3,0.9,5.8,1.1,8.9,0.2c3.2-0.8,6.5-1.1,9.6-1.9
				c3-0.8,5.8-2.2,8.5-3.6c4.6-2.3,9.7-5,13-9.1c1.9-2.3,3.6-5.3,4.4-8.2c0.4-1.6,0.6-3.1,1.2-4.6c0.6-1.7,1.4-3.2,1.5-5
				c0.2-2.7-4-2.7-4.2,0c-0.1,1.2-0.7,2.2-1.1,3.3c-0.5,1.2-0.8,2.5-1.1,3.7c-0.6,2.6-1.6,4.6-3,6.9c-2.3,3.7-6.4,5.8-10.1,7.8
				c-2.3,1.3-4.6,2.5-6.9,3.6c-2.6,1.2-5.4,1.6-8.2,2c-2.6,0.4-5.3,1.6-7.9,1.6c-2.4,0-5.1-1.1-7.4-1.9c-1.4-0.5-2.6-1.5-3.9-2.1
				c-1.3-0.6-2.6-1.2-3.7-2c-1.3-0.9-2.5-1.8-3.7-2.7c-0.4-0.3-0.8-0.5-1.2-0.8c-0.1-0.1-0.2-0.2-0.4-0.2c-0.5-0.1-0.1-0.9-0.1,0.4
				C247.5,208.4,243.3,208.4,243.4,211.1z"/>
			<g id="horseMoulth">
				<path stroke="#000000" stroke-miterlimit="10" d="M310,290.9c1.9-0.2,3.6-0.5,5.3-1.2c1.6-0.7,3.2-1.2,4.8-1.9
					c1.8-0.8,3.3-1.8,4.8-2.9c0.8-0.6,1.6-1.1,2.4-1.8c0.6-0.5,1-1.2,1.6-1.8c0.8-0.8,0.8-2.2,0-3s-2.1-0.8-3,0
					c-0.5,0.5-0.9,1.2-1.4,1.6c-0.6,0.5-1.2,0.9-1.9,1.3c-1.3,0.9-2.7,1.9-4.2,2.6s-3.1,1.1-4.6,1.8c-1.3,0.6-2.6,0.9-4,1.1
					c-1.1,0.1-2.1,0.9-2.1,2.1C307.9,289.8,308.9,291,310,290.9z"/>
				<path stroke="#000000" stroke-miterlimit="10" d="M324.1,278c0.5,0.5,1.1,1.2,1.7,1.6c0.2,0.2,0.4,0.3,0.6,0.3
					c0.1,0.1,0.4,0.1,0.4,0.2c0,0-0.4-0.3-0.1-0.1c0.1,0.1,0.1,0.1,0.2,0.2s0.3,0.2,0.4,0.4c0.2,0.2,0.4,0.5,0.6,0.6
					c0.5,0.5,1,0.6,1.6,0.9c0.3,0.1,0.6,0.2,0.9,0.3c0.5,0.1,1,0.1,1.5,0.2c-0.2,0-0.4-0.1-0.6-0.1c0.5,0.1,1,0.2,1.5,0.2
					c1.1,0,2.2-1,2.1-2.1c-0.1-1.2-0.9-2.1-2.1-2.1c-0.1,0-0.2,0-0.2,0c0.2,0,0.4,0.1,0.6,0.1c-0.4-0.1-0.8-0.2-1.3-0.2
					c-0.3-0.1-0.5-0.1-0.8-0.1c0.2,0,0.3,0.1,0.6,0.1c-0.3-0.1-0.5-0.1-0.8-0.2c-0.4-0.2,0.5,0.2,0,0c-0.1,0-0.1-0.1-0.2-0.1
					c-0.2-0.1-0.1-0.1,0.2,0.1c-0.1-0.1-0.2-0.2-0.2-0.2c-0.1-0.1-0.2-0.2-0.3-0.4c-0.2-0.2-0.4-0.4-0.6-0.5
					c-0.3-0.2-0.6-0.5-0.9-0.7c-0.1-0.1-0.2-0.1-0.4-0.2c-0.3-0.2,0.4,0.4,0.1,0.1c-0.4-0.5-0.9-0.9-1.3-1.3c-0.8-0.8-2.2-0.8-3,0
					C323.3,275.9,323.3,277.2,324.1,278z"/>
			</g>
		</g>
	</g>
</g>
<path fill="#022433" d="M653.2,226.5c9.2,90,87.1,81.7,111.7,60.8c9.7-8.2,17.6-18.7,22-30.4c0.1,0.2,0.5,0.3,0.7,0.1
	c9-1.6,17.7-5,26.2-8.4c1.4-0.5,1.8-2.9,0.4-3.5c-7.6-3.2-15.4-6.5-23.2-9.5c0-3.4-0.2-7-0.8-10.3c-3.8-21.6-22.7-38.3-44.7-32.5
	c-12.2,3.2-19,13.9-27.9,22.6c-13.2,13.1-36,20.2-46.3,1.4c-0.4-0.9-1.1-0.8-1.8-0.5c-0.9-0.4-1.7-0.1-1.7,1.1
	c0,5.2,1.2,10.4,3.2,14.9c-5.1-0.9-9.3-3.1-13.6-6.2c-0.6-0.5-1.2-0.4-1.7-0.1C655.3,224.7,653.2,224.9,653.2,226.5z M791,239.5
	c5.8,2.6,11.8,4.9,17.5,7.3c-6.8,2.8-13.7,5.1-20.7,7.6C789.5,249.8,790.4,244.6,791,239.5z M655.9,229.8c4.7,4.2,11.1,6.2,17.5,6.5
	c1.5,0.1,2.6-1.3,1.9-2.8c-1.6-3.1-2.8-6.3-3.8-9.6c12.3,16.3,36.9,7.2,50.3-6.9c6.1-6.3,11.1-13.7,18.9-17.7
	c8.1-4.1,17.2-3.9,25.2-0.6c15.7,6.8,22.2,24.9,20.5,42.1c-3.6,36.9-40,61.8-73.2,56.7C679.8,292.3,660,263.1,655.9,229.8z"/>
<path fill="#022433" d="M687.4,265c6-3.3,11.3-6.9,16.5-11.1c-4-2.5-7.2-5.9-9.9-9.9c-0.7-1.1,0.4-2.9,1.7-2.7
	c9.3,2.5,18,2.2,27.6,0.6c1.8-0.3,2.2,2.8,0.6,3.3c-8,2.3-16.7,2.4-24.8,0.5c1.9,2.5,4.3,4.7,6.9,6.6c0.2-0.2,0.4-0.3,0.7-0.5
	c1.6-1.1,3.4,1,2.1,2.6c-4.6,4.7-10,8.7-15.8,11.9c7.7,2,15.1,0.9,22.9-1.3c0.1-0.4,0.1-0.6,0.2-1c0.6-1.9,3.4-1.6,3.2,0.2
	c0.5,0.3,0.7,1.1,0,1.6c-0.2,0.2-0.2,0.2-0.4,0.1c-0.9,3.2-1.4,6.3-1.7,9.4c10.5-3.1,18.5-11.6,22.7-22.1c0.4-1.1,2-0.4,1.8,0.5
	c-3.1,12.7-13.7,22.4-25.8,25.4c-1,0.2-2.2-0.2-2.2-1.4c0.2-3.3,0.7-6.6,1.3-9.7c-8.7,3.8-19,3.3-27.6,0.2
	C686.2,267.8,686.3,265.6,687.4,265z"/>
<path fill="#022433" d="M769.1,232.7c0.3,0.3,0.6,0.5,1,0.8h0.2c0.3,0.3,0.5,0.5,0.6,0.9c0.9,1.7,0.8,3.9-0.8,5.6l-0.2,0.2
	c-1,1.2-2.6,1.7-4,1.1c-2.1-0.8-3-3.5-2.5-5.8C764,232.8,766.9,231.5,769.1,232.7z"/>
<path id="aboutStar3" fill="#022433" d="M339,43.9c-0.5-1.3-1.6-2-2.7-2.4c-2.9-1.1-6.1-1.1-9.3-1.3c-1.8,0-3.4-0.2-5.2-0.2
	c-0.5-5.3-1.1-10.7-2.3-16c-0.2-1.3-0.7-2.7-1.4-3.6c-0.9-1.3-2.7-2-4.1-0.7c-1.1,1.1-1.6,2.7-2.3,4.2c-0.9,2-1.4,4-2,6
	c-0.9,2.4-1.6,5.1-2.3,7.8c-1.6-0.2-3.2-0.4-4.7-0.4c-3.2-0.4-7-0.7-10.2,0.2c-1.4,0.2-2.7,1.3-2.7,2.9c0,1.1,0.9,2.2,1.8,2.9
	c2.5,2,5.4,3.1,8.1,4.4c1.6,0.7,3.2,1.3,5,2c-1.1,4.7-2,9.6-2.3,14.4c0,1.1-0.2,2.4,0.5,3.3c0.7,1.6,2.3,2,3.8,1.1
	c1.1-0.7,2-2,2.7-3.1c0.9-1.6,1.8-3.1,2.5-4.7c0.7-1.3,1.4-2.9,2-4.2c1.8,2.7,3.4,5.1,5.4,7.6c1.1,1.3,2.9,4,5.2,3.3
	c1.4-0.4,1.8-1.8,1.8-2.9c0-1.8,0-3.3,0-5.1c0-2.4,0-5.1,0-7.6c1.1-0.4,2.5-0.7,3.6-1.1c2.7-0.9,5.6-1.8,7.9-3.6
	C338.5,46.3,339.2,45,339,43.9z M317.1,22.6C317.1,22.8,317.1,22.8,317.1,22.6L317.1,22.6z M304.2,65C304,65,304.2,65.2,304.2,65
	L304.2,65z M321.8,64.8C321.8,65,321.8,65,321.8,64.8L321.8,64.8z M328.6,46.6c-1.8,0.7-3.4,1.1-5.2,1.6c-0.9,0.2-1.6,1.1-1.6,2
	c0,2.2,0,4.2,0,6.4c0,1.3,0,2.9,0,4.2c-1.4-1.8-2.7-3.8-4.1-5.8c-0.9-1.3-1.6-2.4-2.5-3.8c-0.7-1.1-2.9-1.6-3.6,0
	c-0.7,1.8-1.6,3.6-2.5,5.3c-0.7,1.6-1.6,3.1-2.5,4.7c0.2-2.2,0.7-4.2,1.1-6.4c0.5-2,0.9-4,1.4-6c0.2-1.1-0.5-2.2-1.6-2.7
	c-4.1-1.6-7.7-2.9-11.5-5.1c0.5,0,0.9,0,1.4,0c1.6,0,3.2,0,4.7,0.2c1.6,0.2,3.2,0.2,4.7,0.4c0.5,0,1.1,0.2,1.6,0.2
	c1.1,0.2,2.3-0.2,2.7-1.6c0.7-2.2,1.1-4.7,1.8-6.9c0.7-2,1.1-4,1.8-5.8c0.2-0.4,0.5-1.1,0.7-1.6c0.7,3.1,1.1,6,1.4,8.9
	c0.2,2.2,0.5,4.7,0.7,6.9c0,0.4,0.2,0.7,0.2,0.9c0.2,0.7,0.9,1.1,1.8,1.1c4.3,0,8.8,0,12.9,0.9c0.2,0,0.2,0,0.5,0
	C331.5,45.7,330.2,46.1,328.6,46.6z M335.2,45.4C335.2,45.7,335.2,45.7,335.2,45.4L335.2,45.4z M335.2,45.4
	C335.2,45.7,335.2,45.7,335.2,45.4C335.4,45.7,335.4,45.7,335.2,45.4z"/>
<path id="aboutStar2" fill="#022433" d="M1,328.9c0.5-1.3,1.6-2,2.7-2.4c2.9-1.1,6.1-1.1,9.3-1.3c1.8,0,3.4-0.2,5.2-0.2
	c0.5-5.3,1.1-10.7,2.3-16c0.2-1.3,0.7-2.7,1.4-3.6c0.9-1.3,2.7-2,4.1-0.7c1.1,1.1,1.6,2.7,2.3,4.2c0.9,2,1.4,4,2,6
	c0.9,2.4,1.6,5.1,2.3,7.8c1.6-0.2,3.2-0.4,4.7-0.4c3.2-0.4,7-0.7,10.2,0.2c1.4,0.2,2.7,1.3,2.7,2.9c0,1.1-0.9,2.2-1.8,2.9
	c-2.5,2-5.4,3.1-8.1,4.4c-1.6,0.7-3.2,1.3-5,2c1.1,4.7,2,9.6,2.3,14.4c0,1.1,0.2,2.4-0.5,3.3c-0.7,1.6-2.3,2-3.8,1.1
	c-1.1-0.7-2-2-2.7-3.1c-0.9-1.6-1.8-3.1-2.5-4.7c-0.7-1.3-1.4-2.9-2-4.2c-1.8,2.7-3.4,5.1-5.4,7.6c-1.1,1.3-2.9,4-5.2,3.3
	c-1.4-0.4-1.8-1.8-1.8-2.9c0-1.8,0-3.3,0-5.1c0-2.4,0-5.1,0-7.6c-1.1-0.4-2.5-0.7-3.6-1.1c-2.7-0.9-5.6-1.8-7.9-3.6
	C1.5,331.3,0.8,330,1,328.9z M22.9,307.6C22.9,307.8,22.9,307.8,22.9,307.6L22.9,307.6z M35.8,350C36,350,35.8,350.2,35.8,350
	L35.8,350z M18.2,349.8C18.2,350,18.2,350,18.2,349.8L18.2,349.8z M11.4,331.6c1.8,0.7,3.4,1.1,5.2,1.6c0.9,0.2,1.6,1.1,1.6,2
	c0,2.2,0,4.2,0,6.4c0,1.3,0,2.9,0,4.2c1.4-1.8,2.7-3.8,4.1-5.8c0.9-1.3,1.6-2.4,2.5-3.8c0.7-1.1,2.9-1.6,3.6,0
	c0.7,1.8,1.6,3.6,2.5,5.3c0.7,1.6,1.6,3.1,2.5,4.7c-0.2-2.2-0.7-4.2-1.1-6.4c-0.5-2-0.9-4-1.4-6c-0.2-1.1,0.5-2.2,1.6-2.7
	c4.1-1.6,7.7-2.9,11.5-5.1c-0.5,0-0.9,0-1.4,0c-1.6,0-3.2,0-4.7,0.2c-1.6,0.2-3.2,0.2-4.7,0.4c-0.5,0-1.1,0.2-1.6,0.2
	c-1.1,0.2-2.3-0.2-2.7-1.6c-0.7-2.2-1.1-4.7-1.8-6.9c-0.7-2-1.1-4-1.8-5.8c-0.2-0.4-0.5-1.1-0.7-1.6c-0.7,3.1-1.1,6-1.4,8.9
	c-0.2,2.2-0.5,4.7-0.7,6.9c0,0.4-0.2,0.7-0.2,0.9c-0.2,0.7-0.9,1.1-1.8,1.1c-4.3,0-8.8,0-12.9,0.9c-0.2,0-0.2,0-0.5,0
	C8.5,330.7,9.8,331.1,11.4,331.6z M4.8,330.4C4.8,330.7,4.8,330.7,4.8,330.4L4.8,330.4z M4.8,330.4C4.8,330.7,4.8,330.7,4.8,330.4
	C4.6,330.7,4.6,330.7,4.8,330.4z"/>
<path id="aboutStar1" fill="#022433" d="M934,188.9c0.5-1.3,1.6-2,2.7-2.4c2.9-1.1,6.1-1.1,9.3-1.3c1.8,0,3.4-0.2,5.2-0.2
	c0.5-5.3,1.1-10.7,2.3-16c0.2-1.3,0.7-2.7,1.4-3.6c0.9-1.3,2.7-2,4.1-0.7c1.1,1.1,1.6,2.7,2.3,4.2c0.9,2,1.4,4,2,6
	c0.9,2.4,1.6,5.1,2.3,7.8c1.6-0.2,3.2-0.4,4.7-0.4c3.2-0.4,7-0.7,10.2,0.2c1.4,0.2,2.7,1.3,2.7,2.9c0,1.1-0.9,2.2-1.8,2.9
	c-2.5,2-5.4,3.1-8.1,4.4c-1.6,0.7-3.2,1.3-5,2c1.1,4.7,2,9.6,2.3,14.4c0,1.1,0.2,2.4-0.5,3.3c-0.7,1.6-2.3,2-3.8,1.1
	c-1.1-0.7-2-2-2.7-3.1c-0.9-1.6-1.8-3.1-2.5-4.7c-0.7-1.3-1.4-2.9-2-4.2c-1.8,2.7-3.4,5.1-5.4,7.6c-1.1,1.3-2.9,4-5.2,3.3
	c-1.4-0.4-1.8-1.8-1.8-2.9c0-1.8,0-3.3,0-5.1c0-2.4,0-5.1,0-7.6c-1.1-0.4-2.5-0.7-3.6-1.1c-2.7-0.9-5.6-1.8-7.9-3.6
	C934.5,191.3,933.8,190,934,188.9z M955.9,167.6C955.9,167.8,955.9,167.8,955.9,167.6L955.9,167.6z M968.8,210
	C969,210,968.8,210.2,968.8,210L968.8,210z M951.2,209.8C951.2,210,951.2,210,951.2,209.8L951.2,209.8z M944.4,191.6
	c1.8,0.7,3.4,1.1,5.2,1.6c0.9,0.2,1.6,1.1,1.6,2c0,2.2,0,4.2,0,6.4c0,1.3,0,2.9,0,4.2c1.4-1.8,2.7-3.8,4.1-5.8
	c0.9-1.3,1.6-2.4,2.5-3.8c0.7-1.1,2.9-1.6,3.6,0c0.7,1.8,1.6,3.6,2.5,5.3c0.7,1.6,1.6,3.1,2.5,4.7c-0.2-2.2-0.7-4.2-1.1-6.4
	c-0.5-2-0.9-4-1.4-6c-0.2-1.1,0.5-2.2,1.6-2.7c4.1-1.6,7.7-2.9,11.5-5.1c-0.5,0-0.9,0-1.4,0c-1.6,0-3.2,0-4.7,0.2
	c-1.6,0.2-3.2,0.2-4.7,0.4c-0.5,0-1.1,0.2-1.6,0.2c-1.1,0.2-2.3-0.2-2.7-1.6c-0.7-2.2-1.1-4.7-1.8-6.9c-0.7-2-1.1-4-1.8-5.8
	c-0.2-0.4-0.5-1.1-0.7-1.6c-0.7,3.1-1.1,6-1.4,8.9c-0.2,2.2-0.5,4.7-0.7,6.9c0,0.4-0.2,0.7-0.2,0.9c-0.2,0.7-0.9,1.1-1.8,1.1
	c-4.3,0-8.8,0-12.9,0.9c-0.2,0-0.2,0-0.5,0C941.5,190.7,942.8,191.1,944.4,191.6z M937.8,190.4C937.8,190.7,937.8,190.7,937.8,190.4
	L937.8,190.4z M937.8,190.4C937.8,190.7,937.8,190.7,937.8,190.4C937.6,190.7,937.6,190.7,937.8,190.4z"/>
<g id="wow">
	<path fill="#022433" d="M193,148.6c20.1-23.1,1.6-55.1-23.2-65.9c-13.6-6.1-30.1-8.1-44-2c-11.9,5.2-20.5,16.5-21.4,29.5
		c-8.7-8.7-22.4-11.7-33.6-5.8c-11.3,5.9-16.5,19.1-14.3,31.2c-23.3,0.6-46,15.8-47.5,40.8c-1.2,21,16.9,38.9,37.5,35.8
		c-11.9,18.8-2.2,44.5,19.8,51.2c24.3,7.2,46.2-10.1,51.4-33.2c12,11.8,32.1,6.2,36-10.1c16.9,18.5,47.3,15.8,61.4-5.6
		C230.9,190.1,217.9,159.9,193,148.6z M212.9,210.6c-12.4,21.5-43.7,24.9-58.7,4c-1-1.4-3.3-1-3.5,1c-1,17.3-22.3,23.7-32.4,9.4
		c-1.2-1.6-3.2-0.9-3.5,1c-2.9,21.8-22.7,39.6-45.3,34.1c-22-5.2-32.4-32.1-17.1-49.7c1.2-1.3,0.1-3.8-1.9-3.2
		c-22,6.9-41-13.6-37.2-35c3.8-21.7,24.9-33.2,45.4-32.9c1.3,0,2.2-1.2,1.9-2.3c-6.9-26.2,25.6-42.9,43.6-23.1
		c0.4,0.6,1,0.6,1.4,0.3c1.2,0.3,2.5-0.3,2.5-1.7C108,80,147.5,75.8,170.2,86.9c22.1,10.7,38.9,40.3,18.4,61c-1,1-0.4,2.6,0.9,3.2
		C212.9,160.1,226.2,187.7,212.9,210.6z"/>
	<path fill="#022433" d="M97.4,164.1c-0.5-0.9-1.4-1.8-3.4-0.9h-0.2l0.2,0.3c3.5,12.4,5.6,21.2,6.6,26.4c-0.8-0.8-2.1-2.1-4.1-4.1
		c-1.1-1.1-2.3-2.3-3.5-3.5c-6.3-6.3-7.9-6.7-8.7-6.4c-0.3,0.2-0.5,0.5-0.5,1.2c0,0.5,0,1.5,0,3.4c0,1.8,0.5,7.2,1.2,16
		c-0.5-0.5-1.2-1.2-2.4-2.6c-0.8-0.8-1.7-1.7-2.6-2.7c-0.9-1.1-1.8-2-2.7-3.1c-0.9-1.1-1.8-2-2.6-2.9l-1.8-2.1
		c-0.3-0.3-0.6-0.8-0.8-1.1c-0.2-0.3-0.5-0.6-0.6-0.9c-0.3-0.3-0.5-0.5-0.8-0.6c-0.3-0.2-0.8-0.2-1.2,0c-0.5,0.2-0.8,0.5-1.2,0.8
		c-0.2,0.3-0.3,0.6-0.3,0.8c0,0.3,0,0.5,0.2,0.6c0,0.2,0.2,0.3,0.3,0.5L87.4,205l2.6-0.9v-0.3c0-0.8-0.2-1.7-0.3-2.9
		c-0.2-1.2-0.3-2.4-0.5-4c-0.9-7.6-1.4-12.5-1.2-14.6c0.6,0.3,1.8,0.9,3.8,2.9c0.9,0.9,1.8,1.8,2.7,2.9c0.9,1.1,2.3,2.4,4,4.3
		c1.7,1.8,2.7,2.9,3.2,3.2l1.2,1.4c0.3,0.5,0.8,0.8,1.1,0.9s0.6,0.2,1.1,0s0.8-0.6,1.1-1.4v-0.2V196c-0.6-3.8-1.7-8.7-3-14
		c-0.6-2.3-1.2-4.6-1.8-6.7c-0.6-2.1-1.1-4-1.5-5.6c-0.5-1.7-0.8-2.9-1.1-3.8c-0.3-1.2-0.5-1.5-0.5-1.7L97.4,164.1L97.4,164.1z"/>
	<path fill="#022433" d="M119.5,163.5c-2.7-0.9-5.8-0.8-8.8,0.5c-3,1.2-5,3.5-5.9,6.9c-0.5,1.5-0.6,3.4-0.5,5.2
		c0.2,1.8,0.6,4,1.5,6.1s2,4,3.2,5.3c3.5,4,7.8,4.9,13,2.7c3.7-1.5,5.9-3.8,6.7-6.9c0.8-3.1,0.2-7-1.8-11.9
		C125.2,167.3,122.7,164.7,119.5,163.5z M120.6,186.7c-5.2,2.1-9-0.2-11.7-6.7c-1.1-2.6-1.2-5.2-0.6-7.5c0.8-2.4,2.1-4,4-4.9
		c2.4-1.1,4.7-1.2,6.9-0.5c2.4,0.8,4.3,2.6,5.5,5.5c1.2,3.2,1.5,6.1,0.8,8.5C124.7,183.8,123,185.6,120.6,186.7z"/>
	<path fill="#022433" d="M152.9,142l-0.3-0.8c-0.5-0.9-1.4-1.8-3.4-0.9l-0.3,0.2l0.2,0.3c3.5,12.4,5.6,21.2,6.6,26.4
		c-0.8-0.8-2.1-2.1-4.1-4.1c-1.1-1.1-2.3-2.3-3.5-3.5c-6.3-6.3-7.9-6.7-8.7-6.4c-0.3,0.2-0.5,0.5-0.5,1.2c0,0.5,0,1.5,0,3.4
		c0,1.8,0.5,7.2,1.2,16c-0.5-0.5-1.2-1.2-2.4-2.6c-0.8-0.8-1.7-1.7-2.6-2.7c-0.9-1.1-1.8-2-2.7-3.1s-1.8-2-2.6-2.9l-1.8-2.1
		c-0.5-0.5-0.8-0.8-0.9-1.2c-0.2-0.3-0.5-0.6-0.6-0.9c-0.3-0.3-0.5-0.5-0.8-0.6c-0.3-0.2-0.8-0.2-1.2,0c-0.5,0.2-0.8,0.5-1.2,0.8
		c-0.2,0.3-0.3,0.5-0.3,0.8s0,0.5,0.2,0.6c0,0.2,0.2,0.3,0.3,0.5l18.9,21.8l2.6-0.9V181c0-0.8-0.2-1.7-0.3-2.9
		c-0.2-1.2-0.3-2.4-0.5-4c-0.9-7.6-1.4-12.5-1.2-14.6c0.6,0.3,1.8,0.9,3.8,2.9c0.9,0.9,1.8,1.8,2.7,2.9c0.9,1.1,2.3,2.4,4,4.3
		c1.7,1.8,2.7,2.9,3.2,3.2l1.2,1.4c0.3,0.5,0.8,0.8,1.1,0.9c0.3,0.2,0.6,0.2,1.1,0s0.8-0.6,1.1-1.4v-0.2v-0.2
		c-0.6-3.8-1.7-8.7-3.1-14c-0.6-2.3-1.2-4.6-1.8-6.7c-0.6-2.1-1.1-4-1.5-5.6c-0.5-1.7-0.8-2.9-1.1-3.8
		C153.1,142.4,153.1,142.1,152.9,142z"/>
</g>
<g>
	<path fill="#C62B22" d="M564.5,126.5c2.5-3.5,5.6-6.2,8.5-7.4c-3.7-2.1-9.9-1.1-12.7,2c0-3,0.2-5.7-0.5-8.7c-0.5-1.9-1.5-3.5-2.7-5
		c-0.7-0.9-2.7-2.9-2.7-2.9c0.9,3.8-1,11.2-2.9,15c-9-4.1-19.5-7.6-32-9.4c-51.4-7.4-93.7,31-93.5,61c0,6-1.9,24.3,1.6,41.2
		c0.6-0.1,1.2-0.1,1.8,0c0.5,0.1,0.9,0.1,1.3,0.3c-0.1,2.4-1.7,12.1-0.4,7.9c5.1-15.9,14-32,29.7-44.2c4.9,13.9,22.3,30.3,38.5,29.7
		c0,0-1.8-1.9-3.5-3.5c-5.4-5.4-6.2-16.8,2.6-20.3c7.8-3.1,16.6-3.9,24.9-5.4c4.2-0.7,8.4-1.3,12.5-2.4c1.9-0.5,3.7-1.1,5.4-1.8
		c0.6-0.2,6.2-2.7,6.1-3c3.1,8.1,3.1,10,10.9,17.6c6.2,6.1,10.9,10.6,14.4,21.3c3,8.8,6.5,24.1,6.6,28.6c0.1,4.6,1.6-6.6,1.8-7.7
		c0.4,0,0.9,0,1.3,0c0.6,0.1,1.1,0.2,1.7,0.4c6.1-13,12.1-39.6,11.6-45.6C591,145.1,576.1,136.6,564.5,126.5z"/>
	<path fill="#F7B7A2" d="M495.5,313.5c54,6,102.7-32.1,108.6-85.3c6-53.2-33-101.2-87.1-107.2c-54-6-102.7,32.1-108.6,85.3
		C402.5,259.4,441.5,307.4,495.5,313.5z"/>
	<path fill="#2BD886" d="M409.2,206.5c-6,53.2,33,101.2,87.1,107.2c54,6,102.7-32.1,108.6-85.3L409.2,206.5z"/>
	<path opacity="0.2" fill="#FFFFFF" enable-background="new    " d="M411,213.9l-2.3-0.3c-0.4,13.3,2,22.9,4.1,30.9
		c2.2,0.3,8.4,0.6,16.2-2.2c9.6-3.5,13.8-24.9,13.8-24.9L411,213.9z"/>
	<path opacity="0.2" fill="#020203" enable-background="new    " d="M427.4,234.3c-7.5,2.7-14.2,2.4-16.6,2.2
		c0.4,2.7,1.4,5.5,1.9,8.1c2.2,0.3,8.4,0.6,16.2-2.2c9.6-3.5,13.8-24.9,13.8-24.9S437,230.8,427.4,234.3z"/>
	<path opacity="0.2" fill="#FFFFFF" enable-background="new    " d="M601.5,235.2c0,0,2.3,0.2,2.3,0.3c-2.6,13.1-7.1,21.9-10.8,29.3
		c-2.2-0.3-8.3-1.3-15.3-5.7c-8.6-5.5-8-27.3-8-27.3L601.5,235.2z"/>
	<path opacity="0.2" fill="#020203" enable-background="new    " d="M581,251.4c6.7,4.3,13.3,5.5,15.7,5.8c-1,2.6-2.6,5-3.7,7.5
		c-2.2-0.3-8.3-1.3-15.3-5.7c-8.6-5.5-8-27.3-8-27.3S572.5,245.9,581,251.4z"/>
	<g opacity="0.2">
		<path fill="#FFFFFF" d="M417.2,207.6l-5.8-0.8l-0.6,6.8l5.8,0.8L417.2,207.6z"/>
		<path fill="#FFFFFF" d="M460.9,212.5l-5.8-0.8l-0.6,6.8l5.8,0.8L460.9,212.5z"/>
		<path fill="#FFFFFF" d="M557.2,223.3l-5.8-0.8l-0.6,6.8l5.8,0.8L557.2,223.3z"/>
		<path fill="#FFFFFF" d="M600.9,228.2l-5.8-0.8l-0.6,6.8l5.8,0.8L600.9,228.2z"/>
	</g>
	<path fill="#25B872" d="M491.4,224.7c0.4,0.9,0.7,1.8,0.9,2.7c0.2,0.9,0.4,1.8,0.5,2.6c0.3,1.8,0.4,3.4,0.3,5.2
		c0,0.8,0,1.7-0.1,2.5s-0.3,1.7-0.5,2.5c-0.5,1.6-1.3,3.3-1.8,4.9c0,0-0.1,0.1,0,0.2c0,0.1,0.1,0.3,0.1,0.5c0.1,0.3,0.3,0.7,0.5,1.1
		c0.4,0.8,0.9,1.5,1.4,2.2c1,1.4,2.2,2.9,3.5,4.2c2.4,2.7,5.2,5.3,8.1,7.7l0.3,0.3l0.1,1c0.2,1.4,0.4,2.8,0.5,4.2
		c0.1,1.4,0.1,2.8,0.1,4.1c0,2.7,0,5.5-0.3,8.2c-0.4,2.7-0.9,5.4-1.7,8c-0.4,1.3-0.8,2.6-1.3,4c-0.5,1.3-1.1,2.6-1.8,3.9l-0.7-0.1
		c-0.4-1.5-0.8-2.9-1-4.3s-0.4-2.8-0.6-4.2c-0.3-2.8-0.3-5.5-0.2-8.3c0.1-2.7,0.6-5.4,1.1-8.1c0.3-1.4,0.5-2.7,0.8-4
		c0.3-1.4,0.8-2.6,1.2-4l0.5,1.3c-2.3-3-4.6-5.9-6.9-8.7l-3.5-4.3c-0.6-0.7-1.2-1.5-1.7-2.3c-0.3-0.4-0.6-0.8-0.8-1.3
		c-0.1-0.3-0.2-0.5-0.4-0.7c-0.1-0.3-0.2-0.6-0.2-1.1c-0.2-1.8-0.7-3.5-0.9-5.3c-0.1-0.8-0.1-1.7-0.1-2.6c0.1-0.8,0.2-1.7,0.3-2.5
		c0.3-1.7,0.7-3.3,1.2-4.9c0.3-0.8,0.6-1.6,1-2.4c0.4-0.8,0.8-1.6,1.3-2.4h0.8L491.4,224.7L491.4,224.7z"/>
	<path fill="#25B872" d="M501.1,270.3c-0.2-3.7-0.3-7.4-0.3-11.1l-0.1-5.5v-5.5c0-1.8-0.1-3.7-0.2-5.6c0-1.8,0.1-3.7,0.5-5.5
		s0.9-3.6,1.5-5.3c0.7-1.7,1.5-3.5,2.7-5.2l0.7,0.1c0.8,1.9,1.3,3.9,1.6,5.7c0.3,1.9,0.5,3.8,0.5,5.6s-0.1,3.7-0.6,5.5
		c-0.4,1.8-0.9,3.6-1.2,5.4l-1,5.4l-1.1,5.4c-0.8,3.6-1.6,7.2-2.4,10.8L501.1,270.3z"/>
	<path fill="#25B872" d="M604,236.6c-16.5-0.1-32.9-1.1-49.4-2.3c-16.4-1.3-32.7-2.9-49.1-4.8c-16.3-1.9-32.6-4.1-48.9-6.6
		c-16.3-2.6-32.5-5.4-48.6-9.1l0.1-0.5l24.5,2.7l24.5,2.8l49,5.6l49,5.8l24.5,2.9l24.5,3L604,236.6L604,236.6z"/>
	<path fill="#25B872" d="M499.6,222.9c1.4,0.2,2.7-0.8,2.9-2.2c0.2-1.4-0.9-2.7-2.3-2.8c-1.4-0.2-2.7,0.8-2.9,2.2
		C497.2,221.4,498.2,222.7,499.6,222.9z"/>
	<path fill="none" stroke="#25B872" stroke-width="13.1854" stroke-miterlimit="10" d="M492.7,224.2l0.9-8.3"/>
	<path opacity="0.15" fill="#FFFFFF" enable-background="new    " d="M457.8,210.4c5.9-52.9,32.5-93.4,59.4-90.8
		c-53.7-5.6-101.9,32.5-107.8,85.4s32.7,100.6,86.3,107.1C468.8,308.7,451.8,263.3,457.8,210.4z"/>
	<g id="aboutEye1">
		<path fill="#1A1A1A" d="M476.5,166.9c2.6,0.4,4.9-1.2,5.1-3.5s-1.8-4.5-4.4-4.8c-2.6-0.4-4.9,1.2-5.1,3.5
			C472,164.3,473.9,166.5,476.5,166.9z"/>
		<path fill="#1A1A1A" d="M547.3,174.8c2.6,0.4,4.9-1.2,5.1-3.5s-1.8-4.5-4.4-4.8s-4.9,1.2-5.1,3.5
			C542.8,172.2,544.7,174.4,547.3,174.8z"/>
	</g>
	<path fill="#1A1A1A" d="M518.9,194.8c-3.5,0.2-7.4,0.2-11.5-0.3c-18.2-2.2-26.3-11-26.6-11.4c0,0,10.5,6.4,26.9,8.3
		c16.7,2,31.6-1.5,31.6-1.5C538.7,190.2,530.7,194,518.9,194.8z"/>
	<path fill="#1A1A1A" d="M540,190.6c-1-2.2-3.3-4.1-6-5c-0.8-0.2-1.6,0-1.8,0.6c-0.1,0.3,0,0.5,0.1,0.7c0.2,0.3,0.5,0.6,0.9,0.7
		c1.9,0.6,3.4,1.9,4.1,3.5c0.7,1.6,0.5,3.2-0.5,4.5c-0.2,0.2-0.2,0.5-0.2,0.7c0.1,0.3,0.3,0.6,0.6,0.8c0.2,0.1,0.4,0.2,0.6,0.2
		c0.5,0.1,1.1-0.1,1.4-0.4C540.7,195.1,541,192.7,540,190.6z"/>
	<path fill="#1A1A1A" d="M479.9,183.6c1.4-1.8,3.9-3.1,6.7-3.2c0.8,0,1.5,0.4,1.7,1.1c0.1,0.3,0,0.5-0.2,0.7s-0.6,0.4-1,0.4
		c-1.9,0.1-3.6,0.9-4.6,2.2s-1,3-0.2,4.5c0.1,0.2,0.2,0.5,0,0.7c-0.1,0.3-0.4,0.5-0.8,0.6c-0.2,0.1-0.4,0.1-0.7,0
		c-0.6,0-1.1-0.4-1.3-0.8C478.5,187.9,478.6,185.4,479.9,183.6z"/>
	<path opacity="0.1" fill="#020203" enable-background="new    " d="M489.7,245.2c0,0,1.4,3.7-0.5,20.9s-3.9,27.1-3.9,27.1l11.8,3.3
		l3.9-34.9L489.7,245.2z"/>
	<path opacity="0.1" fill="#020203" enable-background="new    " d="M515.6,248.1c0,0-2.2,3.3-4.1,20.5s-2.2,27.3-2.2,27.3
		l-12.3,0.6l3.9-34.9L515.6,248.1z"/>
	<path fill="#FAD655" d="M470.4,276.9c-23.4-3.8-30.3,8.3-31.3,10.5c15.8,14.9,35.6,24,57.2,26.4l2.1-18.4
		C498.3,295.4,495.9,281,470.4,276.9z"/>
	<path opacity="0.2" fill="#020203" enable-background="new    " d="M498.1,297c0-0.2,0.3-7.5-9-13.3c1.9,3,1.5,6.8,1.5,6.9v0.1
		c-0.8,7.5-8.3,12.7-15.8,10.8c-12.6-3.3-24.2-8.9-34.9-17.1c16.3,15.1,35.3,23.7,56.7,26.1C496.6,310.6,497.6,302,498.1,297z"/>
	<path fill="#FAD655" d="M529.7,283.5c23.7,1.5,27.7,14.8,28.2,17.2c-18.7,11-40,15.6-61.6,13.1l2.1-18.4
		C498.3,295.4,503.9,281.9,529.7,283.5z"/>
	<path opacity="0.2" fill="#020203" enable-background="new    " d="M498.1,297c0-0.2,0.5-3.7,4.2-6.6c6.4,12.3,9.9,16.4,17.6,16.2
		c8-0.2,15.2-2.5,22.3-6.1c6.8-3.4,6.2-10.1,6.7-11.5c4.3,2.6,6.9,6.3,8.1,9.1c-20,12-39.1,14.9-60.4,12.5
		C496.6,310.6,497.5,302,498.1,297z"/>
	<path opacity="0.1" fill="#FFFFFF" enable-background="new    " d="M530.5,291.8c7.4-0.2,12.9-1.6,17.1-3.6
		c-4.1-2.4-9.9-4.2-18-4.7c-10.3-0.6-17.3,1.1-22.2,3.5C512.1,289.8,519.4,292.1,530.5,291.8z"/>
	<path opacity="0.1" fill="#FFFFFF" enable-background="new    " d="M467.9,284.8c-7.2-1.8-12.3-4.5-15.8-7.3
		c4.6-1.4,10.6-1.9,18.6-0.6c10.2,1.7,16.7,5,20.8,8.3C486.3,286.9,478.7,287.6,467.9,284.8z"/>
	<path fill="#25B872" d="M499.4,258.7l16.7-9.9l-12,14.4L499.4,258.7z"/>
	<g id="aboutBrow1">
		<path fill="#A03520" d="M484.1,146.5v1c0,1.1-1.2,1.9-2.5,1.6c-2-0.4-4.8-0.8-6.5-0.6c-8.2,0.6-10.1,2.2-10.1,2.2
			s1.1-6.4,16.6-6.2C482.9,144.5,484.1,145.5,484.1,146.5z"/>
		<path fill="#A03520" d="M543,154.5l-0.1,1c-0.1,1.1,1,2,2.4,1.8c2.1-0.2,4.9-0.4,6.5-0.1c8.1,1.3,9.9,3.1,9.9,3.1s-0.5-6.5-16-7.7
			C544.4,152.5,543.1,153.4,543,154.5z"/>
	</g>
</g>
<g id="aboutM1">
	<path fill="#5C342E" d="M236.4,366.8c0,0,1.4-1.6-1.4-6.9c-9.7-18.1-19.5-24.8-32.2-29.7c-12.7-5-1.9-6.9-6-10.4
		c-3.3-2.8-23.7-4.1-23.7-4.1s3.2-5.1,0.6-6.5c-2.6-1.3-22.9,7-26.5,7.2c-3.7,0.2,9.8-4.6-0.7-3.5s-17.9,11.6-20.1,12.2
		c-2.1,0.6-1.8,0.7,0.1-3.9c2.3-5.5-23.8,11.8-25.2,17.4c-0.6,2.7,2.9,3.1-2.4,6.7s-1.4,7-7,11.6s-6.2,33.1-5.3,37
		C87.5,398,236.4,366.8,236.4,366.8z"/>
	<path fill="#F7B7A2" d="M186.8,508.7c51.7-11.9,84.2-62.8,72.5-113.7c-11.7-50.9-63.1-82.5-114.9-70.7
		C92.7,336.2,60.2,387.1,71.9,438C83.6,489,135,520.6,186.8,508.7z"/>
	<path fill="#A5A4A4" d="M71.9,438.3c11.7,50.9,63.1,82.5,114.9,70.7c51.7-11.9,84.2-62.8,72.5-113.7L71.9,438.3z"/>
	<g opacity="0.4">
		<path fill="#FFFFFF" d="M172.8,478.2l-1.9,5.3l5.2,1.3l2-5.4L172.8,478.2z"/>
		<path fill="#FFFFFF" d="M164.3,476.8l-0.7,5.5l5.5,0.1l0.7-5.5L164.3,476.8z"/>
		<path fill="#FFFFFF" d="M155.5,477.1l0.1,5.5l5.6-0.7l-0.1-5.5L155.5,477.1z"/>
		<path fill="#FFFFFF" d="M147.1,478.6l0.9,5.3l5.5-1.5l-0.9-5.3L147.1,478.6z"/>
		<path fill="#FFFFFF" d="M138.7,481l1.6,5.1l5.3-2.1l-1.6-5.1L138.7,481z"/>
		<path fill="#FFFFFF" d="M130.9,485.4l2.6,4.6l4.9-3.1l-2.7-4.5L130.9,485.4z"/>
		<path fill="#FFFFFF" d="M124.2,492.3l4.1,3.3l3.8-4.4l-4.1-3.3L124.2,492.3z"/>
		<path fill="#FFFFFF" d="M120.3,500.7l5.2,1.4l2-5.3l-5.3-1.4L120.3,500.7z"/>
		<path fill="#FFFFFF" d="M180.3,482.8l-2.8,3.5l3.9,2.8C181,487,180.7,484.9,180.3,482.8z"/>
	</g>
	<g id="aboutEye3">
		<path fill="#1A1A1A" d="M120.8,379.9c2.5-0.6,4.1-3,3.6-5.2s-2.8-3.5-5.3-2.9s-4.1,3-3.6,5.2C116,379.3,118.4,380.6,120.8,379.9z"
			/>
		<path fill="#1A1A1A" d="M187.6,360.1c2.5-0.6,4.1-3,3.6-5.2c-0.4-2.2-2.8-3.5-5.3-2.9s-4.1,3-3.6,5.2
			C182.8,359.5,185.2,360.8,187.6,360.1z"/>
	</g>
	<path fill="#50504F" d="M159.6,447.5c0.9,0.1,1.7,0.2,2.4,0.4c0.8,0.1,1.5,0.4,2.3,0.6c1.5,0.4,3,0.9,4.4,1.5c2.9,1.1,5.5,2.5,8,4
		l-4.4,1.2c0.8-1.2,1.7-2.5,2.6-3.7c0.9-1.2,1.9-2.4,2.9-3.5c1-1.2,2.1-2.3,3.2-3.4c1.1-1.1,2.3-2.2,3.7-3.2c-0.3,1.6-0.7,3-1.2,4.4
		s-1.1,2.8-1.7,4.2c-0.6,1.4-1.3,2.7-2,4s-1.5,2.6-2.3,3.9l-1.7,2.7l-2.7-1.5c-2.6-1.5-5.1-3.1-7.4-5c-1.2-0.9-2.2-1.9-3.3-3
		c-0.5-0.5-1-1.1-1.5-1.7C160.5,448.8,160.1,448.2,159.6,447.5z"/>
	<path fill="#50504F" d="M177.4,455.1l9,53.7l-14.1-52.5L177.4,455.1z"/>
	<path fill="#C2C1C1" d="M76.1,445.7l-2.3,0.6c3.5,11.8,8.6,19.2,12.9,25.5c2.2-0.6,8.2-2.5,14.8-7.7c8.2-6.5,6-26.7,6-26.7
		L76.1,445.7z"/>
	<path opacity="0.2" fill="#020203" enable-background="new    " d="M97.7,457.8c-6.4,5.1-12.9,7.2-15.3,7.9
		c1.1,2.3,2.9,4.3,4.3,6.4c2.2-0.6,8.3-2.5,14.9-7.7c8.2-6.5,6-26.8,6-26.8S105.8,451.3,97.7,457.8z"/>
	<path fill="#C2C1C1" d="M259.4,402.6l2.3-0.6c1.4,12.4-0.4,21.6-1.8,29.4c-2.2,0.6-8.4,1.8-16.3,0.5c-9.8-1.7-15.6-21-15.6-21
		L259.4,402.6z"/>
	<path opacity="0.2" fill="#020203" enable-background="new    " d="M244.6,424.1c7.7,1.4,14.4,0.1,16.8-0.6c-0.1,2.6-1,5.3-1.4,7.9
		c-2.2,0.6-8.4,1.8-16.3,0.5c-9.9-1.7-15.7-21.1-15.7-21.1S234.8,422.3,244.6,424.1z"/>
	<g opacity="0.4">
		<path fill="#FFFFFF" d="M186,475l3.6,3.8l-4.2,4l-3.6-3.8L186,475z"/>
		<path fill="#FFFFFF" d="M193.1,470l2.7,4.5l-4.9,3.1l-2.6-4.6L193.1,470z"/>
		<path fill="#FFFFFF" d="M201,466.4l1.9,4.9l-5.3,2.4l-1.8-5L201,466.4z"/>
		<path fill="#FFFFFF" d="M209.2,464l1.1,5.3l-5.5,1.6l-1.1-5.3L209.2,464z"/>
		<path fill="#FFFFFF" d="M217.8,462.5l0.4,5.4l-5.5,0.9l-0.4-5.4L217.8,462.5z"/>
		<path fill="#FFFFFF" d="M226.7,463l-0.7,5.5l-5.5-0.1l0.7-5.5L226.7,463z"/>
		<path fill="#FFFFFF" d="M235.6,466.3l-2.5,5.1l-4.9-1.9l2.5-5.2L235.6,466.3z"/>
		<path fill="#FFFFFF" d="M242.7,472.1l-4.2,4.1l-3.7-3.7l4.2-4.1L242.7,472.1z"/>
		<path fill="#FFFFFF" d="M181.3,482.7l3.8,1.7l-2.5,4.6C182.1,486.9,181.7,484.8,181.3,482.7z"/>
	</g>
	<g opacity="0.4">
		<path fill="#FFFFFF" d="M88.1,434.6l-5.4,1.4l1.3,6.6l5.4-1.4L88.1,434.6z"/>
		<path fill="#FFFFFF" d="M79.7,436.5l-5.4,1.4l1.3,6.6l5.4-1.4L79.7,436.5z"/>
		<path fill="#FFFFFF" d="M96.5,432.7l-5.4,1.4l1.3,6.6l5.4-1.4L96.5,432.7z"/>
		<path fill="#FFFFFF" d="M104.9,430.8l-5.4,1.4l1.3,6.6l5.4-1.4L104.9,430.8z"/>
		<path fill="#FFFFFF" d="M113.3,428.8l-5.4,1.4l1.3,6.6l5.4-1.4L113.3,428.8z"/>
		<path fill="#FFFFFF" d="M121.6,426.9l-5.4,1.4l1.3,6.6l5.4-1.4L121.6,426.9z"/>
		<path fill="#FFFFFF" d="M130,425l-5.4,1.4l1.3,6.6l5.4-1.4L130,425z"/>
		<path fill="#FFFFFF" d="M138.4,423.1l-5.4,1.4l1.3,6.6l5.4-1.4L138.4,423.1z"/>
		<path fill="#FFFFFF" d="M146.8,421.1l-5.4,1.4l1.3,6.6l5.4-1.4L146.8,421.1z"/>
		<path fill="#FFFFFF" d="M155.1,419.2l-5.4,1.4l1.3,6.6l5.4-1.4L155.1,419.2z"/>
		<path fill="#FFFFFF" d="M163.5,417.3l-5.4,1.4l1.3,6.6l5.4-1.4L163.5,417.3z"/>
		<path fill="#FFFFFF" d="M171.9,415.4l-5.4,1.4l1.3,6.6l5.4-1.4L171.9,415.4z"/>
		<path fill="#FFFFFF" d="M180.3,413.4l-5.4,1.4l1.3,6.6l5.4-1.4L180.3,413.4z"/>
		<path fill="#FFFFFF" d="M188.7,411.5l-5.4,1.4l1.3,6.6l5.4-1.4L188.7,411.5z"/>
		<path fill="#FFFFFF" d="M197,409.6l-5.4,1.4l1.3,6.6l5.4-1.4L197,409.6z"/>
		<path fill="#FFFFFF" d="M205.4,407.7l-5.4,1.4l1.3,6.6l5.4-1.4L205.4,407.7z"/>
		<path fill="#FFFFFF" d="M213.8,405.7l-5.4,1.4l1.3,6.6l5.4-1.4L213.8,405.7z"/>
		<path fill="#FFFFFF" d="M222.2,403.8l-5.4,1.4l1.3,6.6l5.4-1.4L222.2,403.8z"/>
		<path fill="#FFFFFF" d="M230.6,401.9l-5.4,1.4l1.3,6.6l5.4-1.4L230.6,401.9z"/>
		<path fill="#FFFFFF" d="M238.9,399.9l-5.4,1.4l1.3,6.6l5.4-1.4L238.9,399.9z"/>
		<path fill="#FFFFFF" d="M247.3,398l-5.4,1.4l1.3,6.6l5.4-1.4L247.3,398z"/>
		<path fill="#FFFFFF" d="M255.7,396.1l-5.4,1.4l1.3,6.6l5.4-1.4L255.7,396.1z"/>
	</g>
	<path opacity="0.15" fill="#FFFFFF" enable-background="new    " d="M117.6,427.6C106,377,117.4,331.1,143,324.7
		c-51.3,12.2-83.4,62.9-71.7,113.5c11.6,50.7,62.6,82.2,114.1,70.8C159.6,514.6,129.3,478.3,117.6,427.6z"/>
	<path fill="none" stroke="#50504F" stroke-width="7.192" stroke-miterlimit="10" d="M162.9,423.7c1-0.3,1.6-1.2,1.4-2
		c-0.2-0.9-1.1-1.4-2-1.1c-1,0.3-1.6,1.2-1.4,2C161,423.5,161.9,424,162.9,423.7z"/>
	<path fill="none" stroke="#50504F" stroke-width="7.192" stroke-miterlimit="10" d="M168.5,422.2c1-0.3,1.6-1.2,1.4-2
		c-0.2-0.9-1.1-1.4-2-1.1s-1.6,1.2-1.4,2C166.7,422,167.6,422.5,168.5,422.2z"/>
	<path opacity="0.5" fill="none" stroke="#FFFFFF" stroke-width="9.5894" stroke-miterlimit="10" enable-background="new    " d="
		M163.5,421.6c0,0-1.1,5.4,1.7,8.4c2.7,3-10.5,10.3-10.5,10.3"/>
	<path opacity="0.5" fill="none" stroke="#FFFFFF" stroke-width="9.5894" stroke-miterlimit="10" enable-background="new    " d="
		M168,420.1c0,0-4.5,4.4-2,5.7c2.5,1.2,3.6,4.8,2.5,6"/>
	<path fill="#50504F" d="M175.2,435.5l-0.9,0.5c-0.9,0.5-1.9,0.3-2.3-0.5l-1.4-2.3c-0.4-0.7-0.1-1.7,0.7-2.2l0.9-0.5
		c0.9-0.5,1.9-0.3,2.3,0.5l1.4,2.3C176.4,434.1,176,435.1,175.2,435.5z"/>
	<path fill="#50504F" d="M151.7,442.9l-0.4-0.7c-0.4-0.7-0.1-1.7,0.7-2.2l2.6-1.4c0.8-0.4,1.9-0.3,2.3,0.5l0.4,0.7
		c0.4,0.7,0.1,1.7-0.7,2.2l-2.6,1.4C153.2,443.8,152.2,443.6,151.7,442.9z"/>
	<path fill="#1A1A1A" d="M136.2,397c16.4-1.3,33.1-6.4,47.6-14.5c-0.3,8.6-9.2,17.9-20.1,21.1C152.7,406.9,140.6,403.8,136.2,397z"
		/>
	<path fill="#1A1A1A" d="M154.2,394.1c-7,1.5-14.1,2.2-20.8,2.1c-1,0-1.7-0.7-1.5-1.4s1.1-1.4,2.2-1.4c16.9,0.2,35.9-5.1,50.8-14.1
		c0.8-0.5,2-0.5,2.6,0.1s0.3,1.5-0.6,2C177.1,387.3,165.7,391.6,154.2,394.1z"/>
	<path fill="#1A1A1A" d="M162.6,406.1c-10.9,2.5-22.4-0.6-27-7.6c-0.5-0.7,0-1.6,0.9-2.1c1-0.5,2.1-0.4,2.5,0.3
		c4.3,6.5,15.5,9,25.4,5.9s17.8-11.8,17.8-19.7c0-0.8,0.9-1.6,1.9-1.7c1-0.2,1.9,0.4,1.9,1.2c-0.1,9.2-9.3,19.3-20.9,23
		C164.4,405.7,163.5,405.9,162.6,406.1z"/>
	<path fill="#1A1A1A" d="M187.4,379.6c-1.5-1.7-4.1-2.6-6.9-2.4c-0.8,0.1-1.4,0.6-1.5,1.2c0,0.3,0.1,0.5,0.3,0.7s0.6,0.3,1,0.3
		c1.9-0.1,3.6,0.5,4.7,1.7c1.1,1.2,1.3,2.9,0.7,4.4c-0.1,0.3-0.1,0.5,0,0.7s0.4,0.4,0.8,0.5c0.2,0,0.4,0,0.6,0
		c0.5-0.1,1-0.4,1.2-0.9C189.3,383.6,188.9,381.3,187.4,379.6z"/>
	<path fill="#1A1A1A" d="M131.8,394.2c0.7-2.3,2.7-4.4,5.3-5.6c0.7-0.3,1.5-0.2,1.8,0.4c0.2,0.3,0.1,0.5,0,0.7
		c-0.1,0.3-0.4,0.6-0.8,0.8c-1.7,0.8-3.1,2.3-3.6,3.8c-0.5,1.6-0.1,3.2,1,4.3c0.2,0.2,0.3,0.4,0.2,0.7c0,0.3-0.2,0.6-0.5,0.8
		c-0.2,0.1-0.4,0.2-0.6,0.3c-0.5,0.2-1.1,0.1-1.4-0.2C131.6,398.8,131,396.4,131.8,394.2z"/>
	<path fill="#ED6A7D" d="M147.8,406.6c2.9-4.8,10.4-8.2,15.7-7.7c4.2-3.3,11.4-4.7,16.9-2.2c-3.6,4-9.3,8-15.1,9.5
		C159.4,407.6,152.8,407.9,147.8,406.6z"/>
	<path opacity="0.1" fill="#020203" enable-background="new    " d="M159.5,447c0,0,2.6,3.3,6.7,21.1c4.1,17.9,5.7,28.5,5.7,28.5
		L184,496l-8.9-38.8L159.5,447z"/>
	<path opacity="0.1" fill="#020203" enable-background="new    " d="M184.4,441.3c0,0-0.9,4.1,3.2,21.9c4.1,17.9,7.4,28.1,7.4,28.1
		l-11.1,4.7l-8.9-38.8L184.4,441.3z"/>
	<path fill="#31A3F5" d="M151.1,483.4c-22.8,4-25.2,17.4-25.4,19.8c19.4,8.6,40.5,10.6,61.2,5.8l-4-17.6
		C182.8,491.4,175.9,479,151.1,483.4z"/>
	<path opacity="0.2" fill="#020203" enable-background="new    " d="M183.1,493c-0.1-0.2-2.1-7-12.7-9.3c2.7,2.2,3.6,5.7,3.6,5.9
		v0.1c1.7,7.2-3.5,14.4-11,15.1c-12.7,1.1-25.2-0.4-37.7-4.5c19.9,8.6,40.2,10.4,60.7,5.7C186.1,505.9,184.2,497.7,183.1,493z"/>
	<path fill="#31A3F5" d="M207.8,470.3c22.2-6.3,30.3,4.7,31.5,6.7c-13.7,16.2-31.8,27.2-52.5,32l-4-17.6
		C182.8,491.4,183.6,477.2,207.8,470.3z"/>
	<path opacity="0.2" fill="#020203" enable-background="new    " d="M183.1,493c-0.1-0.2-0.7-3.6,1.7-7.4c9.9,9.3,14.4,12,21.4,9.3
		c7.3-2.8,13.1-7.2,18.6-12.8c5.2-5.3,2.4-11.3,2.4-12.8c4.8,1,8.4,3.5,10.5,5.7c-14.6,17.6-31.1,26.4-51.6,31.1
		C186.1,506,184.2,497.7,183.1,493z"/>
	<path opacity="0.2" fill="#FFFFFF" enable-background="new    " d="M211.3,477.7c6.8-2.6,11.4-5.7,14.5-8.8
		c-4.6-0.8-10.5-0.7-18.1,1.5c-9.7,2.8-15.6,6.7-19.3,10.4C193.7,481.8,201.2,481.6,211.3,477.7z"/>
	<path opacity="0.2" fill="#FFFFFF" enable-background="new    " d="M151.3,491.5c-7.2,0.6-12.7-0.2-16.9-1.6
		c3.8-2.7,9.1-5.2,16.9-6.6c9.9-1.8,17-0.8,21.9,0.9C168.9,487.5,162.2,490.5,151.3,491.5z"/>
</g>
<g>
	<path fill="#F7B7A2" d="M780.6,513.7c47.4,8.4,92.5-22.7,100.7-69.3s-23.6-91.2-71.1-99.6c-47.4-8.4-92.5,22.7-100.7,69.3
		C701.4,460.7,733.2,505.3,780.6,513.7z"/>
	<path fill="#CCBDF4" d="M709.5,414.2c-8.2,46.6,23.6,91.2,71,99.5c47.4,8.4,92.5-22.7,100.7-69.3L709.5,414.2z"/>
	<g id="aboutEye2">
		<path fill="#1A1A1A" d="M776.6,381c2.2,0.4,4.2-1,4.6-3.2c0.4-2.1-1.1-4.2-3.2-4.6c-2.2-0.4-4.2,1-4.6,3.2S774.4,380.6,776.6,381z
			"/>
		<path fill="#1A1A1A" d="M830.7,390.5c2.2,0.4,4.2-1,4.6-3.2c0.4-2.1-1.1-4.2-3.2-4.6c-2.2-0.4-4.2,1-4.6,3.2
			S828.5,390.2,830.7,390.5z"/>
	</g>
	<path fill="#532775" d="M779.5,454.4c0.7,0.5,1.3,1,1.9,1.4c0.6,0.5,1.2,1,1.7,1.5c1.1,1.1,2.1,2.2,3.1,3.3
		c1.9,2.3,3.6,4.8,5.1,7.3l-4.7-0.8c2.2-1.8,4.6-3.5,7.1-5c1.3-0.7,2.6-1.4,3.9-2.1c1.4-0.6,2.8-1.2,4.3-1.6
		c-0.7,1.4-1.5,2.7-2.4,3.9c-0.9,1.2-1.8,2.4-2.7,3.5c-1.9,2.2-4,4.2-6.2,6.1l-2.8,2.3l-2-3.1c-1.5-2.5-2.9-5.2-4-7.9
		c-0.6-1.4-1-2.8-1.5-4.3c-0.2-0.8-0.4-1.5-0.6-2.3C779.7,456,779.5,455.2,779.5,454.4z"/>
	<path fill="#532775" d="M790.6,470l-10,43.8l5.5-44.6L790.6,470z"/>
	<g opacity="0.4">
		<path fill="#FFFFFF" d="M717.3,415.6l-2.4-0.4l-2.2,12.5l2.4,0.4L717.3,415.6z"/>
		<path fill="#FFFFFF" d="M713.4,414.9l-2.4-0.4l-2.2,12.5l2.4,0.4L713.4,414.9z"/>
		<path fill="#FFFFFF" d="M721.2,416.3l-2.4-0.4l-2.2,12.5l2.4,0.4L721.2,416.3z"/>
		<path fill="#FFFFFF" d="M725,417l-2.4-0.4l-2.2,12.5l2.4,0.4L725,417z"/>
		<path fill="#FFFFFF" d="M728.9,417.7l-2.4-0.4l-2.2,12.5l2.4,0.4L728.9,417.7z"/>
		<path fill="#FFFFFF" d="M732.8,418.3l-2.4-0.4l-2.2,12.5l2.4,0.4L732.8,418.3z"/>
		<path fill="#FFFFFF" d="M736.7,419l-2.4-0.4l-2.2,12.5l2.4,0.4L736.7,419z"/>
		<path fill="#FFFFFF" d="M740.5,419.7l-2.4-0.4l-2.2,12.5l2.4,0.4L740.5,419.7z"/>
		<path fill="#FFFFFF" d="M744.4,420.4L742,420l-2.2,12.5l2.4,0.4L744.4,420.4z"/>
		<path fill="#FFFFFF" d="M748.3,421.1l-2.4-0.4l-2.2,12.5l2.4,0.4L748.3,421.1z"/>
		<path fill="#FFFFFF" d="M752.2,421.8l-2.4-0.4l-2.2,12.5l2.4,0.4L752.2,421.8z"/>
		<path fill="#FFFFFF" d="M756,422.4l-2.4-0.4l-2.2,12.5l2.4,0.4L756,422.4z"/>
		<path fill="#FFFFFF" d="M759.9,423.1l-2.4-0.4l-2.2,12.5l2.4,0.4L759.9,423.1z"/>
		<path fill="#FFFFFF" d="M763.8,423.8l-2.4-0.4l-2.2,12.5l2.4,0.4L763.8,423.8z"/>
		<path fill="#FFFFFF" d="M767.7,424.5l-2.4-0.4l-2.2,12.5l2.4,0.4L767.7,424.5z"/>
		<path fill="#FFFFFF" d="M771.5,425.2l-2.4-0.4l-2.2,12.5l2.4,0.4L771.5,425.2z"/>
		<path fill="#FFFFFF" d="M775.4,425.8l-2.4-0.4l-2.2,12.5l2.4,0.4L775.4,425.8z"/>
		<path fill="#FFFFFF" d="M779.3,426.5l-2.4-0.4l-2.2,12.5l2.4,0.4L779.3,426.5z"/>
		<path fill="#FFFFFF" d="M783.2,427.2l-2.4-0.4l-2.2,12.5l2.4,0.4L783.2,427.2z"/>
		<path fill="#FFFFFF" d="M787,427.9l-2.4-0.4l-2.2,12.5l2.4,0.4L787,427.9z"/>
		<path fill="#FFFFFF" d="M790.9,428.6l-2.4-0.4l-2.2,12.5l2.4,0.4L790.9,428.6z"/>
		<path fill="#FFFFFF" d="M794.8,429.3l-2.4-0.4l-2.2,12.5l2.4,0.4L794.8,429.3z"/>
	</g>
	<path opacity="0.2" fill="#FFFFFF" enable-background="new    " d="M810.9,343.8c-0.1,0-0.1,0-0.2,0c23.7,4.3,36.3,45.5,28.1,92
		c-8.2,46.6-34.1,80.9-57.8,76.9c0.1,0,0.1,0,0.2,0c47.4,8.4,92.6-22.7,100.8-69.3S858.4,352.2,810.9,343.8z"/>
	<g id="aboutHand1">
		<path fill="#F9C6B2" d="M881.3,438.4c0.2-1,0.5-2,0.8-2.9c2.5-4.5,6.4-5.6,7.6-6.3c1.8-1.1,4.4-4.9,6.7-4.3
			c0.3,0.1,1.4,0.7,1.8,1.9c0.4,1.3-5.2,8-5.2,8l-0.2,0.9c0,0,12.9,1.9,15.7,2.8c1.3,0.4,1.7,1.4,1.5,2.2c-0.1,0.5-0.3,0.9-0.6,1.3
			c-0.1,0-0.1,0.1-0.1,0.1s0,0-0.1,0s-0.1,0.1-0.1,0.1H909c-0.1,0-0.1,0-0.1,0.1h-0.1c-0.1,0-0.1,0-0.1,0.1h-0.1h-0.1h-0.1h-0.1
			c0,0,0,0-0.1,0h-0.1l0,0H908l0,0c0,0-0.1,0-0.2,0c-1.8-0.3-10.3-1.8-10.3-1.8l-0.2,0.9c0,0,9.8,1.7,12.6,2.2
			c1,0.2,1.4,0.8,1.4,1.6c0,0.1,0,0.1,0,0.2c0,0,0,0.1,0,0.2l0,0c0,0,0,0.1,0,0.2l0,0c0,0.1-0.1,0.3-0.2,0.4l0,0
			c0,0-0.1,0.1-0.1,0.2l0,0c0,0-0.1,0.1-0.1,0.2l0,0c-0.1,0-0.1,0.1-0.1,0.2c-0.1,0-0.1,0.1-0.1,0.2c0,0,0,0-0.1,0s-0.1,0.1-0.1,0.1
			h-0.1c-0.1,0-0.1,0.1-0.1,0.1h-0.1c-0.1,0-0.1,0.1-0.2,0.1c-0.1,0-0.1,0.1-0.2,0.1c0,0,0,0-0.1,0h-0.1l0,0h-0.1l0,0
			c0,0-0.1,0-0.2,0c-1.6-0.3-12.4-2.2-12.4-2.2l-0.3,1.4c0,0,8.3,1.5,10.4,1.8c1.1,0.2,1.3,1.4,1.1,2.4c0,0.2-0.1,0.3-0.2,0.4
			l-0.1,0.1l0,0c0,0-0.1,0-0.1,0.1c0,0,0,0-0.1,0c0,0-0.1,0-0.1,0.1c0,0,0,0-0.1,0c0,0-0.1,0-0.1,0.1h-0.1h-0.1H907h-0.1h-0.1h-0.1
			h-0.1h-0.1h-0.1h-0.1h-0.1c0,0,0,0-0.1,0c0,0,0,0-0.1,0l0,0c0,0,0,0-0.1,0l0,0h-0.1c-1.8-0.3-10.3-1.8-10.3-1.8l-0.2,1.4
			c0,0,5.6,1,8,1.4c1.3,0.2,1.6,1.4,1.2,2.5v0.1l0,0v0.1c0,0,0,0,0,0.1c0,0,0,0-0.1,0.1c0,0,0,0,0,0.1c0,0,0,0-0.1,0.1
			c0,0,0,0-0.1,0.1c0,0-0.1,0-0.1,0.1c0,0,0,0-0.1,0.1c0,0-0.1,0-0.1,0.1c0,0-0.1,0-0.1,0.1c0,0-0.1,0-0.1,0.1c0,0-0.1,0-0.1,0.1
			c0,0-0.1,0-0.1,0.1c0,0-0.1,0-0.1,0.1h-0.1c0,0-0.1,0-0.1,0.1h-0.1H903h-0.1h-0.1h-0.1h-0.1h-0.1h-0.1c0,0,0,0-0.1,0h-0.1l0,0
			c0,0-0.1,0-0.2,0c-2.1,0-17.1-2.3-17.9-3.2c-0.6-0.5-3.3-2.7-4.6-6.6h-0.1c-0.1-0.4-0.1-0.8-0.2-1.3c0-1.6,0.1-3.2,0.3-4.7
			C880.8,441.1,881,439.8,881.3,438.4z"/>
		<path fill="#F9BE84" d="M903.9,459.1L903.9,459.1L903.9,459.1z"/>
		<path fill="#F9BE84" d="M904.7,458.4C904.7,458.3,904.7,458.3,904.7,458.4C904.7,458.3,904.7,458.3,904.7,458.4z"/>
		<path fill="#F9BE84" d="M907.6,453.4C907.6,453.4,907.7,453.4,907.6,453.4L907.6,453.4z"/>
		<path fill="#F9BE84" d="M904.6,458.5C904.6,458.4,904.6,458.4,904.6,458.5C904.6,458.4,904.6,458.5,904.6,458.5z"/>
		<path fill="#F9BE84" d="M909.5,449.1L909.5,449.1C909.5,449.2,909.5,449.1,909.5,449.1z"/>
		<path fill="#F9BE84" d="M907.8,453.1c0.1-0.1,0.2-0.3,0.2-0.4C908,452.8,907.9,452.9,907.8,453.1z"/>
		<path fill="#F9BE84" d="M904,459L904,459C904.1,459,904.1,459,904,459z"/>
		<path fill="#F9BE84" d="M904.2,458.9L904.2,458.9L904.2,458.9z"/>
		<path fill="#F9BE84" d="M904.8,458L904.8,458C904.9,458,904.8,458,904.8,458z"/>
		<path fill="#F9BE84" d="M907.7,453.3L907.7,453.3L907.7,453.3z"/>
		<path fill="#F9BE84" d="M903.5,459.3L903.5,459.3C903.6,459.2,903.6,459.2,903.5,459.3z"/>
		<path fill="#F9BE84" d="M903.7,459.2L903.7,459.2C903.8,459.2,903.8,459.2,903.7,459.2z"/>
		<path fill="#F9BE84" d="M904.8,458.2C904.8,458.1,904.8,458.1,904.8,458.2C904.8,458.1,904.8,458.1,904.8,458.2z"/>
		<path fill="#F9BE84" d="M904.9,457.8C904.9,457.8,904.9,457.7,904.9,457.8C905,457.8,904.9,457.8,904.9,457.8z"/>
		<path fill="#F9BE84" d="M906.7,454.1C906.7,454.1,906.8,454.1,906.7,454.1C906.8,454.1,906.8,454.1,906.7,454.1z"/>
		<path fill="#F9BE84" d="M903.2,459.4L903.2,459.4C903.3,459.3,903.2,459.4,903.2,459.4z"/>
		<path fill="#F9BE84" d="M907.8,453.2C907.8,453.1,907.9,453.1,907.8,453.2C907.8,453.1,907.8,453.1,907.8,453.2z"/>
		<path fill="#F9BE84" d="M909.8,449.1c0.1,0,0.1,0,0.2-0.1C909.9,449,909.9,449.1,909.8,449.1z"/>
		<path fill="#F9BE84" d="M907.3,453.8L907.3,453.8L907.3,453.8z"/>
		<path fill="#F9BE84" d="M908.6,443.6L908.6,443.6L908.6,443.6z"/>
		<path fill="#F9BE84" d="M908.3,443.7L908.3,443.7L908.3,443.7z"/>
		<path fill="#F9BE84" d="M908.4,443.6L908.4,443.6C908.5,443.6,908.5,443.6,908.4,443.6z"/>
		<path fill="#F9BE84" d="M908.9,443.4c0.1,0,0.1,0,0.1-0.1C908.9,443.4,908.9,443.4,908.9,443.4z"/>
		<path fill="#F9BE84" d="M908.1,443.7L908.1,443.7C908.2,443.7,908.1,443.7,908.1,443.7z"/>
		<path fill="#F9BE84" d="M898.8,436.9c0.1,0,0.2,0,0.2,0S898.9,436.9,898.8,436.9z"/>
		<path fill="#F9BE84" d="M909.3,443.1c0.3-0.3,0.5-0.8,0.6-1.3C909.8,442.2,909.6,442.7,909.3,443.1z"/>
		<path fill="#F9BE84" d="M909,443.3c0.1,0,0.1,0,0.1-0.1C909.1,443.3,909.1,443.3,909,443.3z"/>
		<path fill="#F9BE84" d="M909.2,443.2c0.1,0,0.1-0.1,0.1-0.1C909.2,443.1,909.2,443.1,909.2,443.2z"/>
		<path fill="#F9BE84" d="M910.2,448.8c0.1,0,0.1-0.1,0.1-0.1C910.3,448.8,910.2,448.9,910.2,448.8z"/>
		<path fill="#F9BE84" d="M910.8,448.2c0.1,0,0.1-0.1,0.1-0.2C910.9,448.1,910.8,448.1,910.8,448.2z"/>
		<path fill="#F9BE84" d="M911,448c0,0,0.1-0.1,0.1-0.2C911,447.9,911,447.9,911,448z"/>
		<path fill="#F9BE84" d="M907.4,453.7L907.4,453.7L907.4,453.7z"/>
		<path fill="#F9BE84" d="M910.7,448.4c0.1,0,0.1-0.1,0.1-0.2C910.8,448.3,910.7,448.4,910.7,448.4z"/>
		<path fill="#F9BE84" d="M910.5,448.6c0.1,0,0.1-0.1,0.1-0.2C910.6,448.5,910.6,448.5,910.5,448.6z"/>
		<path fill="#F9BE84" d="M911.3,447.1c0,0,0-0.1,0-0.2C911.3,446.9,911.3,447,911.3,447.1z"/>
		<path fill="#F9BE84" d="M911.1,447.8c0.1-0.1,0.2-0.3,0.2-0.5C911.2,447.5,911.1,447.6,911.1,447.8z"/>
		<path fill="#F9BE84" d="M907,454L907,454L907,454z"/>
		<path fill="#F9BE84" d="M899.7,436.8L899.7,436.8L899.7,436.8z"/>
		<path fill="#F9BE84" d="M907.5,453.6C907.5,453.5,907.5,453.5,907.5,453.6C907.5,453.5,907.5,453.6,907.5,453.6z"/>
		<path fill="#E7AF9A" d="M891.6,428.9c-1.1,1.1-7.5,3.2-10,8.2c-0.1,0.4-0.2,0.8-0.3,1.3c-0.1,0.6-0.2,1.2-0.3,1.9
			c0.5-0.7,0.9-0.8,0.6,0.6c-0.9,5.4,1.1,10.5,5.8,13.6s17.7,3.1,17.7,3.1c0.3-1,0-2.3-1.2-2.5c-2.4-0.4-8-1.4-8-1.4l0.2-1.4
			c2.5,0.4,9.9,0.3,12,0.3c0.3-1,0.1-2.2-1.1-2.4c-2.1-0.4-10.4-1.8-10.4-1.8l0.3-1.4c7.8,1.1,12.8,0.1,14.6-0.4
			c0-0.7-0.4-1.4-1.4-1.6c-2.8-0.5-12.6-2.2-12.6-2.2l0.2-0.9c7.2,0.8,10.7,0.4,12.3-0.1c0.2-0.9-0.2-1.9-1.5-2.2
			c-2.8-0.8-15.7-2.8-15.7-2.8l0.2-0.9c0-2.4,5.8-7,5.4-8.7c0-1-1.4-2.3-2.5-1.5C894.5,426.5,893.9,426.5,891.6,428.9z"/>
		<path fill="#D1A08F" d="M881.6,440.9c-0.9,5.4,1.1,10.5,5.8,13.6s17.7,3.1,17.7,3.1v0.1l0,0v0.1c0,0,0,0,0,0.1c0,0,0,0-0.1,0.1
			c0,0,0,0,0,0.1c0,0,0,0-0.1,0.1c0,0,0,0-0.1,0.1c0,0-0.1,0-0.1,0.1c0,0,0,0-0.1,0.1c0,0-0.1,0-0.1,0.1c0,0-0.1,0-0.1,0.1
			c0,0-0.1,0-0.1,0.1c0,0-0.1,0-0.1,0.1c0,0-0.1,0-0.1,0.1c0,0-0.1,0-0.1,0.1h-0.1c0,0-0.1,0-0.1,0.1h-0.1h-0.1h-0.1h-0.1h-0.1h-0.1
			h-0.1H903c0,0,0,0-0.1,0h-0.1l0,0c0,0-0.1,0-0.2,0c-2.1,0-16.4-1.9-18.7-3.8c-0.5-0.4-1.3-1-2.6-3.2c-0.1-0.2-0.2-0.4-0.3-0.6
			c-0.3-0.5-0.5-1.1-0.6-1.7c-0.2-0.9-0.3-1.8-0.5-2.8c0-1.6,0.1-3.2,0.2-4.7c0-0.8,0.2-1.5,0.3-2.3
			C881.5,439.5,881.8,439.4,881.6,440.9z"/>
		<path fill="#D1A08F" d="M885.1,444.8c-3.8-0.2,2.6-0.8,4.7-2.5c2.1-1.7,3.1-3.5,4.7-3.6C895.5,438.7,889.3,445,885.1,444.8z"/>
		<path fill="#D1A08F" d="M908,452.6c0,0.2-0.1,0.3-0.2,0.4l-0.1,0.1l0,0c0,0-0.1,0-0.1,0.1c0,0,0,0-0.1,0c0,0-0.1,0-0.1,0.1
			c0,0,0,0-0.1,0c0,0-0.1,0-0.1,0.1h-0.1H907h-0.1h-0.1h-0.1h-0.1h-0.1h-0.1h-0.1h-0.1h-0.1c0,0,0,0-0.1,0c0,0,0,0-0.1,0l0,0
			c0,0,0,0-0.1,0l0,0h-0.1c-1.8-0.3-10.3-1.8-10.3-1.8C898.5,452.6,905.8,452.6,908,452.6z"/>
		<path fill="#D1A08F" d="M911.4,446.6c0,0.1,0,0.1,0,0.2c0,0,0,0.1,0,0.2l0,0c0,0,0,0.1,0,0.2l0,0c0,0.1-0.1,0.3-0.2,0.4l0,0
			c0,0-0.1,0.1-0.1,0.2l0,0c0,0-0.1,0.1-0.1,0.2l0,0c-0.1,0-0.1,0.1-0.1,0.2c-0.1,0-0.1,0.1-0.1,0.2c0,0,0,0-0.1,0s-0.1,0.1-0.1,0.1
			h-0.1c-0.1,0-0.1,0.1-0.1,0.1h-0.1c-0.1,0-0.1,0.1-0.2,0.1c-0.1,0-0.1,0.1-0.2,0.1c0,0,0,0-0.1,0h-0.1l0,0h-0.1l0,0
			c0,0-0.1,0-0.2,0c-1.6-0.3-12.4-2.2-12.4-2.2C904.6,448.1,909.6,447.1,911.4,446.6z"/>
		<path fill="#D1A08F" d="M909.9,441.8c-0.1,0.5-0.3,0.9-0.6,1.3c-0.1,0-0.1,0.1-0.1,0.1s0,0-0.1,0s-0.1,0.1-0.1,0.1h-0.1
			c-0.1,0-0.1,0-0.1,0.1h-0.1c-0.1,0-0.1,0-0.1,0.1h-0.1h-0.1h-0.1h-0.1c0,0,0,0-0.1,0H908l0,0h-0.1l0,0c0,0-0.1,0-0.2,0
			c-1.8-0.3-10.3-1.8-10.3-1.8C904.8,442.7,908.3,442.3,909.9,441.8z"/>
		<path fill="#D1A08F" d="M897.7,425.8c0,0.1,0.1,0.1,0.1,0.2s0.1,0.1,0.1,0.2c0,0,0,0,0,0.1s0.1,0.1,0.1,0.2c0,0,0,0,0,0.1
			s0,0.1,0.1,0.2c0,0,0,0,0,0.1s0,0.1,0.1,0.2l0,0c0,0.1,0,0.1,0.1,0.2c0,0.1,0,0.3,0.1,0.4l0,0c0,0,0,0.1,0,0.2c0,0,0,0,0,0.1v0.1
			c0,0,0,0,0,0.1v0.1c0,0,0,0,0,0.1v0.1c0,0,0,0,0,0.1c0,0,0,0.1-0.1,0.1c0,0,0,0-0.1,0.1l-0.1,0.1c0,0-0.1,0-0.1,0.1
			c0,0-0.1,0.1-0.1,0.2c0,0-0.1,0-0.1,0.1c-0.1,0.1-0.1,0.2-0.2,0.3c-2,2.3-4.7,5.4-4.7,5.4C895.7,430.9,897.1,427.7,897.7,425.8z"
			/>
		<path fill="#D1A08F" d="M895,438c0.7,1-1.1,3.5-2.3,7c-1.1,3.5-0.5,9.6-1.6,8.7C889.3,451.9,894.2,436.9,895,438z"/>
		<g>
			<path fill="#022433" d="M914.2,326.8c-3.2-14-8.6-27.8-18.9-38c-1.6-1.4-3.6-3.4-6-5.1c6.6-6.5,10.8-15.2,12.6-24.4
				c8.1-41.8-33.3-74.5-48.2-109.6c-0.1-0.4-0.5-0.6-0.6-0.6c-0.3,0-0.9,0.1-1.1,0.2c-0.2,0.2-0.2,0.3-0.2,0.5s-0.1,0.5-0.1,0.7
				c0.1,0.5,0.4,0.9,0.5,1.5c10,27,32.2,47.3,42.6,73.9c5.4,14.1,7,29.7,0.8,43.7c-1.9,4.5-4.7,8.6-8.3,12.2
				c-6.8-4.5-15.1-7.6-20.1-0.9c-2.1,2.9-2.3,7.4,0.5,9.8c4,3.3,10.1,0.5,13.8-1.4c2.1-1.1,3.8-2.3,5.5-3.7
				c23.8,16.8,27.8,50.7,27.3,77.4c-0.4,32.8-8.5,65-20.4,95.6c-12.7,32.5-9.9,25.2-26.9,55.8c-0.6,1-1.1,2.1-1.8,3.1
				c-0.9,1.6,1.6,2.5,2.5,1c0.4-0.8,0.9-1.6,1.3-2.4c20.6-36.1,21-34.8,34.1-74.4C915.1,405.5,922.5,364.5,914.2,326.8z M883,285.6
				c-1.9,1.3-4.6,3.6-7.1,3.5c-0.7,0.3-1.5,0.5-2.4,0.8c-1.8,0.5-3.8-0.3-4.6-2c-0.9-1.5-0.8-3.6,0.4-5c1.4-3.1,9.4-1.6,11.3-0.9
				c1.3,0.5,2.6,1.4,3.9,2.2C884.1,284.8,883.5,285.3,883,285.6z"/>
			<path fill="#022433" d="M847.7,157.4c-0.3-0.2-0.5-0.4-0.8-0.8c-0.2-0.2-0.3-0.2-0.5-0.4c-1.5-1.8-3.3-3.4-4.8-5.1
				c-0.5-0.6-1.1-1.2-1.5-1.8c-0.2-0.2-0.3-0.4-0.6-0.6c-3.4-3.7-6.6-7.4-10.5-10.9c-3.3-2.8-6.8-5.5-10.4-8c-0.5-0.4-1-0.6-1.4-1
				c-2.8-1.7-5.5-3.5-8.3-5.2c-2.9-1.7-5.9-3.2-8.8-4.7c-2.1-1.1-4.5-2.1-6.6-3.1c-8.9-4-18.1-7.4-27.1-11c-0.8-0.3-1.7-0.7-2.7-1
				c-0.5-0.2-1-0.5-1.5-0.7c-0.2,0-0.3-0.2-0.7-0.3c0.3,0.2,0,0-0.2,0c0.4-0.8,0.9-1.6,1.3-2.4c0.5,0.1,1,0.3,1.7,0.4
				c0.5,0.1,1.2,0.3,1.7,0.6c0.7,0.3,1.5,0.5,2.2,0.6c15.3,4.7,30.4,11.2,44.2,19.3c8.6,5.1,18.3,11.6,25.8,19.7
				c1.1,1.2,2,2.2,2.9,3.3c0.5,0.6,0.8,1,1.2,1.5c1.7,2.1,3,4.4,4.2,6.6c0.6,0.9,1,2,1.4,3c0.3,0.6,0.4,0.9,0.5,1.5
				C848.9,157.5,848.1,157.8,847.7,157.4z"/>
			<path fill="#022433" d="M786.9,52.4c-3.6,15.2-9.8,33.4-19.6,47.2c-0.4,0.6-0.8,1.1-1.3,1.8c-0.4,0.5-0.8,0.9-1.1,1.6
				c-0.2,0.3-0.6,0.6-0.8,0.9c-0.4,0.5-0.6,0.8-1,1.3c-0.3-0.4-0.6-0.9-1-1.5c-0.1-0.2-0.1-0.4-0.3-0.6c0,0-0.3-0.2-0.5-0.2
				c0.4-0.8,0.9-1.6,1.3-2.4c3.7-6.2,7.8-12.3,10.9-18.8c4.5-9.9,8.1-20.4,10.6-31c2.2-9.8,3.7-19.9,4.2-29.9
				c0.1-5.4-0.1-10.8-0.5-16.1c-0.1-0.9-0.3-1.9-0.4-2.8c1.3,1,2.6,1.9,3.8,2.9c0.1,0.7,0.2,1.4,0.1,1.9c0,0.3,0.1,0.7,0,1
				c0,1.2,0,2.4,0.1,3.7C792.1,25.4,789.8,39.9,786.9,52.4z"/>
			<path fill="#022433" d="M787.9,4.5c0.3,0.4,0.8,0.8,1.3,1c0.8,0.6,1.7,1.4,2.5,2c0.3,0.2,0.8,0.6,1.1,0.8
				c11.5,8.7,24.4,15.7,38.1,20.8c11.5,4.4,24.3,8,37.2,9.9c1.4,0.2,2.7,0.3,4.1,0.5c0.2,0,0.3,0,0.3,0c0.7,0.1,1.4,0.2,2.1,0.3
				c0,0,0,0,0.2,0c1.4,0.2,2.6,0.1,4,0.3c0,0,0-0.2-0.2-0.2c-0.4-1.3-1.1-2.1-2-2.5c0.4-0.6,0.9-1.3,1.4-1.7l-2.2-0.3
				c-14.6-1.4-29-3.7-43.5-9.2c-14.5-5.3-28.1-12.8-40.6-21.7c-1.6-1.2-2.9-2.1-4.2-3.1L787.9,4.5z"/>
			<path fill="#022433" d="M875.7,35.2c-0.4,0.5-0.8,0.9-1.2,1.2s-0.6,0.8-1,1.1c-0.2,0.2-0.4,0.5-0.4,0.6c-0.4,0.5-0.6,0.8-1,1.3
				s-0.8,0.9-1.2,1.4c-12,15.6-20.5,33.3-25.4,52.4c-1.3,4.7-2.2,9.5-3,14.2c0,0.3-0.1,0.9-0.1,1.2c-1,6.7-1.5,13.4-1.6,20.2
				c0,2.6-0.1,5.2,0,8.2c0.1,2.4,0.1,4.7,0.3,7.2c0.1,1.8,0.3,3.3,0.4,4.9c0.1,0.5,0.2,1.1,0.3,1.8c0.5,4.1,1.6,8,3.3,11.7
				c0.4,0.9,2.2,1,2.1-0.3c0-1.4,0-2.6-0.2-4c-0.1-0.5,0-1.2-0.1-1.8c0-0.3-0.1-0.5-0.1-0.9c0-1-0.3-2.1-0.3-3.3
				c-0.8-7.6-2.3-15.2-2.3-22.9c0-5.7,0.4-11.4,1.1-17.3c0.1-1,0.3-2.1,0.4-3.1c0.5-4.3,1.4-8.4,2.4-12.6c0.7-2.9,1.4-5.7,2.3-8.4
				c0.3-1,0.6-2,0.9-3c5.1-16.2,13.1-31.4,23.1-45.2c0,0,0,0,0-0.2c0.6-0.8,1.3-1.8,1.9-2.6c0.4-0.6,0.9-1.3,1.4-1.7L875.7,35.2z"/>
			<path fill="#022433" d="M842.7,147.7c-7.5-49.6-25.3-99.8-52-142.5c-0.6-0.9-2.1,0.1-1.7,1c24.7,44.9,41.7,91.5,50.5,142
				C840,150.2,843,149.8,842.7,147.7z"/>
			<path fill="#022433" d="M870.8,36.4c-15.2,14.3-31.7,27.1-49.5,37.9c-18.8,11.4-38.8,18.9-58.8,27.2c-0.9,0.4-0.6,2,0.5,1.8
				c20.6-4.8,40.6-15,58.6-25.7c18.6-10.9,35.7-23.8,51.3-38.4C874.7,37.6,872.6,34.9,870.8,36.4z"/>
			<path fill="#022433" d="M891.9,186.4c-4.1-6.6-6.7-12.3-8.6-19.7c-1.3-5.2-2.5-10.6-5.3-15.3c-2.6-4.3-6.2-7.7-10.5-9.3
				c2.8-2.8,4-7.2,3-11.5c-2.9-11.7-18.1-16-26.5-23.1c-0.9-0.8-2.2,0.6-1.4,1.4c3.3,4.4,7.7,6.9,12.4,9.7c2.6,1.5,5,3.2,7.4,5.3
				c1.7,1.4,3.1,3.2,4.2,5.2c2.5,6.4,0.5,10.3-6.1,11.8c-0.7,0.1-1.2,0.2-2,0.3c-2.1,0.4-2,3.4,0.1,3.7c1.7,0.4,3.3,0.2,4.9-0.3
				c18.2,1.2,12.8,35.1,27,43.3C891.4,189,892.8,187.8,891.9,186.4z"/>
			<path fill="#022433" d="M892.6,141c-3.2-5.3-6.6-10.2-8.5-16.3c-1.3-4-1.4-8.2-2.7-12c-2.6-7.4-6-6.3-12.2-8.6
				c-7.8-3-2.6-13.4-8.6-18.3c-3.8-3.1-8.5-2.1-11.3,1.4c-0.6,0.8,0.3,1.6,1.1,1.2c13.7-9.4,9.7,8.8,10.1,11.7
				c0.3,1.9,0.5,3.4,1.7,4.9c4,4.7,11.4,0.9,14.6,7.4c2.4,4.8,1.8,11.3,3.7,16.5c2.1,5.6,5,10.7,9.6,14.6
				C891.7,144.9,893.4,142.6,892.6,141z"/>
			<path fill="#022433" d="M836.1,180.1c-2-6.5-12-10.3-9.9-17.7c1.3-4.7,4.1-7.7,0.8-12.4c-1.6-2.3-4.3-3.5-6.4-5.1
				c-5.7-4.5-3.7-9.5-1.6-15.3c0.2-0.3-0.2-1.1-0.8-1c-4.1,1.1-5.7,5.6-5.4,9.8c0.6,7.9,8.3,8,11.4,13.7c3.5,6.7-6.4,12.4-1.1,19.2
				c2.6,3.1,6.9,3.8,9,7.9c3.1,6.1,0.3,13.1-0.8,19.4c-0.2,1.5,2.2,2.2,2.7,0.7C836.6,193.4,838,186.3,836.1,180.1z"/>
			<path fill="#022433" d="M807.9,153.4c-0.7-2.7-1.8-4.9-3.3-7.2c-0.7-1.1-2.3-2.4-2.7-3.5c-1.1-3.4,0.6-8.1,1.5-11.1
				c1.1-3.5,1.9-5.5-0.3-8.9c-1.6-2.6-5.2-7.1-7.9-8.4H795c-0.2,0.3-0.6,0.6-0.8,0.9c-0.4,0.5-0.5,1.2-0.2,1.5
				c2.8,5.6,7.9,6.4,5.3,14.7c-0.8,2.5-2.9,4-2.9,6.8c-0.1,3.5,2.1,5.8,3.8,8.5c4.4,6.6,4.7,11.5,3.4,19.4c-0.4,1.9,2.3,2.4,3.1,0.7
				C809,162.7,809,158,807.9,153.4z"/>
			<path fill="#022433" d="M888.6,70.9c-2.8-1.4-4.6-3.4-5.9-6.1c-1.4-3-0.9-8.1-3.5-10.2c-2.1-1.5-3.7-1.1-4.6-3.9
				c-0.9-2.5,1.5-8.2,0.1-10.9c0,0,0,0,0-0.2c-0.3-0.4-0.6-0.8-0.9-1c0,0-0.2,0-0.2-0.2c-0.2,0-0.2-0.2-0.3-0.4
				c-0.3-0.6-0.2-1.2,0.2-1.5c0.2-0.2,0.6-0.3,0.9-0.2c0.2,0,0.2,0,0.3,0c0.9,0.1,1.5,0.4,2,0.8c0.8,0.4,1.4,1.4,2,2.5
				c0,0,0,0.2,0.2,0.2c1.7,4.9-2.9,6.6,2.9,10.8c2.2,1.7,3.1,1.8,3.8,4.6c0.5,2,0.2,3.7,1,5.9c0.9,2.5,2.9,4.7,4.4,7
				C891.5,69.5,890.2,71.8,888.6,70.9z"/>
			<path fill="#022433" d="M776.1,136.6c-2.6-1.9-4.7-4.1-5.2-7.4c-0.2-1.2,0.5-2.5,0.3-3.6c-0.6-4.9-1.8-3.7-4.8-4.6
				c-2-0.6-3.5-1.5-4.1-3.5c-0.4-1.3-0.1-2.3,0.2-3.4c0.4-3.4,1.8-5.9,0.6-8.8c-0.1-0.5-0.4-1.1-0.8-1.7c-0.1-0.2-0.1-0.4-0.3-0.6
				c0-0.2,0-0.3,0.1-0.5c0.3-0.7,1-1.1,1.8-0.6c0.5,0.2,0.8,0.6,1.1,0.8c0.6,0.6,1.2,1.4,1.7,2.1c0.6,1.1,0.9,2.5,0.9,4.1
				c0,1.2-1.2,2.8-1.2,3.9c0.2,6.8,1.8,4,5.1,5.3c2,0.8,3.1,1.9,3.5,4.1c0.3,1.6-1,3.5-1,5.1c-0.2,2.8,1.9,5.6,3.2,7.9
				C777.9,136.3,776.7,137.2,776.1,136.6z"/>
		</g>
	</g>
	<g opacity="0.4">
		<path fill="#FFFFFF" d="M802.4,430.6l-2.4-0.4l-2.2,12.5l2.4,0.4L802.4,430.6z"/>
		<path fill="#FFFFFF" d="M798.5,429.9l-2.4-0.4l-2.2,12.5l2.4,0.4L798.5,429.9z"/>
		<path fill="#FFFFFF" d="M806.3,431.3l-2.4-0.4l-2.2,12.5l2.4,0.4L806.3,431.3z"/>
		<path fill="#FFFFFF" d="M810.1,432l-2.4-0.4l-2.2,12.5l2.4,0.4L810.1,432z"/>
		<path fill="#FFFFFF" d="M814,432.6l-2.4-0.4l-2.2,12.5l2.4,0.4L814,432.6z"/>
		<path fill="#FFFFFF" d="M817.9,433.3l-2.4-0.4l-2.2,12.5l2.4,0.4L817.9,433.3z"/>
		<path fill="#FFFFFF" d="M821.8,434l-2.4-0.4l-2.2,12.5l2.4,0.4L821.8,434z"/>
		<path fill="#FFFFFF" d="M825.6,434.7l-2.4-0.4l-2.2,12.5l2.4,0.4L825.6,434.7z"/>
		<path fill="#FFFFFF" d="M829.5,435.4l-2.4-0.4l-2.2,12.5l2.4,0.4L829.5,435.4z"/>
		<path fill="#FFFFFF" d="M833.4,436l-2.4-0.4l-2.2,12.5l2.4,0.4L833.4,436z"/>
		<path fill="#FFFFFF" d="M837.3,436.7l-2.4-0.4l-2.2,12.5l2.4,0.4L837.3,436.7z"/>
		<path fill="#FFFFFF" d="M841.1,437.4l-2.4-0.4l-2.2,12.5l2.4,0.4L841.1,437.4z"/>
		<path fill="#FFFFFF" d="M845,438.1l-2.4-0.4l-2.2,12.5l2.4,0.4L845,438.1z"/>
		<path fill="#FFFFFF" d="M848.9,438.8l-2.4-0.4l-2.2,12.5l2.4,0.4L848.9,438.8z"/>
		<path fill="#FFFFFF" d="M852.8,439.5l-2.4-0.4l-2.2,12.5l2.4,0.4L852.8,439.5z"/>
		<path fill="#FFFFFF" d="M856.6,440.1l-2.4-0.4l-2.2,12.5l2.4,0.4L856.6,440.1z"/>
		<path fill="#FFFFFF" d="M860.5,440.8l-2.4-0.4l-2.2,12.5l2.4,0.4L860.5,440.8z"/>
		<path fill="#FFFFFF" d="M864.4,441.5l-2.4-0.4l-2.2,12.5l2.4,0.4L864.4,441.5z"/>
		<path fill="#FFFFFF" d="M868.3,442.2l-2.4-0.4l-2.2,12.5l2.4,0.4L868.3,442.2z"/>
		<path fill="#FFFFFF" d="M872.1,442.9l-2.4-0.4l-2.2,12.5l2.4,0.4L872.1,442.9z"/>
		<path fill="#FFFFFF" d="M876,443.5l-2.4-0.4l-2.2,12.5l2.4,0.4L876,443.5z"/>
		<path fill="#FFFFFF" d="M879.9,444.2l-2.4-0.4l-2.2,12.5l2.4,0.4L879.9,444.2z"/>
	</g>
	<path fill="#5C342E" d="M829.1,374.8c1.5-2,4.2-1.8,7.1-1.1c3.9,1,7.1,2.9,6.5,5.5c-0.5,2.1-3.5,0.3-5.3-0.2
		C834.3,378,829.6,378.2,829.1,374.8z"/>
	<path fill="#5C342E" d="M782.8,366.7c-1.8,3.1-8,0.8-12.1,1c-2.4,0.2-4.7-1-3.7-2.4c1.7-2.3,6-2.6,10.7-2.1
		C780.6,363.6,782.7,364.7,782.8,366.7z"/>
	<path fill="#5C342E" d="M756.1,356.2l19.9,3.7l3.1-4.1l1.4,4.9l7.9,1.4l9.1-12.4l0.4,13.9l39.1,6.9l2.9-3.5l1.5,4.3l17.7,3.1
		c0,0,14.8,6.4,7.6,46.9c-4.9,27.3-2.3,43.2-2.3,43.2s22.1-29.4,23.3-30.2c5.2-29.4,11.1-95.3-69.2-109.4
		c-93.4-16.4-100.1,47.3-109.4,81.2c0.4,8,10.4,28.2,10.4,28.2S735.6,365.2,756.1,356.2z"/>
	<path opacity="0.15" fill="#FFFFFF" enable-background="new    " d="M715.4,450.7c-0.2,1.3,0,2.5,0.7,3.5c2,2.9,4.1,5.7,6.1,8.6
		c0.2,0.3,0.3,0.2,0.5,0.1c2.9-2,5.8-4,8.7-6c2.1-1.5,2.5-4.3,1-6.4c-1.4-2-4.3-2.6-6.4-1.2c-0.4,0.2-0.7,0.5-1.1,0.7
		c-0.2,0.2-0.4,0.1-0.5-0.1c-0.3-0.4-0.6-0.9-0.9-1.3c-1.3-1.5-3-2-4.9-1.5C716.8,447.7,715.8,448.9,715.4,450.7z"/>
	<path opacity="0.15" fill="#FFFFFF" enable-background="new    " d="M725.5,470.7c1.7,2.4,3.4,4.8,5.1,7.2c0.2,0.2,0.2,0.2,0.4,0.1
		c2.5-1.7,4.9-3.4,7.3-5.1c0.9-0.6,1.3-1.5,1.5-2.7c0.2-1.5-0.4-2.8-1.8-3.7c-1.4-0.9-2.9-0.8-4.3,0.1c-0.4,0.2-0.7,0.7-1.1,0.6
		c-0.3-0.1-0.5-0.6-0.7-0.9c-1.3-1.7-3.7-2.1-5.4-1C724.7,466.5,724.2,468.9,725.5,470.7z M727.4,466.6c1.1-0.7,2.5-0.5,3.3,0.6
		c0.5,0.7,1,1.3,1.4,2c0.2,0.2,0.2,0.2,0.5,0.1c0.7-0.5,1.4-1,2-1.4c0.5-0.3,1.1-0.5,1.9-0.3c0.8,0.2,1.5,0.8,1.8,1.8
		c0.2,0.9-0.1,1.9-0.9,2.4c-2,1.4-4,2.7-6,4.1c-0.2,0.2-0.4,0.1-0.5-0.1c-1.4-1.9-2.8-3.9-4.2-5.8
		C726,468.7,726.3,467.3,727.4,466.6z"/>
	<path fill="#1A1A1A" d="M811.8,416.8c-4.8,4-11.1,3.7-16.7,1.8c-5.1-1.8-9.8-5.1-12.6-9.7c-2.9-4.5-2.8-9.8-3.4-14.9
		c5.7,4.3,12.8,6.5,19.7,7.7c6.8,1.2,14.4,2.7,21.4,1.8C818.9,408.5,815.9,413.3,811.8,416.8z"/>
	<path fill="#FFFFFF" d="M785.1,401.9c9.2,4,18.7,6.3,28.6,5.5c0.6-1.2,1.1-2.5,1.3-3.8c-5.5-0.1-11.1-1.1-16.3-2.1
		c-5.2-0.9-10.5-2.4-15.3-5C783.6,398.5,784.2,400.3,785.1,401.9z"/>
	<path fill="#F08394" d="M807.7,417.8c-2-2.1-4.9-4.1-7.7-5.1c-2.7-1.1-6-1.6-9-1c-1.8,0.4-3.1,1.1-4.3,2.1c2.4,2.1,5.3,3.7,8.4,4.7
		c4.4,1.5,9.2,2,13.4,0.2C808.2,418.4,808,418.1,807.7,417.8z"/>
	<path opacity="0.1" fill="#020203" enable-background="new    " d="M779.3,454.2c0,0,1,3.4-1.6,18.6c-2.7,15.2-10,19.5-10,19.5
		l15.3,8l5.4-30.8L779.3,454.2z"/>
	<path opacity="0.1" fill="#020203" enable-background="new    " d="M802.1,458.2c0,0-2.1,2.8-4.8,18s2.6,22.1,2.6,22.1l-17,2
		l5.4-30.8L802.1,458.2z"/>
	<path fill="#9869BC" d="M759.7,479.8c-20.5-4.7-27.2,5.6-28.2,7.5c13.2,14,30.1,23.2,49.1,26.5l2.8-16.1
		C783.4,497.8,782,485,759.7,479.8z"/>
	<path opacity="0.2" fill="#020203" enable-background="new    " d="M783.1,499.2c0-0.2,0.7-6.6-7.3-12.2c1.5,2.8,1,6.1,0.9,6.2v0.1
		c-1.2,6.6-8.1,10.8-14.6,8.6c-11-3.6-20.9-9.2-29.9-17c13.6,14.2,29.9,22.9,48.7,26.2C781.1,511.1,782.4,503.5,783.1,499.2z"/>
	<path fill="#9869BC" d="M811.7,489c20.8,2.6,23.7,14.6,24,16.7c-17.2,8.7-36.2,11.5-55.2,8.2l2.8-16.1
		C783.4,497.7,789,486.2,811.7,489z"/>
	<path opacity="0.2" fill="#020203" enable-background="new    " d="M783.1,499.2c0-0.2,0.6-3.3,4.1-5.6c5,11.2,7.8,15.1,14.7,15.3
		c7.1,0.2,13.5-1.4,20-4.1c6.2-2.6,6-8.6,6.5-9.9c3.7,2.5,5.8,5.9,6.7,8.5c-18.4,9.5-35.3,11-54.1,7.7
		C781,511.1,782.3,503.5,783.1,499.2z"/>
	<path opacity="0.2" fill="#FFFFFF" enable-background="new    " d="M812,496.3c6.6,0.2,11.5-0.7,15.3-2.2
		c-3.5-2.3-8.5-4.3-15.6-5.2c-9.1-1.1-15.4,0-19.8,1.9C795.9,493.6,802.2,496,812,496.3z"/>
	<path opacity="0.2" fill="#FFFFFF" enable-background="new    " d="M757.1,486.7c-6.2-2-10.6-4.6-13.6-7.3c4.1-1,9.5-1.1,16.5,0.5
		c8.9,2.1,14.5,5.3,17.9,8.5C773.2,489.6,766.4,489.7,757.1,486.7z"/>
	<path opacity="0.15" fill="#FFFFFF" enable-background="new    " d="M864.2,476.9c-0.3,1.3-0.8,2.3-1.9,3c-2.9,2-5.8,4-8.7,6
		c-0.3,0.2-0.4,0.1-0.5-0.1c-2-2.9-4.1-5.7-6.1-8.6c-1.5-2.1-0.9-4.9,1.2-6.3c2-1.4,4.9-1,6.5,1c0.3,0.3,0.5,0.7,0.8,1.1
		c0.2,0.2,0.3,0.2,0.5,0.1c0.4-0.3,0.8-0.6,1.3-0.9c1.8-0.9,3.5-0.9,5.1,0.3C863.8,473.6,864.4,475.2,864.2,476.9z"/>
	<path opacity="0.15" fill="#FFFFFF" enable-background="new    " d="M848.7,486.9c-1.2-1.7-3.7-2.1-5.4-1c-0.3,0.2-0.7,0.7-1,0.6
		c-0.4-0.1-0.5-0.6-0.8-1c-1-1.3-2.4-1.9-4.1-1.5c-1.6,0.3-2.7,1.4-3,2.9c-0.2,1.2,0,2.2,0.5,3c1.7,2.4,3.4,4.8,5.2,7.3
		c0.2,0.2,0.3,0.2,0.4,0.1c2.4-1.7,4.9-3.3,7.3-5C849.6,491,849.9,488.6,848.7,486.9z M846.8,491.1c-2,1.3-3.9,2.7-5.9,4.1
		c-0.2,0.2-0.4,0.1-0.5-0.1c-1.4-2-2.8-3.9-4.2-5.9c-0.5-0.8-0.5-1.8,0-2.6c0.6-0.9,1.4-1.2,2.3-1.1c0.8,0.1,1.3,0.5,1.7,1
		c0.5,0.7,1,1.3,1.4,2c0.2,0.2,0.2,0.2,0.5,0.1c0.7-0.5,1.3-0.9,2-1.4c1.1-0.8,2.6-0.5,3.3,0.5C848.2,488.9,847.9,490.3,846.8,491.1
		z"/>
</g>
<g>
	<path fill="#022433" d="M459.3,26.6c-0.2-0.6-0.6-1.1-0.9-1.5c-0.4-0.5-0.7-0.9-1.2-1.1c-0.5-0.4-1.1-0.6-1.7-0.7l-0.2-0.1
		c-2.5-0.9-5.4,0.7-6.3,3.3c-0.2,0.5-0.3,1.1-0.3,1.7c-0.1,0.6,0.1,1.3,0.1,1.9c0.3,1.1,0.7,2.2,1.6,3.1c0.5,0.6,1.2,1.1,1.9,1.4
		c0.9,0.3,1.6,0.3,2.4,0.2c1-0.2,2.2-0.7,2.9-1.4c0.7-0.7,1.5-1.7,1.7-2.7c0.2-0.5,0.3-1.1,0.3-1.7
		C459.7,28.1,459.6,27.5,459.3,26.6z"/>
	<path fill="#022433" d="M497.1,19.7c0-0.3-0.2-0.4-0.4-0.7c-0.2-0.3-0.2-0.4-0.4-0.7c-0.5-0.7-1-1-1.8-1.3c-1.1-0.4-2-0.4-3.1,0
		c-1.5,0.3-3,1.1-3.8,2.4c-1.2,1.7-1.3,3.9-0.4,5.9c0.4,1,1.1,1.7,1.9,2.2c0.8,0.6,1.7,0.9,2.7,1c1,0,2-0.2,2.9-0.7
		c0.8-0.4,1.7-1.2,2.1-2c0.6-0.8,1-2,1-3.1C497.7,21.7,497.6,20.7,497.1,19.7z"/>
	<path fill="#022433" d="M415.8,53.6c-0.1-0.6-0.3-1-0.5-1.5c-0.4-0.8-0.9-1.2-1.4-1.8c-0.3-0.2-0.6-0.5-0.9-0.6
		c-0.3-0.2-0.6-0.3-1.1-0.4c-1-0.3-1.8-0.4-2.9-0.2c-0.4,0.1-0.7,0.1-1.1,0.3c-0.4,0.1-0.7,0.3-1.1,0.5c-0.9,0.6-1.5,1.2-2.1,2.1
		c-1.2,1.8-1.3,3.9-0.4,6c0.2,0.4,0.4,1,0.7,1.2c0.3,0.4,0.7,0.8,1,1c0.8,0.6,1.8,1,2.7,1c0.4,0.1,1,0,1.5-0.1
		c0.6-0.1,1.1-0.3,1.5-0.6c0.4-0.2,0.8-0.3,1.2-0.5c1-0.6,1.9-1.5,2.4-2.8c0.2-0.5,0.3-0.9,0.2-1.5C416,54.8,415.9,54.2,415.8,53.6z
		"/>
	<path fill="none" stroke="#022433" stroke-width="3" stroke-linecap="round" stroke-linejoin="round" d="M430.5,121.5L411,57l32,28
		l11-53l21.5,41.5l18-48.5L506,98.5c-6.8,2.5-23.4,8.4-35,12S439.2,119.3,430.5,121.5z"/>
</g>
</svg>
