<svg width="100" height="100" viewBox="0 0 100 100" fill="none" xmlns="http://www.w3.org/2000/svg">
<rect width="100" height="100" fill="white"/>
<path d="M44.4563 50.6451C41.5599 40.3225 38.2346 30.1074 34.4801 19.9999C32.871 18.9246 31.3692 17.8494 29.9747 16.5591C28.902 15.6988 27.8293 14.6236 26.8639 13.4408C26.7566 13.4408 26.6493 13.4408 26.5421 13.4408C26.3275 13.4408 26.0057 13.3333 25.7912 13.3333C21.9294 14.6236 18.175 16.129 14.206 17.0967L4.87342 52.5806C4.65888 52.7956 4.55161 53.0107 4.55161 53.3333C4.55161 53.6558 4.44434 53.9784 4.44434 54.301C6.48248 56.5591 8.73516 58.7096 10.7733 61.0752C10.8806 61.0752 10.8806 61.1827 10.9878 61.1827C12.0605 61.9354 13.2405 62.258 14.4205 62.1505C17.3168 61.2902 20.3204 60.43 23.2167 59.6773C23.2167 59.6773 23.2167 59.6773 23.324 59.6773C23.6458 59.5698 24.0749 59.4623 24.3967 59.2472C24.6112 59.0322 24.7185 58.8171 24.7185 58.4945C25.0403 56.2365 25.4694 54.0859 25.7912 51.8279C26.113 51.7203 26.3275 51.6128 26.6493 51.5053C28.902 53.0107 31.1547 54.516 33.4074 55.9139C33.5147 56.0214 33.6219 56.0214 33.7292 56.0214C36.1964 55.1612 38.6636 54.301 41.1309 53.4408C41.989 53.0107 42.8472 52.5806 43.7054 52.1505C43.7054 52.1505 43.7054 52.0429 43.8126 52.0429C44.2417 51.8279 44.6708 51.3978 44.4563 50.6451ZM25.6839 15.4838C26.9712 16.7741 28.3657 17.9569 29.8675 19.0322C27.6148 19.6773 25.3621 20.43 23.2167 21.2902C23.2167 21.1827 23.1094 21.1827 23.1094 21.0752C21.9294 19.8924 20.7495 18.8171 19.4622 17.7419C21.3931 17.0967 23.5385 16.344 25.6839 15.4838ZM12.0605 57.8494C11.9533 57.8494 11.9533 57.9569 11.846 58.0644C10.2369 56.4515 8.84243 54.7311 7.55518 52.9031C10.5588 41.6128 13.4551 30.43 16.4586 19.1397C17.9604 20.215 19.4622 21.5053 20.8567 22.9031C20.964 23.0107 21.0713 23.1182 21.2858 23.2257L12.0605 57.8494ZM29.6529 50.1074L31.5838 49.2472C32.0129 49.0322 32.3347 48.9246 32.7638 48.7096C32.871 49.1397 32.871 49.4623 32.9783 49.7849C33.0856 50.3225 33.1928 50.7526 33.4074 51.2902C33.5147 51.8279 33.6219 52.3655 33.8365 52.7956C32.442 51.9354 31.0474 51.0752 29.6529 50.1074ZM36.5182 52.9031C36.1964 51.7203 35.8746 50.43 35.5528 49.2472C35.231 48.0644 35.1237 46.2365 33.7292 45.9139C32.442 45.5913 30.7256 46.7741 29.5456 47.3117C27.8293 48.0644 26.0057 48.8171 24.2894 49.5698C24.0748 49.6773 23.8603 49.7849 23.753 49.9999C23.5385 50.215 23.324 50.43 23.324 50.8601C23.0021 52.9031 22.6803 55.0537 22.2512 57.0967C19.6768 57.8494 17.1023 58.6021 14.4205 59.3548C17.5313 47.6343 20.6422 35.8064 23.6458 24.0859C26.4348 23.1182 29.2238 22.1505 32.0129 21.2902C35.6601 30.9677 38.8782 40.7526 41.6672 50.6451C40.0582 51.5053 38.3418 52.258 36.5182 52.9031Z" fill="#022433"/>
<path d="M28.4731 27.7419C27.7222 27.4194 26.6495 27.6344 26.435 28.7097C25.7914 32.6882 25.1477 36.7742 24.5041 40.7527C24.2896 41.828 25.4695 42.4731 26.3277 42.1505C28.044 41.6129 29.8676 41.0753 31.584 40.5376C31.9058 40.4301 32.1203 40.2151 32.2276 40C32.7639 39.785 33.0858 39.3548 32.8712 38.6022C31.9058 35.2688 31.0476 31.9355 30.0822 28.7097C29.9749 27.957 29.1167 27.6344 28.4731 27.7419ZM27.5077 39.0323C27.5077 38.8172 27.615 38.6022 27.615 38.3871C27.8295 38.4946 28.044 38.6022 28.2586 38.7097C28.044 38.8172 27.7222 38.9247 27.5077 39.0323ZM28.044 35.5914L28.4731 32.7957C28.7949 33.9785 29.1167 35.2688 29.5458 36.4516C29.0095 36.129 28.5804 35.914 28.044 35.5914Z" fill="#022433"/>
<path d="M92.4055 60.6452C90.5819 57.3119 87.7929 54.5162 84.682 52.4732C86.7202 50.8603 88.0074 48.6022 88.3292 45.914C88.8656 42.2581 87.4711 38.7097 85.1111 35.914C79.7476 29.6775 70.7369 28.4947 62.7988 27.2043C58.7226 28.4947 54.7535 30 50.6773 31.2904C50.4627 31.3979 50.2482 31.5054 50.1409 31.7205C49.7118 31.9355 49.39 32.3656 49.2827 32.9033C49.2827 33.0108 49.1755 33.1183 49.1755 33.3334V80.1076C49.0682 80.3226 48.9609 80.5377 48.9609 80.8603C48.9609 81.1828 48.9609 81.5054 48.9609 81.828V81.9355V82.2581C48.9609 83.0108 49.6046 83.656 50.3555 83.656H50.4627C55.6117 84.6237 60.6534 85.3764 65.8024 86.1291C69.0205 86.5592 72.3459 87.0968 75.4568 86.2366C75.6713 86.3441 75.8858 86.2366 76.2077 86.2366C87.2565 82.4732 99.3781 73.9785 92.4055 60.6452ZM63.1207 30C66.017 30.5377 68.9133 30.9678 71.7023 31.7205C75.2422 32.5807 78.7822 33.7635 81.5712 36.1291C83.9311 38.1721 85.862 40.9678 85.862 44.1936C85.862 46.6667 84.7893 49.3549 82.7512 50.7527C82.5366 50.7527 82.3221 50.8603 82.2148 50.9678C80.8203 51.7205 79.4258 52.5807 78.1385 53.3334C78.4603 52.5807 78.6749 51.7205 78.7822 50.8603C79.3185 47.2043 77.924 43.656 75.564 40.8603C70.6296 35.1613 62.7988 33.7635 55.5044 32.4732C57.8644 31.5054 60.4389 30.7527 63.1207 30ZM81.893 74.7312C81.4639 77.6345 79.9621 80.6452 77.4949 82.3656C74.1695 84.6237 70.0932 83.9785 66.3388 83.4409C61.6189 82.7957 56.899 82.0431 52.2863 81.1828C52.2863 80.8603 52.2863 80.5377 52.1791 80.3226C52.1791 80.2151 52.0718 80.1076 51.9645 80V34.5162C55.2899 35.1613 58.7226 35.699 62.0479 36.4517C65.5879 37.3119 69.1278 38.4947 71.9168 40.8603C74.2768 42.9033 76.2077 45.699 76.2077 48.9248C76.2077 51.7205 74.8131 54.8388 72.1314 56.0216C71.1659 56.4517 70.7369 57.8495 71.8096 58.4947C77.4949 61.6129 82.9657 67.6345 81.893 74.7312ZM91.5473 69.8925C91.1183 72.5807 89.831 75.2689 87.6856 77.0968C87.6856 77.0968 87.6856 77.0968 87.6856 77.2043C86.0765 78.3871 84.4675 79.4624 82.7512 80.4302C85.2184 76.0216 85.1111 70.2151 82.7512 65.5914C81.1421 62.4732 78.5676 59.8925 75.6713 57.8495C77.8167 56.5592 79.9621 55.3764 82.1075 54.0861C87.5783 57.2043 92.62 63.1183 91.5473 69.8925Z" fill="#022433"/>
<path d="M59.3661 52.1505C59.4734 52.2581 59.5807 52.3656 59.5807 52.4731C59.7952 53.0107 60.3316 53.4408 61.0825 53.2258C63.8715 52.5806 67.5187 50.8602 67.0896 47.3118C66.6605 44.3011 63.4424 42.043 60.6534 41.6129C60.0098 41.5054 59.5807 41.8279 59.2589 42.1505C58.937 42.3656 58.6152 42.6882 58.6152 43.2258V50.8602C58.7225 51.5054 58.937 51.9355 59.3661 52.1505ZM61.4043 44.6236C62.5842 45.0538 63.6569 45.914 64.3006 47.0968C64.5151 47.6344 64.6224 48.0645 64.4078 48.4946C64.086 48.4946 63.7642 48.4946 63.4424 48.6021C62.7988 48.9247 62.0479 49.2473 61.4043 49.5699V44.6236Z" fill="#022433"/>
<path d="M60.0103 61.8282C59.0448 61.7206 58.6158 62.4733 58.723 63.226C58.6158 63.3335 58.6158 63.5486 58.6158 63.7637C58.5085 67.7422 58.4012 71.6131 58.2939 75.5916C58.2939 76.3443 58.8303 76.7744 59.3667 76.8819C59.4739 76.9895 59.6885 77.097 59.7957 77.097C62.5848 77.9572 66.0174 78.4948 68.9137 77.5271C71.4882 76.6669 72.5609 73.9787 72.3464 71.3981C71.81 65.1615 65.4811 62.4733 60.0103 61.8282ZM61.2975 64.7314C62.4775 64.9465 63.6575 65.269 64.8374 65.8067C64.8374 65.8067 64.8374 65.8067 64.8374 65.9142V70.7529C64.8374 70.8604 64.8374 70.8604 64.8374 70.968L61.083 73.1185C61.1902 70.3228 61.2975 67.5271 61.2975 64.7314ZM67.1974 75.1615C65.8029 75.3766 64.4084 75.269 63.1211 75.054C64.0866 74.4088 65.1593 73.8712 66.1247 73.226C66.232 73.226 66.3392 73.226 66.4465 73.226C67.4119 73.1185 68.2701 73.3335 69.1283 73.6561C69.2355 73.6561 69.2355 73.6561 69.3428 73.6561C68.9137 74.5163 68.1628 75.054 67.1974 75.1615ZM67.5192 70.6454V67.4196C68.5919 68.2798 69.3428 69.4626 69.6646 70.968C69.6646 71.0755 69.6646 71.0755 69.6646 71.183C68.9137 70.8604 68.2701 70.6454 67.5192 70.6454Z" fill="#022433"/>
</svg>
