<svg width="77" height="85" viewBox="0 0 77 85" fill="none" xmlns="http://www.w3.org/2000/svg">
<path d="M75.4446 48.7778C74.7779 46.3333 72.7779 44.2222 70.7779 42.6667C67.1113 39.7778 62.6668 38.3333 58.2224 37.1111C59.6668 35.3333 60.889 33.2222 61.4446 30.8889C62.6668 25.8889 61.3335 19.8889 57.2224 16.7778C59.1113 15.4444 60.3335 13.3333 60.6668 10.8889C61.1113 7.55556 59.5557 4.44445 56.889 2.55556C51.0002 -1.44444 43.4446 1.66667 40.3335 7.55556C33.0001 6.88889 26.1113 9.88889 19.6668 13.2222C19.1113 10.4444 16.6668 8.22223 13.889 7.44445C9.88904 6.33334 5.33348 7.88889 2.77793 11.1111C0.333482 14.3333 -0.777629 19.1111 1.33348 22.6667C3.11126 25.5556 6.33348 27.2222 9.66682 27C7.77793 32.2222 8.33348 38.3333 11.7779 42.8889C14.3335 46.2222 17.6668 48.2222 21.4446 49.2222C18.889 51.5556 16.6668 54.3333 15.0001 57.3333C13.2224 60.4445 11.3335 64.4444 11.6668 68.1111C12.0001 71.8889 15.2224 73.8889 18.889 72.6667C21.889 71.5556 24.5557 69.6667 26.889 67.3333C27.4446 70.2222 28.2224 73.1111 29.3335 75.8889C30.5557 78.8889 32.1113 81.8889 35.0002 83.5556C37.6668 85.1111 40.889 85.1111 43.889 84.6667C47.0002 84.2222 50.3335 83.4445 53.2224 82C56.0002 80.5556 58.2224 78.2222 59.0002 75.1111C59.0002 75 59.0002 75 59.0002 74.8889C62.2224 76.2222 65.889 75 68.889 73.4445C72.7779 71.4445 76.0002 68.3333 76.1113 63.6667C76.2224 60.4444 74.889 57.1111 73.2224 54.3333C75.2224 53.4445 76.1113 51.1111 75.4446 48.7778ZM15.7779 43.1111C11.2224 38.8889 10.1113 32.1111 12.889 26.5556C13.4446 25.3333 12.3335 24.3333 11.3335 24.4444C11.0001 24.1111 10.5557 24 10.1113 24.1111C7.66682 24.5556 5.00015 23.3333 3.77793 21.1111C2.33348 18.6667 3.11126 15.3333 4.66682 13C6.33348 10.8889 9.22237 9.66667 12.0001 10C14.4446 10.3333 17.5557 12.3333 17.1113 15.1111C16.889 16.5556 18.5557 17.2222 19.3335 16.5556C25.889 13.1111 33.1113 9.33334 40.7779 10.4444C41.3335 10.5556 42.1113 10.4445 42.3335 9.77778C44.3335 5.22223 49.5557 1.88889 54.4446 4.44445C56.4446 5.55556 58.0002 7.55556 58.0002 9.88889C58.0002 12.1111 56.6668 14.5556 54.5557 15.3333C53.889 15.5556 53.6668 16.1111 53.6668 16.6667C53.4446 17.2222 53.4446 18 54.2224 18.3333C58.3335 20.3333 59.889 25.3333 59.0002 29.6667C58.0002 34.7778 53.7779 38.5556 49.4446 41C49.3335 41 49.3335 41.1111 49.2224 41.1111C50.3335 38.1111 50.2224 34.7778 48.889 31.7778C47.3335 28.2222 43.7779 25.6667 40.0002 24.7778C31.889 23 23.7779 29.8889 23.7779 38.1111C23.7779 41.3333 25.0002 44.7778 27.3335 47C23.1113 47.1111 19.1113 46.2222 15.7779 43.1111ZM45.5557 42.1111C45.3335 42.3333 45.3335 42.6667 45.3335 42.8889C41.1113 44.6667 36.4446 45.8889 32.0002 46.5556C31.889 46.5556 31.889 46.5556 31.7779 46.5556C31.6668 46.4445 31.5557 46.3333 31.4446 46.3333C27.889 44.6667 26.2224 40.5556 26.7779 36.7778C27.3335 32.6667 30.4446 29 34.3335 27.6667C38.1113 26.4445 42.4446 27.6667 45.1113 30.5556C47.7779 33.7778 47.7779 38.6667 45.5557 42.1111ZM70.0002 69.5556C67.2224 71.6667 62.6668 74.1111 59.2224 72.1111C59.2224 70 59.0002 67.8889 58.5557 65.7778C58.2224 63.7778 57.5557 61.7778 56.4446 60.2222C56.4446 60.1111 56.4446 60 56.4446 59.8889C56.4446 57.6667 57.5557 55.7778 59.0002 54.2222C60.4446 52.6667 62.3335 50.8889 64.5557 50.8889C68.3335 50.7778 70.6668 55.6667 71.7779 58.5556C73.6668 62.5556 73.7779 66.6667 70.0002 69.5556ZM72.1113 51.8889C71.889 52 71.7779 52.1111 71.6668 52.2222C69.4446 49.2222 66.3335 47.3333 62.6668 48.3333C61.7779 46.2222 60.5557 44.3333 58.889 42.6667C57.6668 41.4445 55.6668 43.4445 56.889 44.6667C58.3335 46.1111 59.3335 47.6667 60.1113 49.5556C57.3335 51.3333 54.7779 54.3333 54.0002 57.5556C54.0002 57.5556 53.889 57.5556 53.889 57.4445C51.5557 55.7778 48.5557 55 45.6668 55.4445C38.889 56.3333 34.7779 63.5556 36.2224 70C36.6668 71.7778 39.3335 71 38.889 69.2222C37.889 64.6667 40.5557 59.3333 45.2224 58.2222C47.3335 57.6667 49.7779 58.1111 51.6668 59.3333C54.0002 60.7778 55.1113 63.1111 55.6668 65.6667C56.2224 68.2222 56.5557 71 56.2224 73.5556C55.7779 76.2222 54.2224 78.1111 51.889 79.4445C49.6668 80.6667 47.1113 81.2222 44.6668 81.7778C42.2224 82.2222 39.5557 82.5556 37.2224 81.6667C34.3335 80.5556 32.7779 77.6667 31.7779 75C30.4446 71.5556 29.5557 67.8889 29.1113 64.2222C29.0002 63.1111 27.5557 62.2222 26.7779 63.2222C24.6668 65.7778 22.1113 68 19.1113 69.5556C17.889 70.1111 16.0001 71 15.0001 69.6667C14.2224 68.6667 14.3335 67 14.5557 65.8889C15.6668 59.8889 19.889 54.2222 24.5557 50.3333C24.6668 50.2222 24.7779 50 24.889 49.8889C26.0002 50 27.2224 50 28.4446 49.8889C35.6668 49.3333 43.0002 47.4444 49.5557 44.2222C51.889 43 54.2224 41.5556 56.2224 39.6667C56.2224 39.6667 56.2224 39.6667 56.3335 39.6667C60.0002 40.6667 63.6668 41.6667 67.0002 43.5556C68.5557 44.4445 70.0002 45.4445 71.1113 46.7778C71.889 47.6667 74.3335 51 72.1113 51.8889Z" fill="#022433"/>
</svg>
