<svg width="63" height="77" viewBox="0 0 63 77" fill="none" xmlns="http://www.w3.org/2000/svg">
<path d="M1.70003 37.8001C0.700027 36.3001 0.100027 34.8001 2.67539e-05 33.0001C-0.0999732 27.9001 3.60003 23.4001 8.40003 22.5001C12.5 21.8001 16.4 22.4001 19.8 25.0001C20.1 25.2001 20.5 25.3001 21.1 25.5001C21.5 23.4001 21.9 21.5001 22.1 19.6001C22.6 16.4001 23 13.2001 24.1 10.1001C24.7 8.60006 25.3 7.10006 26.1 5.70006C27.9 3.00006 30.4 1.40006 33.6 1.00006C36.9 0.60006 40.5 3.50006 40.2 8.30006C40 10.5001 39.6 12.6001 39.2 14.8001C38.8 17.3001 38.3 19.7001 38.2 22.2001C38.1 23.9001 38.3 25.5001 38.5 27.2001C38.7 28.9001 39.7 30.3001 40.9 31.4001C42.5 32.8001 44.4 33.6001 46.3 34.4001C46.8 34.6001 47.5 34.4001 48 34.2001C51.4 33.1001 54.9 33.2001 58.4 33.9001C61.1 34.5001 62.3 36.1001 62.4 39.0001C62.5 44.9001 62.3 50.7001 61.8 56.6001C61.4 61.2001 61.1 65.8001 60.7 70.5001C60.6 71.5001 60.5 72.5001 60.3 73.4001C60.1 74.8001 59.3 75.7001 58.2 75.7001C53.4 76.0001 48.7 76.2001 43.9 76.4001C42.5 76.5001 41.2 75.7001 40.4 74.4001C40 73.7001 39.7 72.8001 39.5 72.0001C39.3 71.1001 39.2 70.2001 39 69.0001C38.3 69.4001 37.6 69.7001 37 70.0001C32.6 72.0001 28.1 73.8001 23.2 73.5001C18 73.3001 13 72.1001 8.40003 69.2001C7.00003 68.3001 5.70003 67.2001 4.60003 66.0001C2.40003 63.7001 1.80003 60.8001 2.40003 57.7001C2.60003 56.7001 2.50003 56.0001 2.00003 55.1001C0.700027 52.9001 0.200027 50.6001 1.50003 48.2001C1.80003 47.7001 1.80003 47.2001 1.40003 46.7001C-0.499973 44.0001 -0.199973 41.3001 1.40003 38.6001C1.40003 38.3001 1.50003 38.1001 1.70003 37.8001ZM45.5 36.6001C44.9 36.5001 44.6 36.4001 44.3 36.3001C40.3 34.9001 37.1 32.6001 36 28.0001C35.5 25.8001 35.4 23.6001 35.7 21.4001C35.9 19.9001 36 18.4001 36.2 16.8001C35.5 16.9001 34.9 16.9001 34.4 17.0001C32.2 17.4001 30.5 16.0001 30.4 13.6001C30.3 12.5001 30.5 11.4001 30.7 10.3001C31.2 6.90006 31.6 6.50006 34.9 6.30006C35.7 6.30006 36.5 6.20006 37.3 6.20006C37 4.10006 35.2 2.90006 33.3 3.30006C31 3.80006 29 4.90006 27.9 7.20006C26.9 9.00006 26 10.9001 25.5 12.9001C24.6 16.7001 23.9 20.6001 23.1 24.4001C22.6 27.1001 21.7 29.7001 20.3 32.0001C19.9 32.6001 19.6 33.3001 18.6 33.3001C18.5 31.6001 17.4 30.7001 16.1 30.1001C15.1 29.6001 14 29.5001 13 29.3001C12.6 29.2001 12 29.5001 11.6 28.7001C12.3 28.5001 12.8 28.3001 13.4 28.2001C15 28.1001 16.5 28.6001 17.9 29.6001C18.3 29.9001 18.8 30.2001 19.3 30.5001C19.6 30.0001 19.8 29.6001 19.9 29.3001C20.3 28.2001 20.2 28.0001 19.2 27.3001C16 25.0001 12.5 24.2001 8.60003 24.7001C5.80003 25.0001 4.00003 26.5001 2.50003 28.9001C1.00003 31.2001 1.40003 35.1001 3.20003 36.7001C3.70003 37.1001 4.10003 37.7001 4.60003 38.2001C5.00003 38.7001 5.50003 39.2001 5.40003 40.2001C4.90003 40.0001 4.40003 39.8001 4.00003 39.6001C3.20003 39.2001 2.70003 39.4001 2.40003 40.2001C1.80003 41.6001 1.60003 43.0001 2.40003 44.4001C3.00003 45.4001 3.60003 46.4001 4.10003 47.4001C4.50003 48.1001 4.80003 48.9001 5.20003 49.6001C5.10003 49.7001 5.00003 49.7001 5.00003 49.8001C4.30003 49.5001 3.70003 49.1001 3.00003 48.8001C1.90003 50.3001 2.40003 51.7001 3.00003 52.9001C3.80003 54.3001 4.80003 55.5001 5.70003 56.8001C6.00003 57.2001 6.60003 57.5001 6.30003 58.4001C5.70003 58.0001 5.00003 57.8001 4.20003 57.6001C3.80003 60.1001 4.30003 62.3001 5.80003 64.0001C6.90003 65.2001 8.30003 66.3001 9.70003 67.2001C12.5 69.1001 15.8 69.7001 19 70.4001C21.8 71.0001 24.7 71.2001 27.5 70.6001C30 70.1001 32.3 69.1001 34.7 68.3001C36 67.9001 37.3 67.3001 38.6 67.0001C39.3 66.8001 39.6 66.5001 39.8 65.8001C40 64.7001 40.2 63.6001 40.4 62.6001C42 54.6001 43.7 46.5001 45.3 38.5001C45.4 37.8001 45.4 37.3001 45.5 36.6001ZM60.1 43.9001H60C60 42.3001 60 40.8001 60 39.2001C60 37.3001 59.5 36.7001 57.8 36.3001C54.7 35.6001 51.6 36.0001 48.5 36.0001C47.9 36.0001 47.7 36.4001 47.6 37.0001C47.5 38.3001 47.4 39.5001 47.2 40.8001C46.2 46.4001 45.2 52.1001 44.1 57.7001C43.4 61.4001 42.5 65.0001 41.9 68.7001C41.2 73.2001 42.9 74.0001 45.9 73.8001C49 73.6001 52.1 73.5001 55.2 73.4001C58.7 73.2001 58.3 73.4001 58.6 69.8001C58.9 67.3001 58.9 64.7001 59.1 62.2001C59.4 56.1001 59.7 50.0001 60.1 43.9001ZM34.6 15.3001C36.4 15.3001 36.6 15.3001 36.8 14.2001C37.2 12.4001 37.5 10.6001 37.8 8.80006C38 7.70006 37.6 7.40006 36.5 7.40006C35.4 7.50006 34.2 7.50006 33.1 7.70006C32.7 7.80006 32.2 8.10006 32.2 8.40006C31.7 10.1001 31.3 11.8001 31.7 13.5001C32 14.7001 32.5 15.1001 33.6 15.3001C33.9 15.4001 34.2 15.3001 34.6 15.3001Z" fill="#022433"/>
</svg>
