<svg width="100" height="100" viewBox="0 0 100 100" fill="none" xmlns="http://www.w3.org/2000/svg">
<rect width="100" height="100" fill="white"/>
<path d="M75.0967 55.0583V55.152V55.2457C75.0967 56.1824 74.723 57.1191 74.1625 57.8684C72.2942 60.3038 69.118 60.4912 66.3155 60.3038C64.7274 63.3012 65.9418 67.048 68.0904 69.2024C69.9587 71.0758 72.5744 72.3872 76.1243 73.1365C76.3111 73.0428 76.4979 73.0428 76.6848 73.0428C80.9819 73.2302 85.6528 72.6682 89.296 70.2328C90.9775 69.1087 93.4998 66.8607 93.2195 64.6126C92.8459 61.8025 88.829 61.9899 86.7738 62.0835C85.933 62.1772 85.466 61.3342 85.6528 60.5848C86.4001 56.9317 87.1475 52.904 85.5594 49.3445C84.4384 46.7218 82.1964 44.3801 79.4873 43.3497C73.9757 41.1953 67.3431 45.3167 67.4365 51.3116H67.5299H67.7168L67.8102 51.5926C68.0904 51.5926 68.2772 51.5926 68.4641 51.4989H68.8377H68.9312C70.5193 51.8736 71.9205 52.3419 72.9481 52.9976C74.2559 53.5596 74.9098 54.2153 75.0967 55.0583ZM94.9945 62.7392C96.3957 65.5493 94.434 68.6404 92.3788 70.6074C90.5105 72.4808 88.0816 73.6985 85.5594 74.4479C84.9989 74.6352 84.5318 74.7289 83.9713 74.8226C84.5318 75.8529 85.0923 76.8833 85.8396 77.82C86.2133 78.382 85.933 79.1313 85.3725 79.4124C84.6252 79.9744 83.8779 80.4427 83.1305 81.0047C81.9161 81.8478 80.7017 79.787 81.9161 78.944C82.2898 78.663 82.7569 78.382 83.1305 78.101C82.4766 77.1643 82.0095 76.2276 81.5424 75.1972C79.5807 75.4782 77.5255 75.4782 75.5638 75.1972C75.0967 76.6959 74.8164 78.1946 74.5362 79.6934C74.4428 80.2554 73.8823 80.5364 73.4152 80.5364C72.481 80.6301 71.5468 80.7237 70.6127 80.8174C69.118 81.0047 69.118 78.663 70.6127 78.4757C71.2666 78.382 71.8271 78.382 72.481 78.2883C72.6678 77.0706 72.9481 75.8529 73.3218 74.7289C70.0522 73.8859 67.1562 72.1061 65.1011 69.1087C63.1393 66.2987 62.7657 62.8329 63.8867 59.9291C61.9249 59.4608 60.6171 58.4304 60.15 57.0254C59.7763 55.9014 59.8697 54.9647 60.4302 54.1217C61.1776 52.9976 62.6722 52.1546 65.1945 51.7799V51.6863C64.9142 48.5015 66.4089 45.4104 68.7443 43.256C73.1349 39.3219 79.3939 39.4156 83.8779 43.1624C86.0264 44.9421 87.6145 47.4711 88.3619 50.1875C89.2026 53.2786 88.7355 56.4634 88.175 59.5545C90.8841 59.6481 93.6866 60.1165 94.9945 62.7392ZM72.2942 56.4634C72.481 56.1824 72.6678 55.8077 72.6678 55.433C72.5744 55.0583 72.2942 54.6837 71.7337 54.4027C70.8929 53.9343 69.7719 53.8406 68.5575 53.8406C67.1562 53.8406 65.755 54.028 64.8208 54.2153C63.513 54.4963 62.7657 54.9647 62.4854 55.714C62.2051 56.5571 62.9525 57.1191 63.4196 57.4001C64.2603 57.8684 65.2879 58.0558 66.1287 58.0558C67.2497 58.1494 68.6509 58.2431 69.8653 57.9621C70.6127 57.7748 71.7337 57.2127 72.2942 56.4634Z" fill="#022433"/>
<path d="M74.6298 47.5645C76.1245 47.5645 76.1245 49.9062 74.6298 49.9062C73.1351 49.9062 73.1351 47.5645 74.6298 47.5645Z" fill="#022433"/>
<path d="M57.7219 60.8657C59.0297 62.9264 59.1231 65.5492 57.7219 67.5162C56.2272 69.5769 53.705 70.5136 51.3695 71.1693C48.1934 72.106 45.0172 72.7617 41.7476 73.1364C40.0661 73.3237 38.3846 73.4174 36.7031 73.511C37.0768 75.0098 37.5438 76.5085 38.2912 77.9135C38.3846 78.1008 38.3846 78.2882 38.3846 78.4755C38.9451 79.0375 38.8517 80.1616 37.9175 80.5362C36.7031 80.9109 35.5821 81.2856 34.3677 81.6603C32.9664 82.1286 32.3125 79.8806 33.7137 79.4122L35.9558 78.6629C35.2084 76.9768 34.5545 75.2908 34.1808 73.511C32.7796 73.511 31.3783 73.4174 29.9771 73.3237V79.8806C29.9771 80.1616 29.8837 80.3489 29.7902 80.5362C30.1639 81.2856 29.7902 82.316 28.7627 82.2223C26.6141 82.035 24.4655 81.8476 22.3169 81.7539C20.8222 81.6603 20.8222 79.3185 22.3169 79.4122C24.0918 79.5059 25.8667 79.6932 27.5482 79.7869V73.23V73.1364C25.7733 72.8554 23.9984 72.5744 22.3169 72.106C17.0855 70.7946 11.7608 68.1719 8.58461 63.5821C5.87552 59.5543 4.94136 54.2152 7.08994 49.8127C4.66111 49.3444 2.04543 48.2203 1.2981 45.6913C-0.289988 40.6331 4.94136 39.0408 9.6122 38.3851C7.46361 33.3269 8.95828 27.2384 12.7884 23.398C17.179 18.9955 24.2786 17.0285 30.4442 18.0588C35.7689 18.9019 39.2253 23.0233 40.8134 27.8941C42.6818 33.6079 41.6542 39.6028 41.2805 45.5039C41.1871 47.19 41.0937 48.876 41.1871 50.5621C41.2805 51.7798 41.0937 53.9342 42.2147 54.7772C43.4291 55.6202 45.5777 55.6202 47.0724 55.8076C48.567 55.9949 49.9683 56.1822 51.463 56.4632C53.9852 57.1189 56.3206 58.524 57.7219 60.8657ZM53.4247 67.9846C55.4799 67.0479 57.068 65.2682 56.1338 62.9264C54.0786 57.4936 46.8855 58.7113 42.4015 57.3999C39.7858 56.6506 39.0385 54.6835 38.7583 52.1545C38.478 49.157 38.6648 46.2533 38.9451 43.2559C39.4122 38.1977 39.9727 32.9523 38.2912 28.0815C36.6097 23.398 33.0598 20.3069 27.9219 20.1196C22.8774 20.0259 17.4592 21.6183 13.9094 25.4587C11.6674 28.0815 10.453 31.8282 11.2003 35.3877C11.7608 37.8231 12.041 37.5421 13.9094 38.0104C15.9645 38.5724 17.9263 38.9471 19.7946 39.9775C20.6354 40.4458 21.4761 41.1015 22.0366 41.8508C23.0642 43.4432 22.3169 45.3166 21.2893 46.7216C18.4868 50.2811 13.816 50.3747 9.70562 50.0937C6.99653 54.6835 8.77145 60.6784 12.3213 64.2378C16.525 68.4529 22.5037 70.0453 28.2022 70.7946C33.994 71.544 39.8793 71.3567 45.6711 70.2326C48.2868 69.6706 50.9959 69.1086 53.4247 67.9846ZM19.3276 45.2229C20.2617 44.0052 20.3551 42.5065 18.2066 41.3825C15.404 39.8838 10.453 40.4458 7.55703 41.0078C6.06236 41.2888 4.28744 41.9445 3.72694 43.5369C3.25985 44.9419 4.19402 46.066 5.31502 46.628C6.62286 47.3773 8.11753 47.5647 9.6122 47.6583C11.4805 47.752 13.4423 47.8457 15.3106 47.5647C16.6185 47.3773 18.3934 46.4406 19.3276 45.2229Z" fill="#022433"/>
<path d="M23.3451 36.4179C23.3451 36.6989 23.1583 37.0736 22.9715 37.2609C22.7846 37.4483 22.411 37.6356 22.1307 37.6356H21.6636C21.3834 37.6356 21.1031 37.5419 20.8229 37.2609C20.6361 37.0736 20.4492 36.6989 20.4492 36.4179C20.4492 36.1369 20.6361 35.7622 20.8229 35.5749C21.0097 35.3875 21.3834 35.2002 21.6636 35.2002H22.1307C22.411 35.2002 22.6912 35.2939 22.9715 35.5749C23.2517 35.8559 23.3451 36.1369 23.3451 36.4179Z" fill="#022433"/>
</svg>
