<?xml version="1.0" encoding="utf-8"?>
<!-- Generator: Adobe Illustrator 24.3.0, SVG Export Plug-In . SVG Version: 6.00 Build 0)  -->
<svg version="1.1" id="Layer_1" xmlns="http://www.w3.org/2000/svg" xmlns:xlink="http://www.w3.org/1999/xlink" x="0px" y="0px"
	 viewBox="0 0 1236 403" enable-background="new 0 0 1236 403" xml:space="preserve">
<path fill="none" stroke="#022433" stroke-width="3" stroke-miterlimit="10" d="M1152,401c-138.6-65.2-292.1-7.1-439.1-18
	c-41.1-3-82-11.7-123.1-13.4c-61.1-2.7-122.1,9.5-183.1,14.1c-67.3,5.1-135,1.1-201.6-11.8c-48.7-9.5-99.4-23.7-146.1-3.7"/>
<path fill="#022433" d="M936.8,162.8c26,0,51.9,0.1,77.9,0.1c5.4,0,11.5,0.9,16.8-0.3c4.4-1,6.6-4.6,7.6-8.7
	c2.6-10,4.4-22.1,0.2-31.8c-3.2-7.4-10.2-13.9-18.9-12.8c-7.4,0.9-13.9,6.9-13.1,14.6c0.2,2.2,1.3,4.6,1,6.8c-0.5,4.1-5.8,4-8.9,4.3
	c-6.1,0.6-13.3,0.5-17.5-4.7c-3.6-4.4-1-9.1-0.6-14c0.3-3.8-1.4-7.1-5.2-8.2c-2.8-0.7-5.8-0.5-8.7-0.5c-3.6-0.1-7.2-0.2-10.8-0.2
	c-4.2,0-8.4,0.9-9.6,5.6c-0.7,2.8-0.5,5.3-2.2,7.8c-1.7,2.6-4.5,4.5-7.4,5.7c-6.3,2.4-13.4,1.3-19.9,0.5c0.6,0.4,1.3,1,1.9,1.4
	c-1.2-3.9-2.2-7.6-3.4-11.5c-0.6-2.2-1-6.3-2.6-8.1c-2.8-3.1-9.7-2-13-0.8c-11,4-15.6,15-15.7,26c-0.1,6.2,0.6,13.4,2.3,19.3
	c1.4,5,5,6.6,10,6.8c15.5,0.9,31.1,0.7,46.5,0.4c2.5-0.1,2.5-4,0-4c-11.4,0.3-22.7,0.3-34.1,0c-2.9-0.1-5.7-0.2-8.5-0.3
	c-2.3-0.1-6,0.4-8.2-1c-2.2-1.4-2.3-5-2.7-7.3c-0.4-2.9-0.9-5.7-1.2-8.5c-0.9-10,0.7-21.1,10.2-26.6c3-1.7,9.7-4,11.8-0.1
	c1.2,2.2,1.6,5.5,2.3,7.9c0.8,2.9,1.7,5.8,2.5,8.6c0.3,0.9,1,1.3,1.9,1.4c9,1.2,19,2.2,26.7-3.9c2.8-2.2,5-5.1,5.9-8.6
	c0.5-2.2,0-5.5,2.7-6.7c2.5-1.1,6.6-0.3,9.2-0.3c4.1,0.1,14.6-1.6,15.4,3.8c0.5,4-2.2,8-1.2,12.2c2,8.4,11.1,11.8,18.8,11.7
	c6.8-0.1,17.9-0.4,17.2-9.6c-0.3-4.5-2.2-8.5,1.1-12.5c3.1-3.6,8.4-5,12.7-3.4c10.2,3.6,12.4,16,11.7,25.3c-0.4,5.1-0.8,12-3.2,16.6
	c-2.7,5.3-13.1,3.3-18.1,3.3c-26.5,0-53-0.1-79.5-0.1C934.3,158.8,934.3,162.8,936.8,162.8z"/>
<path fill="#022433" d="M911,158.8c4.7,36,7.3,72.3,7.9,108.6c0.1,2.5,4,2.5,4,0c-0.6-36.3-3.3-72.6-7.9-108.6
	C914.6,156.4,910.7,156.3,911,158.8z"/>
<path fill="#022433" d="M1013.9,163.2c2,31.1,3.9,62.2,5.8,93.3c0.2,2.5,4.1,2.5,4,0c-2-31.1-3.9-62.2-5.8-93.3
	C1017.7,160.6,1013.7,160.6,1013.9,163.2z"/>
<path fill="#022433" d="M914.3,111.7c17.1-19.2,34.8-38,52.8-56.2c-1-0.1-2.1-0.3-3.1-0.4c14.8,19.5,29,39.4,42.6,59.8
	c1.4,2.1,4.9,0.1,3.4-2c-13.7-20.4-27.9-40.3-42.6-59.8c-0.7-1-2.2-1.3-3.1-0.4c-18.2,18.2-35.8,37-52.8,56.2
	C909.9,110.8,912.6,113.6,914.3,111.7z"/>
<path fill="#022433" d="M962.6,56.9c2.7-18.3,6.6-36.5,11.7-54.4c-1,0.4-1.9,0.8-2.9,1.2c10.9,6.5,21.4,13.5,31.6,20.8
	c0.2-1.2,0.3-2.4,0.4-3.6c-12.9,4.6-26.3,6.9-40.1,7.1c-2.5,0-2.5,4,0,4c14-0.2,27.9-2.6,41.1-7.3c1.7-0.6,1.9-2.6,0.5-3.6
	c-10.2-7.5-20.8-14.4-31.6-20.8c-1.1-0.6-2.5,0-2.9,1.2c-5,17.9-9,36-11.7,54.4C958.5,58.3,962.2,59.4,962.6,56.9z"/>
<path fill="#022433" d="M958.8,258.7c0-12.2-0.1-24.4-0.1-36.7c0-2.9,0-5.8,0-8.6c0-1.4-0.1-2.9,0-4.3c0.2-2.5,2.1-3.7,4.5-3.9
	c5.8-0.4,11.9-0.3,17.7,0.1c-0.6-0.6-1.3-1.3-2-2c0.3,18.5,1.3,36.9,3.1,55.3c0.3,2.5,4.2,2.5,4,0c-1.9-18.4-2.9-36.8-3.1-55.3
	c0-1.1-0.9-1.9-2-2c-6.5-0.4-14-1.2-20.4,0.3c-5.6,1.3-5.8,6.2-5.8,11.1c0,15.4,0.1,30.7,0.1,46
	C954.9,261.2,958.8,261.2,958.8,258.7z"/>
<path fill="#022433" d="M966.5,206.1c-3.4,3.5-6.8,7.1-10.2,10.6c1,0.8,2.1,1.6,3.1,2.4c2.2-4.1,4.3-8.3,6.5-12.4
	c-1.3-0.4-2.4-0.6-3.7-1c0,7.5-1.5,14.7-4.6,21.6c1.3,0.4,2.4,0.6,3.7,1c0.4-3.8,1.8-6.9,4-9.9c-1.2-0.5-2.4-1-3.6-1.5
	c-2.2,7.1-4.4,14.1-6.6,21.2c1.3,0.4,2.5,0.7,3.8,1.1c1.1-6.6,4.2-12.2,9.3-16.6c-1.1-0.4-2.2-0.9-3.3-1.4
	c-0.7,11.5-4.2,22.5-10.2,32.3c1.2,0.5,2.4,1,3.6,1.5c2.7-8.1,6.4-15.5,11.2-22.6c-1.2-0.2-2.4-0.3-3.6-0.4
	c1.4,5.7,0.1,11.3-3.8,15.7c1.1,0.4,2.2,0.9,3.3,1.4c-0.5-11.6,0.9-22.9,4.3-34c-1.3-0.2-2.6-0.4-3.9-0.5c0.7,7.5,1.5,15,2.2,22.5
	c0.3,2.5,4,2.6,4,0c0-5.5-0.7-10.9-2.1-16.3c-1.2,0.5-2.4,1-3.6,1.5c1.3,2.5,2.5,5.1,3.8,7.6c0.9,1.8,3.6,0.9,3.7-1
	c0.1-4.9,0.2-9.6,0.4-14.5c-1.3,0.2-2.6,0.4-3.9,0.5c4.3,13.4,5.7,27.2,4,41.2c0.6-0.6,1.3-1.3,2-2c-6.6-0.3-13.2,0.3-19.8,1.6
	c-2.2,0.4-1.7,4,0.5,3.9c7.3-0.4,14.5-1.4,21.6-3.3c1.1-0.3,1.5-1.3,1.3-2.4c-2.2-13.7-3.4-27.4-3.6-41.2c0-2.5-4-2.5-4,0
	c0,7.3,0,14.6,0,21.8c1.3,0,2.6,0,4,0c0-7.5,0-14.9,0-22.4c0-2.5-4-2.5-4,0c0,7.5,0,14.9,0,22.4c0,2.5,4,2.5,4,0
	c0-7.3,0-14.6,0-21.8c-1.3,0-2.6,0-4,0c0.2,14.2,1.4,28.3,3.8,42.3c0.4-0.8,0.9-1.6,1.3-2.4c-6.7,1.8-13.6,2.9-20.6,3.2
	c0.2,1.3,0.4,2.6,0.5,3.9c6.2-1.3,12.4-1.7,18.7-1.4c1.2,0.1,1.9-1,2-2c1.8-14.3,0.4-28.6-4-42.2c-0.7-2.1-3.9-1.7-3.9,0.5
	c-0.1,4.9-0.2,9.6-0.4,14.5c1.3-0.4,2.4-0.6,3.7-1c-1.3-2.5-2.5-5.1-3.8-7.6c-1-2.1-4.1-0.6-3.6,1.5c1.3,5,1.9,10.1,1.9,15.2
	c1.3,0,2.6,0,4,0c-0.7-7.5-1.5-15-2.2-22.5c-0.2-2.2-3.1-2.8-3.9-0.5c-3.5,11.3-5,23.1-4.5,35c0.1,1.6,2.2,2.8,3.3,1.4
	c4.8-5.5,6.6-12.5,4.9-19.5c-0.5-1.7-2.7-1.8-3.6-0.4c-4.9,7.3-8.8,15.2-11.6,23.5c-0.7,2.2,2.5,3.4,3.6,1.5
	c6.3-10.5,9.9-22.1,10.7-34.3c0.1-1.8-2.2-2.4-3.3-1.4c-5.6,4.8-9.2,11.1-10.3,18.3c-0.4,2.4,3.1,3.5,3.8,1.1
	c2.2-7.1,4.4-14.1,6.6-21.2c0.7-2.3-2.3-3.1-3.6-1.5c-2.7,3.6-4.1,7.5-4.6,11.9c-0.2,1.9,2.9,2.8,3.7,1c3.3-7.5,5-15.4,5.1-23.5
	c0-1.9-2.8-2.8-3.7-1c-2.2,4.1-4.3,8.3-6.5,12.4c-1,1.9,1.5,4,3.1,2.4c3.4-3.5,6.8-7.1,10.2-10.6C971,207.1,968.3,204.3,966.5,206.1
	z"/>
<path fill="#022433" d="M825.8,303.1c-0.9-7.3-1.9-14.5-2.8-21.7c-0.4,0.6-1,1.3-1.4,1.9c5.1-1.4,10.2-3,15.4-4.4
	c-0.8-0.6-1.7-1.3-2.5-1.9c0,10.2,8.6,21.2,19.7,17.2c4.4-1.6,8.2-5.5,8.6-10.2c0.4-3.3-1.9-6.7,0.8-9.5c1.8-1.9,6.7-4.4,9.3-4.1
	c4,0.4,2.9,6.1,3.5,8.8c0.5,2,1.4,3.8,2.9,5.1c2.8,2.7,6.9,4,10.7,3.6c3.9-0.3,7.6-2.2,9.5-5.7c1.3-2.5,1.3-5.3,2.2-8
	c0.9-3.1,3.1-5.7,6.1-7c6.9-3.1,13.9,0.6,16.1,7.6c2.1,6.7,0.4,14.3-1.2,20.8c0.4-0.4,0.9-0.9,1.3-1.3c-32.5,5.7-65.2,10.3-98,14
	c0.6,0.4,1.3,1,1.9,1.4c-0.9-3.1-1.9-6.1-2.8-9.3c-0.7-2.4-4.6-1.3-3.8,1.1c0.9,3.1,1.9,6.1,2.8,9.3c0.3,0.7,1.1,1.5,1.9,1.4
	c33.2-3.7,66.2-8.4,99.1-14.1c0.6-0.1,1.3-0.8,1.3-1.3c2.4-9.5,4.7-22.6-3.1-30.5c-7-7-19.9-4.9-24.4,4c-2.6,4.9-1,12-7.9,13.5
	c-5.3,1.1-10.3-1.7-11-7.2c-0.5-4.1-0.7-9.4-6-10.1c-4.6-0.6-11.6,2.6-14.3,6.3c-1.7,2.2-1.8,4.7-1.3,7.4c0.7,4.3-0.4,7.7-4.4,9.9
	c-8.7,4.6-15.6-5-15.6-12.9c0-1.3-1.3-2.2-2.5-1.9c-5.1,1.4-10.2,3-15.4,4.4c-0.7,0.2-1.5,1.1-1.4,1.9c0.9,7.3,1.9,14.5,2.8,21.7
	C822.2,305.5,826.2,305.6,825.8,303.1z"/>
<path fill="#022433" d="M841,314.9c5.5,15.5,11.1,30.9,16.5,46.3c0.8,2.3,4.7,1.3,3.8-1.1c-5.5-15.5-11.1-30.9-16.5-46.3
	C844,311.5,840.2,312.5,841,314.9z"/>
<path fill="#022433" d="M916.7,301.4c2.3,16.4,7.1,32.1,14,47c1.1,2.3,4.5,0.3,3.4-2c-6.8-14.6-11.4-30.1-13.7-46.1
	C920.1,297.9,916.3,298.9,916.7,301.4z"/>
<path fill="#022433" d="M983.5,294.4c23.5,0.4,47.1,0.7,70.7,1.1c5.7,0.1,11.4,0.2,17.1,0.3c3.6,0.1,7.9,0.4,10.9-2.1
	c3.1-2.5,3-7,3.4-10.7c0.7-6.2,1.3-12.5,2.1-18.7c0.1-0.9-0.7-1.6-1.4-1.9c-4.4-1.7-9.3-4.5-13.9-5.3c-2.5-0.4-4.8,0.6-5.7,3.1
	c-1.3,3.7,0.5,7.2-2.8,10.2c-4.8,4.3-11.9,2.4-17.3,1c0.4,0.8,0.9,1.6,1.3,2.4c1.7-9.8-0.1-22.6-11.9-24.6c-4-0.7-8.2,0.5-10.7,4
	c-3.7,5-2.5,12-5.9,17.3c-3.8,5.8-13.8,7.6-15.6-0.7c-1.1-4.8,0.5-9.9-1.3-14.5c-4.3-10.6-16.9-4.2-21.3,2.7
	c-6.9,10.9-4.3,25-1.8,36.8c0.5,2.5,4.3,1.4,3.8-1.1c-2.4-11.5-5.8-28.1,4.2-37.2c2.6-2.3,7.4-4.5,10.3-1.4c2.1,2.1,1.8,5.6,1.8,8.3
	c0,4.7-0.1,10,3.7,13.4c3.4,3.1,8.7,3.5,12.9,1.7c5.2-2.2,8.4-7.6,9.6-13c0.7-3.1,0.7-6.9,2.7-9.7c2.1-2.9,5.8-3.2,9-2.1
	c7.6,2.9,7.9,12.4,6.7,19.2c-0.2,1.1,0.3,2.2,1.3,2.4c7.6,2,17.5,3.7,22.8-3.9c0.9-1.3,1.5-2.6,1.8-4.1c0.3-1.3-0.4-3.5,0.2-4.8
	c1.2-2.7,5-0.1,6.8,0.5c2.7,1.1,5.4,2.2,8.1,3.1c-0.5-0.6-1-1.3-1.4-1.9c-0.5,5.2-1.2,10.4-1.7,15.5c-0.3,2.6-0.4,5.5-1,8
	c-0.7,3.2-3.4,3.9-6.3,3.9c-9.9,0.3-19.9-0.3-29.8-0.4c-20.5-0.4-40.9-0.6-61.4-1C981,290.4,981,294.3,983.5,294.4z"/>
<path fill="#022433" d="M990.4,296.4c0,18.5,0,37,0,55.5c0,2.5,4,2.5,4,0c0-18.5,0-37,0-55.5C994.3,293.9,990.4,293.9,990.4,296.4z"
	/>
<path fill="#022433" d="M1068.1,298.7c0.9,16.2,0.2,32.3-2.3,48.3c-0.4,2.5,3.4,3.6,3.8,1.1c2.5-16.4,3.4-32.9,2.5-49.3
	C1071.9,296.1,1068,296.1,1068.1,298.7z"/>
<path fill="#022433" d="M927.9,185.3c8.2-0.9,16.3-1.8,24.4-2.7c2.5-0.3,2.5-4.2,0-4c-8.2,0.9-16.3,1.8-24.4,2.7
	C925.4,181.6,925.4,185.5,927.9,185.3z"/>
<path fill="#022433" d="M972.4,178.4c2.2,0,4.4,0,6.6,0c2.5,0,2.5-4,0-4c-2.2,0-4.4,0-6.6,0C969.8,174.5,969.8,178.4,972.4,178.4z"
	/>
<path fill="#022433" d="M893.8,332.8c4-5.1,10-7.7,16.4-7.5c2.5,0.1,2.5-3.9,0-4c-7.9-0.4-15,3.1-19.8,9.4
	C888.8,332.8,892.2,334.8,893.8,332.8z"/>
<path fill="#022433" d="M937.7,317.9c6.6-3.5,13.8-4.8,21.4-3.9c2.5,0.3,2.5-3.7,0-4c-8.2-1-16.1,0.6-23.4,4.4
	C933.4,315.7,935.5,319,937.7,317.9z"/>
<path fill="#022433" d="M974.5,311.6c1.4-0.1,3-0.3,4.4-0.4c1.1-0.1,2-0.8,2-2c0-1-0.9-2.1-2-2c-1.4,0.1-3,0.3-4.4,0.4
	c-1.1,0.1-2,0.8-2,2C972.6,310.7,973.5,311.7,974.5,311.6z"/>
<path fill="#022433" d="M996.8,342.9c2.2,0,4.4,0,6.7,0c2.5,0,2.5-4,0-4c-2.2,0-4.4,0-6.7,0C994.3,338.9,994.3,342.9,996.8,342.9z"
	/>
<g id="curriculumM1">
	<path fill="#1A1A1A" d="M405.3,254.3c-3.8-5.2,5.3-23.6,5.3-29.1c0-4.6-8.6-6.4-9-13.1c-0.6-10.3,4-12.4,11.5-17.4
		c4.8-3.2,2-1.3,6.6-4.7c-1.8-3.2-2.3-1.1-4.4-1.8c-2.6-0.8-3.4-4.6,0.7-11.5c4.5-7.7,12.1-10.7,20.3-13c9.8-2.6,12.2-2.5,22.7-2.3
		c-1.4-5.1-8.3-7.6-4.4-12.9c3.4-4.7,9-5.1,14.3-4.9c10.4,0.4,20.4,2.7,29,8.5c3.3,2.2,5.6,2.3,8.8,0.5c8.5-4.7,18-5.3,27.4-5
		c12.3,0.5,18.3,2.7,14.4,13.8c7,1,24.3,4.8,31.1,11.4c11.1,10.6,8.6,20.7-5.7,27.1c0.3,3.8,8,3.6,10.5,10.5
		c1.2,3.4,2.6,8.1,0.2,10.1c-8.8,7.2,3.9,28.1,0.3,37.2c-0.5,0.7-1.1,1.1-2,1.2c-3.5-0.2-7-2-10.6-1.1c-7.2,1.7-9.4-2.1-10-8.2
		c-0.5-6.3-2.7-12.1-5.5-17.8c-1.4-2.8-3.1-5.1-7-4.2c-6.2,1.5-10.6-1.4-14.5-5.7c-1.5-1.6-2.6-4.6-5.8-1.6
		c-7.2,6.7-14.3,3.3-21.1-0.7c-4.1-2.3-7.3-5.8-10.3-10c-4,3-6,7.3-9.3,10.3c-10.2,9.2-18.1,7.8-23.5-4.9
		c-5.3,5.4-11.3,7.8-18.7,5.1c-3.7-1.3-5.5,1.9-7.1,4.4c-5,7.6-9.5,15.4-11.2,24.4c-0.7,3.8-1.7,7.9-7.5,6c-3.1-2-6.2-2.8-9.8-0.9
		C409.5,254.9,407.4,255.9,405.3,254.3z"/>
	<path fill="#F7B7A2" d="M515.9,364.8c56-8.8,94.3-60.5,85.7-115.5c-8.6-55-61-92.4-117-83.6c-56,8.8-94.3,60.5-85.7,115.5
		C407.6,336.2,460,373.6,515.9,364.8z"/>
	<path fill="#1A1A1A" d="M524.4,226.4c-9.2,2-23.1,11.3-37.9,9.2c-3.6-0.5-7.7-5.1-11.9-4.7c-1.6-0.7-6.4,1.5-7.1,4.8
		c-1,5,1.5,8.9,5.9,12.1c0,0,1.2,1,3.4,2.1c0.7,0.3,1.3,0.7,2,1c0,0,0.1,0,0.1,0c4.5,2,11.5,4,20.7,3.3c11-0.9,19.3-6.3,23.6-9.9
		c1.3-1,2.4-2,3.4-3.1c2.8-3.1,4.2-6.4,4.5-9.7C531.3,228.9,531.4,225.8,524.4,226.4z"/>
	<path fill="#F2EDEC" d="M520.4,230.8c-9.3,9.1-33.7,11.1-46.2,2.3c-0.2-1.9-2.1-3.2,3.1-2c13.9,3.1,29.7,0.6,43.2-3.5
		C520.9,228.2,520.8,230,520.4,230.8z"/>
	<path fill="#EB5C65" d="M480.7,251.7c11.2-3.9,24.6-4.9,36.5-3.1C504.5,256.3,490.4,255.6,480.7,251.7z"/>
	<path opacity="0.1" fill="none" stroke="#020203" stroke-width="7.192" stroke-miterlimit="10" enable-background="new    " d="
		M502.7,299.7l5.1,65.9"/>
	<path opacity="0.15" fill="#020203" enable-background="new    " d="M502.4,267.5l4.5,85.5l-20.7,2.7c0,0,10.5-20.9,5.7-62
		S502.4,267.5,502.4,267.5z"/>
	<path opacity="0.15" fill="#020203" enable-background="new    " d="M498.5,267.5l9.2,85.6l21.6-0.9c0,0-14.2-19-15.9-60.6
		C511.8,250,498.5,267.5,498.5,267.5z"/>
	<path fill="#B3E4EF" d="M398.1,273.8c1.6,20.8,10.4,47.1,34.6,67.7c1.1-11.4,42.6-33.3,72.8-13.3c20.9-24.6,65.5-14,73.8,1
		c20.2-25,25.2-47.4,23.3-72L398.1,273.8z"/>
	<path opacity="0.2" fill="#FFFFFF" enable-background="new    " d="M401.5,280.9c0,0-2.4,0.1-2.4,0.2c2.2,13.7,6.6,23,10.2,30.8
		c2.3-0.2,8.7-1.1,16.1-5.5c9.2-5.5,9.3-28.2,9.3-28.2L401.5,280.9z"/>
	<path opacity="0.2" fill="#020203" enable-background="new    " d="M422.2,298.5c-7.1,4.3-14,5.3-16.5,5.5c0.9,2.7,2.5,5.3,3.6,7.9
		c2.3-0.2,8.7-1.1,16.1-5.5c9.2-5.5,9.3-28.2,9.3-28.2S431.4,293,422.2,298.5z"/>
	<path opacity="0.2" fill="#FFFFFF" enable-background="new    " d="M600.5,264.8c0,0,2.4-0.2,2.4-0.2c0,13.9-2.9,23.8-5.3,32
		c-2.3,0.2-8.8,0.3-16.8-2.8c-9.9-3.9-13.5-26.3-13.5-26.3L600.5,264.8z"/>
	<path opacity="0.2" fill="#020203" enable-background="new    " d="M582.7,285.4c7.7,3.1,14.6,3,17.2,2.8c-0.5,2.8-1.6,5.7-2.3,8.4
		c-2.3,0.2-8.8,0.3-16.8-2.8c-9.9-3.9-13.5-26.3-13.5-26.3S572.8,281.5,582.7,285.4z"/>
	<g opacity="0.2">
		<path fill="#FFFFFF" d="M406.9,280.4l-5.7,0.4l-0.6-7.4l5.7-0.5L406.9,280.4z"/>
		<path fill="#FFFFFF" d="M452.7,276.7l-5.7,0.5l-0.6-7.4l5.7-0.4L452.7,276.7z"/>
		<path fill="#FFFFFF" d="M553.2,268.6l-5.7,0.4l-0.6-7.4l5.7-0.5L553.2,268.6z"/>
		<path fill="#FFFFFF" d="M599,264.9l-5.7,0.5l-0.6-7.4l5.7-0.4L599,264.9z"/>
	</g>
	<path fill="#9CBBC2" d="M487.3,275.1c0.8,1.5,1.4,3,1.8,4.5c0.4,1.5,0.8,3,1,4.5c0.1,0.8,0.2,1.5,0.3,2.3c0.1,0.8,0.1,1.5,0.2,2.3
		c0,1.5-0.2,3.1-0.5,4.6c-0.1,0.8-0.3,1.6-0.4,2.3c-0.1,1.1-0.4,0.7,0,1.2c0.4,0.4,1.1,0.7,1.7,0.9c0.7,0.2,1.4,0.4,2.2,0.5
		c3,0.4,6.1-0.2,9.1-0.7l1.6-0.3l0.8,2.4c0.8,2.2,1.1,4.5,1.5,6.7c0.2,1.1,0.4,2.2,0.5,3.4c0.1,1.1,0.2,2.3,0.2,3.4
		c0.1,2.3-0.1,4.6-0.3,6.9c-0.3,2.3-0.7,4.7-1.5,7l-0.6,0.1c-1.2-2.2-2-4.4-2.7-6.6c-0.7-2.2-1.3-4.5-1.6-6.8
		c-0.2-1.1-0.3-2.3-0.4-3.4c-0.1-1.1-0.1-2.3-0.1-3.4c0-2.3-0.1-4.6,0.2-6.9l2.4,2.2c-1.7-0.3-3.2-0.7-4.7-1.1
		c-1.6-0.4-3.1-0.7-4.7-1.1c-0.8-0.2-1.6-0.4-2.3-0.6c-0.8-0.2-1.6-0.4-2.5-1c-0.4-0.3-0.9-0.6-1.3-1.3c-0.1-0.2-0.2-0.4-0.2-0.6
		l0-0.1l0,0l0,0l0-0.1c0-0.2-0.1-0.4-0.2-0.6l-0.8-2.3c-0.5-1.5-0.9-3.1-1.1-4.6c-0.1-0.8-0.1-1.5-0.1-2.3c0-0.7,0-1.6,0-2.3
		c0.1-1.6,0.3-3.1,0.6-4.6c0.3-1.5,0.7-3.1,1.4-4.7L487.3,275.1z"/>
	<path fill="#9CBBC2" d="M504.4,322.8c-0.8-4-1.5-7.9-2.2-11.9l-1-6l-0.9-6c-0.3-2-0.7-4-1.1-5.9c-0.4-2-0.5-4-0.5-6
		c0-2,0.2-4,0.5-6.1s0.7-4.1,1.5-6.1l0.6-0.1c1.1,1.9,1.8,3.9,2.4,5.8s1.1,3.9,1.4,5.9c0.4,2,0.5,4,0.4,6c0,2-0.2,4-0.2,6l0,6.1
		l-0.1,6.1c-0.1,4-0.1,8.1-0.4,12.1L504.4,322.8z"/>
	<path fill="#9CBBC2" d="M602.9,264.9c-16.8,3.7-33.7,6.2-50.7,8.5c-16.9,2.2-33.9,3.9-51,5.3c-17,1.4-34.1,2.4-51.1,2.9
		c-17.1,0.5-34.2,0.7-51.4-0.2l-0.1-0.6l25.5-2.2l25.5-2.1l51-4.3l51.1-4l25.5-2l25.5-1.9L602.9,264.9z"/>
	<path fill="#9CBBC2" d="M494,272.4c1.5-0.2,2.5-1.6,2.3-3.1c-0.2-1.5-1.6-2.4-3.1-2.2c-1.5,0.2-2.5,1.6-2.3,3.1
		C491.2,271.7,492.5,272.7,494,272.4z"/>
	<path fill="none" stroke="#9CBBC2" stroke-width="13.1854" stroke-miterlimit="10" d="M487,275.1l-0.7-8.7"/>
	<path opacity="0.15" fill="#FFFFFF" enable-background="new    " d="M448.8,273.5c-4.3-55.3,14.9-101.9,43-104.7
		c-56,5-97.9,53.5-93.5,108.8c4.3,55.3,53.2,96.4,109.3,92.3C479.3,371.7,453.1,328.7,448.8,273.5z"/>
	<defs>
		<filter id="Adobe_OpacityMaskFilter" filterUnits="userSpaceOnUse" x="374.8" y="21.7" width="193.5" height="162.6">
			<feColorMatrix  type="matrix" values="1 0 0 0 0  0 1 0 0 0  0 0 1 0 0  0 0 0 1 0"/>
		</filter>
	</defs>
	<mask maskUnits="userSpaceOnUse" x="374.8" y="21.7" width="193.5" height="162.6" id="mask0_105_30_1_">
		<path fill="#FFFFFF" filter="url(#Adobe_OpacityMaskFilter)" d="M550.6,186.4c-1.5-18.6-30.1-31.5-63.9-28.7
			c-33.8,2.8-59.9,20.2-58.4,38.8c1.5,18.6,30.1,31.5,63.9,28.7C526,222.4,552.1,205,550.6,186.4z"/>
	</mask>
	<g mask="url(#mask0_105_30_1_)">
		<path fill="#1A1A1A" d="M568.3,117.1c0.4,6.4-4.5,9.8-7.4,14.5c-2.5,3.9,4,9.9,0.7,15.9c-4.9,9.1-13.6,11.5-22.6,13.3
			c-5.6,1.1-11.5,1.2-17.3,1.8c-0.2,3.6,3.1,3.6,4.7,5c6.1,5.2,5.6,10.2-1.7,14.1c-7.9,4.3-16,3-24.1,0.6
			c-9.8-2.8-18.5-7.5-27.4-13.2c-1.6,5.1,3,10.7-3.1,13.4c-5.4,2.3-10.4-0.2-14.8-3.1c-8.6-5.6-15.9-12.8-20.1-22.1
			c-1.6-3.6-3.5-4.8-7.3-4.9c-9.7-0.4-18.1-4.7-25.9-9.8c-10.2-6.7-10.3-11.8-1.2-19.3c-5.4-4.5-11-8.7-16.1-13.5
			c-3.6-3.3-6.3-7.5-8-12.2c-5.3-14.3,1.4-22.9,17-20.9c1.7-3.4-1.4-5.4-2.4-7.9c-2.8-6.6-4.9-13.2-3.3-20.6
			c0.7-3.6,2.1-8.3,5.2-8.8c11.4-1.7,16.3-11.3,24.1-17.3c0.8-0.3,1.5-0.3,2.3,0c2.9,2.1,4.9,5.2,8.4,6.4c7,2.2,6.9,6.6,4.1,12.2
			c-2.9,5.7-4.2,11.8-4.8,18c-0.4,3.2-0.1,5.9,3.7,7.1c6.1,1.9,8.3,6.7,9.2,12.3c0.4,2.1-0.2,5.2,4,4.3c9.7-2,13.9,4.6,17.6,11.4
			c2.2,4.1,3.1,8.6,3.4,13.9c5-0.5,9-3.2,13.4-4.1c13.5-2.7,19.5,2.7,17.4,16.3c7.4-1.9,13.7-0.9,18.7,5.3c2.4,3,5.7,1.2,8.4-0.1
			c8.3-3.9,16.2-8.3,22.4-15.1c2.6-2.9,5.7-5.9,9.5-1.3c1.6,3.3,3.8,5.6,7.8,5.8C565.1,114.4,567.3,114.7,568.3,117.1z"/>
	</g>
	<g id="curriculumEye1">
		<path fill="#1A1A1A" d="M458.4,215.3c2.6-0.4,4.3-2.8,3.9-5.3c-0.4-2.5-2.8-4.2-5.4-3.8c-2.6,0.4-4.3,2.8-3.9,5.3
			C453.4,214,455.8,215.7,458.4,215.3z"/>
		<path fill="#1A1A1A" d="M532.4,209.3c2.6-0.4,4.3-2.8,3.9-5.3c-0.4-2.5-2.8-4.2-5.4-3.8c-2.6,0.4-4.3,2.8-3.9,5.3
			C527.4,208,529.8,209.7,532.4,209.3z"/>
	</g>
	<g id="curriculumBrow1">
		<path fill="#1A1A1A" d="M443,203.9c2.8-7.1,7.7-9.8,14.6-10.1c1.8-0.1,3.6,0.5,3.9,2.4c0.3,1.9-1.4,2.8-3.1,3.3
			C453.7,201,449,202.3,443,203.9z"/>
		<path fill="#1A1A1A" d="M546.6,193.8c-7.2-0.6-12.2-1-17.3-1.4c-1.5-0.1-3.3,0.3-3.5-1.5c-0.1-1.4,1.1-2.5,2.6-3.1
			C536.1,185,541.1,187.8,546.6,193.8z"/>
	</g>
	<path fill="#FFFFFF" d="M474.5,333.5c-24.7,0.8-29.3,14.5-29.9,17c19.1,12.1,41.1,17.4,63.7,15.6l-1.5-19.2
		C506.7,346.9,501.5,332.7,474.5,333.5z"/>
	<path opacity="0.2" fill="#020203" enable-background="new    " d="M506.8,348.5c0-0.2-1.1-7.7-11.9-11.8c2.6,2.7,2.9,6.6,2.9,6.7
		c0,0,0,0.1,0,0.1c0.6,7.9-6,14.7-14.1,14.2c-13.5-0.8-26.6-4.3-39-10.5c19.7,12.2,40.8,17.2,63.1,15.3
		C508,362.7,507.3,353.7,506.8,348.5z"/>
	<path fill="#FFFFFF" d="M536.4,328.5c24.5-3.3,31.2,9.6,32.2,11.9c-17,15-37.8,23.8-60.4,25.7l-1.5-19.2
		C506.7,346.9,509.7,332,536.4,328.5z"/>
	<path opacity="0.2" fill="#020203" enable-background="new    " d="M506.8,348.6c0-0.2-0.2-3.9,3-7.6c9,11.3,13.3,14.8,21.2,13
		c8.1-1.8,15-5.6,21.6-10.7c6.3-4.8,4.3-11.6,4.6-13.1c4.9,1.8,8.4,5,10.1,7.7c-18.1,16.3-37,23-59.3,24.8
		C507.9,362.7,507.2,353.7,506.8,348.6z"/>
	<path opacity="0.2" fill="#FFFFFF" enable-background="new    " d="M538.9,336.8c7.5-1.7,12.9-4.3,16.7-7.1
		c-4.7-1.6-11-2.3-19.3-1.2c-10.6,1.4-17.6,4.6-22,8C519.8,338.4,527.7,339.3,538.9,336.8z"/>
	<path opacity="0.2" fill="#FFFFFF" enable-background="new    " d="M473.6,342c-7.7-0.4-13.4-2.1-17.6-4.3
		c4.4-2.3,10.5-4.1,18.9-4.3c10.8-0.3,18,1.7,22.9,4.4C492.8,340.5,485.1,342.7,473.6,342z"/>
</g>
<g id="curriculumH1">
	<path fill="#F8C2B0" d="M603.5,236.9c-0.1-1.2,0-2.4,0-3.6c1.4-5.9,5.4-8.3,6.5-9.5c1.7-1.8,3.4-6.9,6.2-7c0.4,0,1.8,0.4,2.6,1.7
		c0.8,1.3-3.3,10.7-3.3,10.7l0.1,1.1c0,0,15.1-1.7,18.5-1.7c1.6,0,2.3,1.1,2.5,2.1c0.1,0.6,0,1.2-0.2,1.6c0,0,0,0,0,0
		c0,0-0.1,0.1-0.1,0.2l0,0c0,0-0.1,0.1-0.1,0.1l0,0c0,0-0.1,0.1-0.1,0.1c0,0,0,0-0.1,0.1c0,0-0.1,0.1-0.1,0.1c0,0,0,0-0.1,0.1
		c0,0-0.1,0.1-0.1,0.1c0,0,0,0-0.1,0.1c0,0-0.1,0-0.1,0.1c0,0,0,0-0.1,0c0,0-0.1,0-0.1,0.1l-0.1,0c-0.1,0-0.1,0-0.1,0l-0.1,0
		c-0.1,0-0.1,0-0.2,0c-2.1,0.2-12.1,1.1-12.1,1.1l0.1,1.1c0,0,11.6-1,14.8-1.3c1.2-0.1,1.8,0.5,2.1,1.4c0,0.1,0,0.2,0.1,0.3
		c0,0.1,0,0.2,0,0.2c0,0,0,0,0,0.1c0,0.1,0,0.1,0,0.2c0,0,0,0,0,0.1c0,0.2,0,0.4-0.1,0.6c0,0,0,0,0,0c0,0.1,0,0.2,0,0.2l0,0
		c0,0,0,0.2-0.1,0.2l0,0c-0.1,0.1,0,0.2-0.1,0.2c-0.1,0.1-0.1,0.2-0.1,0.2l0,0c0,0-0.1,0.1-0.1,0.2c0,0,0,0-0.1,0.1
		c0,0-0.1,0.1-0.1,0.1l0,0c0,0-0.1,0.1-0.1,0.1c0,0-0.1,0.1-0.1,0.1c0,0,0,0-0.1,0c0,0-0.1,0.1-0.1,0.1c0,0,0,0-0.1,0
		c-0.1,0-0.1,0.1-0.1,0l-0.1,0c-0.1,0-0.1,0-0.2,0c-1.9,0.2-14.7,1.3-14.7,1.3l0.2,1.7c0,0,9.8-0.9,12.3-1.1c1.4-0.1,2,1.1,2,2.4
		c0,0.2,0,0.4-0.1,0.6c0,0,0,0.1,0,0.2l0,0c0,0-0.1,0.1,0,0.1l0,0c0,0-0.1,0.1-0.1,0.1c0,0,0,0-0.1,0.1c0,0,0,0-0.1,0.1
		c0,0,0,0-0.1,0.1c0,0,0,0-0.1,0.1c0,0,0,0-0.1,0.1c0,0,0,0-0.1,0.1c0,0,0,0-0.1,0.1c0,0,0,0-0.1,0.1c0,0,0,0-0.1,0.1
		c0,0,0,0-0.1,0.1c0,0,0,0-0.1,0.1c0,0,0,0-0.1,0.1c0,0-0.1,0-0.1,0.1c0,0,0,0-0.1,0c0,0-0.1,0-0.1,0.1l-0.1,0c0,0-0.1,0-0.1,0
		l-0.1,0c-0.1,0-0.1,0-0.2,0c-2.1,0.2-12.1,1.1-12.1,1.1l0.2,1.6c0,0,6.7-0.6,9.5-0.9c1.5-0.1,2.2,1.2,2.2,2.4c0,0.1,0,0.1,0,0.2
		l0,0.1c0,0,0,0.1,0,0.1c0,0,0,0.1,0,0.1c0,0,0,0.1,0,0.1c0,0,0,0.1,0,0.1c0,0,0,0.1,0,0.1c0,0,0,0,0,0.1c0,0-0.1,0.1,0,0.1
		c0,0,0,0,0,0.1c0,0-0.1,0.1,0,0.1c0,0,0,0-0.1,0.1c0,0,0,0-0.1,0.1c0,0,0,0-0.1,0.1c0,0,0,0-0.1,0.1c0,0,0,0-0.1,0.1
		c0,0,0,0-0.1,0.1c0,0-0.1,0.1-0.1,0.1c0,0,0,0-0.1,0.1c0,0-0.1,0.1-0.1,0.1c0,0,0,0-0.1,0.1c0,0-0.1,0.1-0.1,0.1c0,0,0,0-0.1,0.1
		c0,0-0.1,0-0.1,0.1c0,0,0,0-0.1,0.1c0,0-0.1,0.1-0.1,0.1s0,0-0.1,0.1c0,0-0.1,0.1-0.1,0l-0.1,0c-0.1,0-0.1,0-0.2,0
		c-2.3,0.6-19.9,2.5-21.2,1.9c-0.9-0.4-4.5-2.1-7.3-6.2l-0.1,0c-0.2-0.5-0.4-1-0.6-1.4c-0.5-1.8-0.9-3.6-1.3-5.4
		C603.9,240.2,603.7,238.5,603.5,236.9z"/>
	<path fill="#F9BE84" d="M638.1,246.1C638.1,246,638.1,246,638.1,246.1C638.1,246,638,246,638.1,246.1z"/>
	<path fill="#F9BE84" d="M636.3,252.7c0,0,0.1-0.1,0-0.1C636.3,252.7,636.3,252.7,636.3,252.7z"/>
	<path fill="#F9BE84" d="M638.7,240.6c0.1,0,0.1-0.1,0.1,0C638.8,240.5,638.8,240.6,638.7,240.6z"/>
	<path fill="#F9BE84" d="M639.3,240.2c0,0,0.1-0.1,0.1-0.1C639.4,240.1,639.4,240.2,639.3,240.2z"/>
	<path fill="#F9BE84" d="M638.2,245.5c0.1-0.2,0.1-0.4,0.1-0.6C638.2,245.1,638.2,245.4,638.2,245.5z"/>
	<path fill="#F9BE84" d="M636.4,252.1c0,0,0-0.1,0-0.1C636.4,252,636.4,252.1,636.4,252.1z"/>
	<path fill="#F9BE84" d="M637.1,247.1L637.1,247.1C637.1,247.1,637.1,247.1,637.1,247.1z"/>
	<path fill="#F9BE84" d="M638.1,245.9c0,0,0.1-0.1,0-0.1C638.1,245.8,638.1,245.8,638.1,245.9z"/>
	<path fill="#F9BE84" d="M635.5,253.8C635.6,253.8,635.6,253.8,635.5,253.8C635.6,253.8,635.6,253.8,635.5,253.8z"/>
	<path fill="#F9BE84" d="M636.4,252.3c0,0,0-0.1,0-0.1S636.4,252.3,636.4,252.3z"/>
	<path fill="#F9BE84" d="M636.5,251.9c0,0,0-0.1,0-0.1C636.4,251.8,636.5,251.9,636.5,251.9z"/>
	<path fill="#F9BE84" d="M637.3,247C637.3,247,637.3,247,637.3,247C637.3,247,637.3,247,637.3,247z"/>
	<path fill="#F9BE84" d="M635,254.1L635,254.1C635.1,254.1,635,254.1,635,254.1z"/>
	<path fill="#F9BE84" d="M638.2,245.7c0,0,0-0.1,0-0.2C638.2,245.6,638.2,245.6,638.2,245.7z"/>
	<path fill="#F9BE84" d="M635.2,254.1C635.2,254.1,635.3,254,635.2,254.1C635.2,254,635.2,254,635.2,254.1z"/>
	<path fill="#F9BE84" d="M639.1,240.4c0.1,0,0.1-0.1,0.1-0.1C639.3,240.3,639.2,240.3,639.1,240.4z"/>
	<path fill="#F9BE84" d="M636,234.5C636,234.4,636.1,234.4,636,234.5C636,234.4,636,234.5,636,234.5z"/>
	<path fill="#F9BE84" d="M636.1,234.3c0,0,0.1-0.1,0.1-0.1C636.2,234.3,636.1,234.3,636.1,234.3z"/>
	<path fill="#F9BE84" d="M635.6,234.7C635.6,234.7,635.7,234.7,635.6,234.7C635.7,234.6,635.6,234.7,635.6,234.7z"/>
	<path fill="#F9BE84" d="M635.8,234.6C635.8,234.6,635.9,234.6,635.8,234.6C635.8,234.6,635.8,234.6,635.8,234.6z"/>
	<path fill="#F9BE84" d="M623.2,229.7c0.1,0,0.1,0,0.2,0C623.3,229.7,623.3,229.7,623.2,229.7z"/>
	<path fill="#F9BE84" d="M622.8,229.8c0.1,0,0.2,0,0.3,0C623,229.8,622.9,229.7,622.8,229.8z"/>
	<path fill="#F9BE84" d="M636.6,233.7c0.2-0.5,0.3-1.1,0.2-1.6C636.9,232.6,636.8,233.2,636.6,233.7z"/>
	<path fill="#F9BE84" d="M640.1,238.8c0-0.1,0-0.2,0-0.2C640.1,238.6,640.1,238.7,640.1,238.8z"/>
	<path fill="#F9BE84" d="M637.9,246.4C637.9,246.4,637.9,246.4,637.9,246.4C637.9,246.3,637.9,246.4,637.9,246.4z"/>
	<path fill="#F9BE84" d="M639.9,239.4c0.1-0.1,0-0.2,0.1-0.2C639.9,239.2,639.9,239.3,639.9,239.4z"/>
	<path fill="#F9BE84" d="M639.7,239.6c0.1-0.1,0.1-0.1,0.1-0.2C639.8,239.4,639.8,239.5,639.7,239.6z"/>
	<path fill="#F9BE84" d="M640.2,237.6c0-0.1,0-0.2,0-0.2C640.2,237.4,640.2,237.5,640.2,237.6z"/>
	<path fill="#F9BE84" d="M640.1,237.4c0-0.1,0-0.2-0.1-0.3C640.1,237.2,640.1,237.2,640.1,237.4z"/>
	<path fill="#F9BE84" d="M623.5,229.6c0.1,0,0.1-0.1,0.2-0.1C623.6,229.6,623.5,229.6,623.5,229.6z"/>
	<path fill="#F9BE84" d="M640.2,237.9c0-0.1,0-0.2,0-0.2C640.1,237.7,640.2,237.8,640.2,237.9z"/>
	<path fill="#F9BE84" d="M640.1,238.5c0-0.2,0.1-0.4,0.1-0.6C640.1,238.1,640.1,238.3,640.1,238.5z"/>
	<path fill="#F9BE84" d="M637.5,246.8C637.6,246.8,637.6,246.8,637.5,246.8C637.6,246.8,637.6,246.8,637.5,246.8z"/>
	<path fill="#F9BE84" d="M637.4,246.9C637.4,246.9,637.4,246.9,637.4,246.9C637.5,246.9,637.5,246.9,637.4,246.9z"/>
	<path fill="#F9BE84" d="M623.7,229.5c0,0,0.1-0.1,0.1-0.1C623.8,229.4,623.8,229.5,623.7,229.5z"/>
	<path fill="#F7B7A2" d="M609.9,243.1c-4.4,1,2.7-1.7,4.4-4.4c1.8-2.6,2.3-5,4.1-5.5C619.7,232.9,614.7,242,609.9,243.1z"/>
	<path fill="#F7B7A2" d="M618.9,232.2c1.2,0.9-0.1,4.3-0.3,8.7c-0.2,4.3,2.5,11.2,1,10.4C617,249.8,617.7,231.3,618.9,232.2z"/>
	<path fill="#022433" d="M607.6,15.6c-18.7-6.9-39.4,4-49.7,19.8c-10,15.2-12.1,35.3-3.2,51.5c9.9,17.8,30.5,28.7,50.8,26.2
		c0.3-0.1,0.5-0.2,0.7-0.4c-2.5,3-5.1,6.1-7.7,9c-0.8,0.9-0.7,1.9,0.2,2.7c2.6,2.2,5.4,3.6,8.3,4.4c-9.9,8.3-13,23.3-7.3,34.9
		c4.1,8.3,12.2,13,19,18.9c7.6,6.8,14.6,15.7,16.8,25.8c4.6,21.6-18.3,29.4-25.5,46.5c-5.2,12.5,0,28.6,12.3,34.9
		c1.7,0.8,3.3-1.4,1.6-2.6c-7.5-5.2-12.6-12.8-12.5-22.2c0.1-9.4,6-16.2,12.3-22.6c9.1-9.4,17.6-18.7,15.6-32.7
		c-2.1-14.4-12.8-25.3-23.6-34c-7.9-6.3-14.9-13.1-15.4-23.8c-0.4-8.7,3.4-16.7,9.7-22.6c2.4,0.3,4.9,0.3,7.4-0.2
		c1.2-0.1,1.6-1.6,1.1-2.5c-2-5.2-4.5-10-7.5-14.7c11-13.6,20.8-28.5,23.3-46.3C637.3,45.4,628,23.1,607.6,15.6z M614.6,126.1
		c-4.5,0.3-8.7-0.9-12.3-3.5c2.2-2.6,4.4-5.1,6.6-7.7C611.1,118.5,613,122.2,614.6,126.1z M631.5,56c0.8,21.8-11.7,40.2-25.2,56.5
		c0.4-0.8,0.1-2-1-2c-20.9,1.3-41.9-10.3-49.9-30c-8.3-20.5,1-46.2,20-57.6C601.6,7.2,630.6,27.3,631.5,56z"/>
</g>
<path fill="#022433" d="M159.5,278.5c-11.1,0.5-18.8,9.6-22.2,19.4c-3.8,10.9-2.7,23.4,1.5,34c9.1,22.5,32.4,35.2,56.3,32
	c23.7-3.1,42.8-22.6,46.9-46c2.2-12.7,0.1-25.2-8.7-35c-8.5-9.5-20.8-17-33-20.6c-13.4-4-28.7-3-40.4,4.9c-11.9,8-17.7,21.4-23,34.1
	c-1,2.3,2.9,3.3,3.8,1.1c4.3-10.2,8.8-20.9,17.2-28.6c8.4-7.7,19.9-10.6,31-9.8c11.9,0.9,23.1,6.4,32.5,13.4
	c10.3,7.6,17.5,17.3,17.6,30.6c0.1,20.9-13.4,41.6-33.2,49.1c-20.2,7.7-44.7,1.6-57.5-16.2c-6.7-9.3-10.2-20.8-9.3-32.3
	c0.9-11.2,7.5-25.5,20.4-26.1C162,282.4,162,278.4,159.5,278.5z"/>
<path fill="#022433" d="M149.4,281.4c33.6,4.9,63.3,27,77.8,57.8c1.1,2.3,4.5,0.3,3.4-2c-14.8-31.5-45.6-54.5-80.1-59.6
	C148,277.3,146.9,281,149.4,281.4z"/>
<path fill="#022433" d="M213.3,269.3c-30,18.2-50.2,49.9-54.2,84.7c-0.3,2.5,3.7,2.5,4,0c3.8-33.3,23.5-64,52.2-81.3
	C217.5,271.4,215.5,268,213.3,269.3z"/>
<path fill="none" stroke="#022433" stroke-width="3" stroke-linecap="round" stroke-linejoin="round" stroke-miterlimit="10" d="
	M98.4,347.5c5.4-7,8.2-16,7.6-24.8c-7.2,6.5-13.5,13.9-18.8,22c-2-15.8-7.3-31.2-15.6-44.8c-1.6,16.1,0.3,32.7,5.9,48"/>
<path id="curriculumCloud1" fill="#FFFFFF" stroke="#022433" stroke-width="3.5" stroke-linejoin="round" d="M45,75.4
	C44.1,41.9-4.2,63.8,2.7,98.3c5.3,27.3,31.7,38.2,51.4,16.9c-34.8,37.3,39.5,69.6,56.1,30.1c24.8,36.4,100.7,30.1,112-13.8
	c12.5-48.6-44.9-79-79.7-44.8c27-38.2-49.2-58.9-48-23.2c0,0.3,0,0.6,0,0.9c-0.9-20.4-4.4-47-32.9-40.4C36.2,29.7,43.8,56.3,45,75.4
	z"/>
<path id="curriculumCloud2" fill="#FFFFFF" stroke="#022433" stroke-width="3.5" stroke-linejoin="round" d="M1226.6,94.6
	c-0.1,0.7,0.2,1.4,0.9,1.8c4.1,2.3,6.8,6.6,6.8,11.7c0,7.4-6,13.4-13.4,13.4c-1.8,0-3.4-0.4-4.9-1c-0.4-0.2-0.9-0.2-1.4,0
	c-1.4,0.6-2.9,1-4.4,1c-1.7,0-3.3-0.4-4.8-1.1c-0.5-0.2-1-0.2-1.4,0c-0.5,0.2-0.8,0.6-1,1.1c-2.7,8.2-10.4,14.2-19.5,14.2
	c-9.1,0-16.9-6-19.5-14.3c-0.2-0.5-0.6-0.9-1.1-1.1c-0.5-0.2-1.1-0.1-1.5,0.1c-3.9,2.3-8.4,3.7-13.3,3.7
	c-14.4,0-26.2-11.7-26.2-26.1c0-14.3,11.6-26.1,26-26.2c0.6,0,1.2-0.4,1.5-0.9c3.5-6.6,10.3-11,18.3-11c10.2,0,18.6,7.3,20.3,16.9
	c0.1,0.6,0.6,1.2,1.2,1.4c0.6,0.2,1.3,0.1,1.8-0.4c3.9-3.7,9.1-6,14.8-6c11.7,0,21.2,9.5,21.2,21.2
	C1226.7,93.5,1226.7,94,1226.6,94.6z"/>
</svg>
