<svg width="20" height="21" viewBox="0 0 20 21" fill="none" xmlns="http://www.w3.org/2000/svg">
<path d="M15.2344 0.749998H4.74436C4.14996 0.750009 3.56142 0.867517 3.01259 1.09577C2.46376 1.32402 1.96547 1.6585 1.54636 2.08C1.12921 2.50059 0.799817 2.9999 0.57733 3.5489C0.354843 4.09791 0.243699 4.68566 0.250356 5.278V15.722C0.242863 16.3145 0.353624 16.9024 0.576158 17.4516C0.798692 18.0007 1.12853 18.4999 1.54636 18.92C1.96482 19.3421 2.46285 19.677 3.01162 19.9053C3.56039 20.1336 4.14899 20.2507 4.74336 20.25H9.50636V13.284H7.68636C7.57353 13.2837 7.46538 13.2389 7.38542 13.1594C7.30545 13.0798 7.26015 12.9718 7.25936 12.859V10.623C7.25922 10.5655 7.27048 10.5086 7.29246 10.4555C7.31445 10.4024 7.34674 10.3542 7.38747 10.3137C7.42819 10.2732 7.47655 10.2411 7.52974 10.2193C7.58292 10.1976 7.63989 10.1866 7.69736 10.187H9.50636V8.007C9.45563 7.49178 9.51852 6.9717 9.69061 6.48342C9.8627 5.99515 10.1398 5.55056 10.5024 5.181C10.8654 4.80993 11.305 4.52243 11.7904 4.3385C12.2759 4.15458 12.7956 4.07865 13.3134 4.116H15.1674C15.2242 4.11612 15.2804 4.12755 15.3327 4.14962C15.385 4.17168 15.4325 4.20395 15.4722 4.24453C15.512 4.28511 15.5432 4.3332 15.5642 4.38598C15.5852 4.43877 15.5954 4.49521 15.5944 4.552V6.442C15.5944 6.49793 15.5833 6.55331 15.5618 6.60495C15.5403 6.65659 15.5088 6.70347 15.4691 6.74288C15.4294 6.78229 15.3823 6.81346 15.3305 6.83459C15.2787 6.85572 15.2233 6.86639 15.1674 6.866H14.0444C12.8084 6.866 12.5724 7.448 12.5724 8.297V10.176H15.2684C15.3291 10.1757 15.3893 10.1883 15.4448 10.2131C15.5003 10.2378 15.5499 10.2741 15.5903 10.3195C15.6307 10.3649 15.661 10.4184 15.6791 10.4764C15.6972 10.5345 15.7027 10.5957 15.6954 10.656L15.4254 12.893C15.4144 12.9982 15.3645 13.0955 15.2855 13.1658C15.2065 13.2361 15.1041 13.2743 14.9984 13.273H12.5834V20.239H15.2574C15.8516 20.2389 16.44 20.1214 16.9886 19.8931C17.5373 19.6649 18.0354 19.3304 18.4544 18.909C18.8716 18.4883 19.201 17.9888 19.4235 17.4396C19.646 16.8904 19.7571 16.3025 19.7504 15.71V5.278C19.758 4.68363 19.6465 4.09374 19.4226 3.54313C19.1986 2.99251 18.8667 2.4923 18.4464 2.072C18.0255 1.64955 17.5247 1.3151 16.9732 1.08814C16.4218 0.86117 15.8307 0.746224 15.2344 0.749998Z" fill="#022433"/>
</svg>
