<?xml version="1.0" encoding="utf-8"?>
<!-- Generator: Adobe Illustrator 24.3.0, SVG Export Plug-In . SVG Version: 6.00 Build 0)  -->
<svg version="1.1" id="Layer_1" xmlns="http://www.w3.org/2000/svg" xmlns:xlink="http://www.w3.org/1999/xlink" x="0px" y="0px"
	 viewBox="0 0 1600 937" style="enable-background:new 0 0 1600 937;" xml:space="preserve">
<style type="text/css">
	.st0{fill:#CCE9F6;}
	.st1{fill:none;stroke:#022433;stroke-width:3;stroke-linejoin:round;stroke-miterlimit:10;}
	.st2{fill:none;stroke:#022433;stroke-width:3;stroke-linecap:round;stroke-linejoin:round;stroke-miterlimit:10;}
	.st3{fill:none;stroke:#022433;stroke-width:3;stroke-miterlimit:10;}
	.st4{fill:#022433;}
	.st5{fill:#FFFFFF;stroke:#022433;stroke-width:3;stroke-linejoin:round;}
	.st6{fill:#FFFFFF;}
	.st7{fill:none;stroke:#022433;stroke-width:3;stroke-linecap:round;stroke-linejoin:round;}
	.st8{fill:none;stroke:#022433;stroke-width:4;}
	.st9{fill:#1A1A1A;}
	.st10{fill:#F7B7A2;}
	.st11{fill:#F2EDEC;}
	.st12{fill:#EB5C65;}
	.st13{opacity:0.1;fill:none;stroke:#020203;stroke-width:7.192;stroke-miterlimit:10;enable-background:new    ;}
	.st14{opacity:0.15;fill:#020203;enable-background:new    ;}
	.st15{fill:#FEEF79;}
	.st16{opacity:0.2;fill:#FFFFFF;enable-background:new    ;}
	.st17{opacity:0.2;fill:#020203;enable-background:new    ;}
	.st18{opacity:0.2;}
	.st19{fill:#D8CB67;}
	.st20{fill:none;stroke:#D8CB67;stroke-width:13.1854;stroke-miterlimit:10;}
	.st21{opacity:0.15;fill:#FFFFFF;enable-background:new    ;}
	.st22{fill:#FFFFFF;filter:url(#Adobe_OpacityMaskFilter);}
	.st23{mask:url(#mask0_132_2956_1_);}
	.st24{fill:#5C342E;}
	.st25{fill:#FF9BD7;}
	.st26{fill:#643620;}
	.st27{fill:#5F321B;}
	.st28{fill:#FFFFFF;filter:url(#Adobe_OpacityMaskFilter_1_);}
	.st29{mask:url(#mask1_132_2956_1_);}
	.st30{fill:#FFFFFF;filter:url(#Adobe_OpacityMaskFilter_2_);}
	.st31{mask:url(#mask2_132_2956_1_);}
	.st32{fill:#FFFFFF;filter:url(#Adobe_OpacityMaskFilter_3_);}
	.st33{mask:url(#mask3_132_2956_1_);}
	.st34{fill:#FFFFFF;filter:url(#Adobe_OpacityMaskFilter_4_);}
	.st35{mask:url(#mask4_132_2956_1_);}
	.st36{fill:#FFFFFF;filter:url(#Adobe_OpacityMaskFilter_5_);}
	.st37{mask:url(#mask5_132_2956_1_);}
	.st38{fill:#FFFFFF;filter:url(#Adobe_OpacityMaskFilter_6_);}
	.st39{mask:url(#mask6_132_2956_1_);}
	.st40{fill:#EE7275;}
	.st41{fill:#022433;stroke:#022433;}
	.st42{fill:none;stroke:#022433;stroke-width:3;}
	.st43{display:none;fill:#022433;}
	.st44{font-family:'SFSlapstickComicSC-Bold';}
	.st45{font-size:110px;}
</style>
<path class="st0" d="M170,851c-73.6,0-142.2,34-170,51V-8l1600,2.5V920c-10.8,1.5-37.8,3.6-59,0c-26.5-4.5-96-53-188-53
	s-208.5,35-304.5,35S871,867,785,867s-261.5,35-351.5,35S262,851,170,851z"/>
<path class="st1" d="M1476.4,910.2c22.9-14,40.8-36.1,49.2-61.5c-26.1,7.3-48.8,25.8-61.7,49.7c8.2-16.5,16.4-32.9,22.3-50.4
	c-10.7,10.9-19.8,23.4-26.7,37c0.7-10.4,1.1-21.1-3.4-30.4s-15.2-16.5-24.9-13.2c-1.6,22.4,10.4,43.1,22,62.2
	c0.5-1.3,0.9-2.5,1.4-3.8"/>
<path class="st2" d="M157,870.3c8.2-10.7,12.5-24.7,11.6-38.3c-11.1,10-20.7,21.5-28.8,34c-3-24.3-11.3-48.1-24-69
	c-2.5,24.9,0.5,50.4,9.1,74"/>
<path class="st3" d="M1387,885.6c-3.4-34.9-1.1-70.1,7-104.3c0.4,1.4,0.9,2.7,1.2,4.1"/>
<path class="st1" d="M1422.1,744.5c-0.2-8.8-0.2-17.7-0.4-26.5c-4.8-2.9-11.3,0.9-13.4,5.9c-2.2,5-1.4,10.9-0.5,16.3
	c-0.2-6.8-4.7-13.4-11.1-15.6c-6.4-2-14.5,1.6-16.3,8c-2,6.4,3.8,14.3,10.4,13.8c-8,2.1-14.8,8.8-17.2,17c-0.5,1.6-0.7,3.4,0,4.8
	c1.1,1.8,3.4,2.5,5.4,2.9c9.1,1.6,18.4,1.8,27.5,0.7c-2.9,3.9-0.2,10,4.3,12.2c4.3,2.1,9.5,1.8,14.5,1.3c0.4-7.2,0.4-14.3,0.2-21.5
	c2.5,6.8,12.7,8.8,18.1,3.9c5.4-4.8,5.4-14.3,0.4-19.7c-5-5.4-13.4-6.4-20-3.4"/>
<path class="st1" d="M1386.8,878.6c0.4-26.1-6.6-52.2-19.8-74.8c-1.4-2.5-4.3-5.4-6.8-3.8c-1.4,26.8,5,53.8,18.2,77.3
	c0.7,1.1,1.6,2.5,2.9,2.5c1.2,0,2-2.5,0.5-2.5"/>
<path class="st1" d="M1385.2,876.4c3.9-16.5,10-32.4,17.9-47.4c1.2-2.3,3-5.2,5.9-5c3.4,0.2,4.7,4.8,4.7,8.2c0,7-0.7,14.1-3.4,20.6
	c-5.2,12.3-17,20.4-28.1,27.5"/>
<path class="st1" d="M264.7,887.1c12.9-7.9,23.2-19.5,29.7-33.1c-9.7,0.9-19,4.3-26.8,10c6.1-11.3-0.7-27.4-13.1-30.6
	c-2,14.5-3.8,28.8-5.7,43.3"/>
<path class="st1" d="M1416.5,751.6c1.2,3,0,7-3,8.6c-2.9,1.6-7,0.7-8.8-2c1.2-2.1,2.3-4.1,3.6-6.3c2.1-0.2,4.5-0.4,6.6-0.5"/>
<path class="st3" d="M1532.1,919.5c-180.8-66-381-7.2-572.9-18.2c-53.6-3-106.9-11.8-160.6-13.6c-79.8-2.7-159.3,9.7-238.9,14.3
	c-87.8,5.2-176.1,1.1-263-12c-63.5-9.7-129.6-24-190.6-3.8"/>
<path class="st4" d="M449.8,277.6c-1.2-4.5-7.5-5.9-11.2-4.1c-0.9,0.6-1.7,1.2-2.5,2.2c-0.2-0.2-0.5-0.3-0.6-0.5
	c-2-1.6-3.9-3.3-5.5-5.2c5.5-3.4,10.1-7.8,13.3-13.6c9.5-16.7-0.3-33.9-14.5-43.6c9.2-1.2,16.1-11.9,11.2-20.5
	c-3.3-5.8-10.9-7-15.4-3.1c-0.5-4.5-3.9-8.9-8-10.5c-5.1-1.9-10.8,0.3-13.7,4.5c-1.1-7.2-5-15.2-13.3-11.4
	c-10.1,4.5-14,19.1-16.2,29.1c-5,0.8-9.7,2.2-13.9,4.2c7.8-24.1-21.5-39.4-39.3-24.8c0-0.2-0.2-0.2-0.2-0.2
	c-4.5-3.1-9.7-5.3-14.4-7.7c-1.1-0.6-2.7,0.3-2.2,1.6c1.6,4.2,4.1,8.9,4.8,13.3c0.5,3.3-0.5,3.8-3,5.5c-2.2,1.4-4.4,2.8-6.6,4.2
	c-1.1,0.8-0.9,2.3,0.3,2.8c3.9,1.2,7.8,2.8,11.9,4.1c2.5,13.8,16.7,25.6,32.9,21.6c0.3,0,0.5-0.2,0.6-0.3
	c-1.2,6.6-0.5,13.6,2.3,20.2c8.1,18.4,27.8,30,47.1,32.2c3.7,0.5,7.5,0.5,11.4,0.2c0.8,2.5,2,4.8,3.6,6.9c-1.7,1.2-3,3.1-3.3,5.5
	c-0.2,0.9,1.2,1.4,1.4,0.5c0.5-1.7,1.6-3.4,3-4.5c1.9,1.9,4.1,3.4,6.7,4.1c1.1,0.3,1.6-1.1,0.8-1.7c-1.7-1.1-3.1-2.3-4.5-3.6
	c3.1-0.3,5.5,1.6,7.3,3.9c0.5,0.8,1.9,0.3,1.6-0.6c-1.7-5-6.6-6.2-10.5-4.8c-1.6-1.7-2.8-3.6-3.7-5.8c7-0.8,14-3,20.3-6.4
	c1.7,2.3,4.1,4.8,6.7,6.7c-0.9,2.3-0.9,5.3,0.5,7.7c0.6,1.1,2,0.2,1.6-0.9c-0.8-1.7-0.8-3.8,0-5.5c1.7,0.9,3.6,1.7,5.5,1.9
	c0.9,0.2,1.1-1.2,0.5-1.7c-1.4-0.9-3-1.6-4.4-2.3c0.5-0.5,1.1-0.9,1.7-1.1c3.4-1.4,6.1,0.6,8.3,3
	C448.9,279.3,450.2,278.5,449.8,277.6z M382.9,182.4c2.7-4.2,7.2-9.5,13-7.8c5.3,1.6,4.7,10.2,4.8,14.4c0,1.7,2.3,1.6,2.5,0
	c0-0.6,0-1.2,0-1.9c2.2-4.4,7.3-7.3,12.2-5.6c5.6,1.9,6.1,7.5,5.9,12.5c0,1.1,1.6,1.6,2.2,0.6c0.3-0.5,0.5-0.9,0.6-1.4
	c3.7-5.3,12.2-3.8,14,2.8c2.3,8.1-4.7,12.5-11.2,14.5c-0.5,0.2-0.8,0.5-0.9,0.9c-13.9-8.3-33.2-12.8-50.4-10.5
	C377.4,194.4,379.3,187.9,382.9,182.4z M310.6,201.5c-2.5-1.1-5.1-2.2-7.6-3.3c3.4-1.9,8-4.1,8.9-7c0.6-2.2-0.8-4.5-1.4-6.4
	c-1.1-2.8-2-5.3-3-8c3.6,1.9,7,3.8,10.8,5.2c-0.2,0.2-0.2,0.2-0.3,0.3C312.2,188,310.2,194.9,310.6,201.5z M343.1,222.6
	c-21.4,4.7-39.6-20.9-22.9-38.1c15.8-16.2,43.2-1.9,37.6,20.5c-0.2,0.5,0,0.8,0.3,0.9c-0.2,0.2-0.3,0.2-0.5,0.2
	c-0.5,0.2-0.6,0.5-0.6,0.9c-6.4,3.9-10.3,9.8-12,16.7C344.7,223,344,222.4,343.1,222.6z M427.4,267.2c-6.2,3.9-13.3,6.1-20.4,6.9
	c0-0.3-0.2-0.6-0.2-0.9c-0.2-1.1-2.2-0.9-2,0.3c0,0.3,0,0.6,0.2,0.8c-13,0.8-26.2-2.7-36.7-9.5c-17.8-11.7-32.5-42.3-10.1-56.4
	c0.2,0,0.3,0,0.5,0c11.1-2,21.2-4.7,32.6-3.9c11.1,0.8,22.3,3.9,32,9.4c9.1,5.2,17.9,13.3,20,23.9
	C445.5,250.2,437.4,261,427.4,267.2z"/>
<path class="st4" d="M388.8,250.8c-0.5-0.9-2.2-0.3-1.9,0.8c2.2,7.8-7.2,9.8-12.6,6.7c-3.1-1.7-5.5-4.5-6.9-7.8
	c-2.7-6.1-2-12.7,1.4-18.3c0.5-0.8-0.8-1.9-1.4-1.1c-6.6,8.1-5,20.9,3,27.7c4.1,3.3,10.3,5.5,15.1,2.5
	C389.5,259.1,390.9,254.6,388.8,250.8z"/>
<path class="st4" d="M409,243.2c-0.9-0.9-2.7,0.3-1.9,1.4c3,4.1,3,10.5-1.6,13.6c-4.8,3.4-11.7-0.2-13.4-5.3c-0.5-1.2-2.3-0.8-2,0.6
	c1.6,6.9,10.1,11.1,16.5,7.3C412.5,257.1,414,247.9,409,243.2z"/>
<path class="st4" d="M424.1,235.7c-1.4-2-4.4-4.7-7-3.6c-0.6,0.3-1.1,1.4-0.2,1.7c1.6,0.8,3.3,1.1,4.5,2.5c1.4,1.6,2,3.9,1.2,5.9
	c-1.6,3.6-6.9,4.2-9.5,1.4c-1.1-1.1-2.7,0.6-1.6,1.6c3.7,3.9,11.1,3.1,13.6-1.9C426,241,425.5,238,424.1,235.7z"/>
<path class="st4" d="M330.9,184.9c-4.1-0.6-7.8,2.8-8,6.7c0,0.8,1.2,0.9,1.4,0.2c0.5-2.8,3.1-5.5,6.1-4.8c3,0.5,4.4,3.9,3.9,6.6
	c-0.2,1.2,1.4,1.6,1.9,0.5C337.8,190.2,335,185.5,330.9,184.9z"/>
<path class="st4" d="M301.6,408.6c-18.7-6.9-39.4,4-49.7,19.8c-10,15.2-12.1,35.3-3.2,51.5c9.9,17.8,30.5,28.7,50.8,26.2
	c0.3-0.1,0.5-0.2,0.7-0.4c-2.5,3-5.1,6.1-7.6,9c-0.8,0.9-0.7,1.9,0.2,2.7c2.6,2.2,5.4,3.6,8.3,4.4c-9.9,8.3-13,23.3-7.3,34.9
	c4.1,8.3,12.2,13,19,18.9c7.6,6.8,14.6,15.7,16.8,25.8c4.6,21.6-18.3,29.4-25.5,46.5c-5.2,12.5,0,28.6,12.3,34.9
	c1.7,0.8,3.3-1.4,1.6-2.6c-7.5-5.2-12.6-12.8-12.5-22.2c0.1-9.4,6-16.2,12.3-22.6c9.1-9.4,17.6-18.7,15.6-32.7
	c-2.1-14.4-12.8-25.3-23.6-34c-7.9-6.3-14.9-13.1-15.4-23.8c-0.4-8.7,3.4-16.7,9.7-22.6c2.4,0.3,4.9,0.3,7.4-0.2
	c1.2-0.1,1.6-1.6,1.1-2.5c-2-5.2-4.5-10-7.5-14.7c11-13.6,20.8-28.5,23.3-46.3C331.3,438.4,322,416.1,301.6,408.6z M308.6,519.1
	c-4.5,0.3-8.7-0.9-12.3-3.5c2.2-2.6,4.4-5.1,6.6-7.7C305.1,511.5,307,515.2,308.6,519.1z M325.5,449c0.8,21.8-11.7,40.2-25.2,56.5
	c0.4-0.8,0.1-2-1-2c-20.9,1.3-41.9-10.3-49.9-30c-8.3-20.5,1-46.2,20-57.6C295.6,400.2,324.6,420.3,325.5,449z"/>
<path class="st5" d="M208.6,235.7C208.5,235.7,208.5,235.7,208.6,235.7c-4-1.5-8.4-2-13.4-1.5l0,0l0,0c-7.3,0.7-15.6,3.6-21.7,8.3
	c-6.1,4.7-9.8,11.2-8.3,19.4c0.1,0.8-0.4,1.5-1.1,1.7s-1.6-0.3-1.8-1.1c-2.3-8-8.8-10-13.6-8.4c-2.5,0.8-4.5,2.6-5.4,5
	c-1,2.4-0.9,5.7,1.1,9.8c0.4,0.7,0.1,1.6-0.7,2c-0.7,0.4-1.6,0.1-2-0.6c-3.3-6.3-9-9.6-15.5-10.8c-6.5-1.1-13.8,0-20.1,2.7
	c-6.3,2.7-11.4,6.9-13.8,11.6c-1.2,2.3-1.7,4.8-1.3,7.3c0.3,2.5,1.5,5.2,3.8,7.9c0,0,0,0,0,0c0.5,0.6,0.5,1.6-0.2,2.1
	c-0.6,0.5-1.6,0.5-2.1-0.2c-1.3-1.5-2.3-3.1-3.1-4.6c-11-7-27.4-2.1-22.7,11.4c1,0.8,1.9,1.7,2.9,2.7l-1.1,1l-1.3,0.7
	c-0.7-1.2-1.3-2.4-1.7-3.6c-20.4-15.9-37.3,37,3.9,24.7c0-0.2,0.1-0.5,0.1-0.7L71,323l0.5,1.4c-0.2,0.1-0.4,0.1-0.6,0.2
	c-1.3,23.4,43.8,16.8,52.5,7.2c-0.1-1-0.1-2-0.1-3.1 M208.6,235.7l-13.5-3c5.2-0.6,9.8,0,14,1.5c19,6.3,22.6,22.6,26.4,39.1
	c0.1,0.4,0.2,0.7,0.2,1.1c-0.3,0.4-0.5,0.8-0.8,1.3l1.3,0.8l1.5-0.3c-0.1-0.5-0.2-0.9-0.3-1.4c12.4-17.5,29.7,0,27.9,16.8
	c-0.8,0.8-1.4,1.9-1.9,3c0,0-0.1,0-0.1,0.1c0,0-0.1,0.1-0.2,0.2c0,0,0,0,0,0 M208.6,235.7c9.6,3.2,15.1,9.1,18.7,16.3
	c3.2,6.5,4.9,14,6.7,21.8c0.2,1,0.5,2.1,0.7,3.1c0.1,0.6,0.6,1,1.2,1.1c0.6,0.1,1.2-0.2,1.5-0.7c3.2-5.3,6.7-7.6,9.9-8.1
	c3.2-0.6,6.4,0.6,9.2,3c5.6,4.8,9,14.3,6.6,22.7 M208.6,235.7l54.5,59.2 M123.3,328.7C123.3,328.7,123.3,328.7,123.3,328.7l1.5,0
	l1.5,0.1c0,0,0,0,0,0.1 M123.3,328.7C123.3,328.7,123.3,328.7,123.3,328.7c0-0.9,0.7-1.5,1.6-1.5c0.8,0,1.5,0.7,1.4,1.6
	c0,0,0,0,0,0.1 M123.3,328.7L263,294.9 M126.3,328.9c-0.1,1.2-0.6,2.4-1.4,3.4c3.7,30.9,75,30,89.1,3.5c-0.2-1.6-0.1-3.2,0.3-5
	 M126.3,328.9c-0.3,8.3,4.2,14.6,11.7,18.8c7.5,4.3,18,6.4,28.8,6.4c10.8,0,21.9-2.1,30.6-6.1c8.8-4,15-9.8,16.9-17.2 M214.3,330.8
	c0,0,0-0.1,0-0.1l1.5,0.4l1.5,0.4c0,0,0,0.1,0,0.1 M214.3,330.8c0,0,0-0.1,0-0.1c0.2-0.8,1-1.3,1.8-1.1c0.8,0.2,1.3,1,1.1,1.8
	c0,0,0,0.1,0,0.1 M217.2,331.5c-0.4,1.6-1,3.1-1.7,4.5c3.3,19.8,59.9,21.2,48.9-6.6c-0.6-0.3-1.2-0.6-1.7-0.9l0.7-1.3l1.3-0.7
	c0.3,0.6,0.6,1.2,0.8,1.8c15.4,7.1,43.7,4,42.6-17.9c-0.7-14.5-32.3-26.8-41.5-18.1c-0.1,1.1-0.4,2.2-0.7,3.3l0.2,0c0,0,0,0.1,0,0.1
	 M217.2,331.5c-0.7,2.7-0.3,5.1,0.8,7.2c1.1,2.1,3,4,5.6,5.6c5.1,3.2,12.5,4.9,19.6,4.9c7.2,0,13.8-1.8,17.6-5.3
	c1.9-1.7,3.1-3.8,3.4-6.4c0.3-2.6-0.3-5.8-2.2-9.6c-0.3-0.6-0.2-1.3,0.3-1.8c0.5-0.5,1.2-0.5,1.8-0.2c7,4,18.1,5.5,27.2,3.2
	c4.5-1.1,8.5-3.2,11.2-6.2c2.7-3,4.3-7,4-12.4v0c-0.2-3.4-2.3-6.8-5.9-10c-3.5-3.1-8.3-5.7-13.2-7.4c-4.9-1.7-9.9-2.5-13.8-2.1
	c-3.9,0.4-6.5,2-7.5,4.7 M266.1,295.7C266.1,295.8,266.1,295.8,266.1,295.7l-0.2,0c-0.1,0.2-0.1,0.4-0.2,0.6c-0.1,0.5-0.5,0.8-1,1
	c0,0,0,0,0,0c0,0,0,0,0,0c0,0,0,0,0,0c0,0,0.1,0,0.2-0.1c0,0,0.1-0.1,0.2-0.2c0.1-0.1,0.2-0.2,0.3-0.5c0-0.1,0.1-0.2,0.1-0.3
	c0-0.2,0-0.4,0-0.7l-0.9-0.3 M266.1,295.7c-0.2,0.8-0.8,1.3-1.2,1.5c-0.1,0.1-0.3,0.1-0.5,0.2l0,0c-0.1,0-0.3,0.1-0.6,0
	c-0.1,0-0.6-0.1-0.9-0.6c-0.4-0.5-0.3-1.1-0.2-1.5c0.1-0.3,0.3-0.4,0.3-0.5 M264.7,295.3l0.8,0.2c0-0.1-0.1-0.3-0.2-0.4
	c-0.1-0.2-0.3-0.3-0.4-0.4C264.8,294.9,264.8,295.1,264.7,295.3z M264.7,295.3c-0.1,0.3-0.2,0.5-0.4,0.6c0,0,0,0,0,0
	c-0.2,0.2-0.4,0.1,0,0 M264.3,295.9c0.1-0.2,0.1-0.4,0.2-0.6c0,0,0,0,0,0c0.1-0.2,0.1-0.4,0.2-0.6c-0.1,0-0.2-0.1-0.3-0.1
	c-0.3-0.1-0.5,0-0.6,0l0.2,0.6l0,0.1L264.3,295.9z M264.3,295.9l-1.4-0.4c0.1-0.2,0.1-0.3,0.2-0.5"/>
<path class="st4" d="M1548.2,277.3c16.1-5.3,23.6-25.9,11.4-39.4c-6.1-6.7-15.1-10-23.9-8c-9,2-15.8,8.4-22.1,15
	c-1.1-11.5-8.3-21.9-19.7-25.5c-1.1-0.4-2.2-0.6-3.3-0.8c6.8-34.4-12.2-73-40.1-92.7c-31.6-22.3-74.5-24.3-107.5-4.1
	c-16.3,10-29.1,24.3-37.2,41.5c-0.1,0-0.4,0-0.5,0.1c-1.2,1.3-1.5,3-1.4,4.7c-3.9-1.4-8-1.8-12.2-0.3c-6.8,2.3-11.9,8.6-13,15.7
	c-2.4,16,11.2,25.8,25.3,26.5c-7.1,6.3-7.8,18.7,0.2,26c12,11,28.6,4.9,37.3-6.9c1.9,1.5,3.7,3.1,5.7,4.6c0.7,0.7,1.6,0.3,2.1-0.4
	c11.9,5.5,25.1-8.2,17.5-20.3c13.2-2.3,20.8-16.9,13.1-29c-4.9-7.6-11.2-9.2-17.6-7.5c13.7-15.4,41.1-29,59.1-15.3
	c9,7,13.6,18,14.8,29.1c0.6,5.8,0.4,11.5-0.2,17.1c-0.2,2.5-0.6,5-1,7.4c-0.1,0.7-0.8,6.4-0.8,9.6c-0.1,0-0.2-0.1-0.5-0.2
	c-0.1,0-0.3,0-0.4,0c-0.5-0.1-1.2,0.3-1.5,0.9l-0.1,0.7c-0.2,0.8-0.1,1.4,0.6,1.9l0.1,0c-0.2,0.1-0.4,0.3-0.6,0.4
	c-7.8,5.5-10.5,17.5-4.6,25.1c-15.2,6.1-27.1,23.1-17,38.9c10.4,16.3,30,7.4,42.7-1.2c1.1,12.7,9.8,25.7,23.7,26.2
	c10.9,0.4,20.7-7.7,22.5-18.1c11.4,14.2,30.8,24.6,48,13.2C1558.8,304.6,1560.1,285.7,1548.2,277.3z M1305.8,167.2
	c20.5-43.1,69.7-66.3,115.7-52c22.3,7,41.4,21.7,53.2,41.9c11.3,19.2,13.8,39.2,12.8,61c-4.6-0.3-9.3,0.6-13.5,2.5
	c4.5-18.2,1.3-41.1-6.6-57.8c-8.5-17.9-23.5-29.5-42.2-35.4c-34.7-10.8-79.7-4.9-96.6,31.1c-6.4,2.1-11.1,9.7-13.9,16.1
	c-3-2.2-6.2-4.3-9.6-5.6c0-0.4,0.2-0.8,0.2-1.2C1305.5,167.7,1305.8,167.5,1305.8,167.2z M1424.7,143.8
	c-27.5-10.2-63.2-4.3-82.5,18.8c-1.3-1.2-2.7-2.3-4.3-3.1c-2.5-1.3-4.9-1.8-7.1-1.5c18.8-32.9,60.9-38.6,94.7-27.3
	c18.2,6.1,32.3,17.8,40,35.6c3.5,7.9,5.6,16.7,6.4,25.3c1,10.2-0.6,19.9-0.6,30c0,0.1,0,0.3,0.1,0.5c-4.3,2.5-8.1,6-10.9,10.4
	c-0.1,0.1-0.1,0.1-0.1,0.3c-2.3-2-4.9-3.6-7.7-4.9C1466,199,1456.3,155.4,1424.7,143.8z M1374.1,182.8c11,10.1,3.7,27.2-10.6,27.9
	c-1,0.1-1.4,1.5-0.8,2.3c10,11.9-5.9,26.4-17.2,16c-0.1,0-0.1,0-0.2-0.1c-1.2-1-2.5-2.1-3.7-3.1c-0.7-0.5-1.7-0.3-2.1,0.4
	c-6.5,9.7-19.2,16.9-30.5,10c-10.5-6.4-10.8-23.3,1.9-26.6c0.6-0.1,1.1-0.2,1.5-0.3c1.9-0.5,1.4-3.3-0.6-3.1c-0.6,0.1-1,0.2-1.5,0.3
	c-13.4,2.5-29-4.3-28.9-19.9c0-7.1,4.4-13.6,11.3-15.8c8.2-2.7,15.4,2.5,21.8,7.2c0.8,0.6,1.9,0.1,2.3-0.7c1.6-4.1,3.3-8.3,6.5-11.6
	c5.1-5.4,12.6-5.9,17.9,0.3c5.3,6.4,5.9,15.4,2.5,22.8c-0.6,1.3,1.4,2.8,2.4,1.7c3.4-3.6,7.5-7.5,12.2-9.6c0.2-0.1,0.3-0.2,0.5-0.2
	C1363.6,178.3,1369.1,178,1374.1,182.8z M1439.2,192.5c-0.9-12.4-5.7-24.9-15.6-32.8c-19.9-15.9-52.3-0.6-65.3,18.3
	c-3.6,1.5-7.1,3.8-10.1,6.4c1.3-7.2-0.2-15.1-4.9-20.5c19.4-20.6,51.2-26.8,77.8-18.1c16.6,5.5,27,19.2,31.4,35.7
	c4.2,15.4,2.2,30.2-2.7,45.2c-4.6-1.5-9.4-1.9-14-0.4c1.7-3.5,1.6-8.9,2-12.1C1439,207,1439.6,199.7,1439.2,192.5z M1538,313.2
	c-16.4,5-30.8-6.1-39.7-19.1c-1-1.5-3-0.1-2.8,1.4c0.9,11.5-10.8,20.8-21.9,18.7c-11.7-2.1-18.5-14.4-18.2-25.5
	c0.1-1.4-1.5-2.1-2.6-1.4c-10.6,7.8-28.9,18.7-39.7,5c-11.5-14.7,2.5-31.6,16.9-36.4c0.8-0.3,1.2-1.8,0.6-2.3
	c-6.9-6.5-4.5-18,3.1-22.9c9.2-5.9,21.2-0.8,28.3,6.1c0.9,0.7,2.2-0.3,1.4-1.2c-0.2-0.2-0.4-0.4-0.6-0.6c0.2-0.1,0.4-0.3,0.5-0.5
	c6.1-9.6,18.3-15.2,29.5-11.7c11.2,3.6,18.2,14.8,17.5,26.4c-0.1,1.8,2,2.3,3.1,1.1c10.7-11.4,26.7-24.9,41.8-11.8
	c14,12.2,5.9,34.1-11.7,36.8c-1.7,0.2-1.8,2.6-0.3,3.2c7.3,3.1,10.9,10.6,10.1,18.3C1552.4,304.9,1545.7,310.9,1538,313.2z"/>
<path class="st6" d="M1538,313.2c-16.4,5-30.8-6.1-39.7-19.1c-1-1.5-3-0.1-2.8,1.4c0.9,11.5-10.8,20.8-21.9,18.7
	c-11.7-2.1-18.5-14.4-18.2-25.5c0.1-1.4-1.5-2.1-2.6-1.4c-10.6,7.8-28.9,18.7-39.7,5c-11.5-14.7,2.5-31.6,16.9-36.4
	c0.8-0.3,1.2-1.8,0.6-2.3c-6.9-6.5-4.5-18,3.1-22.9c9.2-5.9,21.2-0.8,28.3,6.1c0.9,0.7,2.2-0.3,1.4-1.2c-0.2-0.2-0.4-0.4-0.6-0.6
	c0.2-0.1,0.4-0.3,0.5-0.5c6.1-9.6,18.3-15.2,29.5-11.7c11.2,3.6,18.2,14.8,17.5,26.4c-0.1,1.8,2,2.3,3.1,1.1
	c10.7-11.4,26.7-24.9,41.8-11.8c14,12.2,5.9,34.1-11.7,36.8c-1.7,0.2-1.8,2.6-0.3,3.2c7.3,3.1,10.9,10.6,10.1,18.3
	C1552.4,304.9,1545.7,310.9,1538,313.2z"/>
<path class="st6" d="M1345.7,229c-0.1,0-0.1,0-0.2-0.1c-1.2-1-2.5-2.1-3.7-3.1c-0.7-0.5-1.7-0.3-2.1,0.4
	c-6.5,9.7-19.2,16.9-30.5,10.1c-10.5-6.4-10.8-23.3,1.9-26.6c0.6-0.1,1.1-0.2,1.5-0.3c1.9-0.5,1.4-3.3-0.6-3.1
	c-0.6,0.1-1.1,0.2-1.5,0.3c-13.4,2.5-29-4.3-28.9-19.9c0-7.1,4.4-13.6,11.3-15.8c8.2-2.7,15.4,2.5,21.8,7.2c0.8,0.6,1.9,0.1,2.3-0.7
	c1.6-4.1,3.3-8.3,6.5-11.6c5.1-5.4,12.7-5.9,17.9,0.3c5.4,6.4,5.9,15.4,2.5,22.8c-0.6,1.3,1.4,2.8,2.4,1.7c3.4-3.6,7.6-7.5,12.2-9.6
	c0.2-0.1,0.3-0.2,0.5-0.2c4.9-2.3,10.4-2.5,15.5,2.2c10.9,10.1,3.7,27.2-10.6,27.9c-1,0.1-1.4,1.5-0.8,2.3
	C1372.9,224.8,1356.9,239.5,1345.7,229z"/>
<path class="st5" d="M770.5,149.4c0,0.8,0.6,1.5,1.4,1.5c0.8,0,1.5-0.6,1.6-1.4c0.1-1.1,0.2-2.1,0.3-3.2c0.8-6,3.5-9.4,6.9-10.9
	c4-1.9,9.4-1.3,14.8,1.3c10.8,5.4,20.7,18.9,17.4,35.3l0,0c-2.6,13.2-10.2,22.3-19.3,25.6c-9,3.2-19.9,0.9-29.4-9.2
	c0,0-0.1-0.1-0.1-0.1c-0.6-0.6-1.5-0.6-2.1-0.1c-0.6,0.6-0.6,1.5-0.1,2.1c0,0,0.1,0.1,0.1,0.1c8.3,9,9.9,17.4,7.8,24.4
	c-2.2,7.1-8.3,13.2-16.2,16.9c-7.9,3.8-17.3,5.2-25.7,3.3c-8.3-1.9-15.7-6.9-19.6-16.3c-0.2-0.5-0.7-0.9-1.2-0.9
	c-0.5-0.1-1.1,0.2-1.4,0.6c-12,17.6-36.5,25-59.6,22.6c-23.2-2.5-44.2-14.8-49.6-35.9v0c-6.1-23.6,4.8-42.7,21.3-51.8
	c16.6-9.1,38.9-8.2,55.8,8.4c0.6,0.5,1.4,0.6,2,0.1c0.6-0.5,0.7-1.4,0.3-2c-6.5-9.2-6.6-17.1-3.6-23.3c3.1-6.3,9.7-11.1,17.2-13.8
	c7.5-2.7,15.7-3,21.8-0.7c3,1.2,5.5,3,7.3,5.4c1.7,2.5,2.7,5.7,2.5,9.9c0,0,0,0,0,0.1v0v0v0v0v0v0v0v0v0v0v0v0v0v0v0v0v0v0v0v0v0v0
	v0v0v0v0v0v0v0v0v0v0v0v0v0v0v0v0v0v0v0v0v0v0v0v0v0v0v0v0v0v0v0v0v0v0v0v0v0v0v0v0v0v0v0v0v0v0v0v0v0v0v0v0v0v0v0v0v0v0v0v0v0v0v0
	v0v0v0v0v0v0v0v0v0v0v0v0v0v0v0v0v0v0v0v0v0v0v0v0v0v0v0v0v0v0v0v0v0v0v0v0v0v0v0v0v0v0v0v0v0v0v0v0v0v0v0v0v0v0v0v0v0v0v0v0v0v0v0
	v0v0v0v0v0v0v0v0v0v0v0v0v0v0v0v0v0v0v0v0v0v0v0v0v0v0v0v0v0v0v0v0v0v0v0v0v0v0v0v0v0v0v0v0v0v0v0v0v0v0v0v0v0v0v0v0v0v0v0v0v0v0v0
	v0v0v0v0v0v0v0v0v0v0v0v0v0v0v0v0v0v0v0v0v0v0v0v0v0v0v0v0v0v0v0v0v0v0v0v0v0v0v0v0v0v0v0v0v0v0v0v0v0v0v0v0v0v0v0v0v0v0v0v0v0v0v0
	v0v0v0v0v0v0v0v0v0v0v0v0v0v0v0v0v0v0v0v0v0v0v0v0v0v0v0v0v0v0v0v0v0v0v0v0v0v0v0v0v0v0v0v0v0v0v0v0v0v0v0v0v0v0v0v0v0v0v0v0v0v0v0
	v0v0v0v0v0v0v0v0v0v0v0v0v0v0v0v0v0v0v0v0v0v0v0v0v0v0v0v0v0v0v0v0v0v0v0v0v0v0v0v0v0v0v0v0v0v0v0v0v0v0v0v0v0v0v0v0v0v0v0v0v0v0v0
	v0v0v0v0v0v0v0v0v0v0v0v0v0v0v0v0v0v0v0v0v0v0v0v0v0v0v0v0v0v0v0v0v0v0v0v0v0v0v0v0v0v0v0v0v0v0v0v0v0v0v0v0v0v0v0v0v0v0v0v0v0v0v0
	v0v0v0v0v0v0v0v0v0v0v0v0v0v0v0v0v0v0v0v0v0v0v0v0v0v0v0v0v0v0v0v0v0v0v0v0v0v0v0v0v0v0v0v0v0v0v0v0v0c0,0.8,0.7,1.5,1.5,1.5
	c0.8,0,1.5-0.6,1.5-1.4c0.5-10.2,1.6-21.6,5.9-29.7c2.2-4,5.1-7,9-8.8c4-1.7,9.2-2.2,16.1-0.6l0,0c6.1,1.3,10,3.9,12.6,7.2
	c2.6,3.3,4,7.5,4.5,12.2c0.5,4.7,0.3,9.9-0.2,15.1c-0.2,2-0.4,4.1-0.6,6.1c-0.2,2-0.4,4-0.6,5.9
	C770.6,147.1,770.5,148.2,770.5,149.4z"/>
<path class="st5" d="M48.2,552.4c0,0.8-0.6,1.5-1.4,1.5c-0.8,0-1.5-0.6-1.6-1.4c-0.1-0.9-0.1-1.8-0.2-2.7c-0.7-4.9-2.9-7.6-5.5-8.9
	c-3.2-1.5-7.6-1.1-12.1,1.1c-8.9,4.4-17,15.5-14.3,29l0,0c2.1,10.9,8.4,18.3,15.9,21c7.4,2.6,16.3,0.8,24.1-7.6c0,0,0.1-0.1,0.1-0.1
	c0.6-0.6,1.5-0.6,2.1-0.1c0.6,0.6,0.6,1.5,0.1,2.1c0,0-0.1,0.1-0.1,0.1c-6.9,7.4-8.1,14.3-6.4,20c1.8,5.8,6.8,10.8,13.3,13.9
	c6.5,3.1,14.2,4.3,21.1,2.8c6.8-1.5,12.8-5.7,16.1-13.4c0.2-0.5,0.7-0.9,1.2-0.9c0.5-0.1,1.1,0.2,1.4,0.6
	c9.8,14.4,30.1,20.6,49.2,18.6c19.1-2,36.5-12.2,40.9-29.5l0,0c5-19.4-3.9-35.1-17.6-42.6c-13.7-7.5-32-6.8-46,6.9
	c-0.6,0.5-1.4,0.6-2,0.1c-0.6-0.5-0.7-1.4-0.3-2c5.3-7.6,5.4-14,3-19c-2.5-5.1-7.9-9.1-14.1-11.3c-6.2-2.2-12.9-2.5-17.9-0.6
	c-2.5,0.9-4.5,2.4-5.9,4.4c-1.4,2-2.2,4.6-2.1,8.1c0,0,0,0,0,0.1v0v0v0v0v0v0v0v0v0v0v0v0v0v0v0v0v0v0v0v0v0v0v0v0v0v0v0v0v0v0v0v0
	v0v0v0v0v0v0v0v0v0v0v0v0v0v0v0v0v0v0v0v0v0v0v0v0v0v0v0v0v0v0v0v0v0v0v0v0v0v0v0v0v0v0v0v0v0v0v0v0v0v0v0v0v0v0v0v0v0v0v0v0v0v0v0
	v0v0v0v0v0v0v0v0v0v0v0v0v0v0v0v0v0v0v0v0v0v0v0v0v0v0v0v0v0v0v0v0v0v0v0v0v0v0v0v0v0v0v0v0v0v0v0v0v0v0v0v0v0v0v0v0v0v0v0v0v0v0v0
	v0v0v0v0v0v0v0v0v0v0v0v0v0v0v0v0v0v0v0v0v0v0v0v0v0v0v0v0v0v0v0v0v0v0v0v0v0v0v0v0v0v0v0v0v0v0v0v0v0v0v0v0v0v0v0v0v0v0v0v0v0v0v0
	v0v0v0v0v0v0v0v0v0v0v0v0v0v0v0v0v0v0v0v0v0v0v0v0v0v0v0v0v0v0v0v0v0v0v0v0v0v0v0v0v0v0v0v0v0v0v0v0v0v0v0v0v0v0v0v0v0v0v0v0v0v0v0
	v0v0v0v0v0v0v0v0v0v0v0v0v0v0v0v0v0v0v0v0v0v0v0v0v0v0v0v0v0v0v0v0v0v0v0v0v0v0v0v0v0v0v0v0v0v0v0v0v0v0v0v0v0v0v0v0v0v0v0v0v0v0v0
	v0v0v0v0v0v0v0v0v0v0v0v0v0v0v0v0v0v0v0v0v0v0v0v0v0v0v0v0v0v0v0v0v0v0v0v0v0v0v0v0v0v0v0v0v0v0v0v0v0v0v0v0v0v0v0v0v0v0v0v0v0v0v0
	v0v0v0v0v0v0v0v0v0v0v0v0v0v0v0v0v0v0v0v0v0v0v0v0v0v0v0v0v0v0v0v0v0v0v0v0v0v0v0v0v0v0v0v0v0v0v0v0v0v0v0v0v0v0v0v0v0v0v0v0v0v0v0
	v0v0v0v0v0v0v0v0v0v0v0v0v0v0v0v0v0v0v0v0v0v0v0v0v0v0v0v0v0v0v0v0v0v0v0v0v0v0v0c0,0.8-0.7,1.5-1.5,1.5c-0.8,0-1.5-0.6-1.5-1.4
	c-0.4-8.5-1.3-17.9-4.9-24.5c-1.8-3.3-4.1-5.8-7.4-7.2c-3.2-1.4-7.5-1.8-13.2-0.5l0,0c-5,1.1-8.2,3.2-10.3,5.9
	c-2.1,2.7-3.2,6.1-3.7,10c-0.5,3.9-0.2,8.2,0.2,12.5c0.2,1.7,0.3,3.4,0.5,5.1c0.2,1.6,0.4,3.3,0.5,4.9
	C48.1,550.5,48.1,551.4,48.2,552.4z"/>
<path class="st4" d="M1412.4,491.3c6.3,16.1,30.8,24,43.6,11.8c1,7.7,9,12.1,16.8,12.9c12.4,1.3,17.1-8.4,18.9-18.9
	c4.7,3.2,9.4,6.6,14.2,9.7c1.3,0.8,2.4-0.3,2.3-1.5c0.8,1,2.3-0.3,1.6-1.3c-2.1-3.4-4.2-6.9-6.5-10.3c9.7,1.1,17.1-8.9,15.2-18.1
	c-1.6-8.1-9-13.5-16.8-13.5c13.2-10.8,11.8-33.7-4.7-42.4c-19-9.8-42.1,7.4-36.8,28.5c-3.1-1.6-6.1-2.7-8.7-2.7
	c-4.7-6.8-7.6-13.5-10.3-21.3c0.5-0.3,1.1-0.6,1.5-1c1.1-1.1,1.1-2.3,0.5-3.5c-0.7-1.1-1.6-1.9-2.9-2.3c-0.7-0.2-1,0.2-1.1,0.6
	c-0.2,0-0.3-0.2-0.5-0.2c-0.5-0.2-1.1,0-1.5,0.3c-1,1.1-1.8,2.4-2.1,3.9c-0.2,0.6,0.2,1.3,0.6,1.6c0.8,0.6,1.8,1,2.7,1
	c1.5,7.6,5.7,15.2,10.5,21.1c-1.6,0.6-2.9,1.9-3.7,4.4c-2.7-2.7-6.1-5-9.4-7.1c-3.4-2.3-6.8-4.5-10.5-6c0.3-1.8-0.7-3.7-2.4-4.4
	c-0.3-0.2-0.6,0-0.8,0.2c-0.7-0.3-1.5-0.3-2.3,0c-2.3,1-2.9,4.2-1.1,6c1.4,1.5,4,1.6,5.7,0.2l0.2,0.2c3.2,2.1,6.9,3.7,10.3,5.8
	c3.4,1.9,6.5,4.5,10,6.3c0.2,0,0.2,0,0.2,0c-0.2,0.6,0.2,1.3,0.5,1.5c0,2.6,0.5,5,1.4,7.1C1431,460.5,1404.4,470.5,1412.4,491.3z
	 M1502.5,491c-0.3,0-0.5,0.2-0.8,0.3c-8.2-12.1-17.8-23.9-28.1-33.4c-1.9-1.8-6.8-5.8-11.8-8.7c0.3-0.2,0.5-0.5,0.5-1
	c-1.6-18.1,14.8-34.5,32.9-25.2c18.1,9.4,13.9,32.2-1.8,41.4c-1,0.6-0.3,2.3,0.8,1.9c1-0.3,1.8-0.6,2.6-1.1
	c7.6-0.6,15.8,1.5,18.2,9.8C1517.9,484.1,1511.1,490.7,1502.5,491z M1476.1,481.5c-10.8-7.7-25.2-15.3-28.1-29.2
	c0-0.2,0.2-0.2,0.2-0.3c5-12.4,32.4,18.1,35.7,21.9c8.1,9.5,15.2,19.8,23.1,29.5C1496.7,496,1486.2,488.9,1476.1,481.5z
	 M1414.7,485.4c-0.5-16.8,20.8-22.4,33.9-22.9c3.4,5.3,8.9,9.5,14.1,13.4c8.7,6.4,17.4,12.9,26.3,19.2c-1.3,7.4-3.1,16.1-11.8,17.6
	c-8.1,1.5-17.4-3.4-19-11.8c0.2-0.2,0.2-0.3,0.3-0.5c1.1-1.5-1.4-3.4-2.6-1.9c-6.9,8.1-16.8,8.9-26.2,4.7
	C1422.8,499.9,1414.9,493.6,1414.7,485.4z"/>
<path class="st4" d="M1484.3,450.7c4-0.5,8.2-3.7,7.9-8.1c-0.3-3.7-3.7-7.3-7.6-6.1c-0.2,0-0.3,0.2-0.5,0.3c-4,0.2-7.9,2.6-8.4,6.8
	C1475.2,448.8,1479.9,451.3,1484.3,450.7z M1478.6,443.4c0.8-3.1,4.2-3.9,6.9-4c0.7,0,1.1-0.5,1.1-1c1.8,0.8,3.1,2.7,2.9,4.7
	c-0.2,2.7-3.1,4.5-5.5,4.8C1481.2,448.4,1477.7,447,1478.6,443.4z"/>
<path class="st4" d="M1430.9,489.4c1.3,3.4,5.2,5.3,8.7,4.5c4-1,5.8-5.3,4.9-9c-1.1-4-5.5-6.4-9.5-6c-0.6,0-1,0.6-1,1.1
	C1431,482,1429.6,485.8,1430.9,489.4z M1436.3,481.8c0.3-0.2,0.5-0.3,0.5-0.6c2.1,0.6,4,1.9,4.7,4.2c0.7,2.3-0.3,5.3-2.9,5.8
	C1432.8,492.1,1432,484.4,1436.3,481.8z"/>
<path class="st4" d="M1500.4,483.4c2.9,2.3,7.8,1,9-2.6c1-2.9-1-6.1-3.7-6.8c-1.4-1.6-4.5-1.3-6.1,0.3
	C1496.9,476.7,1497.7,481.3,1500.4,483.4z M1501.1,476.2c0.5-0.6,1.5-1,2.1-0.8c0.2,0,0.3,0.2,0.5,0.2c0,0,0,0,0.2,0
	c0.3,0.2,0.5,0.3,0.7,0.8c0.3,0.6,1.1,0.6,1.8,0.2c1.3,1,1.8,2.7,0.5,4.2c-1.1,1.5-3.5,1.9-5,0.5
	C1500.4,480,1499.8,477.6,1501.1,476.2z"/>
<path class="st4" d="M1467.8,502.9c-0.3,3.1,2.3,5.5,5.3,5.6c3.1,0.2,5.8-1.9,6-5c0.2-2.7-1.8-6-4.7-6.3c-0.5,0-0.8,0.2-1,0.5
	C1470.4,497.6,1468,500,1467.8,502.9z M1470.2,503.1c0-1.8,1.4-3.4,3.1-3.9c0.2,0.2,0.2,0.3,0.5,0.5c1.6,0.8,2.7,1.6,2.7,3.5
	c0,1.8-1.3,2.7-3.1,2.7C1471.9,506,1470.2,504.9,1470.2,503.1z"/>
<path class="st4" d="M996.1,191.9c5.6,2.8,11.1,6.2,17,8.5c-1.5,14.1,9.1,27.7,21.2,33.1c15.2,6.9,39.7,10.4,54.1-2.8
	c0.3,0.1,0.8,0,1.1-0.4c13.9-18.8-1.2-41-17.2-48.9c-0.1,0-0.1,0-0.3-0.1c10.2-2.4,20-8.5,23.8-19.4c3.9-11,0.3-23.8-9.2-29.4
	c-10.1-5.9-19.7-3.7-27.2,2.5c-0.1-0.2-0.2-0.5-0.5-0.6c-9.9-7.7-23.4-2.9-31,7.6c-8.2,11.6-8.2,26.6-1.9,38.2
	c-2.2,1.4-4.2,3.1-6.1,5.3c-0.1,0-0.3-0.1-0.5,0c-7.6,1.6-14.9,3-22.6,3.9C995.7,189.2,994.8,191.2,996.1,191.9z M1057.8,136.3
	c-9.9,9.3-15.5,25.5-12,38.6c-5.8,0-11.7,1-16.7,3.6c-5-8.8-5.7-19.5-1.5-29.4C1033.1,136.7,1046.2,129.2,1057.8,136.3z
	 M1067.7,179.4c-5.5-2.2-11.9-3.9-18.3-4.4c0-0.2,0-0.5-0.1-0.9c-5.6-19.4,11.6-49.7,33.5-39.4c10.1,4.8,14.1,18.3,8.4,29
	C1086.4,173.2,1076.8,177.3,1067.7,179.4z M1067.5,235.2c-7.4-5.9-5-18.1-1.6-26.1c3.3-7.5,8.8-12.6,15.3-17.1
	c8.9,8.8,12.9,21.3,7.6,35c-0.3,0.1-0.7,0.2-0.9,0.3c-6.2,4.8-13.1,7.3-20.2,8.1C1067.6,235.4,1067.6,235.2,1067.5,235.2z
	 M1046,233.7c1.5-19.9,6.6-36.1,22.5-50.1c0.5,0.3,1.3,0.5,1.8,0.8c3.2,1.5,6.1,3.4,8.8,5.6c-13.2,7.3-28.1,34.5-14.4,45.7
	C1058.4,236.2,1052,235.2,1046,233.7z M1033.9,228.9c-0.9-4.2-0.2-14.4,0.1-15.3c0.8-3.6,1.9-7.4,3.2-10.8
	c3.4-8.8,8.6-16.3,15.2-22.9c0.2-0.1,0.3-0.4,0.3-0.6c4.5,0.7,9.1,1.8,13,3.4c-14.1,11.7-24.7,32.5-21.7,50.8
	c-0.7-0.2-1.6-0.4-2.3-0.8C1039.1,231.6,1036.4,230.4,1033.9,228.9z M1021.6,218.2c-1.2-13.6,2.7-26.6,11.9-37.3
	c0.2-0.1,0.3-0.4,0.3-0.6c4.9-1.6,10.2-2,15.6-1.5c-8,8.4-14.1,18.7-17,30.1c-1.2,4.4-2.7,12.8-1.1,18.6
	C1027.5,224.8,1024.2,221.7,1021.6,218.2z M1019.5,191.9c2.4-4.2,5.5-7.3,9.1-9.3c-6.7,9.4-10.3,20.7-9.4,32.1
	C1015.6,208,1014.8,200.2,1019.5,191.9z M1001.8,191.3c5.5-0.9,10.9-2,16.2-3.5c0,0.2-0.2,0.3-0.2,0.3c-2.1,3-3.4,6.1-4.2,9.3
	C1009.9,195.1,1005.8,193.2,1001.8,191.3z"/>
<path class="st4" d="M1087,216.7c0.8-0.6,1.9-0.7,2.7-0.1c0.2,0.2,0.3,0.4,0.6,0.7c0.4,0.3,0.6,0.8,0.6,1.3
	c-0.1,2.5-3.9,3.7-4.8,1.1C1085.5,218.6,1086,217.4,1087,216.7z"/>
<path class="st4" d="M1075.3,213.9c1.1-0.9,2.9-1.3,3.6,0.1c0.4,0.8,0.3,1.6,0.1,2.4c0.2,1-0.3,1.9-1.5,2.3
	c-1.2,0.4-2.4-0.3-2.9-1.3C1074,216.1,1074.2,214.8,1075.3,213.9z"/>
<path class="st4" d="M1054.2,613.2c7.2-8.7,4.7-21.2-1.7-29.6c-8.7-11.6-23.9-14.8-37.4-17.3c0.5-0.7,1.2-1.3,1.7-2
	c1.1-1.2,1.9-2.5,2.5-3.8c3.3,1.6,7.8,1.4,10.7-1c2.8-2.3,3.9-6,3.1-9.5c2.6-2,5.4-3.4,8.5-3.9c3.3-0.6,6.3,0.2,9.5,0.5
	c0.9,0,1.2-1.1,0.5-1.7c-5.8-3.4-14.2-0.7-19,3.7c-0.3-0.7-0.7-1.4-1.1-2c-0.3-0.5-0.8-1-1.3-1.3c4-5,5.8-12.6,2.8-18.4
	c-0.5-1.1-2.3-0.4-2,0.8c1.4,6.1,1.5,11.7-2,16.8c-2.8-1.5-6.3-1.4-8.9,0.3c-2.6,1.6-4.1,5.1-3.2,7.8c-3,1.4-5.9,2.8-8.9,4.5
	c9.5-27.2-29.4-64.5-54.9-46.1c-11.7,8.3-14.8,23.5-10,36.7c5,13.5,16.4,22.3,29.4,27.1c-9.2,0.6-18.5,1.4-27.4,3.6
	c-6.5,1.6-20.1,4.5-21.9,12.5c-3.8,15.9,30.2,4.3,44.3-1.5c-6,5.8-11.3,12.5-11.8,20.4c0,0.9,1,1.7,1.8,1.4
	c7.3-2.2,13.8-5.8,19.8-10c-3.9,7.1-5.5,15.3-4.5,23.4c0.6,5,2.4,15.8,8.6,16.9c8,1.3,9.5-8.8,10.1-14.2c1.1-10,1.3-19.9,0.6-29.9
	c5.7,11.2,13,21,26,25C1030,625.7,1045.8,623.5,1054.2,613.2z M1024.5,545.8c1.2-0.1,2.3,0.2,3.2,0.8c0.1,0.4,0.4,0.8,1,0.6
	c1.1,0.9,1.8,2.1,2.2,3.7c0.6,3.1-0.7,6.3-3.6,7.5c-2.4,1.1-4.9,0.7-7-0.4c0.1-1.1-0.2-2-0.6-3.3c0-0.2-0.3,0-0.5-0.2
	c-0.2-0.2,0.2-0.9,0-1.1c-0.1-0.3,0-0.5-0.2-0.6c-0.1-0.3-0.2-0.5-0.4-0.6C1017.5,548.9,1021.6,545.8,1024.5,545.8z M978.6,579
	c-1.9,1.6-3.9,3.5-6.1,5.4c-0.4-0.2-0.8-0.3-1.2,0c-7.8,4.1-16,7.3-24.6,9.4c-4,0.9-8.1,1.8-12.2,2.1c-1.9,0.3-3.7,0.3-5.6-0.2
	l-2.8-5.2c0.1-1.7,3.9-3.6,5.2-4.3c14.6-8.1,33.1-8.3,49.2-9C979.8,577.8,979.2,578.4,978.6,579z M981.4,574.2
	c-13.7-3.3-26.8-10.4-33.6-23.2c-6.4-12.3-5.4-27.5,5.4-36.7c23.5-19.8,61.2,17.8,52.6,43.1c-0.1,0.3-0.1,0.4,0.1,0.6
	c-8.4,5-16.1,11-23.4,17.4C982.4,574.9,982.1,574.3,981.4,574.2z M990.1,586.3c-9.5,8.7-19.2,16.8-31.4,21.2
	c1.1-6.3,5.9-11,10.4-15.6c4.9-5,9.9-9.8,15-14.4c10.2-9,20.9-16.9,32.7-23.3c0,0,0,0,0.1,0.1c0.3,0.7,0.5,1.6,0.5,2.3
	c-0.6,0.3-1.1,1.2-0.5,1.9l0.1,0.1c-1.6,5.1-8.6,10.1-11.5,13C1000.4,576.6,995.3,581.5,990.1,586.3z M989.2,619.8
	c-0.2,3.4,0.1,8.3-1.2,11.3c0.1,2.7-1.5,3.8-5.1,3c-3.1,2.3-5,2-5.5-0.6c-0.8-1.3-1.1-3.1-1.5-4.6c-0.9-3.5-1.4-7-1.2-10.5
	c0.2-7,2.3-13.6,5.4-19.8c2.8-2.3,5.8-4.6,8.6-7.1c0.6,5.9,0.8,11.9,0.8,17.9C989.5,612.9,989.5,616.4,989.2,619.8z M1015.2,617.9
	c-12.6-5.2-18.5-17.1-24-28.9c2-1.7,3.7-3.5,5.6-5.3c5.2-4.9,10.7-9.7,15.7-14.9c11.9,2.2,25,4.4,34.1,12.7
	c8.7,7.8,13,22.4,3.9,31.5C1041.6,622,1026.4,622.7,1015.2,617.9z"/>
<path class="st7" d="M1189.5,150c-1.2,1.6-1.5,10.7-1.5,15c2,0,5.2-7,6.5-10.5c2.3,3.2,7.3,9.7,8.5,10.5s0.5-7.7,0-12
	c3.5-1,10.5-3.5,10.5-5.5s-9-2.2-13.5-2c-0.3-5.2-1.4-15.7-3-16.5s-4.7,9.7-6,15c-4.5-0.8-13.6-2-14,0
	C1176.5,146.5,1191,148,1189.5,150z"/>
<path class="st7" d="M441.5,418c-1.2,1.6-1.5,10.7-1.5,15c2,0,5.2-7,6.5-10.5c2.3,3.2,7.3,9.7,8.5,10.5s0.5-7.7,0-12
	c3.5-1,10.5-3.5,10.5-5.5s-9-2.2-13.5-2c-0.3-5.2-1.4-15.7-3-16.5s-4.7,9.7-6,15c-4.5-0.8-13.6-2-14,0
	C428.5,414.5,443,416,441.5,418z"/>
<path class="st7" d="M1379,564c1.2,1.6,1.5,10.7,1.5,15c-2,0-5.2-7-6.5-10.5c-2.3,3.2-7.3,9.7-8.5,10.5c-1.2,0.8-0.5-7.7,0-12
	c-3.5-1-10.5-3.5-10.5-5.5s9-2.2,13.5-2c0.3-5.2,1.4-15.7,3-16.5c1.6-0.8,4.7,9.7,6,15c4.5-0.8,13.6-2,14,0
	C1392,560.5,1377.5,562,1379,564z"/>
<path class="st7" d="M219,156c1.2,1.6,1.5,10.7,1.5,15c-2,0-5.2-7-6.5-10.5c-2.3,3.2-7.3,9.7-8.5,10.5s-0.5-7.7,0-12
	c-3.5-1-10.5-3.5-10.5-5.5s9-2.2,13.5-2c0.3-5.2,1.4-15.7,3-16.5s4.7,9.7,6,15c4.5-0.8,13.6-2,14,0C232,152.5,217.5,154,219,156z"/>
<path class="st4" d="M203,712.5c-0.4-1.1-1.3-1.6-2.2-2c-2.4-0.9-5-0.9-7.6-1.1c-1.5,0-2.8-0.2-4.2-0.2c-0.4-4.4-0.9-8.7-1.8-13.1
	c-0.2-1.1-0.6-2.2-1.1-2.9c-0.7-1.1-2.2-1.6-3.3-0.5c-0.9,0.9-1.3,2.2-1.8,3.5c-0.7,1.6-1.1,3.3-1.7,4.9c-0.7,2-1.3,4.2-1.8,6.4
	c-1.3-0.2-2.6-0.4-3.9-0.4c-2.6-0.4-5.7-0.5-8.3,0.2c-1.1,0.2-2.2,1.1-2.2,2.4c0,0.9,0.7,1.8,1.5,2.4c2,1.6,4.4,2.6,6.6,3.6
	c1.3,0.5,2.6,1.1,4.1,1.6c-0.9,3.8-1.7,7.8-1.8,11.8c0,0.9-0.2,2,0.4,2.7c0.6,1.3,1.8,1.6,3.1,0.9c0.9-0.5,1.7-1.6,2.2-2.6
	c0.7-1.3,1.5-2.6,2-3.8c0.6-1.1,1.1-2.4,1.7-3.5c1.5,2.2,2.8,4.2,4.4,6.2c0.9,1.1,2.4,3.3,4.2,2.7c1.1-0.4,1.5-1.5,1.5-2.4
	c0-1.5,0-2.7,0-4.2c0-2,0-4.2,0-6.2c0.9-0.4,2-0.5,2.9-0.9c2.2-0.7,4.6-1.5,6.5-2.9C202.6,714.5,203.2,713.4,203,712.5z M185.1,695
	C185.1,695.1,185.1,695.1,185.1,695L185.1,695z M174.6,729.8C174.4,729.8,174.6,730,174.6,729.8L174.6,729.8z M189,729.6
	C189,729.8,189,729.8,189,729.6L189,729.6z M194.5,714.6c-1.5,0.5-2.8,0.9-4.2,1.3c-0.7,0.2-1.3,0.9-1.3,1.6c0,1.8,0,3.5,0,5.3
	c0,1.1,0,2.4,0,3.5c-1.1-1.5-2.2-3.1-3.3-4.7c-0.7-1.1-1.3-2-2-3.1c-0.6-0.9-2.4-1.3-2.9,0c-0.6,1.5-1.3,2.9-2,4.4
	c-0.6,1.3-1.3,2.6-2,3.8c0.2-1.8,0.6-3.5,0.9-5.3c0.4-1.6,0.7-3.3,1.1-4.9c0.2-0.9-0.4-1.8-1.3-2.2c-3.3-1.3-6.3-2.4-9.4-4.2
	c0.4,0,0.7,0,1.1,0c1.3,0,2.6,0,3.9,0.2c1.3,0.2,2.6,0.2,3.9,0.4c0.4,0,0.9,0.2,1.3,0.2c0.9,0.2,1.8-0.2,2.2-1.3
	c0.6-1.8,0.9-3.8,1.5-5.6c0.6-1.6,0.9-3.3,1.5-4.7c0.2-0.4,0.4-0.9,0.6-1.3c0.6,2.6,0.9,4.9,1.1,7.3c0.2,1.8,0.4,3.8,0.6,5.6
	c0,0.4,0.2,0.5,0.2,0.7c0.2,0.5,0.7,0.9,1.5,0.9c3.5,0,7.2,0,10.5,0.7c0.2,0,0.2,0,0.4,0C196.9,713.9,195.8,714.3,194.5,714.6z
	 M199.9,713.7C199.9,713.9,199.9,713.9,199.9,713.7L199.9,713.7z M199.9,713.7C199.9,713.9,199.9,713.9,199.9,713.7
	C200.1,713.9,200.1,713.9,199.9,713.7z"/>
<path class="st5" d="M1516.8,618.6c-0.1,0.6,0.2,1.2,0.7,1.5c4.1,2.3,6.9,6.8,6.9,11.9c0,7.6-6.1,13.7-13.7,13.7c-1.8,0-3.5-0.4-5-1
	c-0.4-0.2-0.8-0.2-1.2,0c-1.4,0.6-2.9,1-4.5,1c-1.8,0-3.4-0.4-5-1.2c-0.4-0.2-0.8-0.2-1.2,0c-0.4,0.2-0.7,0.5-0.8,0.9
	c-2.7,8.3-10.5,14.4-19.8,14.4c-9.2,0-17.1-6.1-19.8-14.5c-0.1-0.4-0.5-0.8-0.9-0.9c-0.4-0.2-0.9-0.1-1.3,0.1
	c-4,2.4-8.5,3.7-13.4,3.7c-14.6,0-26.4-11.8-26.4-26.4c0-14.5,11.7-26.3,26.2-26.4c0.6,0,1.1-0.3,1.3-0.8
	c3.5-6.6,10.5-11.1,18.5-11.1c10.3,0,18.8,7.4,20.5,17.2c0.1,0.5,0.5,1,1,1.2c0.5,0.2,1.1,0,1.5-0.3c3.9-3.8,9.2-6.1,15-6.1
	c11.9,0,21.4,9.6,21.4,21.4C1516.9,617.5,1516.9,618,1516.8,618.6z"/>
<path class="st2" d="M980.4,893.5c5.4-7,8.2-16,7.6-24.8c-7.2,6.5-13.5,13.9-18.8,22c-2-15.8-7.3-31.2-15.6-44.8
	c-1.6,16.1,0.3,32.7,5.9,48"/>
<path class="st4" d="M167.8,433.8c-1.4-3.9-5.2-6.1-9.3-5.2c-2.1,0.4-3.7,1.6-5.1,3c-0.7-1.9-2.1-3.5-4-4.6c-3.7-2.1-8.8-1-11.4,2.3
	c-3.3,4-2.3,9.6,0.4,13.5c3.1,4.3,7.8,7.4,12.4,10c0.9,0.5,1.7,0.1,2.1-0.6h0.1C160.3,449.8,170.7,442.7,167.8,433.8z M152.3,449.3
	c-0.2,0.1-0.5,0.2-0.7,0.5c-5.7-3.4-15-9.5-12.1-16.9c1.1-2.9,4.7-4.5,7.7-3.5c2.7,1,4.1,3.8,3.7,6.3c-0.2,0.5-0.4,1-0.5,1.5
	c-0.5,1.7,2,2.6,2.8,1.2c0.1-0.1,0.2-0.4,0.4-0.6c0.1-0.5,0.2-0.9,0.4-1.3c1-2.3,2.8-4.4,5.4-4.9c3.2-0.6,5.7,1.7,5.8,4.8
	C165.5,442.7,157.6,447.5,152.3,449.3z"/>
<path class="st4" d="M168.4,466.8c-1.2-2.1-3.8-3.2-6.2-2.8c-1.2,0.2-2.5,0.7-3.5,1.5c-0.5-1.2-1.5-2.4-2.7-3
	c-2.6-1.5-6.1-0.5-7.8,1.7c-4.8,6,3.6,13,8.3,15.6c0.9,0.5,1.6,0.1,2-0.5c0.2,0,0.5-0.1,0.7-0.2C162.9,477,171.6,472.3,168.4,466.8z
	 M162.8,473.1c-1.6,1.2-3.3,2.3-5.2,3.4c-0.1,0.1-0.2,0.1-0.4,0.2c-3.2-1.8-7.8-5.2-7.4-9.1c0.1-1.7,2-3,3.7-2.8
	c1.7,0.2,2.7,2.1,2.5,3.7c0,0,0,0.1-0.1,0.1c-1,1.7,1.5,3.2,2.6,1.7c0.1-0.1,0.4-0.4,0.4-0.6c0.7-1.2,1.9-2.3,3.3-2.6
	c1.4-0.4,3.3,0.5,3.6,2.1C166.2,470.9,163.9,472.2,162.8,473.1z"/>
<path class="st1" d="M204.7,888c-7.6-25.2-8.8-52.9-3.4-78.7c0.4-2.3,3.2-4.5,3.7-2.4"/>
<path class="st1" d="M214.1,770.7c2,2.1,4.1,4.7,4.8,7.5c0.7,2.9-0.5,6.6-3.4,7.5c-4.6,1.4-7.9-4.5-8.9-9.1c1.8-2.9,5.4-4.3,8.6-3.4
	"/>
<path class="st1" d="M213.5,791.7c0.3,5.9-6.6,11-12.2,8.8c-1.5-5.2-0.8-11.1,2-15.8c-4.2,2.5-10.1,1.6-13.3-2.2
	c-3.1-3.8-2.7-10,0.9-13.2c3.6-3.2,10.1-2.4,12.7,1.7c-2-5.2-3.5-12.5,1.3-15.2c3.3-1.9,7.7-0.1,9.9,3.1c2.2,3.2,2.5,7.2,2.4,10.9
	c0.6-3.9,3.9-7.5,7.7-8.4c4-0.9,8.4,1,10.6,4.4c1.8,3,1.9,7.1-0.1,9.8c-2,2.8-6.3,3.9-9.2,2.2c-0.1,2.7,3.8,3.1,6.1,4.4
	c4.2,2.5,2.5,9.8-1.8,12.1c-4.3,2.3-9.7,1.3-14.5,0.2"/>
<path class="st4" d="M754.5,715.5c-2-11.5-11.3-19.3-22.5-20.9c-9.3-1.4-21.7,1-28.5,8.4c0.1-0.4,0.4-0.8,0.5-1.4
	c5.3-14.4-0.7-31.8-13.2-40.4c-16-10.6-38.7-6.1-54.5,2.3c-17.3,9.1-22.2,27-17.3,45.2c-12.3,1.8-24.6,2.9-37.1,3
	c-1.1,0-1.9,1.1-1.7,2.1c1.3,6.8,10.4,7.4,15.9,8.7c11.3,2.7,22.7,5.4,34.2,7.6c8.3,9.7,19.9,16.1,33.1,17.6c9.2,1,21.2,0,28.6-6.4
	c0.8-0.7,1.5-1.5,2.2-2.3c0.2,0.4,0.4,0.7,1,1.1C717,748.8,760.5,750.3,754.5,715.5z M608.2,722.1c-4.6-1.2-19.2-2.6-23.5-7.1
	c11.8-0.3,23.6-1.3,35.3-3.2c1.9,5.7,4.7,10.9,8.2,15.6C621.5,725.5,614.8,723.9,608.2,722.1z M694.6,731.6
	c-3.6,10.6-16.2,13.2-26.1,13.1c-13.1,0-25.4-5.5-34.3-14.9c-0.1-0.3-0.1-0.7-0.6-0.8l-0.1,0c-2.3-2.5-4.4-5.3-6.1-8.4
	c-8.5-14.8-11.2-36.7,2.8-48.9c11.2-10,30.3-15.2,45.2-12.9c16.4,2.5,28.4,16.6,27.6,33.5c-0.9,16.5-16.4,29.3-32.6,28.8
	c-9.8-0.4-20.4-6.4-21.1-17.4c-0.5-9.3,5.9-19.3,14.8-22.2c8.6-2.8,20.6,2.7,20.5,12.8c0,4.3-2.7,9.1-6.7,11c-7.6,3.2-10.7-0.2-9-10
	c2-1.7,4.2-2.7,6.7-2.8c1-0.2,0.8-1.7-0.2-1.6c-12.4,0.5-16.1,18.2-2,18.6c12.7,0.4,18.1-16.4,10.5-25.2c-10.4-12-28-5.9-34.5,6.7
	c-8.2,15.4,1.6,30.7,18.3,32.7c11.9,1.5,24.5-4.1,31.8-13.7C697.9,717.3,696.9,724.8,694.6,731.6z M695.8,737c-0.1,0-0.1,0-0.3-0.1
	c5-8,5.2-20,6.8-28.4c5.5-9.9,21.6-12.9,31.9-10.1c12.5,3.5,19.3,15.3,17,28C747,749.9,711,741.1,695.8,737z"/>
<path class="st4" d="M733.9,710.9c-3.6-1.9-8.1,1.2-8.2,5.1c0,1.3,1.9,1.3,2,0.1c0.3-2.3,3.5-4.1,5.4-2.5c0.6,0.6,1.2,1.6,1.1,2.5
	c0.1,1-0.5,1.8-0.7,2.7c-0.3,1,0.9,1.8,1.8,1.4C738.9,718.3,736.8,712.4,733.9,710.9z"/>
<path class="st8" d="M349.3,705.2l891.4,136.7"/>
<path class="st8" d="M741.3,880c-2.5-32.7,8.4-98,72-98s76.5,69.3,75,104"/>
<path class="st9" d="M365.2,600.5c-3.8-5.2,5.3-23.6,5.3-29.1c0-4.6-8.6-6.4-9-13.1c-0.6-10.3,4-12.4,11.5-17.4
	c4.8-3.2,2-1.3,6.6-4.7c-1.8-3.2-2.3-1.1-4.4-1.8c-2.6-0.8-3.4-4.6,0.7-11.5c4.5-7.7,12.1-10.7,20.3-13c9.8-2.6,12.2-2.5,22.7-2.3
	c-1.4-5.1-8.3-7.6-4.4-12.9c3.4-4.7,9-5.1,14.3-4.9c10.4,0.4,20.4,2.7,29,8.5c3.3,2.2,5.6,2.3,8.8,0.5c8.5-4.7,18-5.3,27.4-5
	c12.3,0.5,18.3,2.7,14.4,13.8c7,1,24.3,4.8,31.1,11.4c11.1,10.6,8.6,20.7-5.7,27.1c0.3,3.8,8,3.6,10.5,10.5
	c1.2,3.4,2.6,8.1,0.2,10.1c-8.8,7.2,3.9,28.1,0.3,37.2c-0.5,0.7-1.1,1.1-2,1.2c-3.5-0.2-7-2-10.6-1.1c-7.2,1.7-9.4-2.1-10-8.2
	c-0.5-6.3-2.7-12.1-5.5-17.8c-1.4-2.8-3.1-5.1-7-4.2c-6.2,1.5-10.6-1.4-14.5-5.7c-1.5-1.6-2.6-4.6-5.8-1.6
	c-7.2,6.7-14.3,3.3-21.1-0.7c-4.1-2.3-7.3-5.8-10.3-10c-4,3-6,7.3-9.3,10.3c-10.2,9.2-18.1,7.8-23.5-4.9c-5.3,5.4-11.3,7.8-18.7,5.1
	c-3.7-1.3-5.5,1.9-7.1,4.4c-5,7.5-9.5,15.4-11.1,24.4c-0.7,3.8-1.7,7.9-7.5,6c-3.1-2-6.2-2.8-9.8-0.9
	C369.4,601.1,367.3,602,365.2,600.5z"/>
<path class="st10" d="M475.8,711c56-8.8,94.3-60.5,85.7-115.5c-8.6-55-61-92.5-117-83.6c-56,8.8-94.3,60.5-85.7,115.5
	C367.5,682.3,419.9,719.8,475.8,711z"/>
<path class="st9" d="M484.3,572.6c-9.2,2-23.1,11.3-37.9,9.2c-3.6-0.5-7.7-5.1-11.9-4.7c-1.6-0.7-6.4,1.5-7.1,4.8
	c-1,5,1.5,8.9,5.9,12.1c0,0,1.2,1,3.4,2.1c0.7,0.3,1.3,0.7,2,1c0,0,0.1,0,0.1,0c4.5,2,11.5,4,20.7,3.3c11-0.9,19.3-6.3,23.6-9.9
	c1.3-1,2.4-2,3.4-3.1c2.8-3.1,4.2-6.4,4.5-9.7C491.2,575.1,491.3,572,484.3,572.6z"/>
<path class="st11" d="M480.3,576.9c-9.3,9.1-33.7,11.1-46.2,2.3c-0.2-1.9-2.1-3.2,3.1-2c13.9,3.1,29.7,0.6,43.2-3.5
	C480.8,574.4,480.7,576.2,480.3,576.9z"/>
<path class="st12" d="M440.6,597.9c11.2-3.9,24.6-4.9,36.5-3.1C464.4,602.5,450.3,601.8,440.6,597.9z"/>
<path class="st13" d="M462.6,645.9l5.1,65.9"/>
<path class="st14" d="M462.3,613.6l4.5,85.5l-20.7,2.7c0,0,10.5-20.9,5.7-62C447.1,598.6,462.3,613.6,462.3,613.6z"/>
<path class="st14" d="M458.4,613.7l9.2,85.6l21.6-1c0,0-14.2-19-15.9-60.6C471.7,596.2,458.4,613.7,458.4,613.7z"/>
<path class="st15" d="M358,619.9c1.6,20.8,10.4,47.1,34.6,67.7c1.1-11.4,42.6-33.3,72.8-13.3c20.9-24.6,65.5-14,73.8,1
	c20.2-25,25.2-47.4,23.3-72L358,619.9z"/>
<path class="st16" d="M361.4,627.1c0,0-2.4,0.1-2.4,0.2c2.2,13.7,6.6,23,10.2,30.8c2.3-0.2,8.7-1.1,16.1-5.5
	c9.2-5.5,9.3-28.2,9.3-28.2L361.4,627.1z"/>
<path class="st17" d="M382.1,644.6c-7.1,4.3-14,5.3-16.5,5.5c0.9,2.7,2.5,5.3,3.6,7.9c2.3-0.2,8.7-1.1,16.1-5.5
	c9.2-5.5,9.3-28.2,9.3-28.2S391.3,639.1,382.1,644.6z"/>
<path class="st16" d="M560.4,610.9c0,0,2.4-0.2,2.4-0.2c0,13.9-2.9,23.8-5.3,32c-2.3,0.2-8.8,0.3-16.8-2.8
	c-9.9-3.9-13.5-26.3-13.5-26.3L560.4,610.9z"/>
<path class="st17" d="M542.6,631.6c7.7,3.1,14.6,3,17.2,2.8c-0.5,2.8-1.6,5.7-2.3,8.4c-2.3,0.2-8.8,0.3-16.8-2.8
	c-9.9-3.9-13.5-26.3-13.5-26.3S532.7,627.7,542.6,631.6z"/>
<g class="st18">
	<path class="st6" d="M366.9,626.6l-5.7,0.4l-0.6-7.4l5.7-0.5L366.9,626.6z"/>
	<path class="st6" d="M412.6,622.9l-5.7,0.5l-0.6-7.4l5.7-0.4L412.6,622.9z"/>
	<path class="st6" d="M513.1,614.7l-5.7,0.4l-0.6-7.4l5.7-0.5L513.1,614.7z"/>
	<path class="st6" d="M558.9,611.1l-5.7,0.5l-0.6-7.4l5.7-0.4L558.9,611.1z"/>
</g>
<path class="st19" d="M447.2,621.3c0.8,1.5,1.4,3,1.8,4.5c0.4,1.5,0.8,3,1,4.5c0.1,0.8,0.2,1.5,0.3,2.3c0.1,0.8,0.1,1.5,0.2,2.3
	c0,1.5-0.2,3.1-0.5,4.6c-0.1,0.8-0.3,1.5-0.4,2.3c-0.1,1.1-0.4,0.7,0,1.2c0.4,0.4,1.1,0.7,1.7,0.9c0.7,0.2,1.4,0.4,2.2,0.5
	c3,0.4,6.1-0.2,9.1-0.7l1.6-0.3l0.8,2.4c0.8,2.2,1.1,4.5,1.5,6.7c0.2,1.1,0.4,2.2,0.5,3.4c0.1,1.1,0.2,2.3,0.2,3.4
	c0.1,2.3-0.1,4.6-0.3,6.9c-0.3,2.3-0.7,4.7-1.5,7l-0.6,0.1c-1.2-2.2-2-4.4-2.7-6.6c-0.7-2.2-1.3-4.5-1.6-6.8
	c-0.2-1.1-0.3-2.3-0.4-3.4c-0.1-1.1-0.1-2.3-0.1-3.4c0-2.3-0.1-4.6,0.2-6.9l2.4,2.2c-1.6-0.3-3.2-0.7-4.7-1.1
	c-1.6-0.4-3.1-0.7-4.7-1.1c-0.8-0.2-1.6-0.4-2.3-0.6c-0.8-0.2-1.6-0.4-2.5-1c-0.4-0.3-0.9-0.6-1.3-1.3c-0.1-0.2-0.2-0.4-0.2-0.6
	l0-0.1l0,0l0,0l0-0.1c0-0.2-0.1-0.4-0.2-0.6l-0.8-2.3c-0.5-1.5-0.9-3.1-1.1-4.6c-0.1-0.8-0.1-1.5-0.1-2.3c0-0.7,0-1.6,0-2.3
	c0.1-1.6,0.3-3.1,0.6-4.6c0.3-1.6,0.7-3.1,1.4-4.7L447.2,621.3z"/>
<path class="st19" d="M464.3,668.9c-0.8-4-1.5-7.9-2.2-11.9l-1-6l-0.9-6c-0.3-2-0.7-4-1.1-5.9c-0.4-2-0.5-4-0.5-6c0-2,0.2-4,0.5-6.1
	c0.3-2.1,0.7-4.1,1.5-6.1l0.6-0.1c1.1,1.9,1.8,3.9,2.4,5.8c0.6,2,1.1,3.9,1.4,5.9c0.4,2,0.5,4,0.4,6c0,2-0.2,4-0.2,6l0,6.1l0,6.1
	c-0.1,4-0.1,8.1-0.4,12.1L464.3,668.9z"/>
<path class="st19" d="M562.8,611c-16.8,3.7-33.7,6.2-50.7,8.5c-16.9,2.2-33.9,3.9-51,5.3c-17,1.4-34.1,2.4-51.1,2.9
	c-17.1,0.5-34.2,0.7-51.4-0.2l-0.1-0.6l25.5-2.2l25.5-2.1l51-4.3l51.1-4l25.5-2l25.5-1.9L562.8,611z"/>
<path class="st19" d="M453.9,618.6c1.5-0.2,2.5-1.6,2.3-3.1c-0.2-1.5-1.6-2.4-3.1-2.2c-1.5,0.2-2.5,1.6-2.3,3.1
	C451.1,617.8,452.4,618.8,453.9,618.6z"/>
<path class="st20" d="M446.9,621.3l-0.7-8.7"/>
<path class="st21" d="M408.7,619.6c-4.3-55.3,14.9-101.9,43-104.7c-56,5-97.9,53.5-93.5,108.8c4.3,55.3,53.2,96.4,109.3,92.3
	C439.2,717.9,413,674.9,408.7,619.6z"/>
<defs>
	<filter id="Adobe_OpacityMaskFilter" filterUnits="userSpaceOnUse" x="334.7" y="367.9" width="193.5" height="162.6">
		<feColorMatrix  type="matrix" values="1 0 0 0 0  0 1 0 0 0  0 0 1 0 0  0 0 0 1 0"/>
	</filter>
</defs>
<mask maskUnits="userSpaceOnUse" x="334.7" y="367.9" width="193.5" height="162.6" id="mask0_132_2956_1_">
	<path class="st22" d="M510.5,532.5c-1.5-18.6-30.1-31.5-63.9-28.7c-33.8,2.8-59.9,20.2-58.4,38.8c1.5,18.6,30.1,31.5,63.9,28.7
		C485.9,568.5,512,551.2,510.5,532.5z"/>
</mask>
<g class="st23">
	<path class="st9" d="M528.2,463.2c0.5,6.4-4.5,9.8-7.4,14.5c-2.5,3.9,4,9.9,0.7,15.9c-4.9,9.1-13.6,11.5-22.6,13.3
		c-5.6,1.1-11.5,1.2-17.3,1.8c-0.2,3.6,3.1,3.6,4.7,5c6.1,5.2,5.6,10.2-1.7,14.1c-7.9,4.3-16,3-24.1,0.6
		c-9.8-2.8-18.5-7.5-27.4-13.2c-1.6,5.1,3,10.7-3.1,13.4c-5.4,2.3-10.4-0.2-14.8-3.1c-8.6-5.6-15.9-12.8-20.1-22.1
		c-1.6-3.6-3.5-4.8-7.3-4.9c-9.7-0.4-18.1-4.7-25.9-9.8c-10.2-6.7-10.3-11.8-1.2-19.3c-5.4-4.5-11-8.7-16.1-13.5
		c-3.6-3.3-6.3-7.5-8-12.2c-5.3-14.3,1.4-22.9,17-20.9c1.7-3.4-1.4-5.4-2.4-7.9c-2.8-6.6-4.9-13.2-3.3-20.6c0.7-3.6,2.1-8.3,5.2-8.8
		c11.4-1.7,16.3-11.3,24.1-17.3c0.8-0.3,1.5-0.3,2.3,0c2.9,2,4.9,5.2,8.4,6.4c7,2.2,6.9,6.6,4.1,12.2c-2.9,5.7-4.2,11.8-4.8,18
		c-0.4,3.2-0.1,5.9,3.7,7.1c6.1,1.9,8.3,6.7,9.2,12.3c0.4,2.1-0.2,5.2,4,4.3c9.7-2,13.9,4.6,17.6,11.4c2.2,4.1,3.1,8.6,3.4,13.9
		c5-0.5,9-3.2,13.4-4.1c13.5-2.7,19.5,2.7,17.4,16.3c7.4-1.9,13.7-0.9,18.7,5.3c2.4,3,5.7,1.2,8.4-0.1c8.3-3.9,16.2-8.3,22.4-15.1
		c2.6-2.9,5.7-5.9,9.5-1.3c1.6,3.3,3.8,5.6,7.8,5.8C525,460.6,527.2,460.8,528.2,463.2z"/>
</g>
<path class="st9" d="M418.3,561.5c2.6-0.4,4.3-2.8,3.9-5.3c-0.4-2.5-2.8-4.2-5.4-3.8c-2.6,0.4-4.3,2.8-3.9,5.3
	C413.4,560.2,415.8,561.9,418.3,561.5z"/>
<path class="st9" d="M492.3,555.5c2.6-0.4,4.3-2.8,3.9-5.3c-0.4-2.5-2.8-4.2-5.4-3.8c-2.6,0.4-4.3,2.8-3.9,5.3
	C487.3,554.2,489.7,555.9,492.3,555.5z"/>
<path class="st9" d="M403,550.1c2.8-7.1,7.7-9.8,14.6-10.1c1.8-0.1,3.6,0.5,3.9,2.4c0.3,1.9-1.4,2.8-3.1,3.3
	C413.6,547.1,408.9,548.4,403,550.1z"/>
<path class="st9" d="M506.5,540c-7.2-0.6-12.2-1-17.3-1.4c-1.5-0.1-3.3,0.3-3.5-1.5c-0.1-1.4,1.1-2.5,2.6-3.1
	C496,531.2,501,534,506.5,540z"/>
<path class="st6" d="M434.4,679.7c-24.7,0.8-29.3,14.5-29.9,17c19.1,12.1,41.1,17.4,63.7,15.6l-1.5-19.2
	C466.6,693,461.4,678.8,434.4,679.7z"/>
<path class="st17" d="M466.7,694.7c0-0.2-1.1-7.7-11.9-11.8c2.6,2.7,2.9,6.6,2.9,6.8c0,0,0,0.1,0,0.1c0.6,7.9-6,14.7-14.1,14.2
	c-13.5-0.8-26.6-4.3-39-10.5c19.7,12.2,40.8,17.2,63.1,15.3C467.9,708.9,467.2,699.8,466.7,694.7z"/>
<path class="st6" d="M496.3,674.6c24.5-3.3,31.2,9.6,32.2,11.9c-17,15-37.8,23.8-60.4,25.7l-1.5-19.2
	C466.6,693,469.6,678.1,496.3,674.6z"/>
<path class="st17" d="M466.7,694.7c0-0.2-0.2-3.9,3-7.6c9,11.3,13.3,14.8,21.2,13c8.1-1.8,15-5.6,21.6-10.7
	c6.3-4.8,4.3-11.6,4.6-13.1c4.9,1.8,8.4,5,10.1,7.7c-18.1,16.3-37,23-59.3,24.8C467.8,708.9,467.1,699.9,466.7,694.7z"/>
<path class="st16" d="M498.9,682.9c7.5-1.7,12.9-4.3,16.7-7.1c-4.7-1.6-11-2.3-19.3-1.2c-10.6,1.4-17.6,4.6-22,8
	C479.7,684.5,487.6,685.5,498.9,682.9z"/>
<path class="st16" d="M433.5,688.2c-7.7-0.4-13.4-2.1-17.6-4.3c4.4-2.3,10.5-4.1,18.9-4.3c10.8-0.3,18,1.7,22.9,4.4
	C452.7,686.7,445,688.9,433.5,688.2z"/>
<path class="st24" d="M1230.4,627.7c-4.6,1.5-10.1,0.9-13.5,5.6c-1.2,1.7-2.7,1-3.5-0.8c-0.5-1-0.9-2-1.5-2.9
	c-3.2-4.4-3.6-7.8,2.6-9.5c0.7-0.2,1.2-1.2,1.8-1.7c0.5-3,6.3-3.7,3.8-8c-2.9-4.9-5.9-10-11.3-12.6c-3-1.5-4.8,1-6.6,2.9
	c-3.5,3.5-4.3,9.1-9.1,11.6c-4,3-3,8.4-5.9,12c-2.5-0.6-2.3-4.3-5-4.7c-2.8,0-3.5-2.4-4.8-4.1c-3-3.8-5.9-7.6-9.3-11.1
	c-3.6-3.7-7.5-6-12.8-4.9c-5.4,5.4-5.9,12.8-7.8,19.5c-0.7,2.5,2.2,3.5,4.4,4.1c3.9,1.1,7.8,2,11.6,3.7c-5.7-0.4-10.7,0.6-15.5,3.7
	c-2.6,1.7-5.8-1-8.2-3.1c0.1-3.1,4.4-5.9-0.7-9.5c-2.4-1.7,2-4.6,3.9-7.2c-6.1-3.5-9.6-8.5-6.3-15.5c3.4-7.2,9-11.1,17.5-10.1
	c1.7,0.2,3.8,0.3,3-2.6c-2.2-8,2.9-6.3,7.4-5.2c1.3,0.3,2.5,0.8,4.3,1.5c0.3-4.9-0.7-9.9,3.7-13.3c3.3-2.5,6.9-3.8,11-3.9
	c10.5-0.1,16.5,5.8,19.6,19.3c8.4-2.5,9-2.2,11.6,7.3c4.8-2.6,9.3-2.6,13.3,1.6c3.9,4.2,3.8,8.7,0.9,13.3c-0.6,0.9-2.4,2.3-0.1,3
	c5,1.6,4.3,4.2,1.7,7.3c-0.9,1.1-1.4,1.7,0.2,3C1236.5,621.7,1236.4,622.7,1230.4,627.7z"/>
<path class="st25" d="M1193.1,612.3c2.7-4.5,4.8-9.3,8.3-13.3c4.7-5.4,6.4-5.6,11.7-0.5c2.2,2.2,4.2,4.6,5.9,7.1
	c5.8,8,5.7,8-2.7,12.8c-4,0.4-7.4,2.7-10.8,4.5c-5.2,2.8-10.3,5.1-16.5,1.4C1190.4,620.5,1191.8,616.4,1193.1,612.3z"/>
<path class="st25" d="M1154.3,597.1c2.7-3,5.3-2.8,8.6-0.6c7.8,5.4,12.8,13.2,18.2,20.6c0.2,1.1,0.5,2.1,0.8,3.9
	c-6.5-3.4-12.1-4.8-18.8,0c-3.2,2.2-9.8-0.6-14.3-3.1c-1.8-1-0.9-3.2-0.4-4.8C1150.3,607.7,1152.3,602.4,1154.3,597.1z"/>
<path class="st10" d="M1144.1,820.4c48.4,16.4,100.8-8.8,116.9-56.4c16.1-47.6-10.1-99.4-58.5-115.9
	c-48.4-16.4-100.8,8.8-116.9,56.4C1069.5,752.1,1095.7,804,1144.1,820.4z"/>
<path class="st25" d="M1085.6,704.7c-16.1,47.6,10.1,99.4,58.5,115.8c48.4,16.4,100.8-8.8,116.9-56.4L1085.6,704.7z"/>
<g class="st18">
	<path class="st6" d="M1258.4,770.7c-15.3-3-30.2-6.9-45-11.1c-14.8-4.3-29.5-8.9-44.1-13.8c-14.6-4.9-29.1-10.2-43.4-15.9
		c-14.3-5.7-28.6-11.6-42.5-18.6l0.2-0.5l21.9,7.3l21.9,7.4l43.8,14.8l43.7,14.9l21.9,7.5l21.9,7.6L1258.4,770.7L1258.4,770.7z"/>
</g>
<path class="st21" d="M1129.2,716.5c16-47.3,48.6-79.1,72.8-71.3c-48.2-15.9-100.1,9.3-116.2,56.6c-16,47.3,9.8,98.9,57.8,115.6
	C1119.6,808.8,1113.2,763.8,1129.2,716.5z"/>
<path class="st9" d="M1156,677.8c2.2,0.8,4.6-0.4,5.3-2.6c0.7-2.2-0.5-4.5-2.7-5.3c-2.2-0.8-4.6,0.4-5.3,2.6
	C1152.6,674.7,1153.8,677.1,1156,677.8z"/>
<path class="st9" d="M1219.5,699.4c2.2,0.8,4.6-0.4,5.4-2.6c0.7-2.2-0.5-4.5-2.7-5.3s-4.6,0.4-5.3,2.6
	C1216,696.2,1217.2,698.6,1219.5,699.4z"/>
<path class="st26" d="M1220.7,682.4c1.7-1.7,4.2-1.1,6.8,0c3.5,1.5,6.2,3.8,5.2,6.1c-0.8,1.9-3.3-0.2-4.9-0.9
	C1225,686.1,1220.6,685.6,1220.7,682.4z"/>
<path class="st27" d="M1163.5,662c-1.9,2.7-6.4,0-9.6-0.1c-1.9-0.1-3.5-1.3-2.5-2.6c1.7-2,5.2-1.9,8.8-1
	C1162.3,658.9,1163.8,660.1,1163.5,662z"/>
<path class="st24" d="M1276.1,693.9c-0.8-1.9-2-2.7-0.2-5.6c5-7.6-1.9-12.5-4.3-13.7c-1.9-1-3.3-2-2.1-4.6
	c4.1-8.9,11.8-7.9-0.9-16.2c-2.7-1.8,4.8-8.5,1.4-10.3c-3.5-2-6.8-10.3-9.6-8.4c-1.4,1-3.2,4-4.7,1.3c-3.8-6.9-3.3-5-10.5-0.1
	c4.3-8.8-3-9.1-4.1-14.3c-4.8-2.4-5.1,3.8-9.5,5.5c-3,1.1-2.6,6-5.1,0.5c-1.7-3.9-14.5-5.1-8.6-7.3c1.6-0.6,3.8-1.8,2.5-4.5
	c-6.5-3-11.3,2.1-16.7,3.9c-5.1,1.8-10,4.2-15.3,1.1c-0.1-5.1,6.5-9.2,2.1-14.8c-6.7,2.9-6,10.4-8.7,14.4c-0.2-2.4-0.6-5.2-5-5.1
	c-1.2,0.9-0.4,2.2-0.8,3.3c-6.8-7.4-14.3-5.1-22.5-2.2c-4.7,1.7-10.6,0.1-14.2-3.4c-3.4-3.2,0.3-7.4,1.4-11.1
	c1.4-4.8-5.6-3.1-7.1,0.6c-3.3,8.1-3.9,12.3-0.9,15.2c-11.6-1.7-15.3,9.1-9.1,18.6c2.3,3.6-9.7-1.6-13.2,0.7
	c-7.5,5-9.9,15.3-4.1,18.8c6.3,3.7-10.7,0.1-12.7,4.6c-3.9,8.7-2.2,12.7,5.5,14.9c3.1,0,7.8-6.4,11.1-5c8,3.1,13.5,2.4,16.7-4.5
	c3.3-7.2,9.7-3,15.4-7.5c0.9-0.7,1.8-1.6,2.7-2.5c1,0.6,2.1,1.2,3.4,1.5c3.8,1.1,6.4-3.2,9.1-6.4c2.5,3.6,4.9,7.9,9.2,2
	c1.1-1.4,2.5-0.2,3.3,0.8c3.3,3.7,7,3.6,10.8,1.2c2-1.3,3.7-0.6,5.7-0.1c3,0.8,6.2,0.4,7.9-2.2c2.3-3.7,4.7-3.5,7.1-2.5
	c1.2,0.9,2.4,1.9,3.8,2.5c2.5,1.1,3.4,2.7,3.6,4.8c-0.3,1.1-0.9,2.4-1.6,3.6c-2.4,4.5-0.4,7.5,4.1,9.4c1.1,0.5,2.3,0.8,3.4,1.1
	c5.1,3.7,12.4,5.8,18.6,6.5c2.5,0.3,5.1,0.5,7.6,0.1c3.8-0.5-4.9,6.3-4.9,10.6c-0.1,5.6,7,4.7,11.9,8.3c3.2,2.3,1,5.1-0.1,7.7
	c-1.7,4-2.6,9.1,1,10.9c5.5,2.8,7.6,3,6.4,15.9c2.4,2.5,5.4,3.9,9,3.6c4.3-0.2,0.5-12.9,4.8-13.1c4.9-0.7,5.4-2,5.6-6.5
	c0.1-2-0.8-3.8,2.5-5.2C1286.2,707.5,1280.1,703.2,1276.1,693.9z M1142.8,622.7c-3,0.3-1.5,0.3-0.9-0.3
	C1142.2,622.5,1142.5,622.6,1142.8,622.7z"/>
<defs>
	<filter id="Adobe_OpacityMaskFilter_1_" filterUnits="userSpaceOnUse" x="1095.5" y="740.3" width="35.2" height="54.6">
		<feColorMatrix  type="matrix" values="1 0 0 0 0  0 1 0 0 0  0 0 1 0 0  0 0 0 1 0"/>
	</filter>
</defs>
<mask maskUnits="userSpaceOnUse" x="1095.5" y="740.3" width="35.2" height="54.6" id="mask1_132_2956_1_">
	<path class="st28" d="M1085.6,704.3c-16.1,47.6,10.1,99.4,58.5,115.8c48.4,16.4,100.8-8.8,116.8-56.3L1085.6,704.3z"/>
</mask>
<g class="st29">
	<path class="st17" d="M1101.5,778.5c0,0,26.6-40.5,29.1-38.1c2.5,2.3-32.6,54.5-32.6,54.5l-2.5-7.2L1101.5,778.5z"/>
</g>
<defs>
	<filter id="Adobe_OpacityMaskFilter_2_" filterUnits="userSpaceOnUse" x="1124.1" y="749.6" width="32.8" height="68.6">
		<feColorMatrix  type="matrix" values="1 0 0 0 0  0 1 0 0 0  0 0 1 0 0  0 0 0 1 0"/>
	</filter>
</defs>
<mask maskUnits="userSpaceOnUse" x="1124.1" y="749.6" width="32.8" height="68.6" id="mask2_132_2956_1_">
	<path class="st30" d="M1085.6,704.3c-16.1,47.6,10.1,99.4,58.5,115.8c48.4,16.4,100.8-8.8,116.8-56.3L1085.6,704.3z"/>
</mask>
<g class="st31">
	<path class="st17" d="M1129.3,797.7c0,0,22.7-50.8,27.2-47.9c4.5,2.9-25.9,68.5-25.9,68.5l-6.4-9L1129.3,797.7z"/>
</g>
<defs>
	<filter id="Adobe_OpacityMaskFilter_3_" filterUnits="userSpaceOnUse" x="1200.7" y="765.5" width="9.6" height="63.1">
		<feColorMatrix  type="matrix" values="1 0 0 0 0  0 1 0 0 0  0 0 1 0 0  0 0 0 1 0"/>
	</filter>
</defs>
<mask maskUnits="userSpaceOnUse" x="1200.7" y="765.5" width="9.6" height="63.1" id="mask3_132_2956_1_">
	<path class="st32" d="M1085.6,704.3c-16.1,47.6,10.1,99.4,58.5,115.8c48.4,16.4,100.8-8.8,116.8-56.3L1085.6,704.3z"/>
</mask>
<g class="st33">
	<path class="st17" d="M1209.2,813.5c0,0,3.2-48.3-0.9-48c-4.1,0.3-7.6,63.1-7.6,63.1l7.6-4.1L1209.2,813.5z"/>
</g>
<defs>
	<filter id="Adobe_OpacityMaskFilter_4_" filterUnits="userSpaceOnUse" x="1163.7" y="758.4" width="21.2" height="70.3">
		<feColorMatrix  type="matrix" values="1 0 0 0 0  0 1 0 0 0  0 0 1 0 0  0 0 0 1 0"/>
	</filter>
</defs>
<mask maskUnits="userSpaceOnUse" x="1163.7" y="758.4" width="21.2" height="70.3" id="mask4_132_2956_1_">
	<path class="st34" d="M1085.6,704.3c-16.1,47.6,10.1,99.4,58.5,115.8c48.4,16.4,100.8-8.8,116.8-56.3L1085.6,704.3z"/>
</mask>
<g class="st35">
	<path class="st17" d="M1176.2,812.9c0,0,12.5-54.2,7.7-54.5c-4.8-0.3-20.2,70.3-20.2,70.3l9.6-3.5L1176.2,812.9z"/>
</g>
<defs>
	<filter id="Adobe_OpacityMaskFilter_5_" filterUnits="userSpaceOnUse" x="1229.1" y="768" width="14.9" height="63">
		<feColorMatrix  type="matrix" values="1 0 0 0 0  0 1 0 0 0  0 0 1 0 0  0 0 0 1 0"/>
	</filter>
</defs>
<mask maskUnits="userSpaceOnUse" x="1229.1" y="768" width="14.9" height="63" id="mask5_132_2956_1_">
	<path class="st36" d="M1085.6,704.3c-16.1,47.6,10.1,99.4,58.5,115.8c48.4,16.4,100.8-8.8,116.8-56.3L1085.6,704.3z"/>
</mask>
<g class="st37">
	<path class="st17" d="M1242.1,814.5c0,0-9-47.7-12.4-46.5c-3.3,1.2,9.1,63,9.1,63l5.3-5.7L1242.1,814.5z"/>
</g>
<defs>
	<filter id="Adobe_OpacityMaskFilter_6_" filterUnits="userSpaceOnUse" x="1062" y="727.8" width="46.3" height="44.7">
		<feColorMatrix  type="matrix" values="1 0 0 0 0  0 1 0 0 0  0 0 1 0 0  0 0 0 1 0"/>
	</filter>
</defs>
<mask maskUnits="userSpaceOnUse" x="1062" y="727.8" width="46.3" height="44.7" id="mask6_132_2956_1_">
	<path class="st38" d="M1085.6,704.3c-16.1,47.6,10.1,99.4,58.5,115.8c48.4,16.4,100.8-8.8,116.8-56.3L1085.6,704.3z"/>
</mask>
<g class="st39">
	<path class="st17" d="M1070.2,757.4c0,0,36.2-32.4,38.1-29.4c1.9,2.9-45.5,44.5-45.5,44.5l-0.7-7.7L1070.2,757.4z"/>
</g>
<path class="st6" d="M1127.8,781.8c-20.7-8.2-29.5,1.5-30.8,3.3c11.6,16.8,27.9,29.1,47.2,35.7l5.6-16.4
	C1149.8,804.4,1150.4,790.7,1127.8,781.8z"/>
<path class="st17" d="M1149.3,805.8c0.1-0.2,1.8-6.8-5.7-14c1.1,3.2,0,6.5,0,6.6c0,0,0,0.1,0,0.1c-2.3,6.8-10.2,10-16.7,6.7
	c-10.9-5.5-20.5-13.1-28.6-22.7c12,17.1,27.7,28.9,46.9,35.4C1145.2,818,1147.8,810.2,1149.3,805.8z"/>
<path class="st6" d="M1181,799.8c21.4,6.1,22.5,19.1,22.5,21.4c-19.4,6.3-39.8,6.2-59.2-0.4l5.6-16.4
	C1149.8,804.3,1157.6,793.1,1181,799.8z"/>
<path class="st17" d="M1149.3,805.8c0.1-0.2,1.2-3.3,5.2-5.2c3.4,12.6,5.8,17.1,12.9,18.4c7.4,1.4,14.4,0.7,21.7-1.1
	c6.9-1.8,7.7-8,8.5-9.3c3.4,3.2,5.1,7.2,5.7,10c-20.8,7-38.8,5.8-58-0.7C1145.1,817.9,1147.8,810.2,1149.3,805.8z"/>
<path class="st16" d="M1180.1,807.5c6.9,1.3,12.2,1.1,16.4,0.1c-3.3-3-8.2-5.9-15.6-7.9c-9.3-2.6-16.2-2.4-21-1.2
	C1163.6,802,1169.8,805.6,1180.1,807.5z"/>
<path class="st16" d="M1124,788.5c-6.2-3.2-10.4-6.6-13.1-9.8c4.4-0.3,10.1,0.4,17.2,3.2c9,3.6,14.3,7.9,17.5,11.8
	C1140.4,794.1,1133.3,793.2,1124,788.5z"/>
<path class="st9" d="M1157.1,693.4c0,0,3.1,2,7.9,0.9c0,1.9-2.8,1.6-2.6,2.4c-0.8,4.4,21.8,20.4,41.3,11.7c0.4-1.2,2.8-2.6,2.8-2.6
	s-1.3,4.4,2.1,7.5c-3.3-0.1-4.1-2.1-4.1-2.1s-6.5,5.9-13.9,10.7c-6.7,4.4-20.8,4.4-25.5-5.7c-4.8-10.3-6.1-19.2-6.1-19.2
	S1156.1,695.5,1157.1,693.4z"/>
<path class="st6" d="M1178.7,712.5c12.5,2.5,17.9,0.9,21.8-3.4c-6.8,0.1-14.3-1.5-20.2-2.9c-5.7-1.4-11.5-3.1-16-6.6
	C1165.5,704,1168.9,710.6,1178.7,712.5z"/>
<path class="st40" d="M1167.4,720.1c2.1,2.4,4.8,4.1,8.6,4.6c4.3,0.6,7.5,0.8,10.7-0.7C1177.6,718.8,1171.1,718.7,1167.4,720.1z"/>
<path class="st9" d="M1200.1,709.3c-3.9,4.3-9.2,6-21.8,3.5c-9.8-1.9-13.3-8.5-14.5-12.8c-1.6-1.2-3-2.7-4.2-4.4
	c1.9,7.4,2.9,17.9,8.2,24c3.7-1.3,10.6-2.4,19.7,2.8c6.4-3.1,11.2-9.2,17.4-13.6C1203.4,709.1,1201.8,709.3,1200.1,709.3z"/>
<path class="st41" d="M1237.2,326.4v0.1c0,0,0,0,0,0c0,0,0,0,0,0l-0.8,0.7l1.1,0.1c1.3,0.1,2.2,1,2.7,2.3c0.4,1.3,0.4,2.8-0.2,4l0,0
	v0c-0.5,1.3-1.5,1.9-2.7,1.8c-1.1,0-2.4-0.7-3.2-1.8c-0.7-1.1-0.8-2-0.6-3l0-0.1l0-0.1c-0.1-0.8,0.2-1.5,0.9-2.2l0,0l0-0.1
	c0.6-1,1.4-1.9,2.2-2.6c0.4-0.3,1,0.2,0.6,0.6L1237.2,326.4z M1238.1,333.7L1238.1,333.7L1238.1,333.7c0.3-0.3,0.5-0.6,0.5-0.9
	c0.1-0.3,0.1-0.7,0.1-1.1c0-0.4-0.1-0.7-0.2-1.1c-0.1-0.3-0.3-0.6-0.5-0.9c-0.5-0.4-1.2-0.2-1.6,0.1c-0.4,0.3-0.8,0.9-0.5,1.5
	c0.1,0.2,0,0.5-0.2,0.6l-0.3,0.3l0.2,0.3c0.2,0.4,0.5,0.8,0.9,1c0.2,0.1,0.4,0.2,0.7,0.2C1237.6,333.9,1237.9,333.8,1238.1,333.7z"
	/>
<path class="st41" d="M1273.9,328.8l0.1,0.2l0.2,0.1c1.4,0.4,2.6,1.6,2.8,3.1c0.2,1.7-0.7,3-2.1,3.6c-1.4,0.6-3.2,0.5-4.4-0.5
	c-1.3-1.1-1.4-2.8-0.8-4.2c0.6-1.4,1.9-2.5,3.5-2.5c0.2,0,0.3,0,0.4,0.1C1273.8,328.6,1273.9,328.7,1273.9,328.8z"/>
<path class="st7" d="M1213,364.5c5.7,8.3,22.8,25,46,25s36-21.7,39.5-32.5"/>
<path class="st7" d="M1260,281c0.5-1,3.5-20.5,18.5-26"/>
<path class="st7" d="M1300,303.6c0.8-0.7,11-17.6,27-17.1"/>
<path class="st7" d="M1318,357.7c1.1,0.1,20.2-4.8,31.2,6.8"/>
<path class="st7" d="M1300.2,395.5c0.8,0.8,18.1,10.2,18.2,26.2"/>
<path class="st7" d="M1190.1,384.7c-1,0.4-16.2,13.1-31.1,7.2"/>
<path class="st7" d="M1181.4,334c-1-0.5-20.6-3.1-26.4-18"/>
<path class="st7" d="M1217.5,291.6c-0.4-1-13.1-16.2-7.3-31.1"/>
<path class="st7" d="M1227.2,415.1c-0.7,0.9-7.4,19.4-23.2,21.9"/>
<path class="st7" d="M1259.9,415.5c-0.1,1.1,5.1,20.2-6.4,31.3"/>
<path class="st42" d="M1318.5,351c0,22.2-11.2,41.8-28.3,53.4c-10.3,7-22.8,11.1-36.2,11.1c-22.7,0-43.8-7.1-55.2-24.3
	c-6.7-10.1-9.2-26.8-9.2-40.2c0-35.6,28.9-64.5,64.5-64.5c17.7,0,36.9,5.4,48.4,16.6C1314.4,314.6,1318.5,332.6,1318.5,351z"/>
<path class="st43" d="M538.3,277.9h16l5.4,56.5l6.7-53.9h12.1l6.4,57l11-57.3l15.4,2l-13.9,70.3h-20.9l-4-44.1l-6.7,42.7h-19
	L538.3,277.9z M611.3,293.1h13.9l1.8,21.9c1.9-0.1,3.8-0.3,5.6-0.3c1.9-0.1,3.8-0.3,5.8-0.4l-2.2-22.4l13.3-1.9l4.6,59.4l-14.1,1.9
	l-2.5-25.4c-2.1,0.1-4.1,0.4-5.9,0.7c-1.8,0.2-3.8,0.4-5.9,0.5l1.8,24.8l-11.5,1.8L611.3,293.1z M656.7,294.1l38.9-4.5l0.9,13.5
	l-25.6,3c0.2,1.9,0.4,3.8,0.7,5.6c0.3,1.8,0.5,3.6,0.8,5.5l16.1-1.9l0.9,11.9l-19.1,2l1,10.1l27.6-3.3l0.8,12.6l-38.1,4.5
	L656.7,294.1z M703.7,292.3c6.6,0.4,12.6,1.1,17.9,2.3c5.4,1.2,10,2.8,13.9,4.7c3.8,1.9,6.7,4.2,8.8,6.8c2.1,2.6,3.1,5.6,3.1,8.8
	c0,7.6-5.4,13.8-16.3,18.4c1,3.6,2.6,6.2,4.6,7.7c2.1,1.5,5.2,2.3,9.3,2.3c0.4,0,0.9,0,1.5-0.1c0.7-0.1,1.6-0.3,2.6-0.4l-1.9,12
	c-5.1-0.3-9.2-0.8-12.5-1.4s-6-1.6-8.2-3c-2.1-1.3-3.8-3-5.2-5.1c-1.2-2.1-2.3-4.8-3.3-7.9l-0.9,0.2c-0.6,0.1-1.1,0.3-1.5,0.3
	c-0.4,0.1-0.9,0.2-1.5,0.3c-0.1,2.3-0.2,4.7-0.3,7.2c-0.1,2.4-0.1,4.7-0.2,6.9H701L703.7,292.3z M712.8,325.6
	c5.7-0.4,10.2-1.6,13.4-3.6c3.3-2.1,5-4.5,5-7.5c0-3.1-1.5-5.5-4.6-7.2c-3.1-1.8-7.4-2.8-12.9-3.2c-0.1,3.7-0.3,7.3-0.4,10.8
	C713.1,318.3,713,321.9,712.8,325.6z M749.8,294.1l38.9-4.5l0.9,13.5l-25.6,3c0.2,1.9,0.4,3.8,0.7,5.6c0.3,1.8,0.6,3.6,0.8,5.5
	l16.1-1.9l0.9,11.9l-19.1,2l1,10.1l27.6-3.3l0.8,12.6l-38.1,4.5L749.8,294.1z M828.7,277.2h13.5l5.1,58.6l26.8-3.2l1.1,13.8
	l-39.4,4.6L828.7,277.2z M875.6,291.6l13,1.2v59.5l-13-1.3V291.6z M907.4,305.4l-14.2-1.4V291l43.5,2.9l-0.7,12.2h-18.2v45.8h-10.5
	V305.4z M953.2,305.4l-14.2-1.4V291l43.5,2.9l-0.7,12.2h-18.1v45.8h-10.5V305.4z M982.8,291.6h12.3l3.9,46.9l21.7-2.6l0.9,12.3
	l-32.8,4L982.8,291.6z M1019.2,294.1l38.9-4.5l0.9,13.5l-25.6,3c0.2,1.9,0.4,3.8,0.7,5.6c0.3,1.8,0.6,3.6,0.8,5.5l16.1-1.9l0.9,11.9
	l-19.1,2l1,10.1l27.6-3.3l0.8,12.6l-38.1,4.5L1019.2,294.1z M527.2,391.1h15.6l2.2,27.6l16.1-1.3l-2.6-28.1l15-2l5.6,72.5l-16.1,2.1
	l-3.1-31.6l-16.4,1.4l2.1,31.1l-12.8,1.9L527.2,391.1z M579.8,406.1l38.9-4.5l0.9,13.5l-25.6,3c0.2,1.9,0.4,3.8,0.7,5.6
	c0.3,1.8,0.5,3.6,0.8,5.5l16.1-1.9l0.9,11.9l-19.1,2l1,10.1l27.6-3.3l0.8,12.6l-38.1,4.5L579.8,406.1z M633.1,404h12.7l23.3,57.1
	l-14.2,1.9l-4-11.5l-13.1,2.9l-1.2,9.6h-14.2L633.1,404z M639.1,442.5c1.5-0.3,3-0.5,4.3-0.7c1.4-0.2,2.9-0.5,4.5-0.9l-6.4-17.9
	c-0.4,3.4-0.8,6.6-1.2,9.7S639.5,439.1,639.1,442.5z M670.6,404.3c6.6,0.4,12.6,1.1,17.9,2.3c5.4,1.2,10,2.8,13.9,4.7
	c3.8,1.9,6.7,4.2,8.8,6.8c2.1,2.6,3.1,5.6,3.1,8.8c0,7.6-5.4,13.8-16.3,18.4c1,3.6,2.6,6.2,4.6,7.7c2.1,1.5,5.2,2.3,9.3,2.3
	c0.4,0,0.9,0,1.5-0.1c0.7-0.1,1.6-0.3,2.6-0.4l-1.9,12c-5.1-0.3-9.2-0.8-12.5-1.4s-6-1.6-8.2-3c-2.1-1.3-3.8-3-5.2-5.1
	c-1.2-2.1-2.3-4.8-3.3-7.9l-0.9,0.2c-0.6,0.1-1.1,0.3-1.5,0.3c-0.4,0.1-0.9,0.2-1.5,0.3c-0.1,2.3-0.2,4.7-0.3,7.2
	c-0.1,2.4-0.1,4.7-0.2,6.9h-12.7L670.6,404.3z M679.8,437.6c5.7-0.4,10.2-1.6,13.4-3.6c3.3-2.1,5-4.5,5-7.5c0-3.1-1.5-5.5-4.6-7.2
	c-3.1-1.8-7.4-2.8-12.9-3.2c-0.1,3.7-0.3,7.3-0.4,10.8C680,430.3,679.9,433.9,679.8,437.6z M731,417.4l-14.2-1.4V403l43.5,2.9
	l-0.7,12.2h-18.2v45.8H731V417.4z M767.9,452.7c0.7,0.1,1.5,0.1,2.3,0.2c0.8,0,1.4,0,1.9,0c9.2,0,16-0.7,20.1-2.2
	c4.2-1.5,6.3-3.5,6.3-6c0-0.7-0.1-1.3-0.4-1.9c-0.2-0.6-0.7-1.1-1.3-1.5c-0.7-0.5-1.6-0.9-2.9-1.2c-1.2-0.3-2.9-0.5-4.8-0.6
	c-3.5,0-6.5-0.1-8.9-0.3c-2.3-0.3-3.9-0.6-4.7-0.8h0.1c-4-1-6.9-2.8-8.9-5.4c-1.9-2.6-2.9-5.8-2.9-9.6c0-2.8,0.9-5.4,2.8-7.7
	c1.9-2.3,4.7-4.4,8.2-6.2c3.6-1.8,8-3.2,13.1-4.4c5.2-1.2,11.1-2,17.7-2.5l-0.5,14.5c-4.3,0-8.1,0.2-11.5,0.5
	c-3.4,0.3-6.4,0.8-8.9,1.4c-2.4,0.6-4.3,1.3-5.7,2.2c-1.3,0.8-2,1.7-2,2.8c0,0.7,0.1,1.4,0.4,2.1c0.3,0.7,0.8,1.3,1.5,1.9
	c0.7,0.5,1.8,1,3.1,1.4c1.3,0.4,3,0.6,5,0.7c4,0.3,7.1,0.5,9.4,0.7c2.3,0.1,3.7,0.3,4.3,0.4c3.8,0.9,6.7,2.6,8.8,5.1
	c2.1,2.4,3.1,5.4,3.1,8.9c0,2.9-1.1,5.5-3.2,7.9c-2.1,2.3-5.1,4.4-8.9,6.2c-3.8,1.8-8.4,3.2-13.6,4.2c-5.3,1.1-11.1,1.8-17.5,2
	L767.9,452.7z M870.8,448.8c-15-8.8-22.4-18.3-22.4-28.5c0-4.8,1.5-9.1,4.4-12.9c2.9-3.8,7.1-7,12.5-9.6c5.5-2.6,12.1-4.6,19.8-5.9
	c7.7-1.4,16.4-2.1,26-2.1l-2,16.9c-3.2-0.6-6.3-1-9.6-1.3c-3.2-0.4-6.4-0.5-9.7-0.5c-17.9,0-26.8,5.2-26.8,15.5
	c0,4.8,2.8,9.4,8.4,13.6c5.6,4.3,13.4,7.7,23.4,10.4l1.2-10.7l-9.7-1.8v-11.7l23.8,3.4l-4.3,39.2C893.1,459.8,881.4,455,870.8,448.8
	z M915.4,404.3c6.6,0.4,12.6,1.1,17.9,2.3c5.4,1.2,10,2.8,13.9,4.7c3.8,1.9,6.7,4.2,8.8,6.8c2.1,2.6,3.1,5.6,3.1,8.8
	c0,7.6-5.4,13.8-16.3,18.4c1,3.6,2.6,6.2,4.6,7.7c2.1,1.5,5.2,2.3,9.3,2.3c0.4,0,0.9,0,1.5-0.1c0.7-0.1,1.6-0.3,2.6-0.4l-1.9,12
	c-5.1-0.3-9.2-0.8-12.5-1.4s-6-1.6-8.2-3c-2.1-1.3-3.9-3-5.2-5.1c-1.2-2.1-2.3-4.8-3.3-7.9l-0.9,0.2c-0.6,0.1-1.1,0.3-1.5,0.3
	c-0.4,0.1-0.9,0.2-1.5,0.3c-0.1,2.3-0.2,4.7-0.3,7.2c-0.1,2.4-0.1,4.7-0.2,6.9h-12.6L915.4,404.3z M924.6,437.6
	c5.7-0.4,10.2-1.6,13.4-3.6c3.3-2.1,5-4.5,5-7.5c0-3.1-1.5-5.5-4.6-7.2c-3.1-1.8-7.4-2.8-12.9-3.2c-0.1,3.7-0.3,7.3-0.4,10.8
	C924.9,430.3,924.7,433.9,924.6,437.6z M962.8,434.5c0-4.2,0.7-8.1,2-11.8c1.4-3.7,3.3-6.9,5.6-9.7c2.4-2.8,5.2-5,8.4-6.6
	c3.2-1.6,6.7-2.4,10.5-2.4c3.7,0,7.1,0.8,10.3,2.3c3.2,1.5,6,3.6,8.5,6.3c2.4,2.6,4.3,5.8,5.7,9.5c1.4,3.6,2.1,7.5,2.1,11.7
	c0,4.2-0.7,8.1-2.1,11.8c-1.3,3.7-3.2,6.9-5.6,9.7c-2.4,2.7-5.1,4.9-8.4,6.5c-3.2,1.5-6.7,2.3-10.3,2.3c-3.7,0-7.2-0.7-10.4-2.2
	c-3.2-1.5-6.1-3.6-8.5-6.3c-2.4-2.6-4.3-5.8-5.7-9.3C963.4,442.6,962.8,438.7,962.8,434.5z M988.9,450.6c2,0,3.8-0.5,5.5-1.4
	c1.7-1,3.1-2.2,4.3-3.9c1.2-1.6,2.2-3.5,2.9-5.6c0.7-2.1,1.1-4.4,1.1-6.7c0-2.2-0.3-4.3-1-6.3c-0.7-2-1.6-3.7-2.7-5.2
	c-1.2-1.5-2.6-2.7-4.3-3.5c-1.6-0.9-3.4-1.3-5.4-1.3s-3.8,0.5-5.5,1.4c-1.7,1-3.2,2.2-4.5,3.9c-1.2,1.5-2.2,3.4-3,5.5
	c-0.7,2.1-1,4.4-1,6.8c0,2.3,0.3,4.4,1,6.4c0.7,2,1.6,3.7,2.8,5.2c1.2,1.5,2.6,2.6,4.3,3.5C985,450.2,986.9,450.6,988.9,450.6z
	 M1017,404.4h14.2l3.7,39.6l4.7-37.5h10.8l4.8,41.6c1.3-7.1,2.6-14.1,4-20.9c1.4-6.9,2.8-13.9,4.1-21l13.6,1.8l-11.3,57.4h-17.9
	l-2.8-30.1c-0.8,4.8-1.6,9.7-2.4,14.6c-0.7,4.8-1.5,9.6-2.2,14.4h-16.3L1017,404.4z M734.9,503c5.3-0.4,10.4-0.7,15.5-0.7
	c6.4,0,11.8,0.4,16.2,1.2c4.4,0.8,8,2,10.7,3.5c2.8,1.5,4.8,3.5,6,5.8c1.2,2.3,1.9,4.9,1.9,7.8c0,1.9-0.5,3.7-1.4,5.3
	c-0.9,1.5-2.1,3-3.7,4.3c-1.5,1.2-3.4,2.3-5.5,3.3c-2.1,1-4.3,1.7-6.6,2.3c4.1,0.1,7.8,0.7,11.1,1.5c3.4,0.8,6.2,1.9,8.6,3.3
	c2.4,1.3,4.3,2.9,5.5,4.6c1.3,1.8,2,3.6,2,5.6c0,3.4-1.4,6.5-4.3,9.2c-2.8,2.8-6.7,5.2-11.7,7.4c-4.9,2.1-10.8,3.8-17.6,5.3
	c-6.7,1.5-14.1,2.6-22.1,3.3L734.9,503z M748.1,530.3c3.1-0.2,5.9-0.6,8.6-1.1c2.6-0.6,4.9-1.3,6.7-2.2c1.9-0.9,3.4-1.9,4.4-3
	c1.1-1.2,1.7-2.4,1.7-3.7c0-1.2-0.4-2.3-1.2-3.2c-0.7-1-1.8-1.7-3.1-2.3c-1.3-0.6-2.9-1-4.6-1.2c-1.8-0.3-3.6-0.4-5.6-0.4
	c-1.8,0-4.4,0.2-7.7,0.7L748.1,530.3z M752,563.2c15.3-0.1,22.9-3.6,22.9-10.3c0-5.7-4.7-8.6-14.1-8.6c-1.5,0-3,0.1-4.6,0.2
	c-1.6,0.1-3.4,0.3-5.3,0.5L752,563.2z M795.9,515.6l13,1.2v59.5l-13-1.3V515.6z M832.3,564.5c-12.2-7.1-18.3-14.9-18.3-23.3
	c0-4,1.2-7.5,3.6-10.6c2.4-3.1,5.9-5.7,10.3-7.8c4.5-2.2,9.9-3.8,16.3-5c6.4-1.1,13.5-1.6,21.3-1.6l-1.8,15
	c-5.4-1.1-10.7-1.6-15.9-1.6c-13.9,0-20.9,3.9-20.9,11.8c0,3.7,2.1,7.1,6.4,10.3c4.3,3.2,10.3,5.9,17.8,8c0.1-1.2,0.3-2.4,0.4-3.5
	c0.1-1.1,0.3-2.3,0.4-3.5l-7.7-1.4v-10.7l20.5,3l-3.6,32.8c-5.4-1.4-10.4-3-15.2-5C841.3,569.4,836.7,567.1,832.3,564.5z"/>
<text transform="matrix(1 0 0 1 539.5553 351.5564)"><tspan x="0" y="0" class="st4 st44 st45">Where Little</tspan><tspan x="0" y="112" class="st4 st44 st45">Hearts Grow </tspan><tspan x="0" y="224" class="st4 st44 st45">     Big</tspan></text>
</svg>
