<?xml version="1.0" encoding="utf-8"?>
<!-- Generator: Adobe Illustrator 24.3.0, SVG Export Plug-In . SVG Version: 6.00 Build 0)  -->
<svg version="1.1" id="Layer_1" xmlns="http://www.w3.org/2000/svg" xmlns:xlink="http://www.w3.org/1999/xlink" x="0px" y="0px"
	 viewBox="0 0 1600 937" enable-background="new 0 0 1600 937" xml:space="preserve">
<path fill="#CCE9F6" d="M170,851c-73.6,0-142.2,34-170,51V-8l1600,2.5V920c-10.8,1.5-37.8,3.6-59,0c-26.5-4.5-96-53-188-53
	s-208.5,35-304.5,35S871,867,785,867s-261.5,35-351.5,35S262,851,170,851z"/>
<path fill="none" stroke="#022433" stroke-width="3" stroke-linejoin="round" stroke-miterlimit="10" d="M1476.4,910.2
	c22.9-14,40.8-36.1,49.2-61.5c-26.1,7.3-48.8,25.8-61.7,49.7c8.2-16.5,16.4-32.9,22.3-50.4c-10.7,10.9-19.8,23.4-26.7,37
	c0.7-10.4,1.1-21.1-3.4-30.4s-15.2-16.5-24.9-13.2c-1.6,22.4,10.4,43.1,22,62.2c0.5-1.3,0.9-2.5,1.4-3.8"/>
<path fill="none" stroke="#022433" stroke-width="3" stroke-linecap="round" stroke-linejoin="round" stroke-miterlimit="10" d="
	M157,870.3c8.2-10.7,12.5-24.7,11.6-38.3c-11.1,10-20.7,21.5-28.8,34c-3-24.3-11.3-48.1-24-69c-2.5,24.9,0.5,50.4,9.1,74"/>
<path fill="none" stroke="#022433" stroke-width="3" stroke-miterlimit="10" d="M1387,885.6c-3.4-34.9-1.1-70.1,7-104.3
	c0.4,1.4,0.9,2.7,1.2,4.1"/>
<path fill="none" stroke="#022433" stroke-width="3" stroke-linejoin="round" stroke-miterlimit="10" d="M1422.1,744.5
	c-0.2-8.8-0.2-17.7-0.4-26.5c-4.8-2.9-11.3,0.9-13.4,5.9c-2.2,5-1.4,10.9-0.5,16.3c-0.2-6.8-4.7-13.4-11.1-15.6
	c-6.4-2-14.5,1.6-16.3,8c-2,6.4,3.8,14.3,10.4,13.8c-8,2.1-14.8,8.8-17.2,17c-0.5,1.6-0.7,3.4,0,4.8c1.1,1.8,3.4,2.5,5.4,2.9
	c9.1,1.6,18.4,1.8,27.5,0.7c-2.9,3.9-0.2,10,4.3,12.2c4.3,2.1,9.5,1.8,14.5,1.3c0.4-7.2,0.4-14.3,0.2-21.5
	c2.5,6.8,12.7,8.8,18.1,3.9c5.4-4.8,5.4-14.3,0.4-19.7s-13.4-6.4-20-3.4"/>
<path fill="none" stroke="#022433" stroke-width="3" stroke-linejoin="round" stroke-miterlimit="10" d="M1386.8,878.6
	c0.4-26.1-6.6-52.2-19.8-74.8c-1.4-2.5-4.3-5.4-6.8-3.8c-1.4,26.8,5,53.8,18.2,77.3c0.7,1.1,1.6,2.5,2.9,2.5c1.2,0,2-2.5,0.5-2.5"/>
<path fill="none" stroke="#022433" stroke-width="3" stroke-linejoin="round" stroke-miterlimit="10" d="M1385.2,876.4
	c3.9-16.5,10-32.4,17.9-47.4c1.2-2.3,3-5.2,5.9-5c3.4,0.2,4.7,4.8,4.7,8.2c0,7-0.7,14.1-3.4,20.6c-5.2,12.3-17,20.4-28.1,27.5"/>
<path fill="none" stroke="#022433" stroke-width="3" stroke-linejoin="round" stroke-miterlimit="10" d="M264.7,887.1
	c12.9-7.9,23.2-19.5,29.7-33.1c-9.7,0.9-19,4.3-26.8,10c6.1-11.3-0.7-27.4-13.1-30.6c-2,14.5-3.8,28.8-5.7,43.3"/>
<path fill="none" stroke="#022433" stroke-width="3" stroke-linejoin="round" stroke-miterlimit="10" d="M1416.5,751.6
	c1.2,3,0,7-3,8.6c-2.9,1.6-7,0.7-8.8-2c1.2-2.1,2.3-4.1,3.6-6.3c2.1-0.2,4.5-0.4,6.6-0.5"/>
<path fill="none" stroke="#022433" stroke-width="3" stroke-miterlimit="10" d="M1532.1,919.5c-180.8-66-381-7.2-572.9-18.2
	c-53.6-3-106.9-11.8-160.6-13.6c-79.8-2.7-159.3,9.7-238.9,14.3c-87.8,5.2-176.1,1.1-263-12c-63.5-9.7-129.6-24-190.6-3.8"/>
<path fill="#022433" d="M449.8,277.6c-1.2-4.5-7.5-5.9-11.2-4.1c-0.9,0.6-1.7,1.2-2.5,2.2c-0.2-0.2-0.5-0.3-0.6-0.5
	c-2-1.6-3.9-3.3-5.5-5.2c5.5-3.4,10.1-7.8,13.3-13.6c9.5-16.7-0.3-33.9-14.5-43.6c9.2-1.2,16.1-11.9,11.2-20.5
	c-3.3-5.8-10.9-7-15.4-3.1c-0.5-4.5-3.9-8.9-8-10.5c-5.1-1.9-10.8,0.3-13.7,4.5c-1.1-7.2-5-15.2-13.3-11.4
	c-10.1,4.5-14,19.1-16.2,29.1c-5,0.8-9.7,2.2-13.9,4.2c7.8-24.1-21.5-39.4-39.3-24.8c0-0.2-0.2-0.2-0.2-0.2
	c-4.5-3.1-9.7-5.3-14.4-7.7c-1.1-0.6-2.7,0.3-2.2,1.6c1.6,4.2,4.1,8.9,4.8,13.3c0.5,3.3-0.5,3.8-3,5.5c-2.2,1.4-4.4,2.8-6.6,4.2
	c-1.1,0.8-0.9,2.3,0.3,2.8c3.9,1.2,7.8,2.8,11.9,4.1c2.5,13.8,16.7,25.6,32.9,21.6c0.3,0,0.5-0.2,0.6-0.3
	c-1.2,6.6-0.5,13.6,2.3,20.2c8.1,18.4,27.8,30,47.1,32.2c3.7,0.5,7.5,0.5,11.4,0.2c0.8,2.5,2,4.8,3.6,6.9c-1.7,1.2-3,3.1-3.3,5.5
	c-0.2,0.9,1.2,1.4,1.4,0.5c0.5-1.7,1.6-3.4,3-4.5c1.9,1.9,4.1,3.4,6.7,4.1c1.1,0.3,1.6-1.1,0.8-1.7c-1.7-1.1-3.1-2.3-4.5-3.6
	c3.1-0.3,5.5,1.6,7.3,3.9c0.5,0.8,1.9,0.3,1.6-0.6c-1.7-5-6.6-6.2-10.5-4.8c-1.6-1.7-2.8-3.6-3.7-5.8c7-0.8,14-3,20.3-6.4
	c1.7,2.3,4.1,4.8,6.7,6.7c-0.9,2.3-0.9,5.3,0.5,7.7c0.6,1.1,2,0.2,1.6-0.9c-0.8-1.7-0.8-3.8,0-5.5c1.7,0.9,3.6,1.7,5.5,1.9
	c0.9,0.2,1.1-1.2,0.5-1.7c-1.4-0.9-3-1.6-4.4-2.3c0.5-0.5,1.1-0.9,1.7-1.1c3.4-1.4,6.1,0.6,8.3,3
	C448.9,279.3,450.2,278.5,449.8,277.6z M382.9,182.4c2.7-4.2,7.2-9.5,13-7.8c5.3,1.6,4.7,10.2,4.8,14.4c0,1.7,2.3,1.6,2.5,0
	c0-0.6,0-1.2,0-1.9c2.2-4.4,7.3-7.3,12.2-5.6c5.6,1.9,6.1,7.5,5.9,12.5c0,1.1,1.6,1.6,2.2,0.6c0.3-0.5,0.5-0.9,0.6-1.4
	c3.7-5.3,12.2-3.8,14,2.8c2.3,8.1-4.7,12.5-11.2,14.5c-0.5,0.2-0.8,0.5-0.9,0.9c-13.9-8.3-33.2-12.8-50.4-10.5
	C377.4,194.4,379.3,187.9,382.9,182.4z M310.6,201.5c-2.5-1.1-5.1-2.2-7.6-3.3c3.4-1.9,8-4.1,8.9-7c0.6-2.2-0.8-4.5-1.4-6.4
	c-1.1-2.8-2-5.3-3-8c3.6,1.9,7,3.8,10.8,5.2c-0.2,0.2-0.2,0.2-0.3,0.3C312.2,188,310.2,194.9,310.6,201.5z M343.1,222.6
	c-21.4,4.7-39.6-20.9-22.9-38.1c15.8-16.2,43.2-1.9,37.6,20.5c-0.2,0.5,0,0.8,0.3,0.9c-0.2,0.2-0.3,0.2-0.5,0.2
	c-0.5,0.2-0.6,0.5-0.6,0.9c-6.4,3.9-10.3,9.8-12,16.7C344.7,223,344,222.4,343.1,222.6z M427.4,267.2c-6.2,3.9-13.3,6.1-20.4,6.9
	c0-0.3-0.2-0.6-0.2-0.9c-0.2-1.1-2.2-0.9-2,0.3c0,0.3,0,0.6,0.2,0.8c-13,0.8-26.2-2.7-36.7-9.5c-17.8-11.7-32.5-42.3-10.1-56.4
	c0.2,0,0.3,0,0.5,0c11.1-2,21.2-4.7,32.6-3.9c11.1,0.8,22.3,3.9,32,9.4c9.1,5.2,17.9,13.3,20,23.9
	C445.5,250.2,437.4,261,427.4,267.2z"/>
<path fill="#022433" d="M388.8,250.8c-0.5-0.9-2.2-0.3-1.9,0.8c2.2,7.8-7.2,9.8-12.6,6.7c-3.1-1.7-5.5-4.5-6.9-7.8
	c-2.7-6.1-2-12.7,1.4-18.3c0.5-0.8-0.8-1.9-1.4-1.1c-6.6,8.1-5,20.9,3,27.7c4.1,3.3,10.3,5.5,15.1,2.5
	C389.5,259.1,390.9,254.6,388.8,250.8z"/>
<path fill="#022433" d="M409,243.2c-0.9-0.9-2.7,0.3-1.9,1.4c3,4.1,3,10.5-1.6,13.6c-4.8,3.4-11.7-0.2-13.4-5.3
	c-0.5-1.2-2.3-0.8-2,0.6c1.6,6.9,10.1,11.1,16.5,7.3C412.5,257.1,414,247.9,409,243.2z"/>
<path fill="#022433" d="M424.1,235.7c-1.4-2-4.4-4.7-7-3.6c-0.6,0.3-1.1,1.4-0.2,1.7c1.6,0.8,3.3,1.1,4.5,2.5c1.4,1.6,2,3.9,1.2,5.9
	c-1.6,3.6-6.9,4.2-9.5,1.4c-1.1-1.1-2.7,0.6-1.6,1.6c3.7,3.9,11.1,3.1,13.6-1.9C426,241,425.5,238,424.1,235.7z"/>
<path fill="#022433" d="M330.9,184.9c-4.1-0.6-7.8,2.8-8,6.7c0,0.8,1.2,0.9,1.4,0.2c0.5-2.8,3.1-5.5,6.1-4.8c3,0.5,4.4,3.9,3.9,6.6
	c-0.2,1.2,1.4,1.6,1.9,0.5C337.8,190.2,335,185.5,330.9,184.9z"/>
<path fill="#022433" d="M301.6,408.6c-18.7-6.9-39.4,4-49.7,19.8c-10,15.2-12.1,35.3-3.2,51.5c9.9,17.8,30.5,28.7,50.8,26.2
	c0.3-0.1,0.5-0.2,0.7-0.4c-2.5,3-5.1,6.1-7.6,9c-0.8,0.9-0.7,1.9,0.2,2.7c2.6,2.2,5.4,3.6,8.3,4.4c-9.9,8.3-13,23.3-7.3,34.9
	c4.1,8.3,12.2,13,19,18.9c7.6,6.8,14.6,15.7,16.8,25.8c4.6,21.6-18.3,29.4-25.5,46.5c-5.2,12.5,0,28.6,12.3,34.9
	c1.7,0.8,3.3-1.4,1.6-2.6c-7.5-5.2-12.6-12.8-12.5-22.2s6-16.2,12.3-22.6c9.1-9.4,17.6-18.7,15.6-32.7c-2.1-14.4-12.8-25.3-23.6-34
	c-7.9-6.3-14.9-13.1-15.4-23.8c-0.4-8.7,3.4-16.7,9.7-22.6c2.4,0.3,4.9,0.3,7.4-0.2c1.2-0.1,1.6-1.6,1.1-2.5c-2-5.2-4.5-10-7.5-14.7
	c11-13.6,20.8-28.5,23.3-46.3C331.3,438.4,322,416.1,301.6,408.6z M308.6,519.1c-4.5,0.3-8.7-0.9-12.3-3.5c2.2-2.6,4.4-5.1,6.6-7.7
	C305.1,511.5,307,515.2,308.6,519.1z M325.5,449c0.8,21.8-11.7,40.2-25.2,56.5c0.4-0.8,0.1-2-1-2c-20.9,1.3-41.9-10.3-49.9-30
	c-8.3-20.5,1-46.2,20-57.6C295.6,400.2,324.6,420.3,325.5,449z"/>
<path fill="#022433" d="M1548.2,277.3c16.1-5.3,23.6-25.9,11.4-39.4c-6.1-6.7-15.1-10-23.9-8c-9,2-15.8,8.4-22.1,15
	c-1.1-11.5-8.3-21.9-19.7-25.5c-1.1-0.4-2.2-0.6-3.3-0.8c6.8-34.4-12.2-73-40.1-92.7c-31.6-22.3-74.5-24.3-107.5-4.1
	c-16.3,10-29.1,24.3-37.2,41.5c-0.1,0-0.4,0-0.5,0.1c-1.2,1.3-1.5,3-1.4,4.7c-3.9-1.4-8-1.8-12.2-0.3c-6.8,2.3-11.9,8.6-13,15.7
	c-2.4,16,11.2,25.8,25.3,26.5c-7.1,6.3-7.8,18.7,0.2,26c12,11,28.6,4.9,37.3-6.9c1.9,1.5,3.7,3.1,5.7,4.6c0.7,0.7,1.6,0.3,2.1-0.4
	c11.9,5.5,25.1-8.2,17.5-20.3c13.2-2.3,20.8-16.9,13.1-29c-4.9-7.6-11.2-9.2-17.6-7.5c13.7-15.4,41.1-29,59.1-15.3
	c9,7,13.6,18,14.8,29.1c0.6,5.8,0.4,11.5-0.2,17.1c-0.2,2.5-0.6,5-1,7.4c-0.1,0.7-0.8,6.4-0.8,9.6c-0.1,0-0.2-0.1-0.5-0.2
	c-0.1,0-0.3,0-0.4,0c-0.5-0.1-1.2,0.3-1.5,0.9l-0.1,0.7c-0.2,0.8-0.1,1.4,0.6,1.9h0.1c-0.2,0.1-0.4,0.3-0.6,0.4
	c-7.8,5.5-10.5,17.5-4.6,25.1c-15.2,6.1-27.1,23.1-17,38.9c10.4,16.3,30,7.4,42.7-1.2c1.1,12.7,9.8,25.7,23.7,26.2
	c10.9,0.4,20.7-7.7,22.5-18.1c11.4,14.2,30.8,24.6,48,13.2C1558.8,304.6,1560.1,285.7,1548.2,277.3z M1305.8,167.2
	c20.5-43.1,69.7-66.3,115.7-52c22.3,7,41.4,21.7,53.2,41.9c11.3,19.2,13.8,39.2,12.8,61c-4.6-0.3-9.3,0.6-13.5,2.5
	c4.5-18.2,1.3-41.1-6.6-57.8c-8.5-17.9-23.5-29.5-42.2-35.4c-34.7-10.8-79.7-4.9-96.6,31.1c-6.4,2.1-11.1,9.7-13.9,16.1
	c-3-2.2-6.2-4.3-9.6-5.6c0-0.4,0.2-0.8,0.2-1.2C1305.5,167.7,1305.8,167.5,1305.8,167.2z M1424.7,143.8
	c-27.5-10.2-63.2-4.3-82.5,18.8c-1.3-1.2-2.7-2.3-4.3-3.1c-2.5-1.3-4.9-1.8-7.1-1.5c18.8-32.9,60.9-38.6,94.7-27.3
	c18.2,6.1,32.3,17.8,40,35.6c3.5,7.9,5.6,16.7,6.4,25.3c1,10.2-0.6,19.9-0.6,30c0,0.1,0,0.3,0.1,0.5c-4.3,2.5-8.1,6-10.9,10.4
	c-0.1,0.1-0.1,0.1-0.1,0.3c-2.3-2-4.9-3.6-7.7-4.9C1466,199,1456.3,155.4,1424.7,143.8z M1374.1,182.8c11,10.1,3.7,27.2-10.6,27.9
	c-1,0.1-1.4,1.5-0.8,2.3c10,11.9-5.9,26.4-17.2,16c-0.1,0-0.1,0-0.2-0.1c-1.2-1-2.5-2.1-3.7-3.1c-0.7-0.5-1.7-0.3-2.1,0.4
	c-6.5,9.7-19.2,16.9-30.5,10c-10.5-6.4-10.8-23.3,1.9-26.6c0.6-0.1,1.1-0.2,1.5-0.3c1.9-0.5,1.4-3.3-0.6-3.1c-0.6,0.1-1,0.2-1.5,0.3
	c-13.4,2.5-29-4.3-28.9-19.9c0-7.1,4.4-13.6,11.3-15.8c8.2-2.7,15.4,2.5,21.8,7.2c0.8,0.6,1.9,0.1,2.3-0.7c1.6-4.1,3.3-8.3,6.5-11.6
	c5.1-5.4,12.6-5.9,17.9,0.3c5.3,6.4,5.9,15.4,2.5,22.8c-0.6,1.3,1.4,2.8,2.4,1.7c3.4-3.6,7.5-7.5,12.2-9.6c0.2-0.1,0.3-0.2,0.5-0.2
	C1363.6,178.3,1369.1,178,1374.1,182.8z M1439.2,192.5c-0.9-12.4-5.7-24.9-15.6-32.8c-19.9-15.9-52.3-0.6-65.3,18.3
	c-3.6,1.5-7.1,3.8-10.1,6.4c1.3-7.2-0.2-15.1-4.9-20.5c19.4-20.6,51.2-26.8,77.8-18.1c16.6,5.5,27,19.2,31.4,35.7
	c4.2,15.4,2.2,30.2-2.7,45.2c-4.6-1.5-9.4-1.9-14-0.4c1.7-3.5,1.6-8.9,2-12.1C1439,207,1439.6,199.7,1439.2,192.5z M1538,313.2
	c-16.4,5-30.8-6.1-39.7-19.1c-1-1.5-3-0.1-2.8,1.4c0.9,11.5-10.8,20.8-21.9,18.7c-11.7-2.1-18.5-14.4-18.2-25.5
	c0.1-1.4-1.5-2.1-2.6-1.4c-10.6,7.8-28.9,18.7-39.7,5c-11.5-14.7,2.5-31.6,16.9-36.4c0.8-0.3,1.2-1.8,0.6-2.3
	c-6.9-6.5-4.5-18,3.1-22.9c9.2-5.9,21.2-0.8,28.3,6.1c0.9,0.7,2.2-0.3,1.4-1.2c-0.2-0.2-0.4-0.4-0.6-0.6c0.2-0.1,0.4-0.3,0.5-0.5
	c6.1-9.6,18.3-15.2,29.5-11.7c11.2,3.6,18.2,14.8,17.5,26.4c-0.1,1.8,2,2.3,3.1,1.1c10.7-11.4,26.7-24.9,41.8-11.8
	c14,12.2,5.9,34.1-11.7,36.8c-1.7,0.2-1.8,2.6-0.3,3.2c7.3,3.1,10.9,10.6,10.1,18.3C1552.4,304.9,1545.7,310.9,1538,313.2z"/>
<path fill="#FFFFFF" d="M1538,313.2c-16.4,5-30.8-6.1-39.7-19.1c-1-1.5-3-0.1-2.8,1.4c0.9,11.5-10.8,20.8-21.9,18.7
	c-11.7-2.1-18.5-14.4-18.2-25.5c0.1-1.4-1.5-2.1-2.6-1.4c-10.6,7.8-28.9,18.7-39.7,5c-11.5-14.7,2.5-31.6,16.9-36.4
	c0.8-0.3,1.2-1.8,0.6-2.3c-6.9-6.5-4.5-18,3.1-22.9c9.2-5.9,21.2-0.8,28.3,6.1c0.9,0.7,2.2-0.3,1.4-1.2c-0.2-0.2-0.4-0.4-0.6-0.6
	c0.2-0.1,0.4-0.3,0.5-0.5c6.1-9.6,18.3-15.2,29.5-11.7c11.2,3.6,18.2,14.8,17.5,26.4c-0.1,1.8,2,2.3,3.1,1.1
	c10.7-11.4,26.7-24.9,41.8-11.8c14,12.2,5.9,34.1-11.7,36.8c-1.7,0.2-1.8,2.6-0.3,3.2c7.3,3.1,10.9,10.6,10.1,18.3
	C1552.4,304.9,1545.7,310.9,1538,313.2z"/>
<path fill="#FFFFFF" d="M1345.7,229c-0.1,0-0.1,0-0.2-0.1c-1.2-1-2.5-2.1-3.7-3.1c-0.7-0.5-1.7-0.3-2.1,0.4
	c-6.5,9.7-19.2,16.9-30.5,10.1c-10.5-6.4-10.8-23.3,1.9-26.6c0.6-0.1,1.1-0.2,1.5-0.3c1.9-0.5,1.4-3.3-0.6-3.1
	c-0.6,0.1-1.1,0.2-1.5,0.3c-13.4,2.5-29-4.3-28.9-19.9c0-7.1,4.4-13.6,11.3-15.8c8.2-2.7,15.4,2.5,21.8,7.2c0.8,0.6,1.9,0.1,2.3-0.7
	c1.6-4.1,3.3-8.3,6.5-11.6c5.1-5.4,12.7-5.9,17.9,0.3c5.4,6.4,5.9,15.4,2.5,22.8c-0.6,1.3,1.4,2.8,2.4,1.7c3.4-3.6,7.6-7.5,12.2-9.6
	c0.2-0.1,0.3-0.2,0.5-0.2c4.9-2.3,10.4-2.5,15.5,2.2c10.9,10.1,3.7,27.2-10.6,27.9c-1,0.1-1.4,1.5-0.8,2.3
	C1372.9,224.8,1356.9,239.5,1345.7,229z"/>
<path fill="#FFFFFF" stroke="#022433" stroke-width="3" stroke-linejoin="round" d="M770.5,149.4c0,0.8,0.6,1.5,1.4,1.5
	c0.8,0,1.5-0.6,1.6-1.4c0.1-1.1,0.2-2.1,0.3-3.2c0.8-6,3.5-9.4,6.9-10.9c4-1.9,9.4-1.3,14.8,1.3c10.8,5.4,20.7,18.9,17.4,35.3l0,0
	c-2.6,13.2-10.2,22.3-19.3,25.6c-9,3.2-19.9,0.9-29.4-9.2l-0.1-0.1c-0.6-0.6-1.5-0.6-2.1-0.1c-0.6,0.6-0.6,1.5-0.1,2.1l0.1,0.1
	c8.3,9,9.9,17.4,7.8,24.4c-2.2,7.1-8.3,13.2-16.2,16.9c-7.9,3.8-17.3,5.2-25.7,3.3c-8.3-1.9-15.7-6.9-19.6-16.3
	c-0.2-0.5-0.7-0.9-1.2-0.9c-0.5-0.1-1.1,0.2-1.4,0.6c-12,17.6-36.5,25-59.6,22.6c-23.2-2.5-44.2-14.8-49.6-35.9l0,0
	c-6.1-23.6,4.8-42.7,21.3-51.8c16.6-9.1,38.9-8.2,55.8,8.4c0.6,0.5,1.4,0.6,2,0.1s0.7-1.4,0.3-2c-6.5-9.2-6.6-17.1-3.6-23.3
	c3.1-6.3,9.7-11.1,17.2-13.8c7.5-2.7,15.7-3,21.8-0.7c3,1.2,5.5,3,7.3,5.4c1.7,2.5,2.7,5.7,2.5,9.9c0,0,0,0,0,0.1l0,0l0,0l0,0l0,0
	l0,0l0,0l0,0l0,0l0,0l0,0l0,0l0,0l0,0l0,0l0,0l0,0l0,0l0,0l0,0l0,0l0,0l0,0l0,0l0,0l0,0l0,0l0,0l0,0l0,0l0,0l0,0l0,0l0,0l0,0l0,0
	l0,0l0,0l0,0l0,0l0,0l0,0l0,0l0,0l0,0l0,0l0,0l0,0l0,0l0,0l0,0l0,0l0,0l0,0l0,0l0,0l0,0l0,0l0,0l0,0l0,0l0,0l0,0l0,0l0,0l0,0l0,0
	l0,0l0,0l0,0l0,0l0,0l0,0l0,0l0,0l0,0l0,0l0,0l0,0l0,0l0,0l0,0l0,0l0,0l0,0l0,0l0,0l0,0l0,0l0,0l0,0l0,0l0,0l0,0l0,0l0,0l0,0l0,0
	l0,0l0,0l0,0l0,0l0,0l0,0l0,0l0,0l0,0l0,0l0,0l0,0l0,0l0,0l0,0l0,0l0,0l0,0l0,0l0,0l0,0l0,0l0,0l0,0l0,0l0,0l0,0l0,0l0,0l0,0l0,0
	l0,0l0,0l0,0l0,0l0,0l0,0l0,0l0,0l0,0l0,0l0,0l0,0l0,0l0,0l0,0l0,0l0,0l0,0l0,0l0,0l0,0l0,0l0,0l0,0l0,0l0,0l0,0l0,0l0,0l0,0l0,0
	l0,0l0,0l0,0l0,0l0,0l0,0l0,0l0,0l0,0l0,0l0,0l0,0l0,0l0,0l0,0l0,0l0,0l0,0l0,0l0,0l0,0l0,0l0,0l0,0l0,0l0,0l0,0l0,0l0,0l0,0l0,0
	l0,0l0,0l0,0l0,0l0,0l0,0l0,0l0,0l0,0l0,0l0,0l0,0l0,0l0,0l0,0l0,0l0,0l0,0l0,0l0,0l0,0l0,0l0,0l0,0l0,0l0,0l0,0l0,0l0,0l0,0l0,0
	l0,0l0,0l0,0l0,0l0,0l0,0l0,0l0,0l0,0l0,0l0,0l0,0l0,0l0,0l0,0l0,0l0,0l0,0l0,0l0,0l0,0l0,0l0,0l0,0l0,0l0,0l0,0l0,0l0,0l0,0l0,0
	l0,0l0,0l0,0l0,0l0,0l0,0l0,0l0,0l0,0l0,0l0,0l0,0l0,0l0,0l0,0l0,0l0,0l0,0l0,0l0,0l0,0l0,0l0,0l0,0l0,0l0,0l0,0l0,0l0,0l0,0l0,0
	l0,0l0,0l0,0l0,0l0,0l0,0l0,0l0,0l0,0l0,0l0,0l0,0l0,0l0,0l0,0l0,0l0,0l0,0l0,0l0,0l0,0l0,0l0,0l0,0l0,0l0,0l0,0l0,0l0,0l0,0l0,0
	l0,0l0,0l0,0l0,0l0,0l0,0l0,0l0,0l0,0l0,0l0,0l0,0l0,0l0,0l0,0l0,0l0,0l0,0l0,0l0,0l0,0l0,0l0,0l0,0l0,0l0,0l0,0l0,0l0,0l0,0l0,0
	l0,0l0,0l0,0l0,0l0,0l0,0l0,0l0,0l0,0l0,0l0,0l0,0l0,0l0,0l0,0l0,0l0,0l0,0l0,0l0,0l0,0l0,0l0,0l0,0l0,0l0,0l0,0l0,0l0,0l0,0l0,0
	l0,0l0,0l0,0l0,0l0,0l0,0l0,0l0,0l0,0l0,0l0,0l0,0l0,0l0,0l0,0l0,0l0,0l0,0l0,0l0,0l0,0l0,0l0,0l0,0l0,0l0,0l0,0l0,0l0,0l0,0l0,0
	l0,0l0,0l0,0l0,0l0,0l0,0l0,0l0,0l0,0l0,0l0,0l0,0l0,0l0,0l0,0l0,0l0,0l0,0l0,0l0,0l0,0l0,0l0,0l0,0l0,0l0,0l0,0l0,0l0,0l0,0l0,0
	l0,0l0,0l0,0l0,0l0,0l0,0l0,0l0,0l0,0l0,0l0,0l0,0l0,0l0,0l0,0l0,0l0,0l0,0l0,0l0,0l0,0l0,0l0,0l0,0l0,0l0,0l0,0l0,0l0,0l0,0l0,0
	l0,0l0,0l0,0l0,0l0,0l0,0l0,0l0,0l0,0l0,0l0,0l0,0l0,0l0,0l0,0l0,0l0,0l0,0l0,0l0,0l0,0l0,0l0,0l0,0l0,0l0,0l0,0l0,0l0,0l0,0l0,0
	l0,0l0,0l0,0l0,0l0,0l0,0l0,0l0,0l0,0l0,0l0,0l0,0c0,0.8,0.7,1.5,1.5,1.5s1.5-0.6,1.5-1.4c0.5-10.2,1.6-21.6,5.9-29.7
	c2.2-4,5.1-7,9-8.8c4-1.7,9.2-2.2,16.1-0.6l0,0c6.1,1.3,10,3.9,12.6,7.2c2.6,3.3,4,7.5,4.5,12.2s0.3,9.9-0.2,15.1
	c-0.2,2-0.4,4.1-0.6,6.1c-0.2,2-0.4,4-0.6,5.9C770.6,147.1,770.5,148.2,770.5,149.4z"/>
<path fill="#FFFFFF" stroke="#022433" stroke-width="3" stroke-linejoin="round" d="M48.2,552.4c0,0.8-0.6,1.5-1.4,1.5
	c-0.8,0-1.5-0.6-1.6-1.4c-0.1-0.9-0.1-1.8-0.2-2.7c-0.7-4.9-2.9-7.6-5.5-8.9c-3.2-1.5-7.6-1.1-12.1,1.1c-8.9,4.4-17,15.5-14.3,29
	l0,0c2.1,10.9,8.4,18.3,15.9,21c7.4,2.6,16.3,0.8,24.1-7.6l0.1-0.1c0.6-0.6,1.5-0.6,2.1-0.1c0.6,0.6,0.6,1.5,0.1,2.1l-0.1,0.1
	c-6.9,7.4-8.1,14.3-6.4,20c1.8,5.8,6.8,10.8,13.3,13.9c6.5,3.1,14.2,4.3,21.1,2.8c6.8-1.5,12.8-5.7,16.1-13.4
	c0.2-0.5,0.7-0.9,1.2-0.9c0.5-0.1,1.1,0.2,1.4,0.6c9.8,14.4,30.1,20.6,49.2,18.6s36.5-12.2,40.9-29.5l0,0c5-19.4-3.9-35.1-17.6-42.6
	c-13.7-7.5-32-6.8-46,6.9c-0.6,0.5-1.4,0.6-2,0.1s-0.7-1.4-0.3-2c5.3-7.6,5.4-14,3-19c-2.5-5.1-7.9-9.1-14.1-11.3
	s-12.9-2.5-17.9-0.6c-2.5,0.9-4.5,2.4-5.9,4.4s-2.2,4.6-2.1,8.1c0,0,0,0,0,0.1l0,0l0,0l0,0l0,0l0,0l0,0l0,0l0,0l0,0l0,0l0,0l0,0l0,0
	l0,0l0,0l0,0l0,0l0,0l0,0l0,0l0,0l0,0l0,0l0,0l0,0l0,0l0,0l0,0l0,0l0,0l0,0l0,0l0,0l0,0l0,0l0,0l0,0l0,0l0,0l0,0l0,0l0,0l0,0l0,0
	l0,0l0,0l0,0l0,0l0,0l0,0l0,0l0,0l0,0l0,0l0,0l0,0l0,0l0,0l0,0l0,0l0,0l0,0l0,0l0,0l0,0l0,0l0,0l0,0l0,0l0,0l0,0l0,0l0,0l0,0l0,0
	l0,0l0,0l0,0l0,0l0,0l0,0l0,0l0,0l0,0l0,0l0,0l0,0l0,0l0,0l0,0l0,0l0,0l0,0l0,0l0,0l0,0l0,0l0,0l0,0l0,0l0,0l0,0l0,0l0,0l0,0l0,0
	l0,0l0,0l0,0l0,0l0,0l0,0l0,0l0,0l0,0l0,0l0,0l0,0l0,0l0,0l0,0l0,0l0,0l0,0l0,0l0,0l0,0l0,0l0,0l0,0l0,0l0,0l0,0l0,0l0,0l0,0l0,0
	l0,0l0,0l0,0l0,0l0,0l0,0l0,0l0,0l0,0l0,0l0,0l0,0l0,0l0,0l0,0l0,0l0,0l0,0l0,0l0,0l0,0l0,0l0,0l0,0l0,0l0,0l0,0l0,0l0,0l0,0l0,0
	l0,0l0,0l0,0l0,0l0,0l0,0l0,0l0,0l0,0l0,0l0,0l0,0l0,0l0,0l0,0l0,0l0,0l0,0l0,0l0,0l0,0l0,0l0,0l0,0l0,0l0,0l0,0l0,0l0,0l0,0l0,0
	l0,0l0,0l0,0l0,0l0,0l0,0l0,0l0,0l0,0l0,0l0,0l0,0l0,0l0,0l0,0l0,0l0,0l0,0l0,0l0,0l0,0l0,0l0,0l0,0l0,0l0,0l0,0l0,0l0,0l0,0l0,0
	l0,0l0,0l0,0l0,0l0,0l0,0l0,0l0,0l0,0l0,0l0,0l0,0l0,0l0,0l0,0l0,0l0,0l0,0l0,0l0,0l0,0l0,0l0,0l0,0l0,0l0,0l0,0l0,0l0,0l0,0l0,0
	l0,0l0,0l0,0l0,0l0,0l0,0l0,0l0,0l0,0l0,0l0,0l0,0l0,0l0,0l0,0l0,0l0,0l0,0l0,0l0,0l0,0l0,0l0,0l0,0l0,0l0,0l0,0l0,0l0,0l0,0l0,0
	l0,0l0,0l0,0l0,0l0,0l0,0l0,0l0,0l0,0l0,0l0,0l0,0l0,0l0,0l0,0l0,0l0,0l0,0l0,0l0,0l0,0l0,0l0,0l0,0l0,0l0,0l0,0l0,0l0,0l0,0l0,0
	l0,0l0,0l0,0l0,0l0,0l0,0l0,0l0,0l0,0l0,0l0,0l0,0l0,0l0,0l0,0l0,0l0,0l0,0l0,0l0,0l0,0l0,0l0,0l0,0l0,0l0,0l0,0l0,0l0,0l0,0l0,0
	l0,0l0,0l0,0l0,0l0,0l0,0l0,0l0,0l0,0l0,0l0,0l0,0l0,0l0,0l0,0l0,0l0,0l0,0l0,0l0,0l0,0l0,0l0,0l0,0l0,0l0,0l0,0l0,0l0,0l0,0l0,0
	l0,0l0,0l0,0l0,0l0,0l0,0l0,0l0,0l0,0l0,0l0,0l0,0l0,0l0,0l0,0l0,0l0,0l0,0l0,0l0,0l0,0l0,0l0,0l0,0l0,0l0,0l0,0l0,0l0,0l0,0l0,0
	l0,0l0,0l0,0l0,0l0,0l0,0l0,0l0,0l0,0l0,0l0,0l0,0l0,0l0,0l0,0l0,0l0,0l0,0l0,0l0,0l0,0l0,0l0,0l0,0l0,0l0,0l0,0l0,0l0,0l0,0l0,0
	l0,0l0,0l0,0l0,0l0,0l0,0l0,0l0,0l0,0l0,0l0,0l0,0l0,0l0,0l0,0l0,0l0,0l0,0l0,0l0,0l0,0l0,0l0,0l0,0l0,0l0,0l0,0l0,0l0,0l0,0l0,0
	l0,0l0,0l0,0l0,0l0,0l0,0l0,0l0,0l0,0l0,0l0,0l0,0l0,0l0,0l0,0l0,0l0,0l0,0l0,0l0,0l0,0l0,0l0,0l0,0l0,0l0,0l0,0l0,0l0,0l0,0l0,0
	l0,0l0,0l0,0c0,0.8-0.7,1.5-1.5,1.5s-1.5-0.6-1.5-1.4c-0.4-8.5-1.3-17.9-4.9-24.5c-1.8-3.3-4.1-5.8-7.4-7.2
	c-3.2-1.4-7.5-1.8-13.2-0.5l0,0c-5,1.1-8.2,3.2-10.3,5.9s-3.2,6.1-3.7,10s-0.2,8.2,0.2,12.5c0.2,1.7,0.3,3.4,0.5,5.1
	c0.2,1.6,0.4,3.3,0.5,4.9C48.1,550.5,48.1,551.4,48.2,552.4z"/>
<path fill="#022433" d="M1412.4,491.3c6.3,16.1,30.8,24,43.6,11.8c1,7.7,9,12.1,16.8,12.9c12.4,1.3,17.1-8.4,18.9-18.9
	c4.7,3.2,9.4,6.6,14.2,9.7c1.3,0.8,2.4-0.3,2.3-1.5c0.8,1,2.3-0.3,1.6-1.3c-2.1-3.4-4.2-6.9-6.5-10.3c9.7,1.1,17.1-8.9,15.2-18.1
	c-1.6-8.1-9-13.5-16.8-13.5c13.2-10.8,11.8-33.7-4.7-42.4c-19-9.8-42.1,7.4-36.8,28.5c-3.1-1.6-6.1-2.7-8.7-2.7
	c-4.7-6.8-7.6-13.5-10.3-21.3c0.5-0.3,1.1-0.6,1.5-1c1.1-1.1,1.1-2.3,0.5-3.5c-0.7-1.1-1.6-1.9-2.9-2.3c-0.7-0.2-1,0.2-1.1,0.6
	c-0.2,0-0.3-0.2-0.5-0.2c-0.5-0.2-1.1,0-1.5,0.3c-1,1.1-1.8,2.4-2.1,3.9c-0.2,0.6,0.2,1.3,0.6,1.6c0.8,0.6,1.8,1,2.7,1
	c1.5,7.6,5.7,15.2,10.5,21.1c-1.6,0.6-2.9,1.9-3.7,4.4c-2.7-2.7-6.1-5-9.4-7.1c-3.4-2.3-6.8-4.5-10.5-6c0.3-1.8-0.7-3.7-2.4-4.4
	c-0.3-0.2-0.6,0-0.8,0.2c-0.7-0.3-1.5-0.3-2.3,0c-2.3,1-2.9,4.2-1.1,6c1.4,1.5,4,1.6,5.7,0.2l0.2,0.2c3.2,2.1,6.9,3.7,10.3,5.8
	c3.4,1.9,6.5,4.5,10,6.3c0.2,0,0.2,0,0.2,0c-0.2,0.6,0.2,1.3,0.5,1.5c0,2.6,0.5,5,1.4,7.1C1431,460.5,1404.4,470.5,1412.4,491.3z
	 M1502.5,491c-0.3,0-0.5,0.2-0.8,0.3c-8.2-12.1-17.8-23.9-28.1-33.4c-1.9-1.8-6.8-5.8-11.8-8.7c0.3-0.2,0.5-0.5,0.5-1
	c-1.6-18.1,14.8-34.5,32.9-25.2c18.1,9.4,13.9,32.2-1.8,41.4c-1,0.6-0.3,2.3,0.8,1.9c1-0.3,1.8-0.6,2.6-1.1
	c7.6-0.6,15.8,1.5,18.2,9.8C1517.9,484.1,1511.1,490.7,1502.5,491z M1476.1,481.5c-10.8-7.7-25.2-15.3-28.1-29.2
	c0-0.2,0.2-0.2,0.2-0.3c5-12.4,32.4,18.1,35.7,21.9c8.1,9.5,15.2,19.8,23.1,29.5C1496.7,496,1486.2,488.9,1476.1,481.5z
	 M1414.7,485.4c-0.5-16.8,20.8-22.4,33.9-22.9c3.4,5.3,8.9,9.5,14.1,13.4c8.7,6.4,17.4,12.9,26.3,19.2c-1.3,7.4-3.1,16.1-11.8,17.6
	c-8.1,1.5-17.4-3.4-19-11.8c0.2-0.2,0.2-0.3,0.3-0.5c1.1-1.5-1.4-3.4-2.6-1.9c-6.9,8.1-16.8,8.9-26.2,4.7
	C1422.8,499.9,1414.9,493.6,1414.7,485.4z"/>
<path fill="#022433" d="M1484.3,450.7c4-0.5,8.2-3.7,7.9-8.1c-0.3-3.7-3.7-7.3-7.6-6.1c-0.2,0-0.3,0.2-0.5,0.3
	c-4,0.2-7.9,2.6-8.4,6.8C1475.2,448.8,1479.9,451.3,1484.3,450.7z M1478.6,443.4c0.8-3.1,4.2-3.9,6.9-4c0.7,0,1.1-0.5,1.1-1
	c1.8,0.8,3.1,2.7,2.9,4.7c-0.2,2.7-3.1,4.5-5.5,4.8C1481.2,448.4,1477.7,447,1478.6,443.4z"/>
<path fill="#022433" d="M1430.9,489.4c1.3,3.4,5.2,5.3,8.7,4.5c4-1,5.8-5.3,4.9-9c-1.1-4-5.5-6.4-9.5-6c-0.6,0-1,0.6-1,1.1
	C1431,482,1429.6,485.8,1430.9,489.4z M1436.3,481.8c0.3-0.2,0.5-0.3,0.5-0.6c2.1,0.6,4,1.9,4.7,4.2c0.7,2.3-0.3,5.3-2.9,5.8
	C1432.8,492.1,1432,484.4,1436.3,481.8z"/>
<path fill="#022433" d="M1500.4,483.4c2.9,2.3,7.8,1,9-2.6c1-2.9-1-6.1-3.7-6.8c-1.4-1.6-4.5-1.3-6.1,0.3
	C1496.9,476.7,1497.7,481.3,1500.4,483.4z M1501.1,476.2c0.5-0.6,1.5-1,2.1-0.8c0.2,0,0.3,0.2,0.5,0.2c0,0,0,0,0.2,0
	c0.3,0.2,0.5,0.3,0.7,0.8c0.3,0.6,1.1,0.6,1.8,0.2c1.3,1,1.8,2.7,0.5,4.2c-1.1,1.5-3.5,1.9-5,0.5
	C1500.4,480,1499.8,477.6,1501.1,476.2z"/>
<path fill="#022433" d="M1467.8,502.9c-0.3,3.1,2.3,5.5,5.3,5.6c3.1,0.2,5.8-1.9,6-5c0.2-2.7-1.8-6-4.7-6.3c-0.5,0-0.8,0.2-1,0.5
	C1470.4,497.6,1468,500,1467.8,502.9z M1470.2,503.1c0-1.8,1.4-3.4,3.1-3.9c0.2,0.2,0.2,0.3,0.5,0.5c1.6,0.8,2.7,1.6,2.7,3.5
	c0,1.8-1.3,2.7-3.1,2.7C1471.9,506,1470.2,504.9,1470.2,503.1z"/>
<path fill="#022433" d="M996.1,191.9c5.6,2.8,11.1,6.2,17,8.5c-1.5,14.1,9.1,27.7,21.2,33.1c15.2,6.9,39.7,10.4,54.1-2.8
	c0.3,0.1,0.8,0,1.1-0.4c13.9-18.8-1.2-41-17.2-48.9c-0.1,0-0.1,0-0.3-0.1c10.2-2.4,20-8.5,23.8-19.4c3.9-11,0.3-23.8-9.2-29.4
	c-10.1-5.9-19.7-3.7-27.2,2.5c-0.1-0.2-0.2-0.5-0.5-0.6c-9.9-7.7-23.4-2.9-31,7.6c-8.2,11.6-8.2,26.6-1.9,38.2
	c-2.2,1.4-4.2,3.1-6.1,5.3c-0.1,0-0.3-0.1-0.5,0c-7.6,1.6-14.9,3-22.6,3.9C995.7,189.2,994.8,191.2,996.1,191.9z M1057.8,136.3
	c-9.9,9.3-15.5,25.5-12,38.6c-5.8,0-11.7,1-16.7,3.6c-5-8.8-5.7-19.5-1.5-29.4C1033.1,136.7,1046.2,129.2,1057.8,136.3z
	 M1067.7,179.4c-5.5-2.2-11.9-3.9-18.3-4.4c0-0.2,0-0.5-0.1-0.9c-5.6-19.4,11.6-49.7,33.5-39.4c10.1,4.8,14.1,18.3,8.4,29
	C1086.4,173.2,1076.8,177.3,1067.7,179.4z M1067.5,235.2c-7.4-5.9-5-18.1-1.6-26.1c3.3-7.5,8.8-12.6,15.3-17.1
	c8.9,8.8,12.9,21.3,7.6,35c-0.3,0.1-0.7,0.2-0.9,0.3c-6.2,4.8-13.1,7.3-20.2,8.1C1067.6,235.4,1067.6,235.2,1067.5,235.2z
	 M1046,233.7c1.5-19.9,6.6-36.1,22.5-50.1c0.5,0.3,1.3,0.5,1.8,0.8c3.2,1.5,6.1,3.4,8.8,5.6c-13.2,7.3-28.1,34.5-14.4,45.7
	C1058.4,236.2,1052,235.2,1046,233.7z M1033.9,228.9c-0.9-4.2-0.2-14.4,0.1-15.3c0.8-3.6,1.9-7.4,3.2-10.8
	c3.4-8.8,8.6-16.3,15.2-22.9c0.2-0.1,0.3-0.4,0.3-0.6c4.5,0.7,9.1,1.8,13,3.4c-14.1,11.7-24.7,32.5-21.7,50.8
	c-0.7-0.2-1.6-0.4-2.3-0.8C1039.1,231.6,1036.4,230.4,1033.9,228.9z M1021.6,218.2c-1.2-13.6,2.7-26.6,11.9-37.3
	c0.2-0.1,0.3-0.4,0.3-0.6c4.9-1.6,10.2-2,15.6-1.5c-8,8.4-14.1,18.7-17,30.1c-1.2,4.4-2.7,12.8-1.1,18.6
	C1027.5,224.8,1024.2,221.7,1021.6,218.2z M1019.5,191.9c2.4-4.2,5.5-7.3,9.1-9.3c-6.7,9.4-10.3,20.7-9.4,32.1
	C1015.6,208,1014.8,200.2,1019.5,191.9z M1001.8,191.3c5.5-0.9,10.9-2,16.2-3.5c0,0.2-0.2,0.3-0.2,0.3c-2.1,3-3.4,6.1-4.2,9.3
	C1009.9,195.1,1005.8,193.2,1001.8,191.3z"/>
<path fill="#022433" d="M1087,216.7c0.8-0.6,1.9-0.7,2.7-0.1c0.2,0.2,0.3,0.4,0.6,0.7c0.4,0.3,0.6,0.8,0.6,1.3
	c-0.1,2.5-3.9,3.7-4.8,1.1C1085.5,218.6,1086,217.4,1087,216.7z"/>
<path fill="#022433" d="M1075.3,213.9c1.1-0.9,2.9-1.3,3.6,0.1c0.4,0.8,0.3,1.6,0.1,2.4c0.2,1-0.3,1.9-1.5,2.3
	c-1.2,0.4-2.4-0.3-2.9-1.3C1074,216.1,1074.2,214.8,1075.3,213.9z"/>
<path fill="#022433" d="M1054.2,613.2c7.2-8.7,4.7-21.2-1.7-29.6c-8.7-11.6-23.9-14.8-37.4-17.3c0.5-0.7,1.2-1.3,1.7-2
	c1.1-1.2,1.9-2.5,2.5-3.8c3.3,1.6,7.8,1.4,10.7-1c2.8-2.3,3.9-6,3.1-9.5c2.6-2,5.4-3.4,8.5-3.9c3.3-0.6,6.3,0.2,9.5,0.5
	c0.9,0,1.2-1.1,0.5-1.7c-5.8-3.4-14.2-0.7-19,3.7c-0.3-0.7-0.7-1.4-1.1-2c-0.3-0.5-0.8-1-1.3-1.3c4-5,5.8-12.6,2.8-18.4
	c-0.5-1.1-2.3-0.4-2,0.8c1.4,6.1,1.5,11.7-2,16.8c-2.8-1.5-6.3-1.4-8.9,0.3c-2.6,1.6-4.1,5.1-3.2,7.8c-3,1.4-5.9,2.8-8.9,4.5
	c9.5-27.2-29.4-64.5-54.9-46.1c-11.7,8.3-14.8,23.5-10,36.7c5,13.5,16.4,22.3,29.4,27.1c-9.2,0.6-18.5,1.4-27.4,3.6
	c-6.5,1.6-20.1,4.5-21.9,12.5c-3.8,15.9,30.2,4.3,44.3-1.5c-6,5.8-11.3,12.5-11.8,20.4c0,0.9,1,1.7,1.8,1.4
	c7.3-2.2,13.8-5.8,19.8-10c-3.9,7.1-5.5,15.3-4.5,23.4c0.6,5,2.4,15.8,8.6,16.9c8,1.3,9.5-8.8,10.1-14.2c1.1-10,1.3-19.9,0.6-29.9
	c5.7,11.2,13,21,26,25C1030,625.7,1045.8,623.5,1054.2,613.2z M1024.5,545.8c1.2-0.1,2.3,0.2,3.2,0.8c0.1,0.4,0.4,0.8,1,0.6
	c1.1,0.9,1.8,2.1,2.2,3.7c0.6,3.1-0.7,6.3-3.6,7.5c-2.4,1.1-4.9,0.7-7-0.4c0.1-1.1-0.2-2-0.6-3.3c0-0.2-0.3,0-0.5-0.2s0.2-0.9,0-1.1
	c-0.1-0.3,0-0.5-0.2-0.6c-0.1-0.3-0.2-0.5-0.4-0.6C1017.5,548.9,1021.6,545.8,1024.5,545.8z M978.6,579c-1.9,1.6-3.9,3.5-6.1,5.4
	c-0.4-0.2-0.8-0.3-1.2,0c-7.8,4.1-16,7.3-24.6,9.4c-4,0.9-8.1,1.8-12.2,2.1c-1.9,0.3-3.7,0.3-5.6-0.2l-2.8-5.2
	c0.1-1.7,3.9-3.6,5.2-4.3c14.6-8.1,33.1-8.3,49.2-9C979.8,577.8,979.2,578.4,978.6,579z M981.4,574.2c-13.7-3.3-26.8-10.4-33.6-23.2
	c-6.4-12.3-5.4-27.5,5.4-36.7c23.5-19.8,61.2,17.8,52.6,43.1c-0.1,0.3-0.1,0.4,0.1,0.6c-8.4,5-16.1,11-23.4,17.4
	C982.4,574.9,982.1,574.3,981.4,574.2z M990.1,586.3c-9.5,8.7-19.2,16.8-31.4,21.2c1.1-6.3,5.9-11,10.4-15.6c4.9-5,9.9-9.8,15-14.4
	c10.2-9,20.9-16.9,32.7-23.3c0,0,0,0,0.1,0.1c0.3,0.7,0.5,1.6,0.5,2.3c-0.6,0.3-1.1,1.2-0.5,1.9l0.1,0.1c-1.6,5.1-8.6,10.1-11.5,13
	C1000.4,576.6,995.3,581.5,990.1,586.3z M989.2,619.8c-0.2,3.4,0.1,8.3-1.2,11.3c0.1,2.7-1.5,3.8-5.1,3c-3.1,2.3-5,2-5.5-0.6
	c-0.8-1.3-1.1-3.1-1.5-4.6c-0.9-3.5-1.4-7-1.2-10.5c0.2-7,2.3-13.6,5.4-19.8c2.8-2.3,5.8-4.6,8.6-7.1c0.6,5.9,0.8,11.9,0.8,17.9
	C989.5,612.9,989.5,616.4,989.2,619.8z M1015.2,617.9c-12.6-5.2-18.5-17.1-24-28.9c2-1.7,3.7-3.5,5.6-5.3
	c5.2-4.9,10.7-9.7,15.7-14.9c11.9,2.2,25,4.4,34.1,12.7c8.7,7.8,13,22.4,3.9,31.5C1041.6,622,1026.4,622.7,1015.2,617.9z"/>
<path id="heroStar2" fill="none" stroke="#022433" stroke-width="3" stroke-linecap="round" stroke-linejoin="round" d="M1189.5,150
	c-1.2,1.6-1.5,10.7-1.5,15c2,0,5.2-7,6.5-10.5c2.3,3.2,7.3,9.7,8.5,10.5s0.5-7.7,0-12c3.5-1,10.5-3.5,10.5-5.5s-9-2.2-13.5-2
	c-0.3-5.2-1.4-15.7-3-16.5s-4.7,9.7-6,15c-4.5-0.8-13.6-2-14,0C1176.5,146.5,1191,148,1189.5,150z"/>
<path id="heroStar1" fill="none" stroke="#022433" stroke-width="3" stroke-linecap="round" stroke-linejoin="round" d="M441.5,418
	c-1.2,1.6-1.5,10.7-1.5,15c2,0,5.2-7,6.5-10.5c2.3,3.2,7.3,9.7,8.5,10.5s0.5-7.7,0-12c3.5-1,10.5-3.5,10.5-5.5s-9-2.2-13.5-2
	c-0.3-5.2-1.4-15.7-3-16.5s-4.7,9.7-6,15c-4.5-0.8-13.6-2-14,0C428.5,414.5,443,416,441.5,418z"/>
<path id="heroStar3" fill="none" stroke="#022433" stroke-width="3" stroke-linecap="round" stroke-linejoin="round" d="M1379,564
	c1.2,1.6,1.5,10.7,1.5,15c-2,0-5.2-7-6.5-10.5c-2.3,3.2-7.3,9.7-8.5,10.5s-0.5-7.7,0-12c-3.5-1-10.5-3.5-10.5-5.5s9-2.2,13.5-2
	c0.3-5.2,1.4-15.7,3-16.5s4.7,9.7,6,15c4.5-0.8,13.6-2,14,0C1392,560.5,1377.5,562,1379,564z"/>
<path id="heroStar4" fill="none" stroke="#022433" stroke-width="3" stroke-linecap="round" stroke-linejoin="round" d="M219,156
	c1.2,1.6,1.5,10.7,1.5,15c-2,0-5.2-7-6.5-10.5c-2.3,3.2-7.3,9.7-8.5,10.5s-0.5-7.7,0-12c-3.5-1-10.5-3.5-10.5-5.5s9-2.2,13.5-2
	c0.3-5.2,1.4-15.7,3-16.5s4.7,9.7,6,15c4.5-0.8,13.6-2,14,0C232,152.5,217.5,154,219,156z"/>
<path id="heroStar5" fill="#022433" d="M203,712.5c-0.4-1.1-1.3-1.6-2.2-2c-2.4-0.9-5-0.9-7.6-1.1c-1.5,0-2.8-0.2-4.2-0.2
	c-0.4-4.4-0.9-8.7-1.8-13.1c-0.2-1.1-0.6-2.2-1.1-2.9c-0.7-1.1-2.2-1.6-3.3-0.5c-0.9,0.9-1.3,2.2-1.8,3.5c-0.7,1.6-1.1,3.3-1.7,4.9
	c-0.7,2-1.3,4.2-1.8,6.4c-1.3-0.2-2.6-0.4-3.9-0.4c-2.6-0.4-5.7-0.5-8.3,0.2c-1.1,0.2-2.2,1.1-2.2,2.4c0,0.9,0.7,1.8,1.5,2.4
	c2,1.6,4.4,2.6,6.6,3.6c1.3,0.5,2.6,1.1,4.1,1.6c-0.9,3.8-1.7,7.8-1.8,11.8c0,0.9-0.2,2,0.4,2.7c0.6,1.3,1.8,1.6,3.1,0.9
	c0.9-0.5,1.7-1.6,2.2-2.6c0.7-1.3,1.5-2.6,2-3.8c0.6-1.1,1.1-2.4,1.7-3.5c1.5,2.2,2.8,4.2,4.4,6.2c0.9,1.1,2.4,3.3,4.2,2.7
	c1.1-0.4,1.5-1.5,1.5-2.4c0-1.5,0-2.7,0-4.2c0-2,0-4.2,0-6.2c0.9-0.4,2-0.5,2.9-0.9c2.2-0.7,4.6-1.5,6.5-2.9
	C202.6,714.5,203.2,713.4,203,712.5z M185.1,695C185.1,695.1,185.1,695.1,185.1,695L185.1,695z M174.6,729.8
	C174.4,729.8,174.6,730,174.6,729.8L174.6,729.8z M189,729.6C189,729.8,189,729.8,189,729.6L189,729.6z M194.5,714.6
	c-1.5,0.5-2.8,0.9-4.2,1.3c-0.7,0.2-1.3,0.9-1.3,1.6c0,1.8,0,3.5,0,5.3c0,1.1,0,2.4,0,3.5c-1.1-1.5-2.2-3.1-3.3-4.7
	c-0.7-1.1-1.3-2-2-3.1c-0.6-0.9-2.4-1.3-2.9,0c-0.6,1.5-1.3,2.9-2,4.4c-0.6,1.3-1.3,2.6-2,3.8c0.2-1.8,0.6-3.5,0.9-5.3
	c0.4-1.6,0.7-3.3,1.1-4.9c0.2-0.9-0.4-1.8-1.3-2.2c-3.3-1.3-6.3-2.4-9.4-4.2c0.4,0,0.7,0,1.1,0c1.3,0,2.6,0,3.9,0.2
	c1.3,0.2,2.6,0.2,3.9,0.4c0.4,0,0.9,0.2,1.3,0.2c0.9,0.2,1.8-0.2,2.2-1.3c0.6-1.8,0.9-3.8,1.5-5.6c0.6-1.6,0.9-3.3,1.5-4.7
	c0.2-0.4,0.4-0.9,0.6-1.3c0.6,2.6,0.9,4.9,1.1,7.3c0.2,1.8,0.4,3.8,0.6,5.6c0,0.4,0.2,0.5,0.2,0.7c0.2,0.5,0.7,0.9,1.5,0.9
	c3.5,0,7.2,0,10.5,0.7c0.2,0,0.2,0,0.4,0C196.9,713.9,195.8,714.3,194.5,714.6z M199.9,713.7C199.9,713.9,199.9,713.9,199.9,713.7
	L199.9,713.7z M199.9,713.7C199.9,713.9,199.9,713.9,199.9,713.7C200.1,713.9,200.1,713.9,199.9,713.7z"/>
<path fill="#FFFFFF" stroke="#022433" stroke-width="3" stroke-linejoin="round" d="M1516.8,618.6c-0.1,0.6,0.2,1.2,0.7,1.5
	c4.1,2.3,6.9,6.8,6.9,11.9c0,7.6-6.1,13.7-13.7,13.7c-1.8,0-3.5-0.4-5-1c-0.4-0.2-0.8-0.2-1.2,0c-1.4,0.6-2.9,1-4.5,1
	c-1.8,0-3.4-0.4-5-1.2c-0.4-0.2-0.8-0.2-1.2,0c-0.4,0.2-0.7,0.5-0.8,0.9c-2.7,8.3-10.5,14.4-19.8,14.4c-9.2,0-17.1-6.1-19.8-14.5
	c-0.1-0.4-0.5-0.8-0.9-0.9c-0.4-0.2-0.9-0.1-1.3,0.1c-4,2.4-8.5,3.7-13.4,3.7c-14.6,0-26.4-11.8-26.4-26.4
	c0-14.5,11.7-26.3,26.2-26.4c0.6,0,1.1-0.3,1.3-0.8c3.5-6.6,10.5-11.1,18.5-11.1c10.3,0,18.8,7.4,20.5,17.2c0.1,0.5,0.5,1,1,1.2
	s1.1,0,1.5-0.3c3.9-3.8,9.2-6.1,15-6.1c11.9,0,21.4,9.6,21.4,21.4C1516.9,617.5,1516.9,618,1516.8,618.6z"/>
<path fill="none" stroke="#022433" stroke-width="3" stroke-linecap="round" stroke-linejoin="round" stroke-miterlimit="10" d="
	M980.4,893.5c5.4-7,8.2-16,7.6-24.8c-7.2,6.5-13.5,13.9-18.8,22c-2-15.8-7.3-31.2-15.6-44.8c-1.6,16.1,0.3,32.7,5.9,48"/>
<path id="heroStar6" fill="#022433" d="M167.8,433.8c-1.4-3.9-5.2-6.1-9.3-5.2c-2.1,0.4-3.7,1.6-5.1,3c-0.7-1.9-2.1-3.5-4-4.6
	c-3.7-2.1-8.8-1-11.4,2.3c-3.3,4-2.3,9.6,0.4,13.5c3.1,4.3,7.8,7.4,12.4,10c0.9,0.5,1.7,0.1,2.1-0.6h0.1
	C160.3,449.8,170.7,442.7,167.8,433.8z M152.3,449.3c-0.2,0.1-0.5,0.2-0.7,0.5c-5.7-3.4-15-9.5-12.1-16.9c1.1-2.9,4.7-4.5,7.7-3.5
	c2.7,1,4.1,3.8,3.7,6.3c-0.2,0.5-0.4,1-0.5,1.5c-0.5,1.7,2,2.6,2.8,1.2c0.1-0.1,0.2-0.4,0.4-0.6c0.1-0.5,0.2-0.9,0.4-1.3
	c1-2.3,2.8-4.4,5.4-4.9c3.2-0.6,5.7,1.7,5.8,4.8C165.5,442.7,157.6,447.5,152.3,449.3z"/>
<path id="heroStar7" fill="#022433" d="M168.4,466.8c-1.2-2.1-3.8-3.2-6.2-2.8c-1.2,0.2-2.5,0.7-3.5,1.5c-0.5-1.2-1.5-2.4-2.7-3
	c-2.6-1.5-6.1-0.5-7.8,1.7c-4.8,6,3.6,13,8.3,15.6c0.9,0.5,1.6,0.1,2-0.5c0.2,0,0.5-0.1,0.7-0.2C162.9,477,171.6,472.3,168.4,466.8z
	 M162.8,473.1c-1.6,1.2-3.3,2.3-5.2,3.4c-0.1,0.1-0.2,0.1-0.4,0.2c-3.2-1.8-7.8-5.2-7.4-9.1c0.1-1.7,2-3,3.7-2.8s2.7,2.1,2.5,3.7
	c0,0,0,0.1-0.1,0.1c-1,1.7,1.5,3.2,2.6,1.7c0.1-0.1,0.4-0.4,0.4-0.6c0.7-1.2,1.9-2.3,3.3-2.6c1.4-0.4,3.3,0.5,3.6,2.1
	C166.2,470.9,163.9,472.2,162.8,473.1z"/>
<path fill="none" stroke="#022433" stroke-width="3" stroke-linejoin="round" stroke-miterlimit="10" d="M204.7,888
	c-7.6-25.2-8.8-52.9-3.4-78.7c0.4-2.3,3.2-4.5,3.7-2.4"/>
<path fill="none" stroke="#022433" stroke-width="3" stroke-linejoin="round" stroke-miterlimit="10" d="M214.1,770.7
	c2,2.1,4.1,4.7,4.8,7.5c0.7,2.9-0.5,6.6-3.4,7.5c-4.6,1.4-7.9-4.5-8.9-9.1c1.8-2.9,5.4-4.3,8.6-3.4"/>
<path fill="none" stroke="#022433" stroke-width="3" stroke-linejoin="round" stroke-miterlimit="10" d="M213.5,791.7
	c0.3,5.9-6.6,11-12.2,8.8c-1.5-5.2-0.8-11.1,2-15.8c-4.2,2.5-10.1,1.6-13.3-2.2c-3.1-3.8-2.7-10,0.9-13.2c3.6-3.2,10.1-2.4,12.7,1.7
	c-2-5.2-3.5-12.5,1.3-15.2c3.3-1.9,7.7-0.1,9.9,3.1c2.2,3.2,2.5,7.2,2.4,10.9c0.6-3.9,3.9-7.5,7.7-8.4c4-0.9,8.4,1,10.6,4.4
	c1.8,3,1.9,7.1-0.1,9.8c-2,2.8-6.3,3.9-9.2,2.2c-0.1,2.7,3.8,3.1,6.1,4.4c4.2,2.5,2.5,9.8-1.8,12.1s-9.7,1.3-14.5,0.2"/>
<path fill="none" stroke="#022433" stroke-width="4" d="M741.3,880c-2.5-32.7,8.4-98,72-98s76.5,69.3,75,104"/>
<g id="heroG1">
	<g id="heroEl1">
		<path fill="#022433" d="M755,715.8c-2.1-11.4-11.4-19.3-22.7-20.8c-9.3-1.3-21.7,1.1-28.4,8.5c0.1-0.4,0.4-0.8,0.5-1.4
			c5.2-14.4-0.8-31.8-13.4-40.3c-16-10.5-38.7-5.9-54.5,2.6c-17.2,9.2-22.1,27.1-17,45.3c-12.3,1.8-24.6,3-37.1,3.2
			c-1.1,0-1.9,1.1-1.7,2.1c1.4,6.8,10.4,7.3,15.9,8.6c11.3,2.6,22.7,5.3,34.2,7.4c8.4,9.6,20,16,33.2,17.4c9.2,1,21.2-0.1,28.5-6.6
			c0.8-0.7,1.5-1.5,2.2-2.3c0.2,0.4,0.4,0.7,1,1C717.7,749.3,761.2,750.6,755,715.8z M608.8,723.1c-4.6-1.2-19.2-2.5-23.6-7
			c11.8-0.4,23.6-1.4,35.3-3.4c2,5.7,4.7,10.9,8.2,15.6C622.1,726.5,615.4,724.9,608.8,723.1z M695.2,732.2
			c-3.6,10.6-16.1,13.3-26,13.2c-13.1,0-25.4-5.4-34.3-14.7c-0.1-0.3-0.1-0.7-0.6-0.8h-0.1c-2.3-2.5-4.5-5.3-6.2-8.4
			c-8.6-14.7-11.4-36.6,2.5-48.9c11.1-10,30.2-15.3,45.1-13.1c16.4,2.4,28.5,16.5,27.7,33.3c-0.8,16.5-16.2,29.4-32.5,28.9
			c-9.8-0.4-20.4-6.3-21.2-17.2c-0.6-9.3,5.8-19.3,14.6-22.2c8.6-2.8,20.6,2.6,20.5,12.6c0,4.3-2.7,9.1-6.7,11
			c-7.6,3.2-10.7-0.1-9.1-10c2-1.7,4.2-2.7,6.7-2.8c1-0.2,0.8-1.7-0.2-1.6c-12.4,0.5-16,18.3-1.9,18.6c12.7,0.3,18-16.4,10.4-25.2
			c-10.5-11.9-28-5.8-34.5,6.9c-8.1,15.4,1.8,30.6,18.5,32.6c11.9,1.4,24.4-4.2,31.7-13.8C698.5,717.9,697.5,725.3,695.2,732.2z
			 M696.5,737.6c-0.1,0-0.1,0-0.3-0.1c4.9-8,5.1-20,6.6-28.4c5.4-10,21.5-13,31.9-10.3c12.5,3.4,19.4,15.2,17.2,27.9
			C747.8,750.2,711.7,741.6,696.5,737.6z"/>
		<path fill="#022433" d="M734.4,711.3c-3.6-1.9-8,1.2-8.1,5.1c0,1.3,1.9,1.3,2,0.1c0.3-2.3,3.5-4.2,5.4-2.5
			c0.6,0.6,1.2,1.6,1.1,2.5c0.1,1-0.5,1.8-0.7,2.7c-0.3,1,0.9,1.8,1.8,1.4C739.5,718.6,737.4,712.7,734.4,711.3z"/>
		<path fill="none" stroke="#022433" stroke-width="4" d="M349.8,707.5l892.1,132.1"/>
	</g>
	<g id="heroM1">
		<path fill="#1A1A1A" d="M365.2,602.8c-3.8-5.2,5.1-23.6,5.1-29.1c0-4.6-8.7-6.4-9.1-13.1c-0.7-10.3,4-12.4,11.4-17.5
			c4.7-3.2,1.9-1.3,6.6-4.8c-1.8-3.2-2.3-1.1-4.4-1.7c-2.6-0.8-3.4-4.6,0.6-11.5c4.5-7.7,12.1-10.8,20.2-13.1
			c9.8-2.7,12.2-2.6,22.7-2.4c-1.4-5.1-8.3-7.5-4.5-12.9c3.4-4.8,9-5.2,14.2-5c10.4,0.3,20.4,2.6,29,8.3c3.3,2.2,5.6,2.3,8.8,0.4
			c8.5-4.7,18-5.4,27.4-5.1c12.3,0.4,18.3,2.6,14.5,13.7c7,1,24.3,4.7,31.2,11.3c11.1,10.6,8.7,20.7-5.5,27.1
			c0.4,3.8,8,3.5,10.6,10.5c1.3,3.4,2.7,8.1,0.2,10.1c-8.8,7.3,4.1,28.1,0.5,37.2c-0.5,0.7-1.1,1.1-2,1.2c-3.5-0.2-7-1.9-10.6-1
			c-7.1,1.7-9.5-2-10-8.1c-0.6-6.3-2.8-12.1-5.5-17.8c-1.4-2.8-3.1-5.1-7-4.1c-6.2,1.6-10.6-1.3-14.5-5.7c-1.5-1.6-2.6-4.5-5.8-1.6
			c-7.2,6.7-14.3,3.3-21.1-0.6c-4.1-2.3-7.3-5.7-10.3-10c-4,3-6,7.3-9.3,10.4c-10.1,9.3-18.1,7.8-23.5-4.8
			c-5.2,5.5-11.2,7.8-18.7,5.2c-3.7-1.3-5.5,1.9-7.1,4.4c-5,7.6-9.4,15.4-11,24.4c-0.7,3.8-1.7,7.9-7.4,6.1c-3.1-2-6.2-2.8-9.8-0.8
			C369.4,603.3,367.3,604.3,365.2,602.8z"/>
		<path fill="#F7B7A2" d="M476.4,712.7c55.9-9.1,94-61,85.1-116s-61.5-92.1-117.4-83c-55.9,9.1-94,61-85.1,116
			C367.9,684.6,420.5,721.8,476.4,712.7z"/>
		<g id="heroMoulth2">
			<path fill="#1A1A1A" d="M484.1,574.3c-9.2,2.1-23,11.4-37.8,9.4c-3.6-0.5-7.7-5.1-11.9-4.7c-1.6-0.7-6.4,1.5-7,4.8
				c-0.9,5,1.5,8.9,6,12.1c0,0,1.2,1,3.4,2.1c0.7,0.3,1.3,0.7,2,1h0.1c4.5,2,11.5,4,20.7,3.2c11-0.9,19.3-6.4,23.6-10
				c1.3-1,2.4-2,3.4-3.1c2.8-3.1,4.1-6.4,4.4-9.7C491,576.7,491.1,573.6,484.1,574.3z"/>
			<path fill="#F2EDEC" d="M480.2,578.6c-9.3,9.1-33.7,11.2-46.2,2.5c-0.2-1.9-2.1-3.2,3.1-2.1c13.9,3,29.7,0.4,43.2-3.7
				C480.6,576.1,480.6,577.9,480.2,578.6z"/>
			<path fill="#EB5C65" d="M440.5,599.8c11.2-3.9,24.6-5,36.5-3.3C464.4,604.2,450.3,603.6,440.5,599.8z"/>
		</g>
		<path opacity="0.1" fill="none" stroke="#020203" stroke-width="7.192" stroke-miterlimit="10" enable-background="new    " d="
			M462.8,647.6l5.5,65.9"/>
		<path opacity="0.15" fill="#020203" enable-background="new    " d="M462.4,615.4l5,85.4l-20.7,2.8c0,0,10.4-20.9,5.4-62
			S462.4,615.4,462.4,615.4z"/>
		<path opacity="0.15" fill="#020203" enable-background="new    " d="M458.5,615.5l9.6,85.6l21.6-1.1c0,0-14.2-18.9-16.2-60.5
			C471.7,597.9,458.5,615.5,458.5,615.5z"/>
		<path fill="#FEEF79" d="M358.1,622.3c1.7,20.8,10.6,47,34.9,67.5c1-11.4,42.4-33.5,72.7-13.7c20.8-24.7,65.4-14.3,73.8,0.6
			c20-25.1,25-47.5,22.9-72.2L358.1,622.3z"/>
		<path opacity="0.2" fill="#FFFFFF" enable-background="new    " d="M361.5,629.4c0,0-2.4,0.1-2.4,0.2c2.3,13.7,6.7,23,10.4,30.7
			c2.3-0.2,8.7-1.1,16.1-5.6c9.1-5.5,9.1-28.2,9.1-28.2L361.5,629.4z"/>
		<path opacity="0.2" fill="#020203" enable-background="new    " d="M382.3,646.8c-7.1,4.3-14,5.4-16.5,5.6
			c0.9,2.7,2.5,5.3,3.6,7.9c2.3-0.2,8.7-1.1,16.1-5.6c9.1-5.5,9.1-28.2,9.1-28.2S391.4,641.3,382.3,646.8z"/>
		<path opacity="0.2" fill="#FFFFFF" enable-background="new    " d="M560.4,612.2l2.4-0.2c0,13.9-2.8,23.8-5.2,32.1
			c-2.3,0.2-8.8,0.4-16.8-2.7c-9.9-3.9-13.7-26.2-13.7-26.2L560.4,612.2z"/>
		<path opacity="0.2" fill="#020203" enable-background="new    " d="M542.8,633c7.8,3,14.7,2.9,17.2,2.7c-0.4,2.8-1.6,5.7-2.3,8.4
			c-2.3,0.2-8.8,0.4-16.8-2.7c-9.9-3.9-13.7-26.2-13.7-26.2S532.9,629.1,542.8,633z"/>
		<g opacity="0.2">
			<path fill="#FFFFFF" d="M367,628.9l-5.7,0.5l-0.6-7.4l5.7-0.5L367,628.9z"/>
			<path fill="#FFFFFF" d="M412.7,624.9l-5.7,0.5l-0.7-7.4l5.7-0.5L412.7,624.9z"/>
			<path fill="#FFFFFF" d="M513.2,616.3l-5.7,0.5l-0.6-7.4l5.7-0.5L513.2,616.3z"/>
			<path fill="#FFFFFF" d="M558.9,612.3l-5.7,0.5l-0.6-7.4l5.7-0.5L558.9,612.3z"/>
		</g>
		<path fill="#D8CB67" d="M447.3,623.2c0.8,1.5,1.4,3,1.8,4.5s0.8,3,1,4.5c0.1,0.8,0.2,1.5,0.3,2.3c0.1,0.8,0.1,1.5,0.2,2.3
			c0,1.5-0.2,3.1-0.5,4.6c-0.1,0.8-0.3,1.6-0.4,2.3c-0.1,1.1-0.4,0.7,0,1.2c0.4,0.4,1.1,0.7,1.8,0.9c0.7,0.2,1.4,0.4,2.2,0.4
			c3,0.4,6.1-0.2,9.1-0.7l1.6-0.3l0.8,2.4c0.8,2.2,1.1,4.5,1.5,6.7c0.2,1.1,0.4,2.2,0.5,3.4c0.1,1.1,0.2,2.3,0.3,3.4
			c0.1,2.3-0.1,4.6-0.3,6.9c-0.3,2.3-0.6,4.7-1.4,7l-0.6,0.1c-1.3-2.2-2.1-4.4-2.8-6.6c-0.7-2.2-1.3-4.5-1.6-6.7
			c-0.2-1.1-0.3-2.3-0.4-3.4c-0.1-1.1-0.1-2.3-0.1-3.4c0-2.3-0.1-4.6,0.2-6.9l2.4,2.2c-1.7-0.3-3.2-0.6-4.7-1
			c-1.6-0.4-3.1-0.7-4.7-1c-0.8-0.2-1.6-0.3-2.4-0.6c-0.8-0.2-1.6-0.4-2.5-0.9c-0.4-0.3-1-0.6-1.3-1.3c-0.1-0.2-0.2-0.4-0.2-0.6
			v-0.1l0,0l0,0v-0.1c0-0.2-0.1-0.4-0.2-0.6l-0.8-2.3c-0.5-1.5-0.9-3.1-1.1-4.6c-0.1-0.8-0.1-1.5-0.1-2.3c0-0.7,0-1.6,0-2.3
			c0.1-1.6,0.3-3.1,0.6-4.6c0.3-1.6,0.7-3.1,1.3-4.7L447.3,623.2z"/>
		<path fill="#D8CB67" d="M464.7,670.7c-0.8-4-1.6-7.9-2.3-11.9l-1-5.9l-0.9-6c-0.3-2-0.7-4-1.1-5.9c-0.4-2-0.5-4-0.5-6
			s0.1-4,0.5-6.1c0.3-2.1,0.7-4.1,1.5-6.2l0.6-0.1c1.1,1.9,1.8,3.9,2.4,5.8c0.6,2,1.1,3.9,1.5,5.9s0.5,4,0.5,6s-0.1,4-0.1,6l0.1,6.1
			v6.1c-0.1,4-0.1,8.1-0.3,12.1L464.7,670.7z"/>
		<path fill="#D8CB67" d="M562.9,612.3c-16.8,3.8-33.7,6.4-50.7,8.7c-16.9,2.3-33.9,4.1-50.9,5.6s-34.1,2.6-51.1,3.2
			c-17.1,0.6-34.2,0.9-51.4,0.1l-0.1-0.6l25.5-2.3l25.5-2.2l51-4.5l51-4.3l25.5-2.1l25.5-2L562.9,612.3z"/>
		<path fill="#D8CB67" d="M454,620.4c1.5-0.2,2.5-1.6,2.3-3.1s-1.6-2.4-3.1-2.2s-2.5,1.6-2.3,3.1S452.5,620.7,454,620.4z"/>
		<path fill="none" stroke="#D8CB67" stroke-width="13.1854" stroke-miterlimit="10" d="M447,623.2l-0.8-8.7"/>
		<path opacity="0.15" fill="#FFFFFF" enable-background="new    " d="M408.8,621.7c-4.6-55.2,14.4-102,42.5-104.9
			c-56,5.3-97.6,54-93,109.2S412,722.1,468,717.7C439.8,719.8,413.4,676.9,408.8,621.7z"/>
		<defs>
			<filter id="Adobe_OpacityMaskFilter" filterUnits="userSpaceOnUse" x="333.9" y="370.2" width="193.6" height="162">
				<feColorMatrix  type="matrix" values="1 0 0 0 0  0 1 0 0 0  0 0 1 0 0  0 0 0 1 0"/>
			</filter>
		</defs>
		<mask maskUnits="userSpaceOnUse" x="333.9" y="370.2" width="193.6" height="162" id="mask0_132_2956_2_">
			<path fill="#FFFFFF" filter="url(#Adobe_OpacityMaskFilter)" d="M510.1,534.1c-1.6-18.6-30.3-31.3-64-28.4
				c-33.7,3-59.8,20.5-58.2,39.1c1.6,18.6,30.3,31.3,64,28.4C485.7,570.2,511.8,552.7,510.1,534.1z"/>
		</mask>
		<g mask="url(#mask0_132_2956_2_)">
			<path fill="#1A1A1A" d="M527.4,464.7c0.5,6.4-4.4,9.8-7.4,14.5c-2.5,4,4,9.9,0.8,15.9c-4.9,9.1-13.5,11.6-22.6,13.4
				c-5.6,1.1-11.5,1.3-17.3,1.9c-0.2,3.6,3.1,3.5,4.8,4.9c6.1,5.2,5.6,10.2-1.6,14.1c-7.9,4.3-16,3.1-24.1,0.8
				c-9.8-2.7-18.6-7.5-27.4-13c-1.5,5.1,3.1,10.7-3,13.4c-5.4,2.3-10.4-0.2-14.8-3c-8.6-5.6-15.9-12.7-20.2-22
				c-1.6-3.6-3.5-4.8-7.3-4.9c-9.7-0.3-18.1-4.6-26-9.7c-10.3-6.6-10.4-11.8-1.3-19.3c-5.4-4.4-11.1-8.7-16.2-13.4
				c-3.6-3.3-6.3-7.4-8.1-12.2c-5.4-14.2,1.3-22.9,16.9-21c1.7-3.4-1.4-5.4-2.5-7.9c-2.9-6.6-5-13.2-3.4-20.5
				c0.7-3.6,2.1-8.3,5.2-8.8c11.4-1.7,16.2-11.4,24.1-17.4c0.7-0.3,1.5-0.4,2.3,0c2.9,2,4.9,5.2,8.4,6.3c7,2.2,6.9,6.6,4.2,12.1
				c-2.8,5.7-4.1,11.8-4.7,18.1c-0.3,3.2-0.1,5.9,3.7,7.1c6.1,1.8,8.3,6.6,9.3,12.3c0.4,2.1-0.2,5.2,4.1,4.3
				c9.7-2.1,13.9,4.5,17.7,11.4c2.2,4,3.1,8.6,3.5,13.9c5-0.6,9-3.2,13.4-4.1c13.5-2.7,19.5,2.6,17.5,16.2
				c7.4-1.9,13.7-0.9,18.7,5.2c2.4,3,5.7,1.1,8.4-0.1c8.2-3.9,16.1-8.3,22.3-15.3c2.6-2.9,5.7-5.9,9.5-1.4c1.6,3.2,3.8,5.6,7.8,5.7
				C524.3,462.1,526.5,462.3,527.4,464.7z"/>
		</g>
		<g id="heroEye2">
			<path fill="#1A1A1A" d="M418.1,563.5c2.6-0.4,4.3-2.8,3.9-5.3s-2.8-4.2-5.4-3.8s-4.3,2.8-3.9,5.3S415.5,563.9,418.1,563.5z"/>
			<path fill="#1A1A1A" d="M492,557.1c2.6-0.4,4.3-2.8,3.9-5.3s-2.8-4.2-5.4-3.8s-4.3,2.8-3.9,5.3
				C487.1,555.8,489.5,557.5,492,557.1z"/>
		</g>
		<g id="heroBrow2">
			<path fill="#1A1A1A" d="M402.7,552.2c2.8-7.1,7.6-9.9,14.5-10.2c1.8-0.1,3.6,0.5,3.9,2.4s-1.3,2.8-3.1,3.4
				C413.3,549.2,408.6,550.5,402.7,552.2z"/>
			<path fill="#1A1A1A" d="M506.2,541.6c-7.2-0.5-12.2-1-17.3-1.4c-1.5-0.1-3.3,0.3-3.5-1.5c-0.1-1.4,1.1-2.5,2.6-3.1
				C495.6,532.8,500.7,535.5,506.2,541.6z"/>
		</g>
		<path fill="#FFFFFF" d="M434.8,681.6c-24.7,0.9-29.3,14.6-29.9,17.1c19.1,12,41.1,17.2,63.7,15.2l-1.6-19.2
			C467.1,694.8,461.7,680.6,434.8,681.6z"/>
		<path opacity="0.2" fill="#020203" enable-background="new    " d="M467.2,696.5c0-0.2-1.2-7.7-11.9-11.7c2.6,2.7,2.9,6.6,2.9,6.7
			v0.1c0.7,7.9-5.9,14.7-14,14.2c-13.5-0.8-26.6-4.1-39.1-10.3c19.8,12.1,40.9,16.9,63.2,15C468.4,710.6,467.6,701.6,467.2,696.5z"
			/>
		<path fill="#FFFFFF" d="M496.7,676.2c24.5-3.4,31.3,9.4,32.2,11.7c-16.9,15.1-37.7,24-60.3,26l-1.6-19.2
			C467.1,694.8,470,679.9,496.7,676.2z"/>
		<path opacity="0.2" fill="#020203" enable-background="new    " d="M467.2,696.5c0-0.2-0.2-3.9,2.9-7.6
			c9,11.3,13.4,14.8,21.2,12.9c8.1-1.9,15-5.6,21.5-10.8c6.2-4.9,4.2-11.6,4.5-13.2c4.9,1.8,8.4,5,10.2,7.6
			c-18,16.4-36.9,23.2-59.2,25.1C468.4,710.7,467.6,701.6,467.2,696.5z"/>
		<path opacity="0.2" fill="#FFFFFF" enable-background="new    " d="M499.3,684.5c7.5-1.7,12.9-4.3,16.7-7.2
			c-4.7-1.5-11-2.3-19.3-1.1c-10.6,1.5-17.5,4.7-21.9,8.1C480.1,686.2,488,687.1,499.3,684.5z"/>
		<path opacity="0.2" fill="#FFFFFF" enable-background="new    " d="M433.9,690.1c-7.7-0.4-13.4-2.1-17.6-4.2
			c4.4-2.3,10.5-4.1,18.8-4.4c10.8-0.4,18.1,1.6,22.9,4.2C453.1,688.5,445.4,690.8,433.9,690.1z"/>
	</g>
	<g id="heroM2">
		<path fill="#5C342E" d="M1230.5,625.6c-4.6,1.6-10.1,1-13.5,5.6c-1.2,1.7-2.7,1-3.5-0.7c-0.5-1-0.9-2-1.5-2.9
			c-3.3-4.3-3.7-7.8,2.6-9.5c0.7-0.2,1.2-1.2,1.8-1.7c0.5-3,6.3-3.7,3.8-8c-2.9-4.9-5.9-9.9-11.3-12.6c-3-1.5-4.8,1-6.6,2.9
			c-3.5,3.5-4.2,9.2-9.1,11.7c-4,3-3,8.4-5.9,12.1c-2.5-0.6-2.3-4.2-5-4.6c-2.8,0-3.5-2.4-4.8-4c-3-3.7-6-7.6-9.4-11
			c-3.6-3.6-7.5-5.9-12.8-4.9c-5.4,5.4-5.9,12.8-7.7,19.6c-0.7,2.5,2.2,3.5,4.4,4.1c3.9,1.1,7.8,2,11.6,3.7
			c-5.7-0.4-10.7,0.7-15.5,3.8c-2.6,1.7-5.8-1-8.2-3.1c0.1-3.1,4.4-5.9-0.7-9.5c-2.4-1.7,1.9-4.6,3.9-7.3c-6.1-3.5-9.6-8.5-6.4-15.5
			c3.3-7.2,8.9-11.1,17.4-10.2c1.7,0.2,3.8,0.3,2.9-2.6c-2.2-8,2.8-6.3,7.3-5.2c1.3,0.3,2.5,0.8,4.3,1.4c0.3-4.9-0.8-9.9,3.6-13.3
			c3.2-2.5,6.9-3.9,11-3.9c10.5-0.2,16.6,5.8,19.7,19.2c8.4-2.6,9-2.2,11.6,7.3c4.8-2.6,9.3-2.7,13.3,1.5c3.9,4.2,3.8,8.7,0.9,13.3
			c-0.6,0.9-2.4,2.3-0.1,3c5,1.6,4.4,4.2,1.7,7.3c-0.9,1.1-1.4,1.7,0.2,3C1236.6,619.5,1236.5,620.5,1230.5,625.6z"/>
		<path fill="#FF9BD7" d="M1193.2,610.3c2.7-4.5,4.8-9.3,8.2-13.3c4.6-5.5,6.4-5.7,11.7-0.6c2.2,2.1,4.2,4.6,6,7.1
			c5.8,8,5.8,8-2.7,12.8c-4,0.4-7.4,2.7-10.8,4.5c-5.2,2.8-10.3,5.1-16.5,1.5C1190.4,618.5,1191.8,614.4,1193.2,610.3z"/>
		<path fill="#FF9BD7" d="M1154.2,595.3c2.7-3,5.3-2.9,8.6-0.6c7.9,5.4,12.9,13.1,18.3,20.6c0.2,1.1,0.5,2.1,0.8,3.9
			c-6.5-3.4-12.1-4.7-18.8,0.1c-3.2,2.2-9.8-0.6-14.3-3c-1.8-1-0.9-3.2-0.4-4.8C1150.3,606,1152.3,600.7,1154.2,595.3z"/>
		<path fill="#F7B7A2" d="M1145.2,818.7c48.5,16.2,100.7-9.3,116.6-57c15.9-47.6-10.6-99.4-59.1-115.6
			c-48.5-16.2-100.7,9.3-116.6,57C1070.2,750.8,1096.7,802.5,1145.2,818.7z"/>
		<path fill="#FF9BD7" d="M1086.1,703.3c-15.9,47.7,10.6,99.4,59.1,115.5c48.5,16.2,100.7-9.4,116.6-57L1086.1,703.3z"/>
		<g opacity="0.2">
			<path fill="#FFFFFF" d="M1259.3,768.4c-15.3-2.9-30.2-6.8-45.1-10.9c-14.8-4.2-29.6-8.7-44.2-13.6c-14.6-4.9-29.1-10.1-43.5-15.6
				c-14.4-5.6-28.6-11.5-42.6-18.3l0.2-0.5l22,7.2l22,7.3l43.9,14.5l43.8,14.7l21.9,7.4l21.9,7.4L1259.3,768.4L1259.3,768.4z"/>
		</g>
		<path opacity="0.15" fill="#FFFFFF" enable-background="new    " d="M1129.8,714.8c15.8-47.4,48.2-79.4,72.4-71.7
			c-48.3-15.7-100.1,9.8-115.9,57.2s10.3,98.9,58.4,115.3C1120.6,807.2,1114,762.2,1129.8,714.8z"/>
		<g id="heroEye1">
			<path fill="#1A1A1A" d="M1156.4,676.1c2.2,0.7,4.6-0.4,5.3-2.6c0.7-2.2-0.5-4.5-2.7-5.3s-4.6,0.4-5.3,2.6
				C1153,672.9,1154.2,675.3,1156.4,676.1z"/>
			<path fill="#1A1A1A" d="M1219.9,697.2c2.2,0.7,4.6-0.4,5.3-2.6c0.7-2.2-0.5-4.5-2.7-5.3c-2.2-0.7-4.6,0.4-5.3,2.6
				S1217.7,696.5,1219.9,697.2z"/>
		</g>
		<g id="heroBrow1">
			<path fill="#643620" d="M1221.1,680.2c1.7-1.7,4.2-1.1,6.7-0.1c3.5,1.5,6.2,3.7,5.3,6.1c-0.8,1.9-3.3-0.2-4.9-0.9
				C1225.4,684,1221,683.5,1221.1,680.2z"/>
			<path fill="#5F321B" d="M1163.8,660.2c-1.9,2.7-6.4,0-9.6-0.1c-1.9-0.1-3.6-1.3-2.5-2.5c1.7-2.1,5.2-1.9,8.8-1
				C1162.6,657.1,1164,658.2,1163.8,660.2z"/>
		</g>
		<path fill="#5C342E" d="M1276.6,691.5c-0.8-1.9-2.1-2.7-0.2-5.6c5-7.6-2-12.5-4.3-13.7c-1.9-1-3.3-2-2.1-4.6
			c4.1-8.9,11.7-7.9-1-16.2c-2.7-1.7,4.8-8.5,1.4-10.4c-3.5-1.9-6.9-10.2-9.7-8.3c-1.4,1-3.2,4-4.7,1.3c-3.8-6.9-3.3-5-10.5,0
			c4.3-8.8-3-9.1-4.2-14.2c-4.8-2.4-5.1,3.9-9.5,5.5c-3,1.1-2.6,6-5.1,0.6c-1.8-3.9-14.5-5-8.7-7.2c1.6-0.6,3.8-1.8,2.4-4.5
			c-6.5-2.9-11.3,2.1-16.6,4c-5.1,1.8-9.9,4.3-15.3,1.2c-0.1-5.1,6.5-9.2,2-14.8c-6.7,2.9-5.9,10.4-8.6,14.5c-0.2-2.4-0.6-5.2-5-5.1
			c-1.1,0.9-0.4,2.2-0.8,3.3c-6.9-7.4-14.3-5.1-22.5-2.1c-4.7,1.7-10.6,0.2-14.2-3.3c-3.4-3.2,0.3-7.4,1.3-11.1
			c1.4-4.8-5.6-3.1-7.1,0.6c-3.2,8.1-3.9,12.3-0.9,15.2c-11.6-1.7-15.2,9.2-9,18.7c2.4,3.6-9.7-1.5-13.2,0.8c-7.5,5-9.8,15.4-4,18.8
			c6.3,3.7-10.7,0.2-12.7,4.7c-3.8,8.7-2.1,12.7,5.6,14.8c3.1,0,7.8-6.4,11-5c8.1,3.1,13.5,2.3,16.6-4.6c3.3-7.2,9.7-3,15.4-7.6
			c0.9-0.7,1.8-1.6,2.7-2.5c1,0.6,2.1,1.2,3.4,1.5c3.8,1,6.4-3.2,9.1-6.4c2.5,3.6,4.9,7.9,9.2,2c1-1.4,2.4-0.2,3.4,0.8
			c3.3,3.7,7,3.6,10.8,1.1c2-1.3,3.7-0.6,5.7-0.2c3,0.8,6.2,0.4,7.8-2.2c2.3-3.7,4.7-3.6,7.1-2.5c1.2,0.9,2.4,1.9,3.8,2.5
			c2.5,1.1,3.4,2.7,3.6,4.8c-0.3,1.1-0.9,2.4-1.6,3.7c-2.4,4.5-0.3,7.5,4.1,9.3c1.1,0.5,2.3,0.8,3.4,1.1c5.1,3.6,12.5,5.7,18.7,6.4
			c2.5,0.3,5.1,0.5,7.6,0.1c3.8-0.6-4.8,6.3-4.9,10.7c-0.1,5.6,7.1,4.7,11.9,8.2c3.2,2.3,1.1,5.1,0,7.7c-1.6,4-2.6,9.1,1.1,10.9
			c5.5,2.8,7.6,3,6.5,15.8c2.5,2.5,5.4,3.8,9,3.6c4.3-0.2,0.4-12.9,4.7-13.1c4.9-0.8,5.4-2,5.6-6.5c0.1-2-0.8-3.8,2.5-5.2
			C1286.8,705,1280.6,700.8,1276.6,691.5z M1142.9,620.9c-3,0.3-1.5,0.3-0.9-0.3C1142.3,620.7,1142.6,620.8,1142.9,620.9z"/>
		<defs>
			<filter id="Adobe_OpacityMaskFilter_1_" filterUnits="userSpaceOnUse" x="1096.5" y="738.6" width="34.9" height="54.8">
				<feColorMatrix  type="matrix" values="1 0 0 0 0  0 1 0 0 0  0 0 1 0 0  0 0 0 1 0"/>
			</filter>
		</defs>
		<mask maskUnits="userSpaceOnUse" x="1096.5" y="738.6" width="34.9" height="54.8" id="mask1_132_2956_2_">
			<path fill="#FFFFFF" filter="url(#Adobe_OpacityMaskFilter_1_)" d="M1086.1,702.8c-15.9,47.6,10.6,99.3,59.1,115.5
				s100.7-9.3,116.5-56.9L1086.1,702.8z"/>
		</mask>
		<g mask="url(#mask1_132_2956_2_)">
			<path opacity="0.2" fill="#020203" enable-background="new    " d="M1102.4,777c0,0,26.4-40.6,28.9-38.3s-32.3,54.7-32.3,54.7
				l-2.5-7.1L1102.4,777z"/>
		</g>
		<defs>
			<filter id="Adobe_OpacityMaskFilter_2_" filterUnits="userSpaceOnUse" x="1125.1" y="747.9" width="32.5" height="68.7">
				<feColorMatrix  type="matrix" values="1 0 0 0 0  0 1 0 0 0  0 0 1 0 0  0 0 0 1 0"/>
			</filter>
		</defs>
		<mask maskUnits="userSpaceOnUse" x="1125.1" y="747.9" width="32.5" height="68.7" id="mask2_132_2956_2_">
			<path fill="#FFFFFF" filter="url(#Adobe_OpacityMaskFilter_2_)" d="M1086.1,702.8c-15.9,47.6,10.6,99.3,59.1,115.5
				s100.7-9.3,116.5-56.9L1086.1,702.8z"/>
		</mask>
		<g mask="url(#mask2_132_2956_2_)">
			<path opacity="0.2" fill="#020203" enable-background="new    " d="M1130.2,796c0,0,22.4-50.9,26.9-48s-25.6,68.6-25.6,68.6
				l-6.4-9L1130.2,796z"/>
		</g>
		<defs>
			<filter id="Adobe_OpacityMaskFilter_3_" filterUnits="userSpaceOnUse" x="1201.9" y="763.4" width="9.4" height="63.1">
				<feColorMatrix  type="matrix" values="1 0 0 0 0  0 1 0 0 0  0 0 1 0 0  0 0 0 1 0"/>
			</filter>
		</defs>
		<mask maskUnits="userSpaceOnUse" x="1201.9" y="763.4" width="9.4" height="63.1" id="mask3_132_2956_2_">
			<path fill="#FFFFFF" filter="url(#Adobe_OpacityMaskFilter_3_)" d="M1086.1,702.8c-15.9,47.6,10.6,99.3,59.1,115.5
				s100.7-9.3,116.5-56.9L1086.1,702.8z"/>
		</mask>
		<g mask="url(#mask3_132_2956_2_)">
			<path opacity="0.2" fill="#020203" enable-background="new    " d="M1210.2,811.4c0,0,3-48.3-1.1-48s-7.2,63.1-7.2,63.1l7.6-4.1
				L1210.2,811.4z"/>
		</g>
		<defs>
			<filter id="Adobe_OpacityMaskFilter_4_" filterUnits="userSpaceOnUse" x="1164.8" y="756.5" width="20.9" height="70.4">
				<feColorMatrix  type="matrix" values="1 0 0 0 0  0 1 0 0 0  0 0 1 0 0  0 0 0 1 0"/>
			</filter>
		</defs>
		<mask maskUnits="userSpaceOnUse" x="1164.8" y="756.5" width="20.9" height="70.4" id="mask4_132_2956_2_">
			<path fill="#FFFFFF" filter="url(#Adobe_OpacityMaskFilter_4_)" d="M1086.1,702.8c-15.9,47.6,10.6,99.3,59.1,115.5
				s100.7-9.3,116.5-56.9L1086.1,702.8z"/>
		</mask>
		<g mask="url(#mask4_132_2956_2_)">
			<path opacity="0.2" fill="#020203" enable-background="new    " d="M1177.2,811c0,0,12.2-54.3,7.4-54.5
				c-4.8-0.2-19.8,70.4-19.8,70.4l9.6-3.5L1177.2,811z"/>
		</g>
		<defs>
			<filter id="Adobe_OpacityMaskFilter_5_" filterUnits="userSpaceOnUse" x="1230" y="765.9" width="15.1" height="63">
				<feColorMatrix  type="matrix" values="1 0 0 0 0  0 1 0 0 0  0 0 1 0 0  0 0 0 1 0"/>
			</filter>
		</defs>
		<mask maskUnits="userSpaceOnUse" x="1230" y="765.9" width="15.1" height="63" id="mask5_132_2956_2_">
			<path fill="#FFFFFF" filter="url(#Adobe_OpacityMaskFilter_5_)" d="M1086.1,702.8c-15.9,47.6,10.6,99.3,59.1,115.5
				s100.7-9.3,116.5-56.9L1086.1,702.8z"/>
		</mask>
		<g mask="url(#mask5_132_2956_2_)">
			<path opacity="0.2" fill="#020203" enable-background="new    " d="M1243.1,812.3c0,0-9.3-47.7-12.6-46.4c-3.3,1.2,9.4,63,9.4,63
				l5.2-5.7L1243.1,812.3z"/>
		</g>
		<defs>
			<filter id="Adobe_OpacityMaskFilter_6_" filterUnits="userSpaceOnUse" x="1062.8" y="726.2" width="46.2" height="44.9">
				<feColorMatrix  type="matrix" values="1 0 0 0 0  0 1 0 0 0  0 0 1 0 0  0 0 0 1 0"/>
			</filter>
		</defs>
		<mask maskUnits="userSpaceOnUse" x="1062.8" y="726.2" width="46.2" height="44.9" id="mask6_132_2956_2_">
			<path fill="#FFFFFF" filter="url(#Adobe_OpacityMaskFilter_6_)" d="M1086.1,702.8c-15.9,47.6,10.6,99.3,59.1,115.5
				s100.7-9.3,116.5-56.9L1086.1,702.8z"/>
		</mask>
		<g mask="url(#mask6_132_2956_2_)">
			<path opacity="0.2" fill="#020203" enable-background="new    " d="M1071,756c0,0,36-32.6,37.9-29.6c1.9,2.9-45.3,44.7-45.3,44.7
				l-0.8-7.7L1071,756z"/>
		</g>
		<path fill="#FFFFFF" d="M1128.7,780.1c-20.7-8.1-29.5,1.6-30.8,3.5c11.6,16.8,28,29,47.4,35.5l5.5-16.5
			C1150.8,802.6,1151.4,788.9,1128.7,780.1z"/>
		<path opacity="0.2" fill="#020203" enable-background="new    " d="M1150.3,804c0.1-0.2,1.7-6.8-5.7-14c1.2,3.2,0.1,6.5,0,6.6v0.1
			c-2.3,6.8-10.1,10.1-16.6,6.8c-10.9-5.5-20.5-13-28.7-22.6c12.1,17,27.9,28.7,47.1,35.1C1146.3,816.2,1148.9,808.5,1150.3,804z"/>
		<path fill="#FFFFFF" d="M1182,797.8c21.5,6,22.6,19,22.6,21.3c-19.4,6.4-39.8,6.4-59.2-0.1l5.5-16.5
			C1150.8,802.6,1158.6,791.3,1182,797.8z"/>
		<path opacity="0.2" fill="#020203" enable-background="new    " d="M1150.3,804c0.1-0.2,1.2-3.4,5.1-5.2c3.5,12.5,5.9,17,13,18.3
			c7.4,1.3,14.4,0.7,21.7-1.2c6.9-1.8,7.6-8.1,8.4-9.3c3.4,3.2,5.2,7.1,5.7,9.9c-20.8,7.1-38.8,6-58-0.4
			C1146.2,816.2,1148.8,808.5,1150.3,804z"/>
		<path opacity="0.2" fill="#FFFFFF" enable-background="new    " d="M1181.1,805.6c6.9,1.3,12.2,1,16.4,0.1
			c-3.4-2.9-8.3-5.8-15.6-7.8c-9.4-2.6-16.2-2.4-21-1.1C1164.6,800.1,1170.9,803.7,1181.1,805.6z"/>
		<path opacity="0.2" fill="#FFFFFF" enable-background="new    " d="M1124.9,786.9c-6.3-3.1-10.4-6.5-13.1-9.8
			c4.4-0.3,10.1,0.3,17.2,3.1c9,3.5,14.4,7.9,17.5,11.7C1141.4,792.4,1134.3,791.5,1124.9,786.9z"/>
		<g id="heroMoulth1">
			<path fill="#1A1A1A" d="M1157.6,691.6c0,0,3.1,2,7.9,0.8c0,1.9-2.8,1.6-2.6,2.4c-0.7,4.4,21.9,20.3,41.4,11.5
				c0.4-1.2,2.7-2.6,2.7-2.6s-1.3,4.4,2.1,7.5c-3.3-0.1-4.1-2.1-4.1-2.1s-6.5,6-13.8,10.8c-6.7,4.4-20.8,4.5-25.5-5.5
				c-4.8-10.3-6.2-19.2-6.2-19.2S1156.5,693.7,1157.6,691.6z"/>
			<path fill="#FFFFFF" d="M1179.3,710.6c12.5,2.5,17.9,0.8,21.7-3.5c-6.8,0.2-14.3-1.4-20.2-2.8c-5.7-1.4-11.6-3-16-6.5
				C1166,702.2,1169.5,708.7,1179.3,710.6z"/>
			<path fill="#EE7275" d="M1168,718.2c2.1,2.4,4.9,4.1,8.6,4.5c4.3,0.6,7.5,0.8,10.7-0.7C1178.2,716.9,1171.7,716.8,1168,718.2z"/>
			<path fill="#1A1A1A" d="M1200.6,707.3c-3.8,4.3-9.2,6-21.7,3.7c-9.8-1.9-13.3-8.4-14.5-12.7c-1.6-1.2-3-2.6-4.2-4.4
				c2,7.4,3,17.9,8.4,23.9c3.6-1.3,10.6-2.4,19.7,2.7c6.4-3.1,11.2-9.3,17.4-13.7C1204,707.1,1202.3,707.2,1200.6,707.3z"/>
		</g>
	</g>
</g>
<path fill="#022433" stroke="#022433" d="M1237.2,326.4v0.1l0,0l0,0l-0.8,0.7l1.1,0.1c1.3,0.1,2.2,1,2.7,2.3c0.4,1.3,0.4,2.8-0.2,4
	l0,0l0,0c-0.5,1.3-1.5,1.9-2.7,1.8c-1.1,0-2.4-0.7-3.2-1.8c-0.7-1.1-0.8-2-0.6-3v-0.1v-0.1c-0.1-0.8,0.2-1.5,0.9-2.2l0,0v-0.1
	c0.6-1,1.4-1.9,2.2-2.6c0.4-0.3,1,0.2,0.6,0.6V326.4z M1238.1,333.7L1238.1,333.7L1238.1,333.7c0.3-0.3,0.5-0.6,0.5-0.9
	c0.1-0.3,0.1-0.7,0.1-1.1s-0.1-0.7-0.2-1.1c-0.1-0.3-0.3-0.6-0.5-0.9c-0.5-0.4-1.2-0.2-1.6,0.1c-0.4,0.3-0.8,0.9-0.5,1.5
	c0.1,0.2,0,0.5-0.2,0.6l-0.3,0.3l0.2,0.3c0.2,0.4,0.5,0.8,0.9,1c0.2,0.1,0.4,0.2,0.7,0.2C1237.6,333.9,1237.9,333.8,1238.1,333.7z"
	/>
<path fill="none" stroke="#022433" stroke-width="3" stroke-linecap="round" stroke-linejoin="round" d="M1211.4,358.5
	c4.4,9.1,18.8,28.1,41.7,31.6c22.9,3.5,38.9-16,43.9-26.2"/>
<path fill="#022433" stroke="#022433" d="M1273.9,328.8l0.1,0.2l0.2,0.1c1.4,0.4,2.6,1.6,2.8,3.1c0.2,1.7-0.7,3-2.1,3.6
	s-3.2,0.5-4.4-0.5c-1.3-1.1-1.4-2.8-0.8-4.2c0.6-1.4,1.9-2.5,3.5-2.5c0.2,0,0.3,0,0.4,0.1C1273.8,328.6,1273.9,328.7,1273.9,328.8z"
	/>
<g id="heroSun">
	<path fill="none" stroke="#022433" stroke-width="3" stroke-linecap="round" stroke-linejoin="round" d="M1270.4,283
		c0.6-0.9,6.5-19.7,22.2-22.9"/>
	<path fill="none" stroke="#022433" stroke-width="3" stroke-linecap="round" stroke-linejoin="round" d="M1306.6,311.4
		c0.9-0.6,13.5-15.7,29.3-12.8"/>
	<path fill="none" stroke="#022433" stroke-width="3" stroke-linecap="round" stroke-linejoin="round" d="M1316.2,367.5
		c1.1,0.3,20.7-1.7,29.8,11.4"/>
	<path fill="none" stroke="#022433" stroke-width="3" stroke-linecap="round" stroke-linejoin="round" d="M1292.9,402.2
		c0.7,0.9,16.4,12.8,14,28.6"/>
	<path fill="none" stroke="#022433" stroke-width="3" stroke-linecap="round" stroke-linejoin="round" d="M1185.7,375
		c-1,0.2-18,10.5-31.8,2.4"/>
	<path fill="none" stroke="#022433" stroke-width="3" stroke-linecap="round" stroke-linejoin="round" d="M1184.8,323.5
		c-0.9-0.6-19.9-6.2-23.4-21.8"/>
	<path fill="none" stroke="#022433" stroke-width="3" stroke-linecap="round" stroke-linejoin="round" d="M1226.8,287.1
		c-0.2-1-10.5-18-2.5-31.8"/>
	<path fill="none" stroke="#022433" stroke-width="3" stroke-linecap="round" stroke-linejoin="round" d="M1217.8,410.6
		c-0.8,0.8-10.2,18.1-26.2,18.2"/>
	<path fill="none" stroke="#022433" stroke-width="3" stroke-linecap="round" stroke-linejoin="round" d="M1250.1,415.9
		c-0.3,1.1,2,20.7-11,30"/>
</g>
<path fill="none" stroke="#022433" stroke-width="3" d="M1318.5,351c0,22.2-11.2,41.8-28.3,53.4c-10.3,7-22.8,11.1-36.2,11.1
	c-22.7,0-43.8-7.1-55.2-24.3c-6.7-10.1-9.2-26.8-9.2-40.2c0-35.6,28.9-64.5,64.5-64.5c17.7,0,36.9,5.4,48.4,16.6
	C1314.4,314.6,1318.5,332.6,1318.5,351z"/>
<path display="none" fill="#022433" d="M538.3,277.9h16l5.4,56.5l6.7-53.9h12.1l6.4,57l11-57.3l15.4,2l-13.9,70.3h-20.9l-4-44.1
	l-6.7,42.7h-19L538.3,277.9z M611.3,293.1h13.9L627,315c1.9-0.1,3.8-0.3,5.6-0.3c1.9-0.1,3.8-0.3,5.8-0.4l-2.2-22.4l13.3-1.9
	l4.6,59.4l-14.1,1.9l-2.5-25.4c-2.1,0.1-4.1,0.4-5.9,0.7c-1.8,0.2-3.8,0.4-5.9,0.5l1.8,24.8l-11.5,1.8L611.3,293.1z M656.7,294.1
	l38.9-4.5l0.9,13.5l-25.6,3c0.2,1.9,0.4,3.8,0.7,5.6c0.3,1.8,0.5,3.6,0.8,5.5l16.1-1.9l0.9,11.9l-19.1,2l1,10.1l27.6-3.3l0.8,12.6
	l-38.1,4.5L656.7,294.1z M703.7,292.3c6.6,0.4,12.6,1.1,17.9,2.3c5.4,1.2,10,2.8,13.9,4.7c3.8,1.9,6.7,4.2,8.8,6.8
	c2.1,2.6,3.1,5.6,3.1,8.8c0,7.6-5.4,13.8-16.3,18.4c1,3.6,2.6,6.2,4.6,7.7c2.1,1.5,5.2,2.3,9.3,2.3c0.4,0,0.9,0,1.5-0.1
	c0.7-0.1,1.6-0.3,2.6-0.4l-1.9,12c-5.1-0.3-9.2-0.8-12.5-1.4s-6-1.6-8.2-3c-2.1-1.3-3.8-3-5.2-5.1c-1.2-2.1-2.3-4.8-3.3-7.9
	l-0.9,0.2c-0.6,0.1-1.1,0.3-1.5,0.3c-0.4,0.1-0.9,0.2-1.5,0.3c-0.1,2.3-0.2,4.7-0.3,7.2c-0.1,2.4-0.1,4.7-0.2,6.9H701L703.7,292.3z
	 M712.8,325.6c5.7-0.4,10.2-1.6,13.4-3.6c3.3-2.1,5-4.5,5-7.5c0-3.1-1.5-5.5-4.6-7.2c-3.1-1.8-7.4-2.8-12.9-3.2
	c-0.1,3.7-0.3,7.3-0.4,10.8C713.1,318.3,713,321.9,712.8,325.6z M749.8,294.1l38.9-4.5l0.9,13.5l-25.6,3c0.2,1.9,0.4,3.8,0.7,5.6
	c0.3,1.8,0.6,3.6,0.8,5.5l16.1-1.9l0.9,11.9l-19.1,2l1,10.1L792,336l0.8,12.6l-38.1,4.5L749.8,294.1z M828.7,277.2h13.5l5.1,58.6
	l26.8-3.2l1.1,13.8l-39.4,4.6L828.7,277.2z M875.6,291.6l13,1.2v59.5l-13-1.3V291.6z M907.4,305.4l-14.2-1.4v-13l43.5,2.9l-0.7,12.2
	h-18.2v45.8h-10.5v-46.5H907.4z M953.2,305.4L939,304v-13l43.5,2.9l-0.7,12.2h-18.1v45.8h-10.5V305.4z M982.8,291.6h12.3l3.9,46.9
	l21.7-2.6l0.9,12.3l-32.8,4L982.8,291.6z M1019.2,294.1l38.9-4.5l0.9,13.5l-25.6,3c0.2,1.9,0.4,3.8,0.7,5.6c0.3,1.8,0.6,3.6,0.8,5.5
	l16.1-1.9l0.9,11.9l-19.1,2l1,10.1l27.6-3.3l0.8,12.6l-38.1,4.5L1019.2,294.1z M527.2,391.1h15.6l2.2,27.6l16.1-1.3l-2.6-28.1l15-2
	l5.6,72.5l-16.1,2.1l-3.1-31.6l-16.4,1.4l2.1,31.1l-12.8,1.9L527.2,391.1z M579.8,406.1l38.9-4.5l0.9,13.5l-25.6,3
	c0.2,1.9,0.4,3.8,0.7,5.6c0.3,1.8,0.5,3.6,0.8,5.5l16.1-1.9l0.9,11.9l-19.1,2l1,10.1L622,448l0.8,12.6l-38.1,4.5L579.8,406.1z
	 M633.1,404h12.7l23.3,57.1l-14.2,1.9l-4-11.5l-13.1,2.9l-1.2,9.6h-14.2L633.1,404z M639.1,442.5c1.5-0.3,3-0.5,4.3-0.7
	c1.4-0.2,2.9-0.5,4.5-0.9l-6.4-17.9c-0.4,3.4-0.8,6.6-1.2,9.7S639.5,439.1,639.1,442.5z M670.6,404.3c6.6,0.4,12.6,1.1,17.9,2.3
	c5.4,1.2,10,2.8,13.9,4.7c3.8,1.9,6.7,4.2,8.8,6.8c2.1,2.6,3.1,5.6,3.1,8.8c0,7.6-5.4,13.8-16.3,18.4c1,3.6,2.6,6.2,4.6,7.7
	c2.1,1.5,5.2,2.3,9.3,2.3c0.4,0,0.9,0,1.5-0.1c0.7-0.1,1.6-0.3,2.6-0.4l-1.9,12c-5.1-0.3-9.2-0.8-12.5-1.4s-6-1.6-8.2-3
	c-2.1-1.3-3.8-3-5.2-5.1c-1.2-2.1-2.3-4.8-3.3-7.9l-0.9,0.2c-0.6,0.1-1.1,0.3-1.5,0.3c-0.4,0.1-0.9,0.2-1.5,0.3
	c-0.1,2.3-0.2,4.7-0.3,7.2c-0.1,2.4-0.1,4.7-0.2,6.9h-12.7L670.6,404.3z M679.8,437.6c5.7-0.4,10.2-1.6,13.4-3.6
	c3.3-2.1,5-4.5,5-7.5c0-3.1-1.5-5.5-4.6-7.2c-3.1-1.8-7.4-2.8-12.9-3.2c-0.1,3.7-0.3,7.3-0.4,10.8
	C680,430.3,679.9,433.9,679.8,437.6z M731,417.4l-14.2-1.4v-13l43.5,2.9l-0.7,12.2h-18.2v45.8H731V417.4z M767.9,452.7
	c0.7,0.1,1.5,0.1,2.3,0.2c0.8,0,1.4,0,1.9,0c9.2,0,16-0.7,20.1-2.2c4.2-1.5,6.3-3.5,6.3-6c0-0.7-0.1-1.3-0.4-1.9
	c-0.2-0.6-0.7-1.1-1.3-1.5c-0.7-0.5-1.6-0.9-2.9-1.2c-1.2-0.3-2.9-0.5-4.8-0.6c-3.5,0-6.5-0.1-8.9-0.3c-2.3-0.3-3.9-0.6-4.7-0.8h0.1
	c-4-1-6.9-2.8-8.9-5.4c-1.9-2.6-2.9-5.8-2.9-9.6c0-2.8,0.9-5.4,2.8-7.7c1.9-2.3,4.7-4.4,8.2-6.2c3.6-1.8,8-3.2,13.1-4.4
	c5.2-1.2,11.1-2,17.7-2.5l-0.5,14.5c-4.3,0-8.1,0.2-11.5,0.5s-6.4,0.8-8.9,1.4c-2.4,0.6-4.3,1.3-5.7,2.2c-1.3,0.8-2,1.7-2,2.8
	c0,0.7,0.1,1.4,0.4,2.1c0.3,0.7,0.8,1.3,1.5,1.9c0.7,0.5,1.8,1,3.1,1.4s3,0.6,5,0.7c4,0.3,7.1,0.5,9.4,0.7c2.3,0.1,3.7,0.3,4.3,0.4
	c3.8,0.9,6.7,2.6,8.8,5.1c2.1,2.4,3.1,5.4,3.1,8.9c0,2.9-1.1,5.5-3.2,7.9c-2.1,2.3-5.1,4.4-8.9,6.2c-3.8,1.8-8.4,3.2-13.6,4.2
	c-5.3,1.1-11.1,1.8-17.5,2L767.9,452.7z M870.8,448.8c-15-8.8-22.4-18.3-22.4-28.5c0-4.8,1.5-9.1,4.4-12.9s7.1-7,12.5-9.6
	c5.5-2.6,12.1-4.6,19.8-5.9c7.7-1.4,16.4-2.1,26-2.1l-2,16.9c-3.2-0.6-6.3-1-9.6-1.3c-3.2-0.4-6.4-0.5-9.7-0.5
	c-17.9,0-26.8,5.2-26.8,15.5c0,4.8,2.8,9.4,8.4,13.6c5.6,4.3,13.4,7.7,23.4,10.4l1.2-10.7l-9.7-1.8v-11.7l23.8,3.4l-4.3,39.2
	C893.1,459.8,881.4,455,870.8,448.8z M915.4,404.3c6.6,0.4,12.6,1.1,17.9,2.3c5.4,1.2,10,2.8,13.9,4.7c3.8,1.9,6.7,4.2,8.8,6.8
	c2.1,2.6,3.1,5.6,3.1,8.8c0,7.6-5.4,13.8-16.3,18.4c1,3.6,2.6,6.2,4.6,7.7c2.1,1.5,5.2,2.3,9.3,2.3c0.4,0,0.9,0,1.5-0.1
	c0.7-0.1,1.6-0.3,2.6-0.4l-1.9,12c-5.1-0.3-9.2-0.8-12.5-1.4s-6-1.6-8.2-3c-2.1-1.3-3.9-3-5.2-5.1c-1.2-2.1-2.3-4.8-3.3-7.9
	l-0.9,0.2c-0.6,0.1-1.1,0.3-1.5,0.3c-0.4,0.1-0.9,0.2-1.5,0.3c-0.1,2.3-0.2,4.7-0.3,7.2c-0.1,2.4-0.1,4.7-0.2,6.9h-12.6L915.4,404.3
	z M924.6,437.6c5.7-0.4,10.2-1.6,13.4-3.6c3.3-2.1,5-4.5,5-7.5c0-3.1-1.5-5.5-4.6-7.2c-3.1-1.8-7.4-2.8-12.9-3.2
	c-0.1,3.7-0.3,7.3-0.4,10.8C924.9,430.3,924.7,433.9,924.6,437.6z M962.8,434.5c0-4.2,0.7-8.1,2-11.8c1.4-3.7,3.3-6.9,5.6-9.7
	c2.4-2.8,5.2-5,8.4-6.6s6.7-2.4,10.5-2.4c3.7,0,7.1,0.8,10.3,2.3s6,3.6,8.5,6.3c2.4,2.6,4.3,5.8,5.7,9.5c1.4,3.6,2.1,7.5,2.1,11.7
	s-0.7,8.1-2.1,11.8c-1.3,3.7-3.2,6.9-5.6,9.7c-2.4,2.7-5.1,4.9-8.4,6.5c-3.2,1.5-6.7,2.3-10.3,2.3c-3.7,0-7.2-0.7-10.4-2.2
	s-6.1-3.6-8.5-6.3c-2.4-2.6-4.3-5.8-5.7-9.3C963.4,442.6,962.8,438.7,962.8,434.5z M988.9,450.6c2,0,3.8-0.5,5.5-1.4
	c1.7-1,3.1-2.2,4.3-3.9c1.2-1.6,2.2-3.5,2.9-5.6s1.1-4.4,1.1-6.7c0-2.2-0.3-4.3-1-6.3s-1.6-3.7-2.7-5.2c-1.2-1.5-2.6-2.7-4.3-3.5
	c-1.6-0.9-3.4-1.3-5.4-1.3s-3.8,0.5-5.5,1.4c-1.7,1-3.2,2.2-4.5,3.9c-1.2,1.5-2.2,3.4-3,5.5c-0.7,2.1-1,4.4-1,6.8
	c0,2.3,0.3,4.4,1,6.4s1.6,3.7,2.8,5.2s2.6,2.6,4.3,3.5C985,450.2,986.9,450.6,988.9,450.6z M1017,404.4h14.2l3.7,39.6l4.7-37.5h10.8
	l4.8,41.6c1.3-7.1,2.6-14.1,4-20.9c1.4-6.9,2.8-13.9,4.1-21l13.6,1.8l-11.3,57.4h-17.9l-2.8-30.1c-0.8,4.8-1.6,9.7-2.4,14.6
	c-0.7,4.8-1.5,9.6-2.2,14.4H1024L1017,404.4z M734.9,503c5.3-0.4,10.4-0.7,15.5-0.7c6.4,0,11.8,0.4,16.2,1.2c4.4,0.8,8,2,10.7,3.5
	c2.8,1.5,4.8,3.5,6,5.8s1.9,4.9,1.9,7.8c0,1.9-0.5,3.7-1.4,5.3c-0.9,1.5-2.1,3-3.7,4.3c-1.5,1.2-3.4,2.3-5.5,3.3s-4.3,1.7-6.6,2.3
	c4.1,0.1,7.8,0.7,11.1,1.5c3.4,0.8,6.2,1.9,8.6,3.3c2.4,1.3,4.3,2.9,5.5,4.6c1.3,1.8,2,3.6,2,5.6c0,3.4-1.4,6.5-4.3,9.2
	c-2.8,2.8-6.7,5.2-11.7,7.4c-4.9,2.1-10.8,3.8-17.6,5.3c-6.7,1.5-14.1,2.6-22.1,3.3L734.9,503z M748.1,530.3
	c3.1-0.2,5.9-0.6,8.6-1.1c2.6-0.6,4.9-1.3,6.7-2.2c1.9-0.9,3.4-1.9,4.4-3c1.1-1.2,1.7-2.4,1.7-3.7c0-1.2-0.4-2.3-1.2-3.2
	c-0.7-1-1.8-1.7-3.1-2.3s-2.9-1-4.6-1.2c-1.8-0.3-3.6-0.4-5.6-0.4c-1.8,0-4.4,0.2-7.7,0.7L748.1,530.3z M752,563.2
	c15.3-0.1,22.9-3.6,22.9-10.3c0-5.7-4.7-8.6-14.1-8.6c-1.5,0-3,0.1-4.6,0.2c-1.6,0.1-3.4,0.3-5.3,0.5L752,563.2z M795.9,515.6
	l13,1.2v59.5l-13-1.3V515.6z M832.3,564.5c-12.2-7.1-18.3-14.9-18.3-23.3c0-4,1.2-7.5,3.6-10.6c2.4-3.1,5.9-5.7,10.3-7.8
	c4.5-2.2,9.9-3.8,16.3-5c6.4-1.1,13.5-1.6,21.3-1.6l-1.8,15c-5.4-1.1-10.7-1.6-15.9-1.6c-13.9,0-20.9,3.9-20.9,11.8
	c0,3.7,2.1,7.1,6.4,10.3c4.3,3.2,10.3,5.9,17.8,8c0.1-1.2,0.3-2.4,0.4-3.5c0.1-1.1,0.3-2.3,0.4-3.5l-7.7-1.4v-10.7l20.5,3l-3.6,32.8
	c-5.4-1.4-10.4-3-15.2-5C841.3,569.4,836.7,567.1,832.3,564.5z"/>
<text transform="matrix(1 0 0 1 539.5553 351.5564)" fill="#022433" font-family="'Slapstic'" font-size="110px">Where Little</text>
<text transform="matrix(1 0 0 1 539.5553 463.5564)" fill="#022433" font-family="'Slapstic'" font-size="110px">Hearts Grow </text>
<text transform="matrix(1 0 0 1 739.5553 575.5564)" fill="#022433" font-family="'Slapstic'" font-size="110px">     Big</text>
<path fill="#FFFFFF" stroke="#022433" stroke-width="3" stroke-linejoin="round" d="M207.1,235C207.1,235,207.1,235,207.1,235
	c9.9,3.3,15.5,9.3,19.2,16.7c3.3,6.6,5,14.3,6.8,22.3c0.2,1.1,0.5,2.1,0.7,3.2c0.1,0.6,0.6,1,1.2,1.1c0.6,0.1,1.2-0.2,1.5-0.7
	c3.2-5.3,7.1-7.5,10.7-7.8c3.7-0.3,7.5,1.2,10.7,3.9c3.2,2.7,5.7,6.6,6.8,10.5c1.1,3.9,0.7,7.9-1.6,11.1c-0.5,0.6-0.3,1.5,0.3,2
	c0.6,0.5,1.5,0.4,2.1-0.2c6.5-7.1,16.6-7.5,25.6-3.9c4.4,1.8,8.5,4.5,11.4,7.8c2.9,3.3,4.7,6.9,4.9,10.6v0c0.3,5.5-1.4,9.7-4.1,12.7
	c-2.8,3.1-6.8,5.2-11.5,6.4c-9.3,2.4-20.6,0.8-27.8-3.3c-0.6-0.3-1.3-0.2-1.8,0.2c-0.5,0.5-0.6,1.2-0.3,1.8c2,4,2.6,7.2,2.2,9.9
	c-0.3,2.6-1.5,4.8-3.5,6.5c-3.9,3.6-10.6,5.4-18,5.4c-7.3,0-14.8-1.7-20.1-5c-2.6-1.6-4.6-3.5-5.7-5.7c-1.1-2.1-1.5-4.6-0.8-7.4
	c0,0,0-0.1,0-0.1c0.2-0.8-0.3-1.6-1.1-1.8c-0.8-0.2-1.6,0.3-1.8,1.1c0,0,0,0.1,0,0.1c-1.9,7.5-8.3,13.4-17.3,17.5
	c-9,4.1-20.3,6.2-31.3,6.2c-11.1,0-21.7-2.2-29.4-6.6c-7.7-4.3-12.3-10.7-12-19.3c0,0,0,0,0-0.1c0-0.8-0.6-1.5-1.4-1.5
	c-0.8,0-1.5,0.6-1.6,1.4c0,0,0,0,0,0c0,0.8-0.6,1.9-2.1,3.1c-1.5,1.2-3.6,2.4-6.3,3.5c-5.3,2.2-12.3,3.7-19.3,4
	c-7,0.3-13.6-0.6-18.2-3.2c-2.3-1.3-4-2.9-5.1-5c-1.1-2.1-1.5-4.7-1.1-8.1c0.1-0.5-0.1-1-0.5-1.4c-0.4-0.3-0.9-0.4-1.4-0.3
	c-11.4,3.7-18.1,2.5-21.7-0.3c-3.5-2.8-4.5-7.7-3.4-12.6c1.1-4.9,4.2-9.4,8.1-11.2c1.9-0.9,4-1.2,6.3-0.5c2.3,0.6,4.8,2.2,7.5,5.1
	c0.5,0.6,1.4,0.7,2,0.2c0.6-0.4,0.8-1.3,0.4-2c-2.6-4.5-2.8-7.9-2-10.4c0.8-2.5,2.9-4.3,5.8-5.3c5.8-2,14.3-0.4,19.4,5.6
	c0,0,0,0,0,0c0.5,0.6,1.5,0.7,2.1,0.2c0.6-0.5,0.7-1.5,0.2-2.1c0,0,0,0,0,0c-2.4-2.8-3.6-5.5-3.9-8.1c-0.3-2.6,0.2-5.1,1.4-7.5
	c2.4-4.8,7.6-9.1,14.1-11.9c6.4-2.8,13.9-4,20.6-2.8c6.6,1.1,12.5,4.6,15.9,11c0.4,0.7,1.3,1,2,0.6c0.7-0.4,1-1.3,0.7-2
	c-2.1-4.2-2.1-7.6-1.2-10.1c1-2.5,3.1-4.3,5.6-5.1c5-1.6,11.7,0.5,14,8.7c0.2,0.8,1,1.2,1.8,1.1c0.8-0.2,1.3-0.9,1.1-1.7
	c-1.5-8.4,2.3-15.1,8.4-19.9c6.2-4.9,14.8-7.8,22.2-8.5l0,0C198.6,233,203,233.6,207.1,235z"/>
</svg>
