<svg width="22" height="21" viewBox="0 0 22 21" fill="none" xmlns="http://www.w3.org/2000/svg">
<path d="M11 7.005C9.065 7.005 7.505 8.58 7.505 10.5C7.505 12.42 9.08 13.995 11 13.995C12.92 13.995 14.495 12.42 14.495 10.5C14.495 8.58 12.92 7.005 11 7.005ZM21.5 10.5C21.5 9.045 21.5 7.62 21.425 6.165C21.35 4.485 20.96 2.985 19.73 1.77C18.5 0.54 17.015 0.15 15.335 0.0749999C13.88 -7.45058e-08 12.455 0 11 0C9.545 0 8.12 -7.45058e-08 6.665 0.0749999C4.985 0.15 3.485 0.54 2.27 1.77C1.04 3 0.65 4.485 0.575 6.165C0.5 7.62 0.5 9.045 0.5 10.5C0.5 11.955 0.5 13.38 0.575 14.835C0.65 16.515 1.04 18.015 2.27 19.23C3.5 20.46 4.985 20.85 6.665 20.925C8.12 21 9.545 21 11 21C12.455 21 13.88 21 15.335 20.925C17.015 20.85 18.515 20.46 19.73 19.23C20.96 18 21.35 16.515 21.425 14.835C21.515 13.395 21.5 11.955 21.5 10.5ZM11 15.885C8.015 15.885 5.615 13.485 5.615 10.5C5.615 7.515 8.015 5.115 11 5.115C13.985 5.115 16.385 7.515 16.385 10.5C16.385 13.485 13.985 15.885 11 15.885ZM16.61 6.15C15.92 6.15 15.35 5.595 15.35 4.89C15.35 4.185 15.905 3.63 16.61 3.63C17.315 3.63 17.87 4.185 17.87 4.89C17.8738 5.05431 17.8438 5.21764 17.7819 5.36987C17.7199 5.52211 17.6274 5.66 17.51 5.775C17.395 5.89241 17.2571 5.98495 17.1049 6.04687C16.9526 6.1088 16.7893 6.1388 16.625 6.135L16.61 6.15Z" fill="#022433"/>
</svg>
