<svg width="63" height="51" viewBox="0 0 63 51" fill="none" xmlns="http://www.w3.org/2000/svg">
<path d="M0 1.68026L4.53212 0.898742L5.53926 11.6836L12.2406 0L17.5474 0.586135L9.91644 13.6374L20.259 22.3904L15.5719 25.8291L5.96536 16.2555L6.85629 26.845L2.44037 27.353L0 1.68026Z" fill="#022433"/>
<path d="M20.7347 5.74413L25.3056 6.17397V27.3139L20.7347 26.845V5.74413Z" fill="#022433"/>
<path d="M28.7761 5.93951C31.0228 6.46052 33.1145 7.13783 35.0513 7.97145C36.9881 8.77902 38.6667 9.70381 40.087 10.7458C41.5073 11.7878 42.6178 12.895 43.4183 14.0673C44.2447 15.2395 44.6579 16.4379 44.6579 17.6622C44.6579 18.9908 44.2059 20.2282 43.3021 21.3744C42.3983 22.4946 41.1458 23.4715 39.5447 24.3051C37.9694 25.1387 36.0972 25.816 33.928 26.337C31.7587 26.832 29.4217 27.1316 26.9167 27.2358L28.7761 5.93951ZM31.5263 22.6248C34.0571 22.5206 36.0714 22.0648 37.5692 21.2572C39.0928 20.4496 39.8546 19.3164 39.8546 17.8576C39.8546 16.6072 39.1961 15.461 37.879 14.4189C36.562 13.3769 34.7672 12.5173 32.4947 11.8399L31.5263 22.6248Z" fill="#022433"/>
<path d="M47.3506 23.1719C47.6089 23.198 47.88 23.224 48.1641 23.2501C48.4481 23.2501 48.6676 23.2501 48.8226 23.2501C52.0764 23.2501 54.4393 22.9896 55.9113 22.4685C57.3833 21.9475 58.1193 21.2311 58.1193 20.3194C58.1193 20.0849 58.0676 19.8635 57.9643 19.6551C57.8868 19.4467 57.7319 19.2643 57.4995 19.108C57.2671 18.9257 56.9313 18.7824 56.4923 18.6782C56.0533 18.574 55.4852 18.5089 54.788 18.4828C53.5484 18.4828 52.5025 18.4437 51.6503 18.3656C50.824 18.2614 50.2687 18.1702 49.9847 18.0921H50.0234C48.6289 17.7274 47.583 17.0891 46.8858 16.1774C46.2144 15.2656 45.8787 14.1324 45.8787 12.7778C45.8787 11.7878 46.2015 10.8761 46.8471 10.0425C47.5185 9.20885 48.4869 8.47943 49.7523 7.85422C51.0176 7.22901 52.5542 6.708 54.3619 6.29119C56.1954 5.87438 58.2742 5.5748 60.5984 5.39245L60.4047 10.5504C58.9069 10.5504 57.5511 10.6156 56.3374 10.7458C55.1237 10.85 54.0778 11.0194 53.1998 11.2538C52.3476 11.4622 51.6762 11.7227 51.1855 12.0353C50.7207 12.3219 50.4882 12.6475 50.4882 13.0122C50.4882 13.2727 50.5399 13.5202 50.6432 13.7547C50.7465 13.9891 50.9273 14.2105 51.1855 14.4189C51.4437 14.6013 51.8053 14.7706 52.2701 14.9269C52.7349 15.0572 53.316 15.1353 54.0132 15.1614C55.4077 15.2656 56.5052 15.3437 57.3058 15.3958C58.1063 15.4479 58.6099 15.5 58.8165 15.5521C60.1594 15.8647 61.1923 16.4639 61.9154 17.3496C62.6385 18.2093 63 19.2643 63 20.5148C63 21.5307 62.6255 22.4685 61.8767 23.3282C61.1278 24.1618 60.0819 24.8912 58.739 25.5165C57.3962 26.1417 55.7951 26.6366 53.9358 27.0013C52.0764 27.3921 50.0234 27.6265 47.7767 27.7047L47.3506 23.1719Z" fill="#022433"/>
<path d="M2.79206 37.2191C3.09175 37.2023 3.4081 37.1939 3.74109 37.1939C4.09073 37.1771 4.42373 37.1687 4.74007 37.1687C7.38738 37.1687 9.45194 37.5214 10.9338 38.2269C12.4156 38.9323 13.1565 39.9232 13.1565 41.1997C13.1565 42.241 12.5488 43.2068 11.3334 44.097C10.1346 44.9871 8.39469 45.7262 6.11367 46.314L6.3884 50.7481H3.51632L2.79206 37.2191ZM5.46434 43.3412C8.46129 43.0892 9.95976 42.3838 9.95976 41.2249C9.95976 40.0828 8.81925 39.5117 6.53824 39.5117C6.30515 39.5117 6.08038 39.5201 5.86393 39.5369C5.64748 39.5369 5.42271 39.5537 5.18962 39.5873C5.22292 40.2256 5.26454 40.8554 5.31449 41.4768C5.38109 42.0815 5.43104 42.7029 5.46434 43.3412Z" fill="#022433"/>
<path d="M13.367 36.8916H16.1642L17.0383 47.6241L21.9583 47.0194L22.1581 49.8411L14.7157 50.7481L13.367 36.8916Z" fill="#022433"/>
<path d="M23.8177 36.9924H26.6898L31.9844 50.0678L28.7627 50.4961L27.8636 47.8508L24.8916 48.5058L24.6169 50.6977H21.3952L23.8177 36.9924ZM25.1913 45.8101C25.541 45.7429 25.8656 45.6926 26.1653 45.659C26.4817 45.6086 26.823 45.5414 27.1893 45.4574L25.7408 41.3509C25.6575 42.1235 25.5659 42.8625 25.466 43.5679C25.3661 44.2733 25.2746 45.0207 25.1913 45.8101Z" fill="#022433"/>
<path d="M32.0203 37.1939H35.4418L38.7385 45.2559C38.6386 43.8786 38.522 42.493 38.3888 41.0989C38.2723 39.6881 38.1641 38.3024 38.0642 36.942H41.3109L42.3848 50.345L39.1131 50.6221L35.7415 41.754V50.7733H32.0203V37.1939Z" fill="#022433"/>
<path d="M43.0343 37.4711L51.8753 36.4381L52.0751 39.5369L46.256 40.2172C46.306 40.6538 46.3559 41.0821 46.4059 41.502C46.4725 41.9051 46.5307 42.325 46.5807 42.7617L50.227 42.3334L50.4268 45.0543L46.0812 45.5078L46.306 47.8256L52.5746 47.0698L52.7494 49.9671L44.1082 51L43.0343 37.4711Z" fill="#022433"/>
<path d="M56.2074 40.0408L52.9857 39.7133V36.7656L62.8507 37.4207L62.7008 40.2172H58.58V50.6977H56.2074V40.0408Z" fill="#022433"/>
<path d="M30.9894 29.93C14.4398 29.93 3.16572 34.0068 3.05199 34.0432C3.18966 34.0211 16.9896 31.8541 30.5584 31.8541C44.1273 31.8541 59.4726 34.0211 59.6271 34.0432C59.5074 34.0068 47.5366 29.93 30.9894 29.93Z" fill="#022433"/>
</svg>
