<?xml version="1.0" encoding="utf-8"?>
<!-- Generator: Adobe Illustrator 24.3.0, SVG Export Plug-In . SVG Version: 6.00 Build 0)  -->
<svg version="1.1" id="Layer_1" xmlns="http://www.w3.org/2000/svg" xmlns:xlink="http://www.w3.org/1999/xlink" x="0px" y="0px"
	 viewBox="0 0 1335 390" enable-background="new 0 0 1335 390" xml:space="preserve">
<path fill="none" stroke="#022433" stroke-width="4" stroke-linecap="round" stroke-dasharray="8,8" d="M1296.8,138.9
	c13.1,69.5-26.3,203-288.5,180.5C680.5,291.4,607.7,124.4,670.6,84.8c62.8-39.6,168.6,39.1,92.2,91.8
	C686.3,229.2,597.8,334,366.9,334C136,334-37.4,254.3,9.8,205.1"/>
<path fill="none" stroke="#022433" stroke-width="3" stroke-linecap="round" d="M21.2,202.5c-2.8-2.4-6.5-4.8-9.8-2
	c-1.5,1.2-2.4,2.4-2.4,4.4c0,1.6,1.6,4.1,3,4.9c1.8,1.1,4.8,1.3,6.8,0.9c1.3-0.2,2-1.3,2.7-2.4c0.7-1.1,0.2-3.6-0.5-4.7"/>
<path fill="none" stroke="#022433" stroke-width="3" stroke-linecap="round" d="M14,199c-0.5-1-0.5-2.2-0.7-3.2
	c-1-4.4-1.9-8.8-2.7-13.2c-0.8-4.7-1.6-9.3-2-14c-0.3-3.4-0.4-6.8-0.8-10.2C7,152.2,6.3,146,5,140"/>
<path fill="none" stroke="#022433" stroke-width="3" stroke-linecap="round" d="M5.9,143.1c2.2,0,4.3-0.6,6.5-0.8
	c3.7-0.3,7.1,0,10.7,0.7c6,1.1,12.1,1.8,18.1,3c1.8,0.4,3.7,0.8,5.5,1.1c1.3,0.2,3.2,0.1,4.4,0.7c0.3,0.2,2.2,1,2.2,1.6
	c0,2.7-4.4,4.9-6.2,6c-2.9,1.8-5.9,3.5-8.6,5.6c-3.8,2.8-8,4.9-12,7.4c-2.7,1.7-5,3.9-7.9,5.3c-1.2,0.6-2.3,1.4-3.5,1.8
	c-0.9,0.3-1.9,0.5-2.8,0.8c-0.7,0.2-1.6,0.4-2.3,0.4c-0.4,0-0.1-0.5,0.1-0.6"/>
<path fill="none" stroke="#022433" stroke-width="3" stroke-linecap="round" d="M717.2,64.5c-2.8-2.4-6.5-4.8-9.8-2
	c-1.5,1.2-2.4,2.4-2.4,4.4c0,1.6,1.6,4.1,3,4.9c1.8,1.1,4.8,1.3,6.8,0.9c1.3-0.2,2-1.3,2.7-2.4c0.7-1.1,0.2-3.6-0.5-4.7"/>
<path fill="none" stroke="#022433" stroke-width="3" stroke-linecap="round" d="M710,61c-0.5-1-0.5-2.2-0.7-3.2
	c-1-4.4-1.9-8.8-2.7-13.2c-0.8-4.7-1.6-9.3-2-14c-0.3-3.4-0.4-6.8-0.8-10.2C703,14.2,702.3,8,701,2"/>
<path fill="none" stroke="#022433" stroke-width="3" stroke-linecap="round" d="M701.9,5.1c2.2,0,4.3-0.6,6.5-0.8
	c3.7-0.3,7.1,0,10.7,0.7c6,1.1,12.1,1.8,18.1,3c1.8,0.4,3.7,0.8,5.5,1.1c1.3,0.2,3.2,0.1,4.4,0.7c0.3,0.2,2.2,1,2.2,1.6
	c0,2.7-4.4,4.9-6.2,6c-2.9,1.8-5.9,3.5-8.6,5.5c-3.8,2.8-8,4.9-12,7.4c-2.7,1.7-5,3.9-7.9,5.3c-1.2,0.6-2.3,1.4-3.5,1.8
	c-0.9,0.3-1.9,0.5-2.8,0.8c-0.7,0.2-1.6,0.4-2.3,0.4c-0.4,0-0.1-0.5,0.1-0.6"/>
<path fill="none" stroke="#022433" stroke-width="3" stroke-linecap="round" d="M376.2,321.5c-2.8-2.4-6.5-4.8-9.8-2
	c-1.5,1.2-2.4,2.4-2.4,4.4c0,1.6,1.6,4.1,2.9,4.9c1.8,1.1,4.8,1.3,6.8,0.9c1.3-0.2,2-1.3,2.7-2.4c0.7-1.1,0.2-3.6-0.5-4.7"/>
<path fill="none" stroke="#022433" stroke-width="3" stroke-linecap="round" d="M369,318c-0.5-1-0.5-2.2-0.7-3.2
	c-1-4.4-1.9-8.8-2.7-13.2c-0.8-4.7-1.6-9.3-2-14c-0.3-3.4-0.4-6.8-0.8-10.2c-0.7-6.1-1.5-12.3-2.7-18.3"/>
<path fill="none" stroke="#022433" stroke-width="3" stroke-linecap="round" d="M360.9,262.1c2.2,0,4.3-0.6,6.5-0.8
	c3.7-0.3,7.1,0,10.7,0.7c6,1.1,12.1,1.8,18.1,3c1.8,0.4,3.7,0.8,5.5,1.1c1.3,0.2,3.2,0.1,4.4,0.7c0.3,0.2,2.2,1,2.2,1.6
	c0,2.7-4.4,4.9-6.2,6c-2.9,1.8-5.9,3.5-8.6,5.6c-3.8,2.8-8,4.9-12,7.4c-2.7,1.7-5,3.9-7.9,5.3c-1.2,0.6-2.3,1.4-3.5,1.8
	c-0.9,0.3-1.9,0.5-2.8,0.8c-0.7,0.2-1.6,0.4-2.3,0.4c-0.4,0-0.1-0.5,0.1-0.6"/>
<path fill="none" stroke="#022433" stroke-width="3" stroke-linecap="round" d="M1301.2,124.5c-2.8-2.4-6.5-4.8-9.8-2
	c-1.5,1.2-2.4,2.4-2.4,4.4c0,1.6,1.6,4.1,2.9,4.9c1.8,1.1,4.8,1.3,6.8,0.9c1.3-0.2,2-1.3,2.7-2.4c0.7-1.1,0.2-3.6-0.5-4.7"/>
<path fill="none" stroke="#022433" stroke-width="3" stroke-linecap="round" d="M1294,121c-0.5-1-0.5-2.2-0.7-3.2
	c-0.9-4.4-1.9-8.8-2.7-13.2c-0.8-4.7-1.6-9.3-2-14c-0.3-3.4-0.4-6.8-0.8-10.2c-0.7-6.1-1.5-12.3-2.7-18.3"/>
<path fill="none" stroke="#022433" stroke-width="3" stroke-linecap="round" d="M1285.9,65.1c2.2,0,4.3-0.6,6.5-0.8
	c3.7-0.3,7.1,0,10.7,0.7c6,1.1,12.1,1.8,18.1,3c1.9,0.4,3.7,0.8,5.5,1.1c1.3,0.2,3.2,0.1,4.4,0.7c0.3,0.2,2.2,1,2.2,1.6
	c0,2.7-4.4,4.9-6.2,6c-2.9,1.8-5.9,3.5-8.6,5.5c-3.8,2.8-8,4.9-12,7.4c-2.7,1.7-5,3.9-7.9,5.3c-1.2,0.6-2.3,1.4-3.5,1.8
	c-0.9,0.3-1.9,0.5-2.8,0.8c-0.7,0.2-1.6,0.4-2.3,0.4c-0.4,0-0.1-0.5,0.1-0.6"/>
<g id="missionMan">
	<path fill="#5C342E" d="M1222.3,68c3.1-3,6.6-5.1,9.7-5.8c-3.3-2.7-9.6-2.9-12.9-0.3c0.5-3,1.2-5.6,1.1-8.7
		c-0.1-1.9-0.8-3.8-1.7-5.4c-0.5-1-2.1-3.3-2.1-3.3c0.2,3.9-3,10.9-5.5,14.2c-8.1-5.7-17.8-11-29.8-15
		c-49.3-16.5-97.7,13.7-102.9,43.3c-1.1,5.9-6.2,23.5-5.8,40.8c0.6,0,1.2,0.2,1.7,0.3c0.4,0.1,0.8,0.3,1.2,0.5
		c-0.5,2.3-3.8,11.6-1.8,7.7c7.9-14.7,19.5-29,37.2-38.2c2.4,14.6,16.5,33.8,32.5,36.1c0,0-1.5-2.2-2.8-4.1
		c-4.4-6.2-3.1-17.7,6.2-19.5c8.3-1.6,17.1-0.9,25.4-0.9c4.2,0,8.5,0.2,12.7-0.1c1.9-0.1,3.8-0.4,5.6-0.8c0.6-0.1,6.6-1.6,6.5-1.9
		c1.6,8.5,1.2,10.4,7.6,19.3c5,7.1,8.8,12.4,10.4,23.5c1.3,9.2,2.1,24.9,1.3,29.3c-0.8,4.5,2.8-6.2,3.1-7.2c0.4,0,0.9,0.1,1.3,0.2
		c0.5,0.2,1.1,0.4,1.6,0.7c8.3-11.7,19-36.8,19.5-42.8C1245.1,91.1,1232,80.1,1222.3,68z"/>
	<path fill="#F7B7A2" d="M1122,239.6c52.1,15.6,106.8-13.2,122.1-64.5c15.4-51.2-14.4-105.4-66.4-121.1
		c-52.1-15.6-106.8,13.2-122.1,64.5C1040.1,169.8,1069.9,224,1122,239.6z"/>
	<path fill="#A5DFEC" d="M1055.2,118.9c-15.4,51.2,14.4,105.4,66.4,121.1c52.1,15.6,106.8-13.2,122.1-64.5L1055.2,118.9z"/>
	<path opacity="0.2" fill="#FFFFFF" enable-background="new    " d="M1055.7,126.5c0,0-2.2-0.7-2.2-0.7c-2.8,13.1-2.1,22.9-1.5,31.2
		c2.2,0.7,8.2,2.1,16.3,0.7c10.1-1.7,18.1-22,18.1-22L1055.7,126.5z"/>
	<path opacity="0.2" fill="#020203" enable-background="new    " d="M1068.2,149.5c-7.9,1.3-14.4-0.2-16.7-0.8
		c-0.1,2.7,0.4,5.6,0.5,8.3c2.2,0.7,8.2,2.1,16.3,0.7c10.1-1.7,18.1-22,18.1-22S1078.3,147.8,1068.2,149.5z"/>
	<path opacity="0.2" fill="#FFFFFF" enable-background="new    " d="M1239.3,181.6c0,0,2.2,0.6,2.2,0.7
		c-4.9,12.4-10.9,20.3-15.9,26.9c-2.2-0.7-8-2.8-14-8.4c-7.4-7-3-28.3-3-28.3L1239.3,181.6z"/>
	<path opacity="0.2" fill="#020203" enable-background="new    " d="M1216.2,193.9c5.8,5.4,12.1,7.8,14.4,8.5
		c-1.4,2.3-3.4,4.5-5,6.7c-2.2-0.7-8-2.8-14-8.4c-7.5-7-3-28.3-3-28.3S1208.8,186.9,1216.2,193.9z"/>
	<g opacity="0.2">
		<path fill="#FFFFFF" d="M1062.9,121.2l-5.4-1.6l-1.9,6.8l5.4,1.6L1062.9,121.2z"/>
		<path fill="#FFFFFF" d="M1105.1,133.9l-5.4-1.6l-1.9,6.8l5.4,1.6L1105.1,133.9z"/>
		<path fill="#FFFFFF" d="M1197.8,161.7l-5.4-1.6l-1.9,6.8l5.4,1.6L1197.8,161.7z"/>
		<path fill="#FFFFFF" d="M1239.9,174.4l-5.4-1.6l-1.9,6.8l5.4,1.6L1239.9,174.4z"/>
	</g>
	<path fill="#95C9D5" d="M1133.8,151.4c0.2,0.9,0.3,1.9,0.3,2.8c0.1,0.9,0,1.8-0.1,2.7c-0.1,1.8-0.3,3.5-0.7,5.2
		c-0.2,0.8-0.4,1.7-0.6,2.5c-0.2,0.8-0.6,1.6-1,2.4c-0.8,1.5-1.9,3.1-2.7,4.6c0,0-0.1,0.1-0.1,0.2c0,0.1,0,0.3,0,0.5
		c0.1,0.4,0.1,0.8,0.2,1.1c0.2,0.8,0.5,1.6,0.8,2.4c0.7,1.6,1.5,3.1,2.4,4.7c1.7,3.1,3.9,6,6,8.8l0.2,0.4l-0.1,1
		c-0.1,1.4-0.2,2.8-0.3,4.2c-0.2,1.4-0.5,2.7-0.7,4.1c-0.5,2.7-1.1,5.5-1.9,8.1c-0.9,2.6-1.9,5.2-3.2,7.7c-0.6,1.3-1.3,2.5-2,3.8
		c-0.7,1.3-1.5,2.4-2.4,3.6l-0.6-0.2c-0.1-1.5-0.2-2.9-0.1-4.4c0.1-1.5,0.1-2.8,0.3-4.3c0.3-2.8,0.8-5.5,1.4-8.2
		c0.7-2.7,1.7-5.3,2.7-7.9c0.5-1.3,1-2.6,1.6-3.9c0.6-1.3,1.3-2.5,2-3.8l0.2,1.4c-1.6-3.3-3.1-6.5-4.8-9.6l-2.4-4.8
		c-0.4-0.8-0.8-1.6-1.2-2.5c-0.2-0.4-0.3-0.9-0.5-1.4c-0.1-0.3-0.1-0.5-0.2-0.8c0-0.3-0.1-0.6,0-1.1c0.2-1.8,0-3.6,0.2-5.4
		c0.1-0.9,0.2-1.7,0.4-2.6c0.2-0.8,0.5-1.7,0.8-2.4c0.6-1.6,1.3-3.2,2.1-4.7c0.4-0.8,0.9-1.5,1.4-2.3c0.5-0.7,1.1-1.5,1.7-2.2
		L1133.8,151.4L1133.8,151.4z"/>
	<path fill="#95C9D5" d="M1134,198.3c0.6-3.7,1.2-7.3,1.9-11l1-5.5l1.1-5.4c0.4-1.8,0.7-3.7,0.9-5.5c0.3-1.8,0.8-3.6,1.5-5.3
		c0.7-1.7,1.5-3.4,2.5-5.1c0.9-1.6,2-3.3,3.5-4.8l0.6,0.2c0.4,2,0.4,4,0.4,5.9c-0.1,1.9-0.3,3.8-0.6,5.6c-0.3,1.8-0.8,3.6-1.6,5.3
		c-0.7,1.7-1.5,3.4-2.2,5.1l-2,5.2l-2.1,5.2c-1.4,3.4-2.8,6.9-4.3,10.3L1134,198.3z"/>
	<path fill="#95C9D5" d="M1241.5,182.7c-16.3-2.7-32.3-6.4-48.2-10.4c-15.9-4-31.7-8.4-47.4-13.1c-15.7-4.7-31.3-9.8-46.8-15.2
		c-15.5-5.5-30.9-11.2-46-18l0.2-0.6l23.6,7l23.6,7l47.2,14.1l47.1,14.3l23.5,7.1l23.5,7.2L1241.5,182.7L1241.5,182.7z"/>
	<path fill="#95C9D5" d="M1141.3,151.2c1.4,0.4,2.8-0.3,3.2-1.7c0.4-1.3-0.4-2.8-1.8-3.2c-1.4-0.4-2.8,0.3-3.2,1.7
		C1139.1,149.4,1139.9,150.8,1141.3,151.2z"/>
	<path fill="none" stroke="#95C9D5" stroke-width="13.1854" stroke-miterlimit="10" d="M1134.2,151.3l2.4-8"/>
	<path opacity="0.15" fill="#FFFFFF" enable-background="new    " d="M1102.3,131.5c15.3-51,48.7-86,74.7-78.7
		c-51.8-15.1-106.1,13.7-121.4,64.7c-15.3,51,14.1,104.9,65.7,120.8C1095.6,230.1,1087,182.5,1102.3,131.5z"/>
	<g id="missionEye">
		<path fill="#1A1A1A" d="M1128.5,92.1c2.4,0.7,5-0.5,5.6-2.8c0.7-2.3-0.8-4.8-3.2-5.5c-2.4-0.7-4.9,0.5-5.6,2.8
			S1126,91.4,1128.5,92.1z"/>
		<path fill="#1A1A1A" d="M1196.7,112.6c2.4,0.7,5-0.5,5.6-2.8c0.7-2.3-0.8-4.8-3.2-5.5c-2.4-0.7-5,0.5-5.6,2.8
			C1192.8,109.4,1194.3,111.8,1196.7,112.6z"/>
	</g>
	<path fill="#1A1A1A" d="M1165.1,127.3c-3.5-0.2-7.4-0.8-11.3-1.9c-17.4-5-23.4-16-23.7-16.5c0,0,8.9,8.6,24.6,13.1
		c16,4.6,31.4,2.7,31.4,2.7C1185.5,124.8,1176.9,128,1165.1,127.3z"/>
	<path fill="#1A1A1A" d="M1186.7,126.5c-0.5-2.4-2.3-4.6-4.8-5.9c-0.7-0.4-1.5-0.2-1.8,0.3c-0.2,0.3-0.2,0.5-0.1,0.8
		c0.1,0.3,0.4,0.6,0.7,0.8c1.7,0.9,2.9,2.4,3.3,4.1c0.4,1.7-0.2,3.3-1.4,4.4c-0.2,0.2-0.3,0.4-0.3,0.7c0,0.3,0.2,0.6,0.5,0.9
		c0.2,0.1,0.3,0.2,0.6,0.3c0.5,0.2,1.1,0.1,1.4-0.2C1186.4,131.2,1187.2,128.8,1186.7,126.5z"/>
	<path fill="#1A1A1A" d="M1129,109.2c1.7-1.7,4.3-2.6,7.1-2.3c0.8,0.1,1.4,0.7,1.4,1.3c0,0.3-0.2,0.5-0.3,0.7
		c-0.3,0.2-0.7,0.3-1,0.3c-1.9-0.2-3.7,0.4-4.9,1.6c-1.2,1.2-1.6,2.9-1.1,4.5c0.1,0.3,0.1,0.5-0.1,0.7c-0.2,0.2-0.5,0.4-0.8,0.5
		c-0.2,0-0.4,0-0.6,0c-0.5-0.1-1-0.5-1.1-1C1126.8,113.2,1127.4,110.8,1129,109.2z"/>
	<defs>
		<filter id="Adobe_OpacityMaskFilter" filterUnits="userSpaceOnUse" x="1083.4" y="-10.8" width="238.6" height="139.9">
			<feColorMatrix  type="matrix" values="1 0 0 0 0  0 1 0 0 0  0 0 1 0 0  0 0 0 1 0"/>
		</filter>
	</defs>
	<mask maskUnits="userSpaceOnUse" x="1083.4" y="-10.8" width="238.6" height="139.9" id="mask0_122_3897_1_">
		<path fill="#FFFFFF" filter="url(#Adobe_OpacityMaskFilter)" d="M1241.6,121.7c7.4-27.1-22.2-63.4-64.2-76.5
			c-42-13.1-82.6,0.6-90.9,30.7c-8.3,30,19.1,65,61,78.1C1189.5,167.1,1233.3,151.7,1241.6,121.7z"/>
	</mask>
	<g mask="url(#mask0_122_3897_1_)">
		<path fill="#5C342E" d="M1291.4,37.4c3.7-2,8.3-3.2,12.4-3.3c-5.1-3-13.8-4.3-18-2.6c0.1-2.5,0.7-4.6-0.2-7.4
			c-0.5-1.7-1.9-3.4-3.5-5.1c-1-1-3.6-3.3-3.6-3.3c1,3.5-1.4,6.3-4.2,8.7c-13.6-8.9-36-16.6-53.6-22.2
			c-69.1-22-125.3-16.5-135.2,19.5c-1.3,4.8-4.2,19.5-0.3,34.7c0.9,0.2,1.7,0.3,2.5,0.6c0.6,0.2,1.2,0.4,1.8,0.7
			c-0.2,2-3.1,9.5-1,6.5c8.2-11.4,21.6-21.8,44.4-26.6c6.1,13.2,29.5,32.7,52.2,37.7c0,0-2.4-2.1-4.7-4.1c-7.3-6.3-7.8-16.1,4.8-16
			c11.2,0.1,23.6,2.4,35.2,4c5.8,0.8,11.8,1.7,17.6,2.3c2.6,0.2,5.2,0.4,7.7,0.4c0.8,0,8.9-0.1,8.7-0.5c3.8,7.8,3.7,9.3,14.2,18.3
			c8.3,7.1,14.6,12.5,18.9,22.6c3.6,8.3,7.7,22.2,7.5,26c-0.2,3.8,2.7-4.9,2.9-5.8c0.6,0.1,1.3,0.3,1.9,0.5c0.8,0.2,1.6,0.5,2.4,0.9
			c9.4-8.7,14.9-22.1,16.5-26.8C1327.7,72,1317,57.2,1291.4,37.4z"/>
	</g>
	<path opacity="0.1" fill="#020203" enable-background="new    " d="M1127.5,171.4c0,0,0.7,3.9-4.3,20.5s-8.7,26-8.7,26l11,5.4
		l10.1-33.6L1127.5,171.4z"/>
	<path opacity="0.1" fill="#020203" enable-background="new    " d="M1152.4,178.9c0,0-2.7,2.9-7.7,19.5c-5,16.6-7,26.5-7,26.5
		l-12.2-1.6l10.1-33.6L1152.4,178.9z"/>
	<path fill="#A5DFEC" d="M1102.8,199.1c-22.3-7.9-31.3,2.7-32.7,4.7c12.9,17.5,30.7,30,51.5,36.2l5.3-17.7
		C1127,222.3,1127.2,207.8,1102.8,199.1z"/>
	<path opacity="0.2" fill="#020203" enable-background="new    " d="M1126.5,223.9c0.1-0.2,1.6-7.3-6.5-14.7
		c1.4,3.3,0.3,6.9,0.2,7.1c0,0,0,0.1,0,0.1c-2.2,7.3-10.5,11-17.5,7.8c-11.8-5.5-22.2-13.1-31.2-23.1c13.4,17.8,30.5,29.7,51.1,35.8
		C1122.6,237,1125.1,228.7,1126.5,223.9z"/>
	<path fill="#A5DFEC" d="M1160,216.3c23,5.7,24.6,19.5,24.7,21.9c-20.4,7.5-42.1,8.1-62.9,1.9l5.3-17.7
		C1127,222.3,1134.9,210.1,1160,216.3z"/>
	<path opacity="0.2" fill="#020203" enable-background="new    " d="M1126.5,223.9c0.1-0.2,1.2-3.6,5.3-5.7
		c4.1,13.2,6.8,17.9,14.4,19.1c7.9,1.2,15.4,0.3,23-2c7.3-2.1,7.9-8.9,8.7-10.2c3.8,3.3,5.7,7.4,6.4,10.4
		c-21.9,8.3-41.1,7.7-61.7,1.5C1122.6,237,1125,228.6,1126.5,223.9z"/>
	<path opacity="0.1" fill="#FFFFFF" enable-background="new    " d="M1159.3,224.5c7.3,1.1,13,0.7,17.4-0.5c-3.7-3.1-9-5.9-16.8-7.9
		c-10-2.5-17.3-2-22.4-0.5C1141.6,219.3,1148.3,222.9,1159.3,224.5z"/>
	<path opacity="0.1" fill="#FFFFFF" enable-background="new    " d="M1099,206.4c-6.8-3.1-11.3-6.6-14.3-10c4.7-0.5,10.8,0,18.4,2.7
		c9.7,3.5,15.5,7.9,19,11.9C1116.7,211.8,1109.1,211.1,1099,206.4z"/>
	<path fill="#95C9D5" d="M1134.8,186.9l18.1-7.7l-14.5,12.9L1134.8,186.9z"/>
</g>
<g id="missionBrow">
	<defs>
		<path id="SVGID_1_" d="M1196.2,91.7l-0.3,0.9c-0.3,1.1,0.7,2.1,2,2.2c2.1,0.2,4.9,0.5,6.4,1.1c7.7,2.8,9.2,4.8,9.2,4.8
			s0.7-6.5-14.4-10.4C1197.9,90,1196.5,90.7,1196.2,91.7z"/>
	</defs>
	<clipPath id="SVGID_2_">
		<use xlink:href="#SVGID_1_"  overflow="visible"/>
	</clipPath>
	<path clip-path="url(#SVGID_2_)" fill="#5C342E" d="M1139.7,73.3l-0.1,0.9c-0.2,1.1-1.5,1.6-2.8,1.1c-1.9-0.7-4.6-1.6-6.3-1.8
		c-8.2-0.9-10.4,0.4-10.4,0.4s2.2-6.1,17.4-3.1C1138.9,71.1,1139.9,72.3,1139.7,73.3z"/>
</g>
<g id="car">
	<defs>
		<rect id="SVGID_3_" x="869" y="124" width="406.6" height="198.6"/>
	</defs>
	<clipPath id="SVGID_4_">
		<use xlink:href="#SVGID_3_"  overflow="visible"/>
	</clipPath>
	<g clip-path="url(#SVGID_4_)">
		<path fill="#022433" d="M1275.4,247.3c-0.7-2.5-3.1-3.1-5.4-2.8c0.3-8-5.6-15.1-14.2-10.4c-3.9,2.1-6.3,6.4-5.9,10.7
			c0,0.3,0.1,0.7,0.2,1.1c-3,0.6-5.4,2.7-4.4,6.3c0.7,2.5,2.9,4,5.2,4.9c1.8,0.7,3.9,0.4,5.7,0.7c3.2,0.4,5.7,2.8,5.5,5.8
			c0,0,0,0-0.1,0c-0.6,0.1-1,0.4-1.2,0.8c-0.7-0.9-1.8-1.5-3.6-1.2c-7.2,1.1-14.9-0.4-22.3,0.3c0-1.7,0.1-3.4,0.1-5.1
			c1.5,0,3.3-0.3,4-1.2c1.9-2.3,2.4-5.7,2.5-8.6c0.1-1.6-0.6-4.6-1.9-5.8c-1.5-1.2-3-1.3-4.7-0.9c0-0.8-0.1-1.6-0.1-2.5
			c0-0.1,0.1-1.3,0-2.3c3.6-0.9,3.5-4.4,3.4-9.1c-0.2-7.7-0.8-15.8-2.7-23.3c-2-7.9-12.6-6.4-18.9-6.6c-11.8-0.4-23.6-0.8-35.4-1.6
			c-22.2-1.4-44.5-0.6-66.7-0.6c-10.8,0-21.7,0.3-32.5,0.6c-5.5,0.2-11,0.1-16.5,0.2c-3.5,0-7.5-0.2-11.1,0.5c0-7.4,0-14.9-0.7-22.3
			c-0.8-8.8-0.4-17.6-1.3-26.3c-0.4-4-0.6-8.3-0.6-12.3c-0.1-2.8-0.7-5.7-0.8-8.5c0-0.1,0.1-0.1,0.1-0.2c0.1-0.2,0.2-0.3,0.3-0.5
			c0.7-1.3-0.1-3-1.7-3c-5.9,0-11.9-0.2-17.9,0.1c-6,0.3-12-0.5-18,0.2c-5.8,0.7-11.8,0-17.7,0.6c-6.3,0.7-12.8,1.5-18.8,3.6
			c-4.5,1.6-8.5,3.3-11.2,7.5c-3.1,5-5,10.8-6.9,16.3c-4.6,12.6-10.1,25.2-13.3,38.3c-1.5,6-2.3,12.2-4.2,18.1
			c-1.6,5.1-10.3,4-14.8,4.2c-5.7,0.3-11.4,0.4-17.1,0.7c-3,0.1-6,0.1-8.9,0.3c-2.8,0.1-5.6,0.7-8.4,0.8c-3.9,0.1-4.2,3.1-4.9,6.2
			c-0.7,2.9-1.2,5.8-1.6,8.7c-3.3-0.6-6.9-1.3-9.9,0.2c-3.3,1.6-2.5,8.9-2.6,11.7c-0.1,2.1-0.1,4.3,0.3,6.3c0.4,1.9,0.1,4.7,1,6.5
			c1.5,3.1,5.7,3.1,8.8,3.5c0,0.2,0,0.4,0,0.6c-0.9-0.3-1.8-0.4-2.6-0.4c-2,0.2-4.1,1.6-5.2,3.2c-1.3,1.9-0.4,4.3,1.4,5.4
			c2,1.3,4.2,1.7,6.5,1.7h0.1c0,1.3-0.1,2.5-0.3,3.7c-1.6-0.2-3.2-0.4-4.8-0.6c-1.3-0.2-4.2-0.8-5.5,0.1c-3.6,2.3-3.7,9.2-3.7,13
			c-0.1,3.4-1.4,9.7,1.2,12.3c2.5,2.5,10.5,1.5,13.7,1.7c10.7,0.5,21.6,0.6,32.3,0c0.5,6.5,4.7,13,9.3,17c6.3,5.5,16.6,7.6,24.7,7
			c8.9-0.7,16.1-4.9,21.8-11.8c3-3.6,4.2-7.8,4.4-12.1c7.8-0.9,16,0.5,23.8,0.8c8.4,0.4,16.8-0.3,25.2,0.3c7,0.5,14.6-0.2,21.6-0.7
			c7.5-0.6,15,0.5,22.6,0.5c13.9,0,27.7,1.2,41.6,0.7c7.1-0.3,13.9,0.6,20.9,0.6c3.4,0,6.9,0.6,10.3,0.8c1.6,0.1,3.2,0.1,4.8,0.4
			c0.8,0.1,3.2-0.4,3.9,0.1c0.2,0.2,0.5,0.2,0.7,0.3c0.9,3.3,2.4,6.5,4.2,8.9c4.2,5.6,12.7,9.8,19.6,10.4c8.2,0.7,16.3,0.4,23.2-4.8
			c5.2-4,8-10,8.7-16.3c3.5,0,6.8,0,10.3,0.1c6.6,0.2,13.1,1.3,19.6,1.6c3.5,0.1,8.7,1,10.8-2.6c0.8-1.3,0.5-4.2,0.5-5.7
			c0-2.9,0.2-5.8,0.3-8.7c0-2.7,1.1-9.4-2.6-10.4c-1.6-0.4-3.8,0.5-5.4,0.5c-2.2,0-4.5,0.2-6.7,0.4c0.1-1.1,0.1-2.1,0.1-3.2
			c1.5,0.2,3,0.3,4.3,0.1c3.3-0.5,6.7,0.2,10-0.3c2.7-0.4,12,1.4,12.5-2.8c0.1-0.8,0.1-1.6,0.1-2.4c0.4,0.2,0.9,0.3,1.4,0.3
			c3.7-0.6,6.8-3.1,8.7-6.3c1.7-2.8,1.1-5.3,0.2-7.9C1274.2,252,1276.2,250.2,1275.4,247.3z M1236.3,245c1.4-0.2,1.3,2.8,1.4,3.5
			c0.1,1.4-0.5,3.3-0.9,4.6c-0.2,0.8-0.8,1-1.5,1.1c0.2-2.8,0.3-5.5,0-8.4c0-0.3,0-0.5-0.1-0.8C1235.6,245,1235.9,245,1236.3,245z
			 M1054.6,200.4c3.6-0.4,7.6-0.1,11.1-0.1c4.5,0,9,0.2,13.5,0.1c9.3-0.2,18.7-0.7,28.1-0.7c19,0,38-0.4,57.1,0.2
			c19.1,0.6,38.3,1.3,57.4,2.3c4.6,0.2,9.1-0.3,10.4,4.8c1,4,1,8,1.4,12.1c0.4,3.3,0.6,6.9,0.7,10.2c0,0.9,0.4,3.7-0.3,4.1
			c-0.3-0.2-0.6-0.3-1.1-0.3h-0.5c0,0,0,0-0.1,0c-15.3,0.3-30.6,0.6-45.9,0.2c-14.8-0.4-29.7-1-44.4-0.3s-29.4,0.1-44.1-0.1
			c-7.3-0.1-14.6,0-21.9,0c-7.1,0-14.3-0.1-21.4,0.6c0.2-4-0.1-8.1-0.1-12.1c0-5.4,0-10.8,0-16.2
			C1054.5,203.6,1054.5,202,1054.6,200.4z M883.6,264.7c-1.3,0-2.3-0.1-3.4-0.6c-0.5-0.2-1.8-0.4-1.2-1.1s1.5-1.3,2.4-1.5
			c0.6-0.2,1.3,0.1,1.8,0.3c0.2,0,0.3,0,0.3,0.1C883.5,262.7,883.6,263.7,883.6,264.7z M878,251.4c-0.1-2.9-0.8-5.7-0.9-8.6
			c0-1.7-0.5-10.1,1.6-10.3c2.3-0.3,4.6,0,6.9-0.1c-0.2,1.4-0.3,2.7-0.5,4.1c-0.7,5.9-0.8,11.8-1.4,17.6
			C881.5,254,878,253.7,878,251.4z M921.2,301.6c0,0,0,0.1-0.1,0.1c-0.1-0.2-0.1-0.4-0.2-0.6V301C921,301.2,921.1,301.4,921.2,301.6
			z M921.1,297.6c0-0.1-0.1-0.2-0.1-0.2c0-0.4,0-0.7,0-1.1c0.1,0.3,0.2,0.7,0.4,1C921.3,297.4,921.2,297.5,921.1,297.6z M918.6,284
			c-1.5,3.7-2.1,7.4-2,11c-8.4,0.5-17,0.3-25.4,0.1c-4.4-0.1-8.7-0.3-13.1-0.3c-1.8,0-5.4,0.3-5.3-2c0.1-2.3,0-4.5,0-6.8
			c0-3,0.2-5.8,0.9-8.8c0.8-3.3,1.6-2.5,4.9-2.3c4.9,0.3,9.9,0.7,14.8,1.1c9.3,0.9,19.1,2.8,28.5,1.8
			C920.6,279.9,919.5,281.9,918.6,284z M922.5,290.3c-0.1-0.1-0.1-0.2-0.2-0.3c0.1,0,0.1,0,0.2-0.1c0,0,0,0,0.1,0
			C922.6,290.2,922.6,290.2,922.5,290.3z M922.5,284c0.2-0.7,0.6-1.5,0.9-2.2C923.2,282.6,922.8,283.3,922.5,284z M924.6,306.8
			c0-0.1,0-0.2,0-0.2s0.1,0,0.1,0.1L924.6,306.8z M924.7,301.7c0-0.1-0.1-0.3-0.1-0.4c0,0,0,0,0.1,0.1
			C924.7,301.5,924.7,301.6,924.7,301.7z M924.8,292.6c-0.1-0.5-0.2-0.9-0.3-1.3C924.6,291.8,924.7,292.2,924.8,292.6z M925.4,296.7
			c0-0.1,0-0.2,0-0.3c0.1,0.1,0.1,0.1,0.2,0.2C925.5,296.6,925.4,296.6,925.4,296.7z M925.3,289.2c0-0.1,0.1-0.2,0.1-0.3
			c0,0.1,0,0.3,0,0.4C925.3,289.3,925.3,289.3,925.3,289.2z M926.2,299.1c0.1,0.2,0.1,0.4,0.2,0.6c-0.1-0.2-0.2-0.3-0.3-0.5
			C926.1,299.2,926.1,299.1,926.2,299.1z M926.1,280.5c0-0.1,0.1-0.1,0.1-0.2c0.1-0.1,0.1-0.2,0.1-0.2
			C926.3,280.2,926.2,280.4,926.1,280.5z M927.2,309.2c-0.2-0.1-0.4-0.3-0.6-0.4c0.2-0.1,0.3-0.2,0.5-0.4c0.1,0.1,0.2,0.3,0.3,0.4
			C927.3,309,927.3,309.1,927.2,309.2z M926.8,293.2l0.1,0.1c0,0.1-0.1,0.1-0.1,0.2C926.8,293.4,926.8,293.3,926.8,293.2z
			 M927.4,298.7c0,0.1,0,0.1,0,0.2C927.4,298.8,927.4,298.7,927.4,298.7c0-0.1,0-0.1,0-0.1C927.5,298.6,927.5,298.6,927.4,298.7z
			 M927.5,277.6c0.1-0.1,0.1-0.3,0.2-0.4C927.7,277.4,927.6,277.5,927.5,277.6z M928,284.9C928,285,928,285,928,284.9
			c0.1,0.2,0.1,0.4,0.2,0.5c-0.1,0.1-0.2,0.3-0.2,0.4c-0.1-0.1-0.2-0.3-0.3-0.4C927.7,285.3,927.9,285.1,928,284.9z M927.9,305.8
			L927.9,305.8c0.2-0.1,0.3,0,0.3,0c-0.1,0-0.1,0.1-0.2,0.2C928,305.9,927.9,305.8,927.9,305.8z M928.1,312.8c0.1,0,0.1,0,0.2,0
			c0.1,0,0.1,0.1,0.2,0.1c0,0.1,0,0.1,0.1,0.2C928.4,313,928.2,312.9,928.1,312.8z M929.2,293.6c-0.1,0-0.1-0.1-0.2-0.2
			c0-0.1,0-0.3,0-0.4c0.1,0.1,0.2,0.1,0.3,0.2C929.2,293.3,929.2,293.5,929.2,293.6z M929,279c0.1-0.1,0.1-0.3,0.2-0.4
			c0,0.1,0,0.1,0,0.2l-0.1,0.1C929.1,278.9,929.1,279,929,279z M929.5,297.9c-0.1-0.5-0.1-0.9-0.1-1.4c0.1,0,0.1,0.1,0.2,0.1
			c0,0.5,0,1.1,0.1,1.6c0,0,0-0.1-0.1-0.1C929.6,298.1,929.5,298,929.5,297.9z M929.6,302.4c0-0.1,0-0.2,0-0.3c0,0,0,0,0,0.1
			c0,0.1,0,0.2,0,0.3C929.7,302.4,929.7,302.4,929.6,302.4z M929.9,312.3C929.9,312.2,929.9,312.2,929.9,312.3c0-0.1,0-0.1,0-0.2
			C930,312.2,930,312.2,929.9,312.3z M930.3,307.4c-0.1-0.1-0.2-0.1-0.3-0.2c0.1-0.1,0.2-0.2,0.2-0.3c0.1,0.1,0.2,0.1,0.3,0.2
			C930.4,307.2,930.3,307.3,930.3,307.4z M930.3,277c0.1,0,0.1,0.1,0.2,0.2l-0.1,0.1c0,0,0,0-0.1-0.1
			C930.3,277.1,930.3,277.1,930.3,277z M931.1,278.7c0-0.1-0.1-0.2-0.1-0.2c0.1-0.1,0.1-0.2,0.2-0.3c0,0.2,0,0.3,0,0.5
			C931.2,278.6,931.2,278.6,931.1,278.7z M933.1,307.6C933,307.6,933,307.6,933.1,307.6L933.1,307.6z M933.4,281.8
			c-0.1,0-0.1,0.1-0.2,0.1c0.1-0.1,0.1-0.2,0.2-0.3c0,0,0,0,0.1,0c0,0,0,0,0.1,0C933.5,281.6,933.5,281.7,933.4,281.8z M933.7,271.6
			c0,0-0.1,0-0.1-0.1c0,0,0.1,0,0.1-0.1C933.7,271.5,933.7,271.5,933.7,271.6z M933.8,277.8c0.1,0,0.3-0.1,0.4-0.1
			c0,0.1,0,0.1,0,0.2c-0.1,0.1-0.2,0.1-0.3,0.2C933.9,278,933.8,277.9,933.8,277.8z M934.1,275.6c0.3-0.1,0.5-0.2,0.8-0.3
			c-0.1,0-0.1,0.1-0.2,0.1C934.6,275.5,934.3,275.6,934.1,275.6z M935,314.9c-0.1,0-0.2,0-0.2-0.1c0.2-0.1,0.3-0.3,0.3-0.5
			c0,0,0,0,0.1,0c0,0,0,0,0.1,0C935,314.6,935,314.7,935,314.9z M935.6,309.2c-0.1-0.1-0.2-0.1-0.3-0.2c0-0.1,0-0.1,0-0.2
			c0.1,0.1,0.3,0.2,0.4,0.3C935.6,309.1,935.6,309.2,935.6,309.2z M936.2,308.1c-0.2-0.1-0.3-0.2-0.5-0.3
			C935.9,307.8,936,308,936.2,308.1z M936.4,305c0-0.1,0-0.1-0.1-0.1c0.4,0.3,0.8,0.6,1.2,0.9l-0.1,0.1c-0.1,0-0.2,0-0.3,0
			C937,305.6,936.7,305.3,936.4,305z M937.5,311.6C937.4,311.6,937.4,311.6,937.5,311.6L937.5,311.6z M937.2,316.2
			c0,0,0-0.1,0.1-0.1h0.1c0.2,0.1,0.4,0.1,0.5,0.2C937.7,316.2,937.5,316.2,937.2,316.2z M937.7,310.5c0.1,0.1,0.2,0.1,0.3,0.2
			C937.9,310.7,937.8,310.6,937.7,310.5z M940.5,317c-0.1,0-0.2,0-0.3-0.1l-0.1-0.1c0.2,0,0.3,0.1,0.5,0.1
			C940.6,317,940.6,317,940.5,317z M941.3,309.6c-0.1,0-0.1-0.1-0.2-0.1c0,0,0,0,0-0.1c0.1,0,0.3,0.1,0.4,0.1
			C941.4,309.6,941.3,309.6,941.3,309.6z M941.5,308.2c-0.1-0.1-0.2-0.1-0.4-0.1c0.1,0,0.2,0,0.2,0.1
			C941.4,308.1,941.5,308.1,941.5,308.2z M941.8,317.4c0,0,0-0.1,0.1-0.2c0.1,0,0.3,0.1,0.4,0.1c0.1,0,0.1,0,0.2,0c0,0,0,0,0,0.1
			c0,0,0,0,0,0.1C942.3,317.5,942.1,317.4,941.8,317.4z M941.7,310.8C941.8,310.8,941.8,310.8,941.7,310.8c0.2,0.1,0.4,0.1,0.5,0.2
			C942.1,310.9,941.9,310.8,941.7,310.8z M948.8,310.4c-0.1,0.1-0.3,0.1-0.4,0.2h-0.1c0-0.1-0.1-0.2-0.1-0.3
			c0.2-0.1,0.4-0.2,0.6-0.3C948.8,310.2,948.8,310.3,948.8,310.4z M947.7,309.2c-0.1-0.1-0.1-0.2-0.2-0.3c0.5,0,1,0,1.5,0
			C948.6,309,948.1,309.1,947.7,309.2z M949.9,312.3c0-0.1,0-0.2,0-0.4h0.1c0,0.1,0.1,0.2,0.1,0.3C950,312.3,950,312.3,949.9,312.3z
			 M951.2,311.7c0-0.1-0.1-0.2-0.1-0.3c0,0,0.1,0,0.1-0.1C951.2,311.5,951.2,311.6,951.2,311.7z M952.6,318.6c0-0.1,0-0.2,0-0.3h0.1
			c0.1,0.1,0.1,0.1,0.2,0.2C952.8,318.6,952.7,318.6,952.6,318.6z M955.3,314.9C955.2,314.9,955.2,314.9,955.3,314.9
			c0-0.1,0.1-0.1,0.2-0.1c0,0,0,0,0,0.1C955.4,314.9,955.3,314.9,955.3,314.9z M958.7,313.9l-0.2-0.4c0.1,0,0.2-0.1,0.3-0.1
			C958.8,313.5,958.8,313.7,958.7,313.9z M957.3,301.2c-2.1,4-7.6,4.3-11.4,4.3c-4.2-0.1-7.3-2.1-9.4-5c0-0.2-0.1-0.5-0.3-0.7
			c-0.2-0.2-0.4-0.4-0.5-0.7c-0.7-1.2-1.2-2.5-1.6-3.9c-0.7-5.4,3.5-11.2,8.4-13.3c5.8-2.4,13.3,2.4,15.7,7.5
			C959.7,293.1,959.1,297.7,957.3,301.2z M936,278.1c0.1-0.1,0.3-0.1,0.5-0.2C936.4,278,936.2,278,936,278.1z M936.8,273.4
			C936.9,273.4,936.9,273.4,936.8,273.4c0.2-0.1,0.4-0.2,0.6-0.3c0.1,0,0.1,0,0.2,0C937.4,273.3,937.1,273.4,936.8,273.4z
			 M937.9,277.3c0.1-0.1,0.3-0.1,0.4-0.2c0,0.1,0.1,0.1,0.1,0.2c-0.2,0.1-0.4,0.1-0.5,0.2C937.8,277.4,937.8,277.4,937.9,277.3z
			 M937.8,274.9c0.2-0.1,0.4-0.2,0.6-0.3c0,0.2,0,0.3,0,0.4c-0.1,0-0.3,0.1-0.4,0.1C938,275.1,937.9,275,937.8,274.9z M940,274
			c0.1,0,0.2,0.1,0.3,0.2c0,0.1,0,0.1,0,0.2C940.1,274.2,940,274.1,940,274z M942.4,273c0,0,0.1-0.1,0.2-0.1
			c0.1,0.2,0.2,0.3,0.3,0.5c0,0.1,0,0.2,0,0.2c-0.1,0-0.1,0-0.2,0.1C942.6,273.5,942.5,273.2,942.4,273z M943.1,269.2
			c0.3-0.1,0.6-0.1,0.9-0.2c-0.1,0.1-0.2,0.1-0.3,0.2c-0.1,0.1-0.1,0.1-0.1,0.2c-0.2,0-0.3,0.1-0.5,0.1
			C943.2,269.4,943.1,269.3,943.1,269.2z M944.2,276.7c0.2-0.1,0.4-0.2,0.7-0.3c0,0,0.1,0,0.1,0.1
			C944.7,276.6,944.4,276.6,944.2,276.7z M945.1,274.6c0.1-0.1,0.2-0.1,0.3-0.1c0,0.1,0.1,0.2,0.1,0.2c-0.1,0-0.1,0-0.2,0.1
			c-0.1,0-0.1,0-0.2,0C945.1,274.7,945.1,274.6,945.1,274.6z M946,276c0.1,0,0.2,0.1,0.3,0.1h-0.1C946.1,276.1,946,276.1,946,276z
			 M948.7,278.6L948.7,278.6c0.1,0,0.1,0.1,0,0.1C948.8,278.7,948.7,278.6,948.7,278.6z M949.6,270.7
			C949.5,270.7,949.5,270.7,949.6,270.7c-0.2-0.1-0.3-0.2-0.4-0.3c0.2,0,0.3,0,0.5,0h0.1C949.7,270.6,949.7,270.7,949.6,270.7z
			 M949.8,273.5C949.9,273.5,949.9,273.5,949.8,273.5c0.1,0,0.1,0.1,0.1,0.1c-0.1,0.1-0.1,0.1-0.2,0.2
			C949.8,273.6,949.8,273.5,949.8,273.5z M950.9,271c0.1-0.1,0.1-0.1,0.2-0.2C951.1,270.9,951,271,950.9,271
			C951,271,951,271,950.9,271z M951.3,277c0.1-0.1,0.2-0.1,0.3-0.2c0.1,0.1,0.1,0.3,0.2,0.4C951.7,277.2,951.5,277.1,951.3,277z
			 M955,279.6c0.1,0.1,0.1,0.2,0.1,0.2c0.1,0.2,0.1,0.4,0.2,0.5l-0.1-0.1C955.1,280,955.1,279.8,955,279.6z M958,274.4
			c-0.1,0.1-0.2,0.1-0.2,0.2c-0.1-0.1-0.2-0.2-0.3-0.2c0.1-0.1,0.1-0.2,0.2-0.2h0.1C957.9,274.2,958,274.3,958,274.4z M957.9,271.2
			c0.2,0.1,0.4,0.1,0.6,0.2c-0.1,0.1-0.2,0.1-0.3,0.2C958.1,271.5,958,271.3,957.9,271.2z M960.1,285.9c-0.1-0.2-0.2-0.3-0.3-0.4
			c0.1,0.1,0.2,0.2,0.3,0.3V285.9z M960.9,301.4c0-0.1,0-0.1,0.1-0.2C961,301.3,961,301.4,960.9,301.4z M961.7,313.8
			c-0.1,0.1-0.3,0.3-0.4,0.4c0,0,0-0.1-0.1-0.1c0-0.1,0-0.1,0-0.2c0.2-0.1,0.3-0.2,0.5-0.3V313.8z M961.7,289
			c-0.1-0.2-0.2-0.5-0.3-0.7c0.1-0.2,0.2-0.4,0.3-0.5c0.1,0.2,0.2,0.3,0.3,0.5C961.9,288.5,961.8,288.8,961.7,289z M961.7,283.8
			c0,0.1,0.1,0.2,0.1,0.2C961.7,284,961.7,283.9,961.7,283.8z M962.6,314.8L962.6,314.8c0.1-0.2,0.2-0.2,0.3-0.3c0,0,0,0,0.1,0.1
			C962.9,314.6,962.8,314.7,962.6,314.8z M962.6,277.8c0-0.1,0-0.2,0-0.2s0,0,0.1,0.1C962.7,277.7,962.7,277.7,962.6,277.8z
			 M963,280.4c-0.1-0.1-0.1-0.3-0.2-0.4c0.1,0,0.1,0.1,0.2,0.1s0.1,0.1,0.1,0.1c0,0.1,0,0.1,0.1,0.2
			C963.1,280.4,963,280.4,963,280.4z M963.5,294.4C963.4,294.4,963.4,294.4,963.5,294.4c-0.1-0.5-0.1-1-0.1-1.4c0,0.3,0.1,0.7,0.1,1
			c0,0.1,0,0.2,0,0.3C963.5,294.3,963.5,294.3,963.5,294.4z M963.5,276.5c-0.1-0.1-0.2-0.1-0.2-0.2l0.1-0.1c0,0,0.1,0,0.1,0.1
			C963.5,276.3,963.5,276.4,963.5,276.5z M964.1,306.1c-0.1-0.1,0-0.2,0-0.2S964.2,306,964.1,306.1
			C964.2,306.1,964.2,306,964.1,306.1z M965.4,296.7c0,0.1,0,0.1,0,0.2c-0.1-0.1-0.2-0.2-0.2-0.3v-0.1
			C965.2,296.6,965.3,296.7,965.4,296.7z M965.3,295.3c0-0.2,0-0.3,0-0.5l0.1,0.1v0.5C965.4,295.4,965.3,295.4,965.3,295.3z
			 M964.4,277.2C964.4,277.1,964.4,277.1,964.4,277.2c0.3,0.2,0.5,0.4,0.8,0.6C964.9,277.5,964.7,277.3,964.4,277.2z M964.9,305.1
			C964.8,305.2,964.9,305.2,964.9,305.1C964.8,305.1,964.8,305.1,964.9,305.1z M965,298.3v-0.2c0.1,0.1,0.1,0.1,0.2,0.2v0.1
			C965.1,298.4,965.1,298.4,965,298.3z M965.5,302.5c-0.1-0.1-0.2-0.2-0.3-0.2c0-0.1,0-0.3-0.1-0.4c0,0,0,0,0.1-0.1
			c0.2,0.2,0.3,0.3,0.5,0.5C965.7,302.4,965.6,302.4,965.5,302.5z M966.9,280.5C966.9,280.4,966.9,280.4,966.9,280.5L966.9,280.5z
			 M967.9,309.2c0.1-0.1,0.2-0.2,0.2-0.3h0.1C968.1,309,968,309.1,967.9,309.2z M968.1,282.3C968.1,282.2,968.1,282.2,968.1,282.3
			C968.1,282.2,968.2,282.2,968.1,282.3z M969.1,308.2c-0.1-0.1-0.1-0.2-0.2-0.3c0.2-0.3,0.5-0.6,0.7-0.8h0.1c0.1,0,0.2,0.1,0.3,0.1
			C969.7,307.6,969.4,307.9,969.1,308.2z M969.2,292.8L969.2,292.8c0,0,0,0.1,0,0.2C969.2,293,969.2,292.9,969.2,292.8z
			 M969.4,300.9v-0.6l0.1-0.1c0.1,0.1,0.2,0.2,0.3,0.3c-0.1,0.2-0.2,0.4-0.2,0.6C969.5,301.1,969.4,301,969.4,300.9z M969.6,286
			c0-0.1,0-0.3,0-0.4c0,0.1,0.1,0.2,0.1,0.3c0.2,0.5,0.5,1,0.7,1.4C970.2,286.9,969.9,286.4,969.6,286z M972,302.4
			c0-0.1,0-0.1,0-0.2C972,302.2,972.1,302.3,972,302.4C972.1,302.3,972,302.3,972,302.4z M972.4,293.4c-0.1-0.2-0.1-0.4-0.2-0.6
			v-0.1c0.2,0.3,0.5,0.5,0.7,0.8c0,0.2,0,0.4,0.1,0.6C972.8,293.8,972.6,293.6,972.4,293.4z M1155,297.3c0-0.1,0-0.2,0-0.3
			c0.1,0.2,0.2,0.5,0.3,0.7C1155.2,297.6,1155.1,297.5,1155,297.3z M1155.3,294.1C1155.3,294,1155.3,294,1155.3,294.1L1155.3,294.1z
			 M1155.2,291.7L1155.2,291.7c-0.1-0.1,0-0.3,0-0.6c0.1,0,0.2,0.1,0.2,0C1155.3,291.4,1155.3,291.5,1155.2,291.7z M1155.5,300.9
			c0-0.1,0-0.1,0-0.2c0.1,0.1,0.1,0.2,0.2,0.3C1155.6,300.9,1155.6,300.9,1155.5,300.9z M1155.5,295.5c0.1,0.1,0.3,0.2,0.4,0.3
			c0,0.1,0,0.2,0,0.3C1155.8,295.9,1155.6,295.7,1155.5,295.5z M1156.4,291.5c0,0.1-0.1,0.3-0.2,0.4c0,0-0.1-0.1-0.2-0.1
			c0.1-0.3,0.3-0.6,0.4-0.9C1156.4,291.1,1156.4,291.3,1156.4,291.5z M1156.4,287.3c0-0.1,0.1-0.2,0.1-0.4
			C1156.5,287.1,1156.5,287.2,1156.4,287.3z M1157.2,306.1c-0.1-0.3-0.2-0.5-0.3-0.8C1157,305.5,1157.1,305.7,1157.2,306.1
			C1157.2,306,1157.2,306,1157.2,306.1z M1156.6,302.3l0.1,0.1c0.1,0.2,0.3,0.4,0.4,0.6c0,0,0,0.1-0.1,0.1c0,0-0.1-0.1-0.1-0.2
			C1156.8,302.8,1156.7,302.5,1156.6,302.3z M1157.7,305.4c0,0,0-0.1-0.1-0.1c0,0,0,0,0.1-0.1l0.1,0.1
			C1157.7,305.3,1157.7,305.4,1157.7,305.4z M1158.7,308.5c-0.2-0.3-0.4-0.6-0.6-0.9c0,0,0,0,0.1,0
			C1158.3,307.8,1158.5,308.1,1158.7,308.5z M1158.5,295.8c0-0.1,0-0.1,0-0.2c0.1,0.1,0.1,0.2,0.2,0.3
			C1158.6,295.9,1158.5,295.8,1158.5,295.8z M1158.8,290.1c0.2-0.4,0.3-0.7,0.5-1.1c0.1,0,0.1,0.1,0.2,0.1c0,0.1,0,0.1,0,0.2
			c-0.1,0.3-0.3,0.6-0.4,1C1159,290.3,1158.9,290.2,1158.8,290.1z M1159.5,309.4C1159.6,309.4,1159.6,309.4,1159.5,309.4h0.2
			c0,0.1,0,0.1,0.1,0.2C1159.7,309.4,1159.6,309.4,1159.5,309.4z M1159.7,281c-0.1,0.1-0.1,0.1-0.2,0.1c0.3-0.5,0.7-1,1-1.5
			C1160.3,280.1,1160,280.6,1159.7,281z M1161.5,285.4c-0.1-0.1-0.3-0.2-0.4-0.2c0.1-0.3,0.3-0.6,0.4-0.8c0.1,0.1,0.2,0.1,0.3,0.2
			C1161.7,284.8,1161.6,285.1,1161.5,285.4z M1161.9,292.2c-0.1,0-0.1,0-0.2-0.1v-0.3C1161.8,291.9,1161.9,292,1161.9,292.2z
			 M1161.2,303.1c0.1-0.1,0.2-0.2,0.2-0.2c0.1,0.1,0.1,0.2,0.2,0.3C1161.5,303.2,1161.4,303.1,1161.2,303.1z M1161.6,299.9
			c-0.1,0-0.1-0.1-0.2-0.1c0-0.1-0.1-0.1-0.1-0.2s0.1-0.2,0.1-0.2c0.1-0.1,0.2-0.2,0.3-0.3c0.1,0.1,0.3,0.1,0.4,0.2
			C1162,299.5,1161.8,299.7,1161.6,299.9z M1162.2,283.7c-0.1-0.1-0.2-0.1-0.3-0.2l0.1-0.1c0.1,0.1,0.2,0.1,0.3,0.2
			C1162.2,283.6,1162.2,283.6,1162.2,283.7z M1162.7,282.7c-0.1-0.1-0.1-0.1-0.2-0.2c0.1-0.1,0.2-0.3,0.2-0.4
			c0.1,0.1,0.2,0.1,0.2,0.2C1162.9,282.4,1162.8,282.5,1162.7,282.7z M1163.4,296.8c-0.1,0-0.1-0.1-0.2-0.1c0.1-0.1,0.2-0.3,0.3-0.4
			c0.1,0,0.1,0,0.2,0c0.1,0,0.1-0.1,0.2-0.1C1163.7,296.4,1163.6,296.6,1163.4,296.8z M1164.6,277.3c-0.3,0-0.6,0.1-0.9,0.3
			c0-0.1,0-0.1,0-0.2C1164.1,277.4,1164.4,277.4,1164.6,277.3z M1164,276.4c0,0,0.1,0,0.1-0.1C1164.1,276.3,1164.1,276.3,1164,276.4
			C1164.1,276.4,1164.1,276.4,1164,276.4z M1164.5,292.2c0.2-0.3,0.3-0.6,0.5-1c0,0.5,0,0.9,0,1.4c-0.1,0-0.2,0-0.2,0
			C1164.6,292.6,1164.5,292.4,1164.5,292.2C1164.5,292.3,1164.5,292.3,1164.5,292.2z M1164.6,294.9c0.2,0.2,0.3,0.4,0.4,0.7v0.1
			h-0.1C1164.8,295.5,1164.7,295.2,1164.6,294.9z M1164.9,313.5l0.1-0.1c0.3,0.2,0.6,0.3,0.9,0.5c0.1,0.1,0.2,0.3,0.4,0.4
			C1165.8,314,1165.4,313.8,1164.9,313.5z M1166.4,308.8c0.1,0,0.3,0.1,0.5,0.2C1166.7,309,1166.6,308.9,1166.4,308.8z
			 M1166.8,284.1c0,0,0-0.1-0.1-0.1c0.1-0.1,0.2-0.1,0.3-0.2C1167,283.9,1166.9,284,1166.8,284.1z M1167,277.2
			C1167,277.1,1167,277.1,1167,277.2c-0.1-0.1-0.2-0.2-0.3-0.3c0.2,0,0.4-0.1,0.6-0.1l0.1,0.1C1167.2,276.9,1167.1,277,1167,277.2z
			 M1168.6,313.6c-0.2-0.1-0.5-0.2-0.7-0.3v-0.1c0.3,0.1,0.5,0.2,0.7,0.3C1168.7,313.5,1168.7,313.6,1168.6,313.6z M1167.7,310.7
			l0.1-0.1c0.1,0,0.2,0.1,0.3,0.1c0,0.1-0.1,0.1-0.1,0.2C1168,310.8,1167.8,310.7,1167.7,310.7z M1168.5,303.5c0,0,0-0.1-0.1-0.1
			C1168.5,303.5,1168.5,303.5,1168.5,303.5z M1168.6,306.8c0.1,0.1,0.2,0.1,0.3,0.2s0.2,0.1,0.3,0.1c0,0,0,0,0,0.1
			C1168.9,307.1,1168.7,307,1168.6,306.8z M1169.4,311.6c-0.1-0.1-0.3-0.2-0.4-0.2c0-0.1,0.1-0.2,0.1-0.3c0.2,0.1,0.4,0.2,0.6,0.3
			L1169.4,311.6z M1169.9,314.2c0,0-0.1,0-0.1-0.1l0.1-0.1c0,0,0,0,0.1,0C1170,314.1,1169.9,314.1,1169.9,314.2z M1170.2,306
			c-0.3-0.2-0.7-0.4-1-0.6v-0.1C1169.6,305.5,1169.9,305.7,1170.2,306C1170.3,306,1170.3,305.9,1170.2,306z M1169.2,304.1
			c0,0,0.1,0,0.1,0.1C1169.2,304.2,1169.2,304.2,1169.2,304.1z M1171.1,310.2c-0.2-0.1-0.4-0.2-0.5-0.3c-0.1,0-0.1-0.1-0.2-0.1
			C1170.6,309.9,1170.9,310.1,1171.1,310.2z M1171.1,308.4c-0.1-0.1-0.3-0.1-0.4-0.2c0-0.1,0.1-0.1,0.1-0.2c0.1,0,0.2,0.1,0.3,0.2
			C1171.2,308.2,1171.1,308.3,1171.1,308.4z M1171.8,312.8c0,0-0.1,0-0.1-0.1c0.1-0.1,0.1-0.2,0.2-0.3c0,0,0,0,0,0.1
			S1171.8,312.7,1171.8,312.8z M1172.8,315.5c-0.2-0.1-0.4-0.2-0.6-0.3c0-0.1,0.1-0.1,0.1-0.2c0.2,0.1,0.3,0.2,0.5,0.2
			C1172.8,315.4,1172.8,315.4,1172.8,315.5z M1172.8,307.6c-0.1-0.2-0.3-0.4-0.5-0.5c-0.1-0.1-0.3-0.1-0.4,0
			c-0.2-0.1-0.3-0.2-0.5-0.3v-0.1c0.6,0.3,1.1,0.6,1.7,0.9c-0.1,0.1-0.1,0.1-0.1,0.2C1172.9,307.6,1172.8,307.6,1172.8,307.6z
			 M1173.4,311.4c-0.1,0-0.2-0.1-0.4-0.2c0,0,0,0,0-0.1C1173.1,311.2,1173.3,311.3,1173.4,311.4z M1173.8,316c0-0.1,0-0.1,0-0.2
			c0,0,0,0,0.1,0C1173.9,315.9,1173.8,315.9,1173.8,316z M1173.8,308.1c0-0.1,0.1-0.1,0.1-0.2c0,0,0,0,0-0.1c0,0,0.1,0,0.1,0.1
			S1173.9,308.1,1173.8,308.1C1173.9,308.2,1173.8,308.2,1173.8,308.1z M1174,310.1c-0.1,0-0.1-0.1-0.1-0.1l0.1-0.1
			C1174,310,1174,310,1174,310.1z M1174.8,314.2c-0.1-0.1-0.3-0.1-0.4-0.2c0-0.1,0.1-0.2,0.1-0.4c0.2,0.1,0.3,0.1,0.4,0.2
			C1174.9,314,1174.8,314.1,1174.8,314.2z M1175.7,314.4c0,0,0-0.1,0.1-0.1h0.1C1175.8,314.3,1175.8,314.3,1175.7,314.4z
			 M1175.7,310.5c0-0.1,0.1-0.3,0.1-0.4c0.1,0,0.1-0.1,0.1-0.2c0.1,0,0.1,0,0.2,0c0,0.2,0.1,0.4,0.1,0.6
			C1176,310.6,1175.8,310.6,1175.7,310.5z M1177.2,310h0.1c0,0.1,0.1,0.1,0.1,0.2c0,0-0.1,0-0.1,0.1
			C1177.2,310.1,1177.2,310,1177.2,310z M1179.1,310.5c0,0,0-0.1-0.1-0.1c0,0,0,0,0.1-0.1C1179.1,310.3,1179.2,310.4,1179.1,310.5
			C1179.1,310.5,1179.1,310.5,1179.1,310.5z M1182.1,317.2c0-0.2,0-0.4-0.1-0.6h0.1c0.2,0.2,0.4,0.4,0.6,0.5
			C1182.5,317.1,1182.3,317.2,1182.1,317.2z M1186.5,313.4c0-0.1-0.1-0.1-0.1-0.2c0,0,0-0.1,0.1-0.1c0.1,0.1,0.1,0.2,0.2,0.3
			C1186.6,313.4,1186.6,313.4,1186.5,313.4z M1187.1,315.6c0.1,0,0.2-0.1,0.3-0.1c0,0,0,0,0.1,0
			C1187.4,315.6,1187.2,315.6,1187.1,315.6z M1188.8,313c0-0.1,0-0.2,0-0.3c0.1,0,0.2,0,0.3,0c0.1,0.1,0.1,0.2,0.2,0.3
			C1189.1,312.9,1189,312.9,1188.8,313z M1189.4,306.3c0.3-0.2,0.7-0.5,1-0.7c-0.3,0.3-0.6,0.5-0.9,0.8
			C1189.4,306.4,1189.4,306.3,1189.4,306.3z M1189.9,315c-0.1,0-0.2-0.1-0.2-0.1c0.2-0.1,0.4-0.1,0.6-0.2c0,0,0.1,0.1,0.1,0.2
			C1190.3,314.9,1190.1,314.9,1189.9,315z M1192.1,314.1c0-0.1,0-0.1,0.1-0.1L1192.1,314.1z M1188.7,302.6
			c-3.7,3.8-9.9,3.5-14.8,0.9c-0.1-0.1-0.2-0.3-0.4-0.3c-5.5-3.3-8.1-12.1-3.2-17.3c4.3-4.7,12.1-3.6,17.2-1
			C1194.5,288.3,1193.3,297.9,1188.7,302.6z M1167.9,274.7c0.1,0,0.2-0.1,0.3-0.1C1168.1,274.6,1168,274.6,1167.9,274.7z
			 M1168,281.3C1167.9,281.3,1167.9,281.3,1168,281.3L1168,281.3z M1168.3,275.6C1168.3,275.5,1168.3,275.5,1168.3,275.6
			c0.3-0.1,0.5-0.1,0.8-0.2c-0.1,0-0.2,0-0.3,0.1C1168.7,275.5,1168.5,275.5,1168.3,275.6z M1169.4,279.5c0.1,0,0.1,0,0.1,0.1
			C1169.5,279.6,1169.4,279.6,1169.4,279.5z M1170.5,275l-0.1-0.1c0.1,0,0.2-0.1,0.3-0.1v0.1C1170.6,275,1170.6,275,1170.5,275z
			 M1170.5,279.2c-0.1-0.1-0.2-0.2-0.3-0.3c0,0,0,0,0-0.1c0,0,0,0,0.1,0C1170.3,278.9,1170.4,279,1170.5,279.2z M1169.9,274.1
			c-0.1,0-0.2,0-0.3,0.1l-0.1-0.1c0.3-0.1,0.5-0.2,0.8-0.3v0.1C1170.2,274,1170.1,274,1169.9,274.1z M1171.6,273.5
			c0.1-0.1,0.3-0.1,0.4-0.1C1171.9,273.4,1171.8,273.5,1171.6,273.5z M1172.8,274.1c0.1,0,0.2-0.1,0.3-0.1l0.2,0.4
			c-0.1,0-0.3,0.1-0.4,0.1C1172.9,274.3,1172.8,274.2,1172.8,274.1z M1175.1,272.5c0,0.1,0,0.1,0.1,0.2
			C1175.1,272.7,1175.1,272.6,1175.1,272.5z M1175.2,273.3c0.1,0,0.2,0,0.3-0.1c0.1,0.1,0.2,0.3,0.3,0.5c-0.1,0-0.3,0.1-0.4,0.1
			C1175.3,273.7,1175.3,273.5,1175.2,273.3z M1177,276.7c0.2,0,0.4-0.1,0.6-0.1c-0.3,0.1-0.7,0.3-1.1,0.4c0,0,0,0,0.1-0.1
			C1176.8,276.9,1176.9,276.8,1177,276.7z M1178.4,273.7c0,0,0.1-0.1,0.2-0.1C1178.5,273.6,1178.5,273.7,1178.4,273.7z
			 M1180.1,278.2c0.2-0.3,0.4-0.6,0.5-1c0,0.4,0.1,0.7,0.1,1.1C1180.5,278.3,1180.3,278.2,1180.1,278.2z M1181,274
			c0.2,0.1,0.3,0.1,0.5,0.2c0,0,0,0,0.1,0h-0.4C1181,274.2,1181,274.1,1181,274z M1182.7,279.5c-0.2,0-0.3,0-0.5,0c0,0,0,0,0.1,0
			C1182.4,279.5,1182.5,279.5,1182.7,279.5z M1184.7,276.1c0-0.1,0-0.1,0.1-0.2h0.1c0,0.1,0,0.1,0.1,0.2
			C1184.9,276,1184.8,276,1184.7,276.1z M1186.3,273.8c0.3,0.1,0.5,0.2,0.8,0.3v0.1c-0.2-0.1-0.5-0.1-0.7-0.1
			C1186.4,274,1186.3,273.9,1186.3,273.8z M1187.7,281.1c0.1-0.1,0.2-0.2,0.3-0.3c0.1,0,0.3-0.1,0.4-0.2l0.1,0.1
			c-0.1,0.2-0.4,0.3-0.7,0.4C1187.8,281.1,1187.8,281.1,1187.7,281.1z M1189.1,274.9c0.1,0,0.2,0,0.3,0.1c0,0,0,0,0,0.1
			C1189.2,275,1189.1,275,1189.1,274.9z M1189.6,277.8c0.1,0,0.2,0,0.3,0.1C1189.8,277.9,1189.7,277.8,1189.6,277.8z M1190.7,282.8
			l0.1,0.1l0.1,0.1C1190.8,282.9,1190.7,282.9,1190.7,282.8z M1191.9,276.4c0.2,0.1,0.4,0.2,0.5,0.3c0,0-0.1,0-0.1,0.1
			C1192.2,276.7,1192,276.5,1191.9,276.4z M1193.4,307.3c0-0.1,0-0.2,0-0.2S1193.4,307.2,1193.4,307.3
			C1193.5,307.2,1193.5,307.3,1193.4,307.3z M1193.6,286.2c-0.2-0.4-0.5-0.7-0.7-1h0.1c0.1,0.1,0.1,0.1,0.2,0.2
			c0.2,0.2,0.4,0.5,0.6,0.7C1193.8,286.1,1193.7,286.1,1193.6,286.2z M1194.4,287.4L1194.4,287.4
			C1194.4,287.3,1194.4,287.3,1194.4,287.4C1194.5,287.3,1194.4,287.3,1194.4,287.4z M1194.1,278.3c0-0.1,0.1-0.3,0.1-0.4
			c0.1,0,0.1,0.1,0.2,0.1C1194.3,278.1,1194.2,278.2,1194.1,278.3z M1195,279.1c0.1-0.1,0.1-0.2,0.2-0.2
			C1195.2,278.9,1195.1,279,1195,279.1C1195.1,279.1,1195.1,279.1,1195,279.1z M1195.1,311.5l0.1-0.1l0.1,0.1
			C1195.3,311.5,1195.2,311.5,1195.1,311.5z M1195.7,282.9c-0.1,0-0.2,0.1-0.3,0.1c-0.1-0.2-0.1-0.3-0.2-0.5c0.1,0,0.1,0,0.2,0
			l0.1,0.1C1195.6,282.7,1195.7,282.7,1195.7,282.9C1195.7,282.8,1195.7,282.8,1195.7,282.9z M1195.9,279.7c0-0.1,0.1-0.2,0.1-0.2
			l0.1,0.1C1196.1,279.6,1196,279.6,1195.9,279.7z M1196.2,314.3c0-0.1,0-0.2-0.1-0.3c0.4-0.1,0.8-0.2,1.1-0.4
			C1196.9,313.9,1196.6,314.1,1196.2,314.3z M1196.3,307.7c0.1-0.1,0.3-0.3,0.4-0.5c0.1,0.1,0.1,0.2,0.2,0.3
			c-0.1,0.1-0.2,0.3-0.3,0.4C1196.5,307.9,1196.4,307.8,1196.3,307.7z M1197.4,295.3L1197.4,295.3
			C1197.5,295.2,1197.5,295.2,1197.4,295.3z M1197.5,291.2C1197.5,291.1,1197.6,291.1,1197.5,291.2
			C1197.6,291.1,1197.6,291.1,1197.5,291.2z M1198.2,307.7c0-0.1,0.1-0.1,0.1-0.2C1198.3,307.6,1198.3,307.6,1198.2,307.7z
			 M1198.4,291c0,0,0-0.1,0-0.2V291z M1198.6,276.9c-5.7-5-13.3-7.9-21-8.1c-15.3-0.3-26.5,12.2-26.1,26.6c-0.1,0.9-0.1,1.8,0,2.7
			c-1.6-0.3-3.4,0-4.9-0.1c-3.3-0.1-6.7-0.6-10-0.8c-6.7-0.2-13.2-1-19.9-1h-23c-7.6,0-15-0.5-22.6-0.5c-7.3,0-14.7-1-22-0.6
			c-7.7,0.4-15.6,1.1-23.2,0.8c-8.4-0.3-16.8,0-25.2-0.2c-7.8-0.2-16-1.6-23.8-0.4c-0.2-3.7-1.1-7.5-2.1-11
			c-4.8-16.1-24-22.5-39-17.8c-4.8,1.5-8.9,4.8-12,8.8c-1.9-0.5-4.1-0.4-6.1-0.5c-3.4-0.1-6.9-0.4-10.3-0.7
			c-6.4-0.5-12.7-1.7-19.1-1.8c-0.5,0-1,0-1.5-0.1c0.5-3.4,0.2-7.2,0.2-10.6c0.1-6.2,0.6-12.4,1.1-18.5c0.5-5.4,1.5-10.8,2.1-16.2
			c0.3-2.6,1.2-5,1.6-7.6c0.3-1.8,8.1-1.8,9.3-1.8c10.2-0.1,21,0,31.2-1.3c3.2-0.4,8.5,0.4,11-2.1c3.3-3.3,3.7-9.9,4.6-14.1
			c2.5-12,6.5-23.4,10.8-34.9c2.1-5.6,4.1-11.3,6.2-16.9c1.2-3.1,2.5-6.1,4-9.1c2.1-4.2,5.6-5.5,9.7-7c11.5-4.2,23.6-3.4,35.6-4.1
			c10.9-0.5,22.3,0,33.6,0c-0.1,1.9,0.1,3.9,0.3,5.8c0.4,4.3,0.3,8.8,0.4,13.1c0.2,9.3,0.5,18.7,1.2,27.9
			c0.7,10.1,0.5,20.3,0.5,30.3c0,5.4,0,10.8,0,16.2c0,4.8-0.2,9.7,1.1,14.3c0.3,1,1.1,1.3,1.8,1.2c14.9,0.5,29.9-0.3,44.8-0.2
			c14.7,0.1,29.4,0.8,44.1,0.2c14.7-0.6,29.7-0.5,44.4,0.3c14.9,0.9,30.1,0.3,45.1-0.1c-0.2,2.4-0.2,4.8-0.1,7.1
			c0.2,4.4,0.1,8.5-0.3,12.9c-0.4,4.3-0.2,8.7-0.6,13c-0.2,1.9-0.5,4-0.2,5.9c-5.3,0.1-10.5,0.9-15.8,0.3
			C1209.4,275.8,1203.7,276.3,1198.6,276.9z M1199.5,292.8c-0.1-0.1-0.1-0.2-0.1-0.3h0.1C1199.6,292.6,1199.6,292.7,1199.5,292.8z
			 M1199.4,290.7c0-0.1,0-0.2,0-0.3h0.1c0.1,0,0.1,0,0.1,0c0,0.1,0,0.2,0,0.2C1199.6,290.7,1199.5,290.7,1199.4,290.7z M1200,299.1
			C1199.9,299.1,1199.9,299.1,1200,299.1c-0.1,0-0.1-0.1-0.1-0.3h0.1V299.1z M1200.3,286.5c-0.1-0.2-0.2-0.3-0.3-0.5c0,0,0,0,0.1,0
			c0.2-0.1,0.2-0.2,0.2-0.4c0,0,0.1,0,0.1,0.1C1200.4,286,1200.4,286.3,1200.3,286.5z M1201.1,302.1
			C1201.2,302.1,1201.2,302.1,1201.1,302.1L1201.1,302.1z M1201.4,307.1c-0.1-0.1-0.1-0.1-0.2-0.2l-0.1-0.1v-0.1
			c0.1,0.2,0.3,0.4,0.4,0.5C1201.6,307.2,1201.5,307.2,1201.4,307.1z M1238.5,279.3c1.6-0.1,3.2-0.2,4.8-0.4c3-0.3,2.4,2.1,2.4,4.6
			c0,4.3,0,8.7-0.5,13c-0.4,3.8-11.6,1.8-14.4,1.5c-7.7-0.8-15.1-1.3-22.8-1.2c0-0.5,0-1-0.1-1.4c-0.4-6-2.9-11.3-6.6-15.6
			c3,0.1,6.1-0.1,9.2,0.1c4.3,0.3,8.8,0.2,13.1,0C1228.6,279.7,1233.6,279.7,1238.5,279.3z M1235.1,266.9c-0.1-0.1-0.2-0.1-0.2-0.2
			v-0.2c0.2,0,0.3,0,0.5,0.1C1235.3,266.7,1235.2,266.8,1235.1,266.9z M1236.5,268.2c-0.1-0.1-0.1-0.1-0.2-0.2
			c0.1-0.1,0.1-0.2,0.2-0.3c0.1,0.1,0.1,0.2,0.2,0.3C1236.5,268,1236.5,268.1,1236.5,268.2z M1237.1,268.7
			C1237.1,268.8,1237.1,268.8,1237.1,268.7L1237.1,268.7z M1237.4,266.8c-0.1,0-0.1-0.1-0.2-0.1
			C1237.3,266.7,1237.4,266.7,1237.4,266.8C1237.4,266.8,1237.4,266.8,1237.4,266.8z M1238.1,267.4
			C1238.1,267.3,1238.1,267.3,1238.1,267.4L1238.1,267.4z M1238.8,267.9c0-0.1,0-0.1,0-0.2c0,0,0,0,0,0.1
			C1238.9,267.8,1238.8,267.8,1238.8,267.9z M1240.5,267.3C1240.4,267.3,1240.4,267.3,1240.5,267.3
			C1240.4,267.3,1240.4,267.2,1240.5,267.3c0-0.2,0.1-0.2,0.1-0.3l0.1,0.1C1240.6,267.2,1240.6,267.2,1240.5,267.3z M1241.4,267.9
			c0,0,0.1,0,0.1,0.1C1241.5,268,1241.4,268,1241.4,267.9z M1246,266.8C1245.9,266.8,1245.9,266.8,1246,266.8L1246,266.8z
			 M1243.6,267.5l-0.1-0.1c0.1-0.1,0.2,0,0.3,0.3C1243.8,267.6,1243.7,267.6,1243.6,267.5z M1245.2,267.9c0-0.2-0.1-0.4-0.2-0.5
			c0-0.1,0-0.2,0-0.3c0.2,0.1,0.3,0.3,0.5,0.4C1245.4,267.7,1245.3,267.8,1245.2,267.9z M1246.2,268.7c-0.1,0-0.3,0-0.4,0
			c-0.1,0-0.2,0-0.2,0c0.2-0.2,0.3-0.4,0.5-0.7c0.2,0.2,0.4,0.4,0.6,0.5C1246.6,268.7,1246.4,268.7,1246.2,268.7z M1248.6,267.1
			c-0.1-0.1-0.2-0.2-0.3-0.3h0.5C1248.7,266.9,1248.7,267,1248.6,267.1z M1250.7,268.5C1250.6,268.4,1250.6,268.4,1250.7,268.5
			c0-0.2,0.1-0.3,0.2-0.4c0.1,0.1,0.3,0.3,0.4,0.4C1251.1,268.5,1250.9,268.5,1250.7,268.5z M1252.9,267.6c-0.1-0.1-0.1-0.3-0.2-0.4
			c0.1,0.1,0.3,0.1,0.4,0.3C1253,267.5,1252.9,267.6,1252.9,267.6z M1254.3,268.4c-0.3,0-0.7,0-1,0c0.1-0.1,0.2-0.1,0.2-0.2
			c0,0,0.1-0.1,0.2-0.2C1254,268.1,1254.2,268.3,1254.3,268.4z M1254.4,267.3C1254.5,267.3,1254.5,267.3,1254.4,267.3L1254.4,267.3z
			 M1255.4,268.3C1255.4,268.2,1255.5,268.2,1255.4,268.3L1255.4,268.3z M1256.7,268.1c0.1,0,0.2-0.1,0.3-0.1s0.1,0.1,0.2,0.1
			C1257,268,1256.8,268.1,1256.7,268.1z M1268.4,250.5c-0.8,0.3-1.2,1.5-0.9,2.3c0.6,1.4,1.6,2.9,1.3,4.4c-0.4,2.1-1.7,3.9-3.5,5.1
			c-0.2-2.5-1.5-4.9-3.8-6.2c-2.3-1.3-4.6-1.9-7.2-2.1c-1.9-0.1-3.6-0.5-4.8-2.2c-1.5-2.1,1.8-2.4,3.1-2.2c0.4,0.2,0.9,0.4,1.4,0.4
			c1.8,0.1,2.6-2.7,0.9-3.5c-0.3-0.2-0.7-0.3-1-0.4c-0.1-0.6-0.2-3.3-0.3-3.5c0.3-2.2,2.3-3.9,4-5.1c6.5-4.5,9.1,4.4,7.9,9.1
			c-0.5,1.8,1.4,3,3,2.3l1.7,0.7C1269.7,249.9,1269.1,250.2,1268.4,250.5z"/>
		<path id="carW4" fill="#022433" d="M1177.1,285.7c-2.8,0.6-4.8,2.4-5.6,5.1c-0.6,2.1-0.6,4.3,0.6,5.9c1,1.8,2.6,3.4,4.3,4.1
			c4.7,1.8,11.2-0.2,11.7-6C1188.7,288.3,1183.1,284.4,1177.1,285.7z M1174.7,293.6c0.2,0.1,0.4,0.2,0.5,0.2
			c-0.2,0.1-0.4,0.3-0.3,0.6C1174.8,294.1,1174.7,293.8,1174.7,293.6z M1175.2,295.6c0-0.1-0.1-0.6-0.3-1.2c0.1,0.3,0.2,0.5,0.3,0.7
			C1175.2,295.3,1175.2,295.5,1175.2,295.6z M1176,289.5c0-0.1,0.1-0.1,0.1-0.1C1176.1,289.5,1176,289.5,1176,289.5z M1176.5,292.7
			c-0.1-0.5-0.1-1-0.2-1.4c0.1,0.4,0.2,0.8,0.2,1.1C1176.5,292.5,1176.5,292.6,1176.5,292.7z M1177.7,290c0,0,0,0.1-0.1,0.2
			c0-0.1-0.1-0.1-0.1-0.2C1177.6,290,1177.7,290,1177.7,290z M1177.5,294.1c0-0.1,0-0.2,0-0.3v-0.1
			C1177.5,293.8,1177.5,293.9,1177.5,294.1C1177.5,294,1177.5,294,1177.5,294.1z M1177.6,296c0-0.2,0-0.5,0-0.7
			c0.1-0.1,0.2-0.1,0.3-0.2c0,0.1,0,0.2,0,0.3C1177.8,295.6,1177.7,295.8,1177.6,296z M1178,291.6c0.1-0.2,0.2-0.4,0.3-0.6
			c0,0.2,0.1,0.3,0.1,0.5c-0.1,0.1-0.2,0.2-0.3,0.3C1178,291.6,1178,291.6,1178,291.6z M1178.3,293c0-0.1,0-0.2-0.1-0.3
			c0.1-0.1,0.2-0.1,0.2-0.2v0.1C1178.4,292.8,1178.3,292.9,1178.3,293z M1178.6,294.4C1178.5,294.4,1178.5,294.4,1178.6,294.4
			c0-0.2,0.1-0.3,0.2-0.4c0,0.1,0,0.1,0,0.2C1178.7,294.3,1178.6,294.4,1178.6,294.4z M1179.9,295.1c0-0.1,0.1-0.3,0.1-0.4
			c0,0.1,0.1,0.2,0.1,0.3C1180,295.1,1179.9,295.1,1179.9,295.1z M1180.6,296.6c0,0.1,0.1,0.1,0.1,0.1h-0.1
			C1180.6,296.7,1180.6,296.6,1180.6,296.6L1180.6,296.6z M1180.6,298.3c0-0.1,0.1-0.1,0.1-0.2c0.1,0,0.2-0.1,0.3-0.1
			c0.1,0.1,0.2,0.1,0.3,0.1C1181.1,298.2,1180.8,298.2,1180.6,298.3z M1182.1,293.8c-0.1,0.1-0.2,0.1-0.3,0.2c0-0.2,0-0.4,0-0.6
			c0-0.1,0.1-0.3,0.1-0.4C1182,293.2,1182,293.5,1182.1,293.8z M1183.5,291.1l-0.1-0.1c0.1-0.1,0.2-0.2,0.2-0.3v-0.1
			c0.1,0.1,0.2,0.2,0.2,0.3C1183.8,290.9,1183.6,290.9,1183.5,291.1z"/>
		<path id="carW2" fill="#FFFFFF" d="M1187.5,284.8c-5.1-2.5-12.8-3.6-17.2,1c-4.9,5.2-2.3,13.9,3.2,17.3c0.2,0.1,0.3,0.2,0.4,0.3
			c4.9,2.5,11.1,2.8,14.8-0.9C1193.3,297.9,1194.5,288.3,1187.5,284.8z M1188.1,294.7c-0.5,5.8-7,7.8-11.7,6
			c-1.8-0.7-3.4-2.3-4.3-4.1c-1.2-1.6-1.2-3.9-0.6-5.9c0.8-2.7,2.8-4.5,5.6-5.1C1183.1,284.4,1188.7,288.3,1188.1,294.7z"/>
		<path id="carW3" fill="#022433" d="M943.2,285.6c-1.1,0.5-2,1.1-2.8,1.9c-0.1,0-0.3,0.1-0.4,0.2c-3.9,4-2.8,10.6,2.5,12.7
			c5.9,2.3,11.2-1,11.6-7.2C954.5,287.6,948.4,283.3,943.2,285.6z M941.7,293.3c0.1,0.1,0.1,0.2,0.1,0.2v0.1
			C941.8,293.5,941.8,293.4,941.7,293.3z M943.4,291.1C943.3,291.1,943.3,291.1,943.4,291.1L943.4,291.1z M942.6,292.1
			c0-0.1,0.1-0.2,0.1-0.3c0.1,0,0.1,0.1,0.2,0.1c0,0.1-0.1,0.1-0.1,0.2C942.7,292.2,942.7,292.1,942.6,292.1z M943,295.3
			c-0.1-0.2-0.1-0.4-0.2-0.5c0.1,0,0.1,0,0.2,0c0.1,0,0.2-0.1,0.3-0.1C943.2,294.8,943.1,295.1,943,295.3z M947.9,289.4L947.9,289.4
			C947.9,289.4,947.9,289.4,947.9,289.4z M947.6,291.4v0.1c0-0.1-0.1-0.2-0.1-0.2C947.6,291.3,947.6,291.3,947.6,291.4z
			 M947.5,295.9c0,0,0,0.1,0.1,0.1l-0.1,0.1C947.5,296.1,947.5,296,947.5,295.9z M947.4,288.9v0.1v0.1
			C947.4,289.1,947.4,289,947.4,288.9z M946.7,293.2c0-0.3,0-0.5,0-0.7c0.1,0.2,0.1,0.4,0.2,0.6
			C946.8,293.1,946.8,293.2,946.7,293.2z M947.3,297.5c0.2-0.1,0.4-0.2,0.6-0.4c0,0.1,0.1,0.1,0.1,0.2
			C947.8,297.4,947.6,297.4,947.3,297.5z M949.5,296.3c0-0.2,0.1-0.3,0.1-0.5c0,0,0.1,0.1,0.2,0.1
			C949.7,296,949.6,296.1,949.5,296.3z"/>
		<path id="carW1" fill="#FFFFFF" d="M958,289.4c-2.3-5-9.8-9.9-15.7-7.5c-4.9,2-9.1,7.9-8.4,13.3c0.4,1.4,0.9,2.7,1.6,3.9
			c0.2,0.2,0.3,0.4,0.5,0.7c0.2,0.2,0.3,0.5,0.3,0.7c2.1,2.9,5.2,5,9.4,5c3.8,0,9.3-0.3,11.4-4.3C959.1,297.7,959.7,293.1,958,289.4
			z M942.5,300.4c-5.3-2.1-6.5-8.7-2.5-12.7c0.1-0.1,0.2-0.2,0.4-0.2c0.8-0.8,1.8-1.4,2.8-1.9c5.2-2.3,11.3,2,11,7.6
			C953.7,299.4,948.4,302.8,942.5,300.4z"/>
		<path fill="#FFFFFF" d="M883.6,264.7c-1.4,0-2.3-0.1-3.5-0.7c-0.5-0.2-1.8-0.4-1.2-1.1c0.6-0.7,1.5-1.3,2.4-1.5
			c0.6-0.2,1.3,0.1,1.8,0.3c0.2,0,0.3,0,0.3,0.1C883.5,262.7,883.6,263.7,883.6,264.7z"/>
		<path fill="#FFFFFF" d="M1236.8,253.1c-0.2,0.8-0.8,1-1.5,1.1c0.2-2.8,0.3-5.5,0-8.4c0-0.3,0-0.5-0.1-0.8c0.4,0,0.7,0,1.1,0
			c1.4-0.2,1.3,2.8,1.4,3.5C1237.8,249.9,1237.2,251.8,1236.8,253.1z"/>
		<path fill="#FFFFFF" d="M1268.4,250.5c0.7-0.3,1.3-0.6,2-0.9l-1.7-0.7c-1.6,0.7-3.4-0.4-3-2.3c1.2-4.7-1.4-13.6-7.9-9.1
			c-1.7,1.2-3.7,2.9-4,5.1c0.1,0.2,0.2,2.9,0.3,3.5c0.3,0.1,0.7,0.2,1,0.4c1.7,0.8,0.9,3.6-0.9,3.5c-0.5,0-1-0.1-1.4-0.4
			c-1.3-0.2-4.7,0.1-3.1,2.2c1.2,1.6,2.9,2.1,4.8,2.2c2.6,0.2,4.9,0.7,7.2,2.1c2.2,1.3,3.6,3.7,3.8,6.2c1.8-1.1,3.2-2.9,3.5-5.1
			c0.3-1.6-0.8-3-1.3-4.4C1267.2,252,1267.6,250.8,1268.4,250.5z M1264.6,252.9c-1,0.4-1.8,0.1-2.2-0.9c0,0,0-0.2-0.1-0.3
			c-0.3-0.2-0.4-0.2-0.8-0.3c-0.4-0.1-0.8-0.2-1.3-0.1c0,0-0.5,0.3-0.3,0.1c-1.2,1.1-2.9-0.3-2.2-1.7c0.9-1.8,3.5-1.8,5.2-1.3
			c0.9,0.3,1.8,0.7,2.3,1.5C1265.7,250.9,1265.7,252.4,1264.6,252.9z"/>
		<path fill="#FFFFFF" d="M1245.7,283.5c0,4.3,0,8.7-0.5,13c-0.4,3.8-11.6,1.8-14.4,1.5c-7.7-0.8-15.1-1.3-22.8-1.2
			c0-0.5,0-1-0.1-1.4c-0.4-6-2.9-11.3-6.6-15.6c3,0.1,6.1-0.1,9.2,0.1c4.3,0.3,8.8,0.2,13.1,0c4.9-0.2,9.9-0.3,14.8-0.6
			c1.6-0.1,3.2-0.2,4.8-0.4C1246.2,278.6,1245.7,281,1245.7,283.5z"/>
		<path fill="#FFFFFF" d="M885.6,232.4c-0.2,1.4-0.3,2.7-0.5,4.1c-0.7,5.9-0.8,11.8-1.4,17.6c-2.3-0.2-5.7-0.4-5.8-2.7
			c-0.1-2.9-0.8-5.7-0.9-8.6c0-1.7-0.5-10.1,1.6-10.3C881,232.2,883.3,232.5,885.6,232.4z"/>
		<path fill="#FFFFFF" d="M918.6,284c-1.5,3.7-2.1,7.4-2,11c-8.4,0.5-17,0.3-25.4,0.1c-4.4-0.1-8.7-0.3-13.1-0.3
			c-1.8,0-5.4,0.3-5.3-2c0.1-2.3,0-4.5,0-6.8c0-3,0.2-5.8,0.9-8.8c0.8-3.3,1.6-2.5,4.9-2.3c4.9,0.3,9.9,0.7,14.8,1.1
			c9.3,0.9,19.1,2.8,28.5,1.8C920.6,279.9,919.5,281.9,918.6,284z"/>
		<path fill="#FFFFFF" d="M1234,233.4c-0.3-0.2-0.6-0.3-1.1-0.3h-0.5c0,0,0,0-0.1,0c-15.3,0.3-30.6,0.6-45.9,0.2
			c-14.8-0.4-29.7-1-44.4-0.3s-29.4,0.1-44.1-0.1c-7.3-0.1-14.6,0-21.9,0c-7.1,0-14.3-0.1-21.4,0.6c0.2-4-0.1-8.1-0.1-12.1
			c0-5.4,0-10.8,0-16.2c0-1.6,0-3.2,0-4.9c3.6-0.4,7.6-0.1,11.1-0.1c4.5,0,9,0.2,13.5,0.1c9.3-0.2,18.7-0.7,28.1-0.7
			c19,0,38-0.4,57.1,0.2c19.1,0.6,38.3,1.3,57.4,2.3c4.6,0.2,9.1-0.3,10.4,4.8c1,4,1,8,1.4,12.1c0.4,3.3,0.6,6.9,0.7,10.2
			C1234.3,230.2,1234.6,233,1234,233.4z"/>
		<path fill="#FFFFFF" d="M1231.5,244.2c-0.1-2.3-0.2-4.7,0.1-7.1c-14.9,0.4-30.2,1-45.1,0.1c-14.7-0.9-29.7-0.9-44.4-0.3
			c-14.7,0.6-29.4-0.1-44.1-0.2c-14.9-0.1-30,0.8-44.8,0.2c-0.7,0.1-1.5-0.2-1.8-1.2c-1.3-4.6-1.1-9.5-1.1-14.3c0-5.4,0-10.8,0-16.2
			c0-10.1,0.2-20.3-0.5-30.3c-0.6-9.2-0.9-18.6-1.2-27.9c-0.1-4.4,0-8.8-0.4-13.1c-0.3-1.9-0.5-3.9-0.4-5.9
			c-11.3-0.1-22.7-0.5-33.9,0.1c-11.9,0.7-24.1-0.1-35.6,4.1c-4.1,1.5-7.6,2.8-9.7,7c-1.4,3-2.8,6-4,9.1c-2.1,5.6-4.1,11.3-6.2,16.9
			c-4.3,11.5-8.4,22.9-10.8,34.9c-0.9,4.2-1.3,10.8-4.6,14.1c-2.5,2.5-7.9,1.7-11,2.1c-10.2,1.3-20.9,1.2-31.2,1.3
			c-1.1,0-9,0-9.3,1.8c-0.4,2.6-1.3,5-1.6,7.6c-0.6,5.4-1.6,10.7-2.1,16.2c-0.5,6.1-1.1,12.4-1.1,18.5c0,3.4,0.3,7.2-0.2,10.6
			c0.5,0,1,0.1,1.5,0.1c6.4,0.1,12.7,1.3,19.1,1.8c3.4,0.3,6.9,0.6,10.3,0.7c2,0,4.2-0.1,6.1,0.5c3.2-4,7.2-7.3,12-8.8
			c15-4.7,34.2,1.7,39,17.8c1.1,3.5,1.9,7.3,2.1,11c7.8-1.3,16,0.2,23.8,0.4c8.4,0.2,16.8-0.1,25.2,0.2c7.7,0.3,15.6-0.4,23.2-0.8
			c7.3-0.4,14.7,0.6,22,0.6c7.6,0,15,0.5,22.6,0.5h23c6.7,0,13.2,0.8,19.9,1c3.4,0.1,6.7,0.6,10,0.8c1.5,0.1,3.3-0.2,4.9,0.1
			c-0.1-0.9-0.1-1.8,0-2.7c-0.5-14.4,10.8-26.9,26.1-26.6c7.7,0.2,15.3,3.1,21,8.1c5.1-0.6,10.8-1.1,15.9-0.6
			c5.3,0.6,10.5-0.2,15.8-0.3c-0.3-1.9,0-4,0.2-5.9c0.4-4.3,0.2-8.7,0.6-13C1231.5,252.7,1231.7,248.6,1231.5,244.2z M1000.3,213.1
			c-8.2,0-16.4,0.3-24.6,0.3c-6.3,0-13.2,0.8-19.4,0c-1.4-0.2-2.2-1.1-1.9-2.5c0.8-4.4,1.3-8.8,2.7-13c0.1-0.3,0.3-0.7,0.4-1
			c0.9-5.2,1.9-10.3,3.5-15.3c2.8-8.4,5-17.5,9.9-25c4.3-6.6,7.2-14.8,15.4-17.3c8.9-2.7,17.6-3.3,26.8-3.3c4.2,0,8.4,0,12.6,0
			c3.3,0,7.7-0.8,10.9,0.1c6.7,1.8,4.3,13,4.9,17.9c2,18.1-1.9,35.7-2.1,53.7c0,0.7-0.4,1.5-1,1.8c-2.4,1.2-5.3,0.9-7.9,1.4
			c-2.8,0.6-5.8,1.1-8.6,1.1C1014.7,212.1,1007.5,213.1,1000.3,213.1z M1042,231.2c-0.7,2.5-3.9,2.3-5.8,2.4
			c-4.8,0-9.5,0.5-14.2,0.5c-2.8,0-5.8,0.6-8.5,0.2c-0.3,0-0.5-0.2-0.6-0.3c-0.7,0.1-1.5-0.2-1.4-1.2c0.1-1.3,0-2.7,0-4
			c-0.1-1.2-0.1-2.3-0.1-3.4c0-0.8,0.4-1.2,0.9-1.5c1.2-2,4.1-1.9,6.1-2.1c5.2-0.4,10.3-1,15.5-1.4c1.7-0.2,5.6-0.5,6.5,1.5
			C1041.5,224.5,1042.8,228.3,1042,231.2z M1052.8,287.5c-0.9-3-0.4-6.5-0.4-9.6c0-4.4,0.2-8.8,0.2-13.2c-0.1-7.6-2.1-15.4-0.5-22.9
			c0.2-0.9,1.5-0.8,1.8,0c4.2,14.6,1.6,30,2.9,44.8C1057.5,288.9,1053.6,290,1052.8,287.5z"/>
		<path fill="#022433" d="M1264.6,252.9c-1,0.4-1.8,0.1-2.2-0.9c0,0,0-0.2-0.1-0.3c-0.3-0.2-0.4-0.2-0.8-0.3
			c-0.4-0.1-0.8-0.2-1.3-0.1c0,0-0.5,0.3-0.3,0.1c-1.2,1.1-2.9-0.3-2.2-1.7c0.9-1.8,3.5-1.8,5.2-1.3c0.9,0.3,1.8,0.7,2.3,1.5
			C1265.7,250.9,1265.7,252.4,1264.6,252.9z"/>
		<path fill="#022433" d="M1041.5,154.1c-0.6-4.9,1.8-16.1-4.9-17.9c-3.2-0.9-7.6-0.1-10.9-0.1c-4.2,0-8.4,0-12.6,0
			c-9.2,0-17.9,0.6-26.8,3.3c-8.2,2.5-11.2,10.7-15.4,17.3c-4.9,7.5-7.1,16.5-9.9,25c-1.7,5-2.7,10.1-3.5,15.3
			c-0.1,0.3-0.3,0.6-0.4,1c-1.5,4.2-1.9,8.6-2.7,13c-0.3,1.4,0.6,2.4,1.9,2.5c6.2,0.8,13.1,0,19.4,0c8.2,0,16.4-0.3,24.6-0.3
			c7.3,0,14.5-1,21.7-1c2.8,0,5.8-0.5,8.6-1.1c2.6-0.5,5.5-0.2,7.9-1.4c0.6-0.3,1-1.1,1-1.8C1039.6,189.8,1043.5,172.1,1041.5,154.1
			z M959.6,209c0.1-0.1,0.2-0.1,0.3-0.2C959.8,208.9,959.8,209,959.6,209z M962.5,207.8c-0.1-0.1,0-0.1,0-0.2
			C962.5,207.7,962.5,207.7,962.5,207.8z M963.3,206.9c0.1,0,0.1,0.1,0.1,0.2C963.4,207,963.3,207,963.3,206.9z M964.2,206.6
			c0-0.1,0-0.1,0-0.2c0-0.2,0-0.4,0-0.5c0.1,0,0.1-0.1,0.2-0.1c0.1,0.1,0.2,0.2,0.3,0.3C964.5,206.3,964.4,206.4,964.2,206.6z
			 M965.2,205.3c0.1-0.1,0.2-0.1,0.3-0.2C965.4,205.2,965.3,205.3,965.2,205.3L965.2,205.3z M1025.2,202.7c0,0.1-0.1,0.2-0.1,0.3
			c0-0.2,0-0.3,0-0.5C1025.2,202.6,1025.2,202.6,1025.2,202.7z M1025.7,200.9C1025.6,200.8,1025.6,200.8,1025.7,200.9
			c0-0.1,0-0.1,0-0.2C1025.7,200.7,1025.7,200.8,1025.7,200.9z M1025.9,198.7c0-0.1,0-0.1,0.1-0.2c0.1,0,0.1-0.1,0.2-0.2
			C1026,198.5,1025.9,198.6,1025.9,198.7z M1027.1,202.3C1027.1,202.2,1027.1,202.2,1027.1,202.3c-0.1-0.2,0-0.3,0-0.4
			c0,0,0,0.1,0.1,0.1C1027.2,202.1,1027.1,202.2,1027.1,202.3z M1027.3,207.5c0.1-0.1,0.2-0.1,0.3-0.2l0.1,0.1
			C1027.6,207.5,1027.5,207.5,1027.3,207.5z M1027.4,200.9c0-0.1,0.1-0.2,0.1-0.3l0.1,0.1c0,0.1-0.1,0.2-0.1,0.4
			C1027.4,201,1027.4,200.9,1027.4,200.9z M1027.7,199.6c0-0.1,0-0.2,0.1-0.2l0.1,0.1c0,0.1,0,0.1,0,0.2
			C1027.8,199.7,1027.8,199.6,1027.7,199.6z M1028.1,203.3c-0.1-0.1-0.2-0.2-0.2-0.3s0-0.1,0-0.2c0.1,0.1,0.2,0.2,0.2,0.3
			C1028.1,203.2,1028.1,203.3,1028.1,203.3z M1028.4,202c-0.1-0.1-0.1-0.1-0.2-0.2c0-0.2,0.1-0.3,0.1-0.5l0.1,0.1
			C1028.4,201.6,1028.4,201.8,1028.4,202z M1028.9,199.4L1028.9,199.4c-0.1-0.2-0.1-0.2-0.1-0.3l0.1,0.1
			C1028.9,199.2,1028.9,199.3,1028.9,199.4z M1029.7,195.8C1029.7,195.7,1029.7,195.7,1029.7,195.8c-0.1-0.2-0.1-0.3-0.2-0.5
			c0.1-0.1,0.2-0.2,0.2-0.4c0,0.1,0.1,0.1,0.1,0.2C1029.8,195.3,1029.8,195.5,1029.7,195.8z M1030.6,196.8l-0.1-0.1
			c0-0.2,0.1-0.4,0.1-0.5l0.1,0.1C1030.6,196.4,1030.6,196.6,1030.6,196.8z M1030.9,194.8c0-0.1,0-0.2,0-0.2
			C1030.9,194.7,1030.9,194.7,1030.9,194.8z M1031.8,202.6c0,0-0.1-0.1-0.1-0.2C1031.7,202.4,1031.8,202.5,1031.8,202.6z
			 M1031.9,194.3c0-0.2,0-0.4,0.1-0.6l0.1,0.1C1032,194,1032,194.2,1031.9,194.3z M1032.2,200.3c-0.1-0.1-0.1-0.2-0.2-0.3v-0.1
			c0.1,0.1,0.1,0.1,0.2,0.2C1032.2,200.2,1032.2,200.2,1032.2,200.3z M1032.4,198.9C1032.3,198.8,1032.3,198.8,1032.4,198.9
			c-0.1-0.1-0.1-0.2,0-0.3c0,0,0,0.1,0.1,0.1C1032.4,198.8,1032.4,198.8,1032.4,198.9z M1032.8,191.6c-0.1-0.1-0.3-0.2-0.4-0.3
			l0.1-0.1C1032.6,191.3,1032.7,191.4,1032.8,191.6z M1033.2,190.5c0-0.1,0-0.1,0.1-0.1C1033.2,190.4,1033.2,190.5,1033.2,190.5z
			 M1033.9,191.6c0-0.1-0.1-0.1-0.1-0.1c0.1-0.2,0.1-0.3,0.2-0.5C1033.9,191.2,1033.9,191.4,1033.9,191.6z M1034.3,206.5
			c0.1-0.2,0.1-0.4,0.2-0.6c0.1,0.1,0.2,0.2,0.3,0.2C1034.6,206.3,1034.4,206.4,1034.3,206.5z M1035.4,204.4c0,0.1,0,0.1,0,0.2
			c0-0.2,0-0.4-0.1-0.6l0.1,0.1C1035.4,204.2,1035.4,204.3,1035.4,204.4z M1035.5,201.7c0-0.1,0-0.2,0-0.2
			C1035.5,201.6,1035.5,201.6,1035.5,201.7z M1036.2,188.9c0-0.1-0.1-0.2-0.2-0.2c0.1,0,0.3,0.1,0.4,0.1
			C1036.3,188.8,1036.2,188.9,1036.2,188.9z M1036.9,185.2c-4-0.9-7.8,0.3-10.6,4.3c-1.8,2.6-2.9,5.6-4,8.5
			c-1.2,3.2-0.6,6.9-1.5,10.1c-0.4,0-0.8,0.1-1.2,0.1c-7,0.8-14.1,0.9-21.1,0.9c-7.7,0-15.3,0.3-22.9,0.3c-3.3,0-6.8,0.2-10.2,0.3
			c0.9-0.8,1.8-1.7,2.5-2.5c1.1-1.2,2.1-2.5,3.4-3.6c0.9-0.8,1.9-1.4,2.8-2.3c0.1-0.1,0.1-0.2,0.2-0.3c0.6,0.6,1.3,1.2,1.9,1.8
			c0.8,0.8,1.8,2.1,3.1,2.1h0.1c0.2,0,0.5,0,0.7-0.1c1.2-0.4,2.3-1.1,3.5-1.7c0.6-0.4,0.8-1,0.8-1.5c0.3-0.4,0.5-0.8,0.5-1.2
			c0-1.3-1.5-2.3-2.2-3.2c-1.7-1.9-4-3.2-5.7-5c-1.5-1.5-3.2-2.8-4.8-4.2c-0.7-0.6-1.9-1.7-2.9-1.7c-1.4-0.1-2.2,0.9-3.3,1.6
			c-0.3,0.3-0.8,0.6-0.9,1c0-0.1,1.1-0.6,0,0c-0.4,0.2-0.6,0.7-0.6,1.1c-0.1,0.3-0.2,0.6,0,1c1,2.3,2.8,3.9,4.7,5.5
			c-2.8,1.7-5.2,4.5-7.6,6.6c-0.9,0.8-1.8,1.7-2.7,2.5c0.3-1.8,0.6-3.6,1.1-5.2c1.2-3.8,5.7-20.8,7.2-24.8c1.6-4.4,2.7-9,4.9-13.2
			c1.6-3.1,3.7-6,5.4-9.1c2.5-4.3,5-8.4,9.9-10.1c8.3-3,17-3.1,25.7-3.1c6.8,0,13.7,0.2,20.5-0.1c4.8-0.2,3.5,6,3.8,9.2
			c0.4,4.4,0.5,8.8,0.6,13.2C1038.3,170,1037.6,177.6,1036.9,185.2z M966.5,203.8c0.1-0.1,0.2-0.2,0.3-0.2c0,0,0,0,0.1,0
			C966.7,203.7,966.6,203.7,966.5,203.8z M968.9,201C968.9,200.9,968.9,200.9,968.9,201L968.9,201z M970.2,192.7
			c0.1,0.1,0.2,0.2,0.3,0.2c0,0.1,0,0.2,0.1,0.3c-0.1-0.1-0.2-0.2-0.3-0.2C970.2,193,970.2,192.9,970.2,192.7z M971.2,190.9
			c-0.1-0.1-0.2-0.2-0.4-0.3c0-0.1-0.1-0.2-0.1-0.3c0.2,0.2,0.4,0.4,0.7,0.6C971.3,191,971.2,190.9,971.2,190.9z M971.4,198.2
			c-0.1,0-0.1,0-0.2,0.1h-0.1c0-0.1,0.1-0.1,0.1-0.2C971.3,198.2,971.3,198.2,971.4,198.2z M977.6,199.4c0.2,0.1,0.3,0.1,0.4,0.2
			c0,0.1,0.1,0.2,0.1,0.3C977.9,199.7,977.8,199.6,977.6,199.4z M968.7,191.8c-0.1-0.1-0.3-0.3-0.4-0.4c0-0.1,0-0.1,0.1-0.2
			c0.1,0.1,0.2,0.2,0.3,0.2C968.6,191.6,968.7,191.7,968.7,191.8z M967.5,190c0,0.2-0.1,0.5-0.1,0.7c-0.1-0.1-0.3-0.2-0.4-0.3
			c0.1-0.1,0.1-0.2,0.2-0.3C967.3,190.1,967.4,190.1,967.5,190z"/>
		<path fill="#FFFFFF" d="M1036.9,185.2c-4-0.9-7.8,0.3-10.6,4.3c-1.8,2.6-2.9,5.6-4,8.5c-1.2,3.2-0.6,6.9-1.5,10.1
			c-0.4,0-0.8,0.1-1.2,0.1c-7,0.8-14.1,0.9-21.1,0.9c-7.7,0-15.3,0.3-22.9,0.3c-3.3,0-6.8,0.2-10.2,0.3c0.9-0.8,1.8-1.7,2.5-2.5
			c1.1-1.2,2.1-2.5,3.4-3.6c0.9-0.8,1.9-1.4,2.8-2.3c0.1-0.1,0.1-0.2,0.2-0.3c0.6,0.6,1.3,1.2,1.9,1.8c0.8,0.8,1.8,2.1,3.1,2.1h0.1
			c0.2,0,0.5,0,0.7-0.1c1.2-0.4,2.3-1.1,3.5-1.7c0.6-0.4,0.8-1,0.8-1.5c0.3-0.4,0.5-0.8,0.5-1.2c0-1.3-1.5-2.3-2.2-3.2
			c-1.7-1.9-4-3.2-5.7-5c-1.5-1.5-3.2-2.8-4.8-4.2c-0.7-0.6-1.9-1.7-2.9-1.7c-1.4-0.1-2.2,0.9-3.3,1.6c-0.3,0.3-0.8,0.6-0.9,1
			c0-0.1,1.1-0.6,0,0c-0.4,0.2-0.6,0.7-0.6,1.1c-0.1,0.3-0.2,0.6,0,1c1,2.3,2.8,3.9,4.7,5.5c-2.8,1.7-5.2,4.5-7.6,6.6
			c-0.9,0.8-1.8,1.7-2.7,2.5c0.3-1.8,0.6-3.6,1.1-5.2c1.2-3.8,5.7-20.8,7.2-24.8c1.6-4.4,2.7-9,4.9-13.2c1.6-3.1,3.7-6,5.4-9.1
			c2.5-4.3,5-8.4,9.9-10.1c8.3-3,17-3.1,25.7-3.1c6.8,0,13.7,0.2,20.5-0.1c4.8-0.2,3.5,6,3.8,9.2c0.4,4.4,0.5,8.8,0.6,13.2
			C1038.3,170,1037.6,177.6,1036.9,185.2z"/>
		<path fill="#022433" d="M1040.3,221.9c-1-2.1-4.8-1.7-6.5-1.5c-5.1,0.5-10.3,1-15.5,1.4c-2,0.2-5,0.2-6.1,2.1
			c-0.5,0.2-0.9,0.7-0.9,1.5c0,1,0,2.2,0.1,3.4c0,1.4,0.1,2.8,0,4c-0.1,1,0.7,1.3,1.4,1.2c0.2,0.2,0.4,0.3,0.6,0.3
			c2.7,0.4,5.7-0.2,8.5-0.2c4.8,0,9.5-0.5,14.2-0.5c2,0,5.2,0.1,5.8-2.4C1042.8,228.3,1041.5,224.5,1040.3,221.9z M1038.2,229.7
			c-1.6,0.2-3.3,0.2-4.9,0.3c-3.8,0.2-7.6,0.4-11.4,0.4c-2.2,0-4.2,0.1-6.4,0.3c-0.2,0,0.1,0.8-0.4-1.5c-0.1-0.5-0.2-1.1-0.3-1.7
			c0.3-3.2,5.9-2.4,8.4-2.6c3.1-0.3,6.2-0.7,9.3-0.9c1.2-0.1,2.3-0.3,3.6-0.1c2,0.3,2.2,3.2,2.3,4.9
			C1038.5,230,1038.9,229.7,1038.2,229.7z"/>
		<path fill="#022433" d="M1052.8,287.5c-0.9-3-0.4-6.5-0.4-9.6c0-4.4,0.2-8.8,0.2-13.2c-0.1-7.6-2.1-15.4-0.5-22.9
			c0.2-0.9,1.5-0.8,1.8,0c4.2,14.6,1.6,30,2.9,44.8C1057.5,288.9,1053.6,290,1052.8,287.5z"/>
	</g>
</g>
<path fill="#FFFFFF" stroke="#022433" stroke-width="3" d="M209.7,149.2c-1.4-0.8,32.7-20.6,54-27.4c22.1-0.6,64.9,4.9,63.5,6.9
	c-14.4,8.8-41.5,26.3-45.3,27.1C278.2,156.6,211.9,150.4,209.7,149.2z"/>
<path fill="#FFFFFF" stroke="#022433" stroke-width="3" d="M209.7,149.2c0,0,5.5,69.2,9.5,72.5c4,3.3,67.8,12.4,71,11.9
	c-2.5-28.1-7.6-74.6-8.3-77.8C267.5,152.2,209.7,149.2,209.7,149.2z"/>
<path fill="#FFFFFF" stroke="#022433" stroke-width="3" d="M327.3,128.7c1.3,0.8,10.7,69.1,9.8,71.1c-1,2-44.7,33.8-46.7,33.8
	c-1.9,0-8.7-76.1-8.3-77.8C282.4,154.2,327.3,128.7,327.3,128.7z"/>
<path fill="#FFFFFF" stroke="#022433" stroke-width="3" d="M256.7,202.6l-14.1-1.2l-2.6,8.9l-11.5-5.8l14.3-37.3l11.1,1.1l17.2,42.4
	l-10.8,1.8L256.7,202.6z M252.5,190.7l-3.7-10.7l-3,10.1L252.5,190.7z"/>
<path fill="#FFFFFF" stroke="#022433" stroke-width="3" d="M577.6,270.2c-1.4-1,34.6-17.3,56.5-21.9c22.1,1.7,64,11.4,62.5,13.3
	c-15.3,7.3-44,22-47.8,22.4C644.9,284.3,579.5,271.4,577.6,270.2z"/>
<path fill="#FFFFFF" stroke="#022433" stroke-width="3" d="M577.6,270.2c0,0-1.5,69.4,2.2,73.1c3.7,3.7,66.3,19.1,69.5,18.9
	c0.3-28.2-0.1-75-0.5-78.1C634.6,278.9,577.6,270.2,577.6,270.2z"/>
<path fill="#FFFFFF" stroke="#022433" stroke-width="3" d="M696.5,261.6c1.3,0.9,3.6,69.8,2.5,71.7c-1.2,1.8-47.9,29.2-49.8,28.9
	c-1.9-0.2-1-76.5-0.5-78.1C649.3,282.3,696.5,261.6,696.5,261.6z"/>
<path fill="#FFFFFF" stroke="#022433" stroke-width="3" d="M621.6,316c1.6,0.6,3,1.6,4.4,3c1.3,1.4,2.4,3.2,3.1,5.2
	c0.8,2,1.2,4.1,1.1,6.2c0,4.4-1.9,7-5.7,7.8c-3.8,0.8-9.5-0.2-17.2-3l-8.4-3.1l0.3-42.3c1.3-0.3,3.3-0.3,6,0.5
	c2.8,0.7,5.4,1.4,7.8,2.3c2.3,0.8,4.4,2.1,6.5,3.7c2.1,1.7,3.8,3.6,5,5.6c1.3,2.1,1.9,4.1,2,6c0,2.3-0.6,4.3-1.7,5.8
	c-1.2,1.5-2.7,2.1-4.5,1.8C620.7,315.7,621.1,315.8,621.6,316z M615.3,303.2c-0.8-0.9-1.8-1.7-3-2.1c-0.9-0.3-1.8-0.4-2.6-0.3
	l-0.1,6.6c0.4,0.3,0.9,0.6,1.6,0.8c1.3,0.5,2.6,0.5,3.6,0.2c1.1-0.4,1.6-1.2,1.6-2.3C616.5,305.2,616.2,304.2,615.3,303.2z
	 M616.5,327.5c1.3-0.5,1.9-1.5,1.9-3c0-1.2-0.5-2.3-1.4-3.4c-0.9-1.1-2.1-1.8-3.5-2.4c-1.3-0.5-2.7-0.7-3.8-0.4l-0.1,7.8
	c0.7,0.5,1.4,1,2.3,1.2C613.7,328,615.2,328.1,616.5,327.5z"/>
<path fill="#FFFFFF" stroke="#022433" stroke-width="3" d="M79.5,297.7c-1.5-0.8,33.7-18.8,55.3-24.4c22.1,0.6,64.5,8.5,63,10.4
	c-14.8,8-42.9,24-46.7,24.5C147.4,308.7,81.5,298.9,79.5,297.7z"/>
<path fill="#FFFFFF" stroke="#022433" stroke-width="3" d="M79.5,297.7c0,0,1.6,69.4,5.5,72.9c3.9,3.5,67.1,16.1,70.2,15.7
	c-1-28.2-3.5-74.9-4-78.1C137,303.8,79.5,297.7,79.5,297.7z"/>
<path fill="#FFFFFF" stroke="#022433" stroke-width="3" d="M198,283.7c1.3,0.9,6.9,69.6,5.8,71.5c-1.1,1.9-46.5,31.3-48.4,31.2
	c-1.9-0.2-4.5-76.4-4-78.1C151.8,306.6,198,283.7,198,283.7z"/>
<path fill="#FFFFFF" stroke="#022433" stroke-width="3" d="M108.2,360.1c-3.4-2.8-6.1-6-8.2-9.7c-2.1-3.7-3.2-7.5-3.4-11.4
	c-0.2-3.9,0.6-7.2,2.4-10.1c1.8-2.8,4.4-4.7,7.7-5.9c3.3-1.2,7-1.3,11-0.4c2.9,0.7,5.7,1.8,8.5,3.5c2.8,1.7,5.1,3.8,7.2,6.4
	c2.1,2.6,3.6,5.5,4.5,8.8l-9.9,0.7c-0.7-1.7-1.8-3.4-3.7-5c-1.8-1.6-3.9-2.7-6.3-3.2c-3-0.7-5.4-0.4-7.2,1c-1.9,1.3-2.8,3.6-2.6,6.8
	c0.1,2.2,0.7,4.2,1.6,6c1,1.8,2.3,3.3,3.9,4.5c1.6,1.2,3.3,2,5.1,2.4c1.6,0.3,3.1,0.3,4.4,0c1.4-0.4,2.5-1,3.3-1.7
	c0.9-0.8,1.4-1.6,1.6-2.4l9.6,5.3c-0.4,2.5-1.4,4.6-3.3,6.4c-1.8,1.8-4.1,3-6.9,3.6c-2.8,0.6-5.7,0.6-8.8-0.1
	C115.2,364.6,111.6,362.9,108.2,360.1z"/>
</svg>
