<?xml version="1.0" encoding="utf-8"?>
<!-- Generator: Adobe Illustrator 24.3.0, SVG Export Plug-In . SVG Version: 6.00 Build 0)  -->
<svg version="1.1" id="Layer_1" xmlns="http://www.w3.org/2000/svg" xmlns:xlink="http://www.w3.org/1999/xlink" x="0px" y="0px"
	 viewBox="0 0 1118 305" enable-background="new 0 0 1118 305" xml:space="preserve">
<g id="nutritionMan">
	<path fill="#C62B22" d="M237.1,77.3c2.1-3.7,5-6.7,7.8-8.2c-3.9-1.7-10-0.2-12.5,3.2c-0.3-3-0.3-5.7-1.3-8.7
		c-0.6-1.8-1.8-3.4-3.1-4.7c-0.8-0.8-2.9-2.6-2.9-2.6c1.3,3.7,0.1,11.3-1.4,15.2c-9.4-3.3-20.1-5.8-32.8-6.4
		c-51.9-2.5-90.4,39.7-87.3,69.5c0.6,6,0.4,24.4,5.4,40.9c0.6-0.1,1.2-0.2,1.7-0.2s0.9,0.1,1.3,0.2c0.1,2.4-0.5,12.2,0.4,7.9
		c3.6-16.3,10.9-33.2,25.4-46.9c6.2,13.4,25.1,28,41.1,25.9c0,0-2-1.7-3.8-3.2c-5.9-4.8-7.8-16.2,0.6-20.4
		c7.5-3.8,16.2-5.5,24.2-7.8c4.1-1.1,8.2-2.1,12.2-3.5c1.8-0.6,3.6-1.4,5.2-2.3c0.6-0.3,5.9-3.3,5.8-3.6c3.8,7.8,4,9.6,12.5,16.5
		c6.7,5.4,11.8,9.5,16.4,19.8c3.8,8.5,8.8,23.4,9.2,27.9c0.5,4.6,1-6.7,1-7.8c0.4-0.1,0.9-0.1,1.3-0.1c0.6,0,1.1,0.1,1.7,0.2
		c4.9-13.5,8.3-40.6,7.2-46.5C265.3,93.3,249.6,86.3,237.1,77.3z"/>
	<path fill="#F7B7A2" d="M186.1,269.9c54.4,0.9,99.2-41.7,100.1-95.2c0.9-53.5-42.4-97.6-96.8-98.5s-99.2,41.7-100.1,95.2
		C88.4,224.9,131.7,269,186.1,269.9z"/>
	<path fill="#2BD886" d="M90.1,171.6c-0.9,53.5,42.4,97.6,96.8,98.5s99.2-41.7,100.1-95.2L90.1,171.6z"/>
	<path opacity="0.2" fill="#FFFFFF" enable-background="new    " d="M92.6,178.8c0,0-2.3-0.1-2.3,0c0.9,13.3,4.2,22.6,7,30.4
		c2.3,0,8.4-0.2,15.9-3.7c9.2-4.4,11.4-26.1,11.4-26.1L92.6,178.8z"/>
	<path opacity="0.2" fill="#020203" enable-background="new    " d="M110.8,197.5c-7.2,3.4-13.9,3.7-16.3,3.7
		c0.6,2.7,1.9,5.3,2.7,7.9c2.3,0,8.4-0.2,15.9-3.7c9.2-4.4,11.4-26.1,11.4-26.1S120.1,193.1,110.8,197.5z"/>
	<path opacity="0.2" fill="#FFFFFF" enable-background="new    " d="M284.3,182h2.3c-1.3,13.3-5,22.5-8,30.2
		c-2.3,0-8.4-0.5-15.8-4.3c-9.1-4.7-10.5-26.5-10.5-26.5L284.3,182z"/>
	<path opacity="0.2" fill="#020203" enable-background="new    " d="M265.4,200.1c7.1,3.7,13.7,4.2,16.1,4.3c-0.7,2.6-2.1,5.2-3,7.8
		c-2.3,0-8.4-0.5-15.8-4.3c-9.1-4.7-10.5-26.5-10.5-26.5S256.3,195.4,265.4,200.1z"/>
	<g opacity="0.2">
		<path fill="#FFFFFF" d="M98.1,172l-5.8-0.3l0.1,6.8l5.8,0.3L98.1,172z"/>
		<path fill="#FFFFFF" d="M142.1,172.7l-5.8-0.3l0.1,6.8l5.8,0.3L142.1,172.7z"/>
		<path fill="#FFFFFF" d="M239,174.3l-5.8-0.3l0.1,6.8l5.8,0.3L239,174.3z"/>
		<path fill="#FFFFFF" d="M283,175.1l-5.8-0.3l0.1,6.8l5.8,0.3L283,175.1z"/>
	</g>
	<path fill="#25B872" d="M173.7,181.9c0.5,0.8,0.8,1.7,1.1,2.6c0.3,0.8,0.5,1.7,0.7,2.6c0.4,1.7,0.7,3.4,0.8,5.1
		c0.1,0.8,0.1,1.7,0.1,2.5s-0.1,1.7-0.3,2.5c-0.4,1.6-1,3.4-1.3,5c0,0-0.1,0.1,0,0.2c0.1,0.1,0.1,0.3,0.2,0.5c0.2,0.3,0.4,0.7,0.6,1
		c0.5,0.7,1,1.4,1.6,2.1c1.2,1.3,2.5,2.6,3.8,3.9c2.7,2.5,5.7,4.8,8.8,6.9l0.4,0.3l0.2,1c0.3,1.4,0.6,2.7,0.9,4.1
		c0.2,1.4,0.3,2.7,0.5,4.1c0.3,2.7,0.6,5.5,0.5,8.2s-0.4,5.4-0.9,8.1c-0.3,1.4-0.6,2.7-0.9,4.1c-0.4,1.4-0.8,2.7-1.4,4h-0.7
		c-0.6-1.4-1.1-2.8-1.4-4.2c-0.4-1.4-0.7-2.7-1-4.1c-0.5-2.7-0.9-5.5-1-8.2s0.1-5.4,0.4-8.1c0.1-1.4,0.2-2.7,0.4-4.1
		c0.2-1.4,0.6-2.7,0.9-4.1l0.6,1.3c-2.6-2.7-5.1-5.4-7.7-8l-3.9-4c-0.6-0.7-1.3-1.3-1.9-2.1c-0.3-0.4-0.6-0.8-0.9-1.2
		c-0.2-0.2-0.3-0.5-0.4-0.7c-0.1-0.3-0.3-0.6-0.3-1c-0.4-1.8-1.1-3.5-1.4-5.2c-0.2-0.8-0.3-1.7-0.3-2.5s0-1.7,0.1-2.5
		c0.1-1.7,0.3-3.4,0.8-5c0.2-0.8,0.5-1.7,0.7-2.5c0.3-0.8,0.6-1.7,1.1-2.5L173.7,181.9L173.7,181.9z"/>
	<path fill="#25B872" d="M187.6,226.4c-0.5-3.7-1-7.3-1.4-11l-0.6-5.5l-0.5-5.5c-0.2-1.8-0.4-3.7-0.7-5.5c-0.2-1.8-0.3-3.7,0-5.5
		c0.2-1.8,0.5-3.7,1-5.5s1.1-3.6,2.2-5.4h0.7c1,1.9,1.7,3.7,2.1,5.6c0.5,1.8,0.8,3.7,1,5.5s0.2,3.7-0.1,5.5
		c-0.2,1.8-0.5,3.7-0.7,5.5l-0.5,5.5l-0.6,5.5c-0.4,3.7-0.9,7.3-1.4,10.9L187.6,226.4z"/>
	<path fill="#25B872" d="M286.8,183.1c-16.5,1.5-32.9,2.1-49.4,2.4c-16.5,0.3-32.9,0.2-49.3-0.1c-16.5-0.3-32.9-1-49.3-2
		c-16.4-1.1-32.8-2.3-49.3-4.5v-0.5l24.6,0.4l24.6,0.5l49.3,1l49.3,1.1l24.6,0.6l24.6,0.6L286.8,183.1L286.8,183.1z"/>
	<path fill="#25B872" d="M181.7,179.3c1.4,0,2.6-1.1,2.6-2.5s-1.1-2.6-2.6-2.6c-1.4,0-2.6,1.1-2.6,2.5S180.2,179.3,181.7,179.3z"/>
	<path fill="none" stroke="#25B872" stroke-width="13.1854" stroke-miterlimit="10" d="M174.9,181.3l0.1-8.4"/>
	<path opacity="0.15" fill="#FFFFFF" enable-background="new    " d="M138.8,170.9c0.9-53.2,23.5-96,50.6-96
		c-54-0.5-98.4,41.9-99.3,95.2c-0.9,53.2,42,97.1,96,98.5C159,267.7,137.9,224.1,138.8,170.9z"/>
	<g id="nutritionEye">
		<path fill="#1A1A1A" d="M153.3,125.8c2.6,0.1,4.7-1.6,4.7-4c0-2.3-2.2-4.3-4.8-4.4s-4.7,1.6-4.7,4
			C148.6,123.7,150.7,125.6,153.3,125.8z"/>
		<path fill="#1A1A1A" d="M224.6,127c2.6,0.1,4.7-1.6,4.7-4c0-2.3-2.2-4.3-4.8-4.4s-4.7,1.6-4.7,4
			C219.8,124.9,221.9,126.8,224.6,127z"/>
	</g>
	<path fill="#1A1A1A" d="M198.2,149.6c-3.5,0.6-7.4,0.9-11.5,0.8c-18.3-0.4-27.2-8.5-27.6-8.8c0,0,11,5.3,27.5,5.8
		c16.8,0.4,31.3-4.5,31.3-4.5C217.4,143.1,209.9,147.7,198.2,149.6z"/>
	<path fill="#1A1A1A" d="M218.8,143.4c-1.2-2.1-3.6-3.8-6.5-4.4c-0.8-0.2-1.6,0.2-1.7,0.7c-0.1,0.3,0,0.5,0.2,0.7
		c0.2,0.3,0.6,0.5,1,0.6c1.9,0.4,3.6,1.6,4.4,3c0.9,1.5,0.8,3.2-0.1,4.5c-0.1,0.2-0.2,0.5-0.1,0.7c0.1,0.3,0.4,0.6,0.7,0.7
		c0.2,0.1,0.4,0.2,0.7,0.2c0.6,0.1,1.1-0.2,1.3-0.5C219.9,147.9,220,145.4,218.8,143.4z"/>
	<path fill="#1A1A1A" d="M158.3,142.1c1.2-2,3.6-3.4,6.4-3.8c0.8-0.1,1.6,0.3,1.8,0.9c0.1,0.3,0,0.5-0.1,0.7
		c-0.2,0.3-0.5,0.5-0.9,0.5c-1.9,0.3-3.5,1.3-4.4,2.6c-0.8,1.4-0.7,3.1,0.2,4.5c0.2,0.2,0.2,0.5,0.1,0.7c-0.1,0.3-0.3,0.5-0.7,0.6
		c-0.2,0.1-0.4,0.1-0.7,0.1c-0.6,0-1.1-0.3-1.4-0.7C157.2,146.5,157.2,144.1,158.3,142.1z"/>
	<defs>
		<filter id="Adobe_OpacityMaskFilter" filterUnits="userSpaceOnUse" x="89.7" y="18.6" width="251.9" height="96.2">
			<feColorMatrix  type="matrix" values="1 0 0 0 0  0 1 0 0 0  0 0 1 0 0  0 0 0 1 0"/>
		</filter>
	</defs>
	<mask maskUnits="userSpaceOnUse" x="89.7" y="18.6" width="251.9" height="96.2" id="mask0_107_2316_2_">
		<path fill="#FFFFFF" filter="url(#Adobe_OpacityMaskFilter)" d="M273.5,127.4c-0.7-25.7-41.1-52.1-86.9-55.3
			c-45.7-3.1-82.2,17.4-81.4,46c0.8,28.5,38.5,54.2,84.2,57.3C235.1,178.6,274.2,156,273.5,127.4z"/>
	</mask>
	<g mask="url(#mask0_107_2316_2_)">
		<path fill="#C62B22" d="M297.1,35.5c3-2.5,7.2-4.5,11.3-5.4c-5.8-1.6-14.9-0.9-18.5,1.4c-0.6-2.2-0.7-4.2-2.3-6.4
			c-1-1.4-2.9-2.6-4.9-3.7c-1.2-0.6-4.5-2.1-4.5-2.1c2,2.8,0.4,5.8-1.6,8.5c-16-5-40.3-7.1-59.2-8.3C142.8,14.6,89,30.9,89.7,64.3
			c0.1,4.4,1.6,17.8,9.8,30.3c0.9,0,1.7-0.1,2.6,0c0.7,0,1.3,0.1,2,0.2c0.3,1.8-0.3,8.9,0.9,5.8c4.7-11.6,15-23.4,36.1-32.3
			c9.9,10.3,38.6,22.4,62.4,22.1c0,0-3-1.4-5.9-2.6c-9-4-12.3-12.4,0.1-14.9c11.1-2.2,23.9-2.7,35.9-3.8c6-0.5,12.1-0.9,18-1.6
			c2.7-0.3,5.2-0.7,7.7-1.2c0.8-0.2,8.7-1.9,8.5-2.2c6,6,6.4,7.3,19.3,13c10.2,4.5,18,7.9,25.2,15.8c5.9,6.5,14.1,17.8,14.9,21.1
			c0.9,3.4,1.2-4.8,1.2-5.6c0.6,0,1.3,0,2,0c0.8,0,1.7,0.1,2.6,0.3c6.7-9.5,8.3-22.3,8.5-26.7C342.8,58.3,328.1,47.6,297.1,35.5z"/>
	</g>
	<path opacity="0.1" fill="#020203" enable-background="new    " d="M173.9,202.5c0,0,1.7,3.6,1.4,20.9s-1.4,27.3-1.4,27.3l12.1,2.2
		l0.6-35.1L173.9,202.5z"/>
	<path opacity="0.1" fill="#020203" enable-background="new    " d="M199.9,203c0,0-1.9,3.5-2.1,20.8c-0.3,17.3,0.4,27.4,0.4,27.4
		l-12.1,1.8l0.6-35.1L199.9,203z"/>
	<path fill="#FAD655" d="M157.6,235.9c-23.6-1.6-29.4,11.1-30.2,13.4c17.1,13.3,37.7,20.6,59.4,20.9l0.3-18.5
		C187.2,251.7,183.4,237.6,157.6,235.9z"/>
	<path opacity="0.2" fill="#020203" enable-background="new    " d="M187.1,253.3c0-0.2-0.4-7.5-10.3-12.4c2.2,2.8,2.2,6.6,2.1,6.7
		v0.1c-0.1,7.6-7.1,13.5-14.7,12.3c-12.8-2.1-25-6.6-36.3-13.7c17.7,13.5,37.4,20.3,58.9,20.6C186.9,267,187.1,258.3,187.1,253.3z"
		/>
	<path fill="#FAD655" d="M217.3,236.9c23.7-0.8,29,12.1,29.7,14.4c-17.6,12.7-38.3,19.3-60.1,18.9l0.3-18.5
		C187.2,251.7,191.5,237.7,217.3,236.9z"/>
	<path opacity="0.2" fill="#020203" enable-background="new    " d="M187.1,253.3c0-0.2,0.2-3.8,3.6-7c7.5,11.6,11.4,15.4,19,14.5
		c7.9-1,14.9-3.9,21.6-8.2c6.4-4,5.2-10.7,5.6-12.1c4.5,2.2,7.5,5.6,9,8.3c-18.8,13.9-37.5,18.5-59,18.2
		C186.9,267,187,258.3,187.1,253.3z"/>
	<path opacity="0.1" fill="#FFFFFF" enable-background="new    " d="M218.9,245c7.4-0.9,12.7-2.9,16.6-5.2c-4.4-2-10.3-3.2-18.3-3
		c-10.3,0.3-17.2,2.8-21.7,5.6C200.4,244.8,207.9,246.4,218.9,245z"/>
	<path opacity="0.1" fill="#FFFFFF" enable-background="new    " d="M155.9,244c-7.3-1.2-12.6-3.3-16.5-5.8
		c4.4-1.8,10.4-2.9,18.4-2.4c10.3,0.7,17.1,3.4,21.5,6.3C174.4,244.3,166.9,245.7,155.9,244z"/>
	<path fill="#25B872" d="M184.8,215.1l15.7-11.4l-10.6,15.5L184.8,215.1z"/>
</g>
<g id="nutritionBrow">
	<path fill="#A03520" d="M159,104.8l0.1,0.9c0.1,1.1-1,2-2.3,1.8c-2.1-0.2-4.9-0.3-6.5,0c-8.1,1.4-9.9,3.2-9.9,3.2s0.4-6.5,15.9-7.8
		C157.6,102.9,158.9,103.7,159,104.8z"/>
	<path fill="#A03520" d="M218.4,107.2v1c0,1.1,1.2,1.9,2.6,1.6c2-0.4,4.8-0.8,6.5-0.7c8.2,0.6,10.1,2.2,10.1,2.2s-1.1-6.4-16.7-6.1
		C219.6,105.1,218.4,106.1,218.4,107.2z"/>
</g>
<g id="nutritionH2">
	<path fill="#F8C2B0" d="M90.5,150.9c0.1-1.2,0.1-2.4,0-3.6c-1.4-5.9-5.4-8.3-6.5-9.5c-1.7-1.8-3.4-6.9-6.2-7
		c-0.4,0-1.8,0.4-2.6,1.7c-0.8,1.3,3.3,10.7,3.3,10.7l-0.1,1.1c0,0-15.1-1.7-18.5-1.7c-1.6,0-2.3,1.1-2.5,2.1
		c-0.1,0.6,0,1.2,0.2,1.6l0,0c0,0,0.1,0.1,0.1,0.2l0,0l0.1,0.1l0,0l0.1,0.1c0,0,0,0,0.1,0.1l0.1,0.1c0,0,0,0,0.1,0.1l0.1,0.1
		c0,0,0,0,0.1,0.1c0,0,0.1,0,0.1,0.1c0,0,0,0,0.1,0c0,0,0.1,0,0.1,0.1h0.1c0.1,0,0.1,0,0.1,0H59c0.1,0,0.1,0,0.2,0
		c2.1,0.2,12.1,1.1,12.1,1.1l-0.1,1.1c0,0-11.6-1-14.8-1.3c-1.2-0.1-1.8,0.5-2.1,1.4c0,0.1,0,0.2-0.1,0.3c0,0.1,0,0.2,0,0.2
		s0,0,0,0.1s0,0.1,0,0.2c0,0,0,0,0,0.1c0,0.2,0,0.4,0.1,0.6l0,0c0,0.1,0,0.2,0,0.2l0,0c0,0,0,0.2,0.1,0.2l0,0c0.1,0.1,0,0.2,0.1,0.2
		c0.1,0.1,0.1,0.2,0.1,0.2l0,0c0,0,0.1,0.1,0.1,0.2c0,0,0,0,0.1,0.1l0.1,0.1l0,0l0.1,0.1l0.1,0.1c0,0,0,0,0.1,0l0.1,0.1
		c0,0,0,0,0.1,0s0.1,0.1,0.1,0h0.1c0.1,0,0.1,0,0.2,0c1.9,0.2,14.7,1.3,14.7,1.3l-0.2,1.7c0,0-9.8-0.9-12.3-1.1
		c-1.4-0.1-2,1.1-2,2.4c0,0.2,0,0.4,0.1,0.6c0,0,0,0.1,0,0.2l0,0c0,0,0.1,0.1,0,0.1l0,0l0.1,0.1c0,0,0,0,0.1,0.1c0,0,0,0,0.1,0.1
		c0,0,0,0,0.1,0.1c0,0,0,0,0.1,0.1c0,0,0,0,0.1,0.1c0,0,0,0,0.1,0.1c0,0,0,0,0.1,0.1c0,0,0,0,0.1,0.1c0,0,0,0,0.1,0.1
		c0,0,0,0,0.1,0.1c0,0,0,0,0.1,0.1c0,0,0,0,0.1,0.1c0,0,0.1,0,0.1,0.1c0,0,0,0,0.1,0c0,0,0.1,0,0.1,0.1h0.1h0.1H58
		c0.1,0,0.1,0,0.2,0c2.1,0.2,12.1,1.1,12.1,1.1l-0.2,1.6c0,0-6.7-0.6-9.5-0.9c-1.5-0.1-2.2,1.2-2.2,2.4c0,0.1,0,0.1,0,0.2v0.1v0.1
		v0.1v0.1v0.1v0.1c0,0,0,0,0,0.1c0,0,0.1,0.1,0,0.1c0,0,0,0,0,0.1c0,0,0.1,0.1,0,0.1c0,0,0,0,0.1,0.1c0,0,0,0,0.1,0.1
		c0,0,0,0,0.1,0.1c0,0,0,0,0.1,0.1c0,0,0,0,0.1,0.1c0,0,0,0,0.1,0.1l0.1,0.1c0,0,0,0,0.1,0.1l0.1,0.1c0,0,0,0,0.1,0.1l0.1,0.1
		c0,0,0,0,0.1,0.1c0,0,0.1,0,0.1,0.1c0,0,0,0,0.1,0.1l0.1,0.1c0,0,0,0,0.1,0.1c0,0,0.1,0.1,0.1,0h0.1c0.1,0,0.1,0,0.2,0
		c2.3,0.6,19.9,2.5,21.2,1.9c0.9-0.4,4.5-2.1,7.3-6.2H89c0.2-0.5,0.4-1,0.6-1.4c0.5-1.8,0.9-3.6,1.3-5.4
		C90.1,154.2,90.3,152.5,90.5,150.9z"/>
	<g>
		<path fill="#F9BE84" d="M55.9,160.1C55.9,160,55.9,160,55.9,160.1C55.9,160,56,160,55.9,160.1z"/>
		<path fill="#F9BE84" d="M57.7,166.7c0,0-0.1-0.1,0-0.1C57.7,166.7,57.7,166.7,57.7,166.7z"/>
		<path fill="#F9BE84" d="M55.3,154.6C55.2,154.6,55.2,154.5,55.3,154.6C55.1,154.5,55.2,154.6,55.3,154.6z"/>
		<path fill="#F9BE84" d="M54.7,154.2l-0.1-0.1C54.6,154.1,54.6,154.2,54.7,154.2z"/>
		<path fill="#F9BE84" d="M55.8,159.5c-0.1-0.2-0.1-0.4-0.1-0.6C55.8,159.1,55.8,159.4,55.8,159.5z"/>
		<path fill="#F9BE84" d="M57.6,166.1V166V166.1z"/>
		<path fill="#F9BE84" d="M56.9,161.1L56.9,161.1L56.9,161.1z"/>
		<path fill="#F9BE84" d="M55.9,159.9c0,0-0.1-0.1,0-0.1C55.9,159.8,55.9,159.8,55.9,159.9z"/>
		<path fill="#F9BE84" d="M58.5,167.8C58.4,167.8,58.4,167.8,58.5,167.8C58.4,167.8,58.4,167.8,58.5,167.8z"/>
		<path fill="#F9BE84" d="M57.6,166.3v-0.1V166.3z"/>
		<path fill="#F9BE84" d="M57.5,165.9v-0.1C57.6,165.8,57.5,165.9,57.5,165.9z"/>
		<path fill="#F9BE84" d="M56.7,161L56.7,161L56.7,161z"/>
		<path fill="#F9BE84" d="M59,168.1L59,168.1C58.9,168.1,59,168.1,59,168.1z"/>
		<path fill="#F9BE84" d="M55.8,159.7c0,0,0-0.1,0-0.2C55.8,159.6,55.8,159.6,55.8,159.7z"/>
		<path fill="#F9BE84" d="M58.8,168.1C58.8,168.1,58.7,168,58.8,168.1C58.8,168,58.8,168,58.8,168.1z"/>
		<path fill="#F9BE84" d="M54.9,154.4c-0.1,0-0.1-0.1-0.1-0.1C54.7,154.3,54.8,154.3,54.9,154.4z"/>
		<path fill="#F9BE84" d="M58,148.5C58,148.4,57.9,148.4,58,148.5C58,148.4,58,148.5,58,148.5z"/>
		<path fill="#F9BE84" d="M57.9,148.3l-0.1-0.1C57.8,148.3,57.8,148.3,57.9,148.3z"/>
		<path fill="#F9BE84" d="M58.4,148.7C58.3,148.7,58.3,148.7,58.4,148.7C58.3,148.6,58.3,148.7,58.4,148.7z"/>
		<path fill="#F9BE84" d="M58.2,148.6C58.2,148.6,58.1,148.6,58.2,148.6L58.2,148.6z"/>
		<path fill="#F9BE84" d="M70.8,143.7c-0.1,0-0.1,0-0.2,0C70.7,143.7,70.7,143.7,70.8,143.7z"/>
		<path fill="#F9BE84" d="M71.2,143.8c-0.1,0-0.2,0-0.3,0C71,143.8,71.1,143.7,71.2,143.8z"/>
		<path fill="#F9BE84" d="M57.4,147.7c-0.2-0.5-0.3-1.1-0.2-1.6C57.1,146.6,57.2,147.2,57.4,147.7z"/>
		<path fill="#F9BE84" d="M53.9,152.8c0-0.1,0-0.2,0-0.2S53.9,152.7,53.9,152.8z"/>
		<path fill="#F9BE84" d="M56.1,160.4L56.1,160.4C56.1,160.3,56.1,160.4,56.1,160.4z"/>
		<path fill="#F9BE84" d="M54.1,153.4c-0.1-0.1,0-0.2-0.1-0.2C54.1,153.2,54.1,153.3,54.1,153.4z"/>
		<path fill="#F9BE84" d="M54.3,153.6c-0.1-0.1-0.1-0.1-0.1-0.2C54.1,153.4,54.2,153.5,54.3,153.6z"/>
		<path fill="#F9BE84" d="M53.8,151.6c0-0.1,0-0.2,0-0.2C53.8,151.4,53.8,151.5,53.8,151.6z"/>
		<path fill="#F9BE84" d="M53.9,151.4c0-0.1,0-0.2,0.1-0.3C53.9,151.2,53.9,151.2,53.9,151.4z"/>
		<path fill="#F9BE84" d="M70.5,143.6c-0.1,0-0.1-0.1-0.2-0.1C70.4,143.6,70.5,143.6,70.5,143.6z"/>
		<path fill="#F9BE84" d="M53.8,151.9c0-0.1,0-0.2,0-0.2S53.8,151.8,53.8,151.9z"/>
		<path fill="#F9BE84" d="M53.9,152.5c0-0.2-0.1-0.4-0.1-0.6C53.9,152.1,53.9,152.3,53.9,152.5z"/>
		<path fill="#F9BE84" d="M56.5,160.8C56.4,160.8,56.4,160.8,56.5,160.8C56.4,160.8,56.4,160.8,56.5,160.8z"/>
		<path fill="#F9BE84" d="M56.6,160.9L56.6,160.9C56.5,160.9,56.5,160.9,56.6,160.9z"/>
		<path fill="#F9BE84" d="M70.3,143.5l-0.1-0.1C70.2,143.4,70.2,143.5,70.3,143.5z"/>
		<path fill="#F7B7A2" d="M84.1,157.1c4.4,1-2.7-1.7-4.4-4.4c-1.8-2.6-2.3-5-4.1-5.5C74.3,146.9,79.3,156,84.1,157.1z"/>
		<path fill="#F7B7A2" d="M75.1,146.2c-1.2,0.9,0.1,4.3,0.3,8.7c0.2,4.3-2.5,11.2-1,10.4C77,163.8,76.3,145.3,75.1,146.2z"/>
	</g>
	<g>
		<path fill="#FFFFFF" d="M82.8,262.2c-3.4,4.8-11.2,3-15.1-1.3s-5.4-10.5-6.3-16.3C56,208.3,47,146.9,43.6,110.3
			c-0.2-1.8-0.4-3.7-1.5-5.2c-1.5-1.9-4.2-2.6-6.5-3.4c-13.2-4.8-22.8-28.4-23.4-42.4c-0.8-17.1,3.1-35.4,15.6-47.2
			c4.1-3.9,9.3-7,15-7.6c12.3-1.4,22.8,9.1,28.9,20C78.8,37.4,83.8,53.4,83,68.7c-0.4,7.8-2.3,15.6-6.6,22.3
			c-4.1,6.4-11.7,9.5-10.7,18c4.3,39.5,13.6,102.8,23,141.4c1.2,4.8-0.7,9.9-4.7,12.8"/>
		
			<path id="nutritionH3" fill="none" stroke="#022433" stroke-width="4" stroke-linecap="round" stroke-linejoin="round" stroke-miterlimit="10" d="
			M82.8,262.2c-3.4,4.8-11.2,3-15.1-1.3s-5.4-10.5-6.3-16.3C56,208.3,47,146.9,43.6,110.3c-0.2-1.8-0.4-3.7-1.5-5.2
			c-1.5-1.9-4.2-2.6-6.5-3.4c-13.2-4.8-22.8-28.4-23.4-42.4c-0.8-17.1,3.1-35.4,15.6-47.2c4.1-3.9,9.3-7,15-7.6
			c12.3-1.4,22.8,9.1,28.9,20C78.8,37.4,83.8,53.4,83,68.7c-0.4,7.8-2.3,15.6-6.6,22.3c-4.1,6.4-11.7,9.5-10.7,18
			c4.3,39.5,13.6,102.8,23,141.4c1.2,4.8-0.7,9.9-4.7,12.8"/>
		<path fill="#FFFFFF" d="M33.8,22.3c-8.4,10.8-11.9,24.8-9.3,37.8S35.6,85,47.5,92c0.9,0.6,2,1.1,3.1,1c1.1-0.2,2.1-1.4,1.5-2.2"/>
		<path fill="none" stroke="#022433" stroke-width="4" stroke-linecap="round" stroke-linejoin="round" stroke-miterlimit="10" d="
			M33.8,22.3c-8.4,10.8-11.9,24.8-9.3,37.8S35.6,85,47.5,92c0.9,0.6,2,1.1,3.1,1c1.1-0.2,2.1-1.4,1.5-2.2"/>
	</g>
</g>
<path fill="none" stroke="#022433" stroke-width="3" stroke-miterlimit="10" d="M1,303c138.6-65.2,292.1-7.1,439.1-18
	c41.1-3,82-11.7,123.1-13.4c61.1-2.7,122.1,9.5,183.1,14.1c67.3,5.1,135,1.1,201.6-11.8c48.7-9.5,99.4-23.7,146.1-3.7"/>
<g id="nutritionH1">
	<g>
		<path fill="#F9BE84" d="M322.1,161.1C322.1,161,322.1,161,322.1,161.1C322.1,161,322,161,322.1,161.1z"/>
		<path fill="#F9BE84" d="M320.3,167.7c0,0,0.1-0.1,0-0.1C320.3,167.7,320.3,167.7,320.3,167.7z"/>
		<path fill="#F9BE84" d="M322.7,155.6c0.1,0,0.1-0.1,0.1,0C322.8,155.5,322.8,155.6,322.7,155.6z"/>
		<path fill="#F9BE84" d="M323.3,155.2l0.1-0.1C323.4,155.1,323.4,155.2,323.3,155.2z"/>
		<path fill="#F9BE84" d="M322.2,160.5c0.1-0.2,0.1-0.4,0.1-0.6C322.2,160.1,322.2,160.4,322.2,160.5z"/>
		<path fill="#F9BE84" d="M320.4,167.1V167V167.1z"/>
		<path fill="#F9BE84" d="M321.1,162.1L321.1,162.1L321.1,162.1z"/>
		<path fill="#F9BE84" d="M322.1,160.9c0,0,0.1-0.1,0-0.1C322.1,160.8,322.1,160.8,322.1,160.9z"/>
		<path fill="#F9BE84" d="M319.5,168.8C319.6,168.8,319.6,168.8,319.5,168.8C319.6,168.8,319.6,168.8,319.5,168.8z"/>
		<path fill="#F9BE84" d="M320.4,167.3v-0.1V167.3z"/>
		<path fill="#F9BE84" d="M320.5,166.9v-0.1C320.4,166.8,320.5,166.9,320.5,166.9z"/>
		<path fill="#F9BE84" d="M321.3,162L321.3,162L321.3,162z"/>
		<path fill="#F9BE84" d="M319,169.1L319,169.1C319.1,169.1,319,169.1,319,169.1z"/>
		<path fill="#F9BE84" d="M322.2,160.7c0,0,0-0.1,0-0.2C322.2,160.6,322.2,160.6,322.2,160.7z"/>
		<path fill="#F9BE84" d="M319.2,169.1C319.2,169.1,319.3,169,319.2,169.1C319.2,169,319.2,169,319.2,169.1z"/>
		<path fill="#F9BE84" d="M323.1,155.4c0.1,0,0.1-0.1,0.1-0.1C323.3,155.3,323.2,155.3,323.1,155.4z"/>
		<path fill="#F9BE84" d="M320,149.5C320,149.4,320.1,149.4,320,149.5C320,149.4,320,149.5,320,149.5z"/>
		<path fill="#F9BE84" d="M320.1,149.3l0.1-0.1C320.2,149.3,320.1,149.3,320.1,149.3z"/>
		<path fill="#F9BE84" d="M319.6,149.7C319.6,149.7,319.7,149.7,319.6,149.7C319.7,149.6,319.6,149.7,319.6,149.7z"/>
		<path fill="#F9BE84" d="M319.8,149.6C319.8,149.6,319.9,149.6,319.8,149.6L319.8,149.6z"/>
		<path fill="#F9BE84" d="M307.2,144.7c0.1,0,0.1,0,0.2,0C307.3,144.7,307.3,144.7,307.2,144.7z"/>
		<path fill="#F9BE84" d="M306.8,144.8c0.1,0,0.2,0,0.3,0C307,144.8,306.9,144.7,306.8,144.8z"/>
		<path fill="#F9BE84" d="M320.6,148.7c0.2-0.5,0.3-1.1,0.2-1.6C320.9,147.6,320.8,148.2,320.6,148.7z"/>
		<path fill="#F9BE84" d="M324.1,153.8c0-0.1,0-0.2,0-0.2S324.1,153.7,324.1,153.8z"/>
		<path fill="#F9BE84" d="M321.9,161.4L321.9,161.4C321.9,161.3,321.9,161.4,321.9,161.4z"/>
		<path fill="#F9BE84" d="M323.9,154.4c0.1-0.1,0-0.2,0.1-0.2C323.9,154.2,323.9,154.3,323.9,154.4z"/>
		<path fill="#F9BE84" d="M323.7,154.6c0.1-0.1,0.1-0.1,0.1-0.2C323.8,154.4,323.8,154.5,323.7,154.6z"/>
		<path fill="#F9BE84" d="M324.2,152.6c0-0.1,0-0.2,0-0.2C324.2,152.4,324.2,152.5,324.2,152.6z"/>
		<path fill="#F9BE84" d="M324.1,152.4c0-0.1,0-0.2-0.1-0.3C324.1,152.2,324.1,152.2,324.1,152.4z"/>
		<path fill="#F9BE84" d="M307.5,144.6c0.1,0,0.1-0.1,0.2-0.1C307.6,144.6,307.5,144.6,307.5,144.6z"/>
		<path fill="#F9BE84" d="M324.2,152.9c0-0.1,0-0.2,0-0.2C324.1,152.7,324.2,152.8,324.2,152.9z"/>
		<path fill="#F9BE84" d="M324.1,153.5c0-0.2,0.1-0.4,0.1-0.6C324.1,153.1,324.1,153.3,324.1,153.5z"/>
		<path fill="#F9BE84" d="M321.5,161.8C321.6,161.8,321.6,161.8,321.5,161.8C321.6,161.8,321.6,161.8,321.5,161.8z"/>
		<path fill="#F9BE84" d="M321.4,161.9L321.4,161.9C321.5,161.9,321.5,161.9,321.4,161.9z"/>
		<path fill="#F9BE84" d="M307.7,144.5l0.1-0.1C307.8,144.4,307.8,144.5,307.7,144.5z"/>
		<path fill="#F7B7A2" d="M293.9,158.1c-4.4,1,2.7-1.7,4.4-4.4c1.8-2.6,2.3-5,4.1-5.5C303.7,147.9,298.7,157,293.9,158.1z"/>
		<path fill="#F7B7A2" d="M302.9,147.2c1.2,0.9-0.1,4.3-0.3,8.7c-0.2,4.3,2.5,11.2,1,10.4C301,164.8,301.7,146.3,302.9,147.2z"/>
	</g>
	<path fill="#F8C2B0" d="M287.5,151.9c-0.1-1.2,0-2.4,0-3.6c1.4-5.9,5.4-8.3,6.5-9.5c1.7-1.8,3.4-6.9,6.2-7c0.4,0,1.8,0.4,2.6,1.7
		c0.8,1.3-3.3,10.7-3.3,10.7l0.1,1.1c0,0,15.1-1.7,18.5-1.7c1.6,0,2.3,1.1,2.5,2.1c0.1,0.6,0,1.2-0.2,1.6l0,0c0,0-0.1,0.1-0.1,0.2
		l0,0l-0.1,0.1l0,0l-0.1,0.1c0,0,0,0-0.1,0.1l-0.1,0.1c0,0,0,0-0.1,0.1l-0.1,0.1c0,0,0,0-0.1,0.1c0,0-0.1,0-0.1,0.1c0,0,0,0-0.1,0
		c0,0-0.1,0-0.1,0.1h-0.1c-0.1,0-0.1,0-0.1,0H319c-0.1,0-0.1,0-0.2,0c-2.1,0.2-12.1,1.1-12.1,1.1l0.1,1.1c0,0,11.6-1,14.8-1.3
		c1.2-0.1,1.8,0.5,2.1,1.4c0,0.1,0,0.2,0.1,0.3c0,0.1,0,0.2,0,0.2s0,0,0,0.1s0,0.1,0,0.2c0,0,0,0,0,0.1c0,0.2,0,0.4-0.1,0.6l0,0
		c0,0.1,0,0.2,0,0.2l0,0c0,0,0,0.2-0.1,0.2l0,0c-0.1,0.1,0,0.2-0.1,0.2c-0.1,0.1-0.1,0.2-0.1,0.2l0,0c0,0-0.1,0.1-0.1,0.2
		c0,0,0,0-0.1,0.1l-0.1,0.1l0,0l-0.1,0.1l-0.1,0.1c0,0,0,0-0.1,0l-0.1,0.1c0,0,0,0-0.1,0s-0.1,0.1-0.1,0h-0.1c-0.1,0-0.1,0-0.2,0
		c-1.9,0.2-14.7,1.3-14.7,1.3l0.2,1.7c0,0,9.8-0.9,12.3-1.1c1.4-0.1,2,1.1,2,2.4c0,0.2,0,0.4-0.1,0.6c0,0,0,0.1,0,0.2l0,0
		c0,0-0.1,0.1,0,0.1l0,0l-0.1,0.1c0,0,0,0-0.1,0.1c0,0,0,0-0.1,0.1c0,0,0,0-0.1,0.1c0,0,0,0-0.1,0.1c0,0,0,0-0.1,0.1
		c0,0,0,0-0.1,0.1c0,0,0,0-0.1,0.1c0,0,0,0-0.1,0.1c0,0,0,0-0.1,0.1c0,0,0,0-0.1,0.1c0,0,0,0-0.1,0.1c0,0,0,0-0.1,0.1
		c0,0-0.1,0-0.1,0.1c0,0,0,0-0.1,0c0,0-0.1,0-0.1,0.1h-0.1h-0.1H320c-0.1,0-0.1,0-0.2,0c-2.1,0.2-12.1,1.1-12.1,1.1l0.2,1.6
		c0,0,6.7-0.6,9.5-0.9c1.5-0.1,2.2,1.2,2.2,2.4c0,0.1,0,0.1,0,0.2v0.1v0.1v0.1v0.1v0.1v0.1c0,0,0,0,0,0.1c0,0-0.1,0.1,0,0.1
		c0,0,0,0,0,0.1c0,0-0.1,0.1,0,0.1c0,0,0,0-0.1,0.1c0,0,0,0-0.1,0.1c0,0,0,0-0.1,0.1c0,0,0,0-0.1,0.1c0,0,0,0-0.1,0.1
		c0,0,0,0-0.1,0.1l-0.1,0.1c0,0,0,0-0.1,0.1l-0.1,0.1c0,0,0,0-0.1,0.1l-0.1,0.1c0,0,0,0-0.1,0.1c0,0-0.1,0-0.1,0.1c0,0,0,0-0.1,0.1
		l-0.1,0.1c0,0,0,0-0.1,0.1c0,0-0.1,0.1-0.1,0h-0.1c-0.1,0-0.1,0-0.2,0c-2.3,0.6-19.9,2.5-21.2,1.9c-0.9-0.4-4.5-2.1-7.3-6.2H289
		c-0.2-0.5-0.4-1-0.6-1.4c-0.5-1.8-0.9-3.6-1.3-5.4C287.9,155.2,287.7,153.5,287.5,151.9z"/>
	<path fill="#FFFFFF" d="M313.6,103.9c-6.8,0.7-13.3-4.2-16.4-10.4c-3.1-6.2-3.5-13.3-3.4-20.2c0-21.6,3.4-43.2,10-63.7
		c0.8-2.6,1.8-5.4,4.5-6.7c1.3-0.6,2.8-0.6,3.9,0.2c1.7,1.2,1.6,3.2,1.4,5c-1.3,11.3-2.6,22.7-3.9,34c-0.5,4.6,1.6,11.5,5.9,9.6
		c1.5-0.6,2.5-2.1,2.8-3.7c1.6-10.7,3.3-21.3,5-32c0.6-3.8,1.3-7.9,4.7-10.1c1.9-1.2,4.4-1.3,6.1,0.2c1.7,1.4,1.5,3.3,1.4,5.1
		c-1,9.8-2.1,19.5-3,29.3c-0.4,3.7-1.3,9.2,1.4,12.1c1.4,1.5,3.4,2.3,6-0.3c2.2-2.3,1.3-6.3,2-9.4c2.1-10.4,2.5-20.7,6.4-30.9
		c0.5-1.2,1.3-2.2,2.5-2.7c4.4-1.9,6.6,4.9,6.3,9.5c-1.3,19-2.6,37.9-3.8,56.9c-0.6,8.8-1.5,18.4-7.3,25c-3.3,3.7-7.8,6.2-11,10
		c-6.2,7.2-6.6,17.5-6.9,27c-0.7,22.8-6.8,82.3-9.8,104.9c-0.7,5.3-2.4,11.7-7.5,13.1c-4.1,1.1-8.4-1.8-10.2-5.7
		c-1.8-3.9-1.7-8.2-1.6-12.6c0.9-31.4,8.5-105.2,13.1-136.3"/>
	<path fill="none" stroke="#022433" stroke-width="4" stroke-linecap="round" stroke-linejoin="round" stroke-miterlimit="10" d="
		M313.6,103.9c-6.8,0.7-13.3-4.2-16.4-10.4c-3.1-6.2-3.5-13.3-3.4-20.2c0-21.6,3.4-43.2,10-63.7c0.8-2.6,1.8-5.4,4.5-6.7
		c1.3-0.6,2.8-0.6,3.9,0.2c1.7,1.2,1.6,3.2,1.4,5c-1.3,11.3-2.6,22.7-3.9,34c-0.5,4.6,1.6,11.5,5.9,9.6c1.5-0.6,2.5-2.1,2.8-3.7
		c1.6-10.7,3.3-21.3,5-32c0.6-3.8,1.3-7.9,4.7-10.1c1.9-1.2,4.4-1.3,6.1,0.2c1.7,1.4,1.5,3.3,1.4,5.1c-1,9.8-2.1,19.5-3,29.3
		c-0.4,3.7-1.3,9.2,1.4,12.1c1.4,1.5,3.4,2.3,6-0.3c2.2-2.3,1.3-6.3,2-9.4c2.1-10.4,2.5-20.7,6.4-30.9c0.5-1.2,1.3-2.2,2.5-2.7
		c4.4-1.9,6.6,4.9,6.3,9.5c-1.3,19-2.6,37.9-3.8,56.9c-0.6,8.8-1.5,18.4-7.3,25c-3.3,3.7-7.8,6.2-11,10c-6.2,7.2-6.6,17.5-6.9,27
		c-0.7,22.8-6.8,82.3-9.8,104.9c-0.7,5.3-2.4,11.7-7.5,13.1c-4.1,1.1-8.4-1.8-10.2-5.7c-1.8-3.9-1.7-8.2-1.6-12.6
		c0.9-31.4,8.5-105.2,13.1-136.3"/>
</g>
<path fill="none" stroke="#022433" stroke-width="3" stroke-linecap="round" stroke-linejoin="round" stroke-miterlimit="10" d="
	M1094.1,255.3c9.8-9.3,16.3-22.4,17.5-36c-12.5,8.1-23.9,17.9-33.8,29c0.8-24.5-3.5-49.3-12.7-72c-6.4,24.2-7.5,49.9-2.7,74.6"/>
<path fill="#022433" d="M675.1,138.7c-0.4,2.5-0.7,5.1-1.2,7.9c0,0.4-0.1,0.7-0.1,1.2c-0.1,0.4,0,0.9,0.6,1c2.1,1.2,3.7,3.1,5.1,5
	c4,5.4,8.6,10.3,12.9,15.7c0.4,0.6,0.9,1,1.3,1.6c0.9,1.2,1.2,2.3,1,3.7c-0.3,2.9-1,5.7-1.3,8.6c-0.9,7.5-1.8,15-2.5,22.4
	c-1.2,10.8-2.3,21.7-4.4,32.4c-0.6,2.6-1,5.3-1.2,7.9c0,0.4-0.1,0.7-0.1,1.2c-0.1,1.5-1,2.3-2.3,2.9c-5.4,2.2-11,4.5-16.4,6.6
	c-8.5,3.2-17.2,6.3-25.7,9.7c-1.8,0.7-3.5,0.9-5.4,0.4c-17.2-3.5-34.4-7-51.7-10.6c-7.3-1.5-14.5-2.9-21.8-4.4
	c-2.9-0.6-3.1-0.9-2.5-3.8c1.9-12.2,4.3-24.2,6.6-36.2c2.6-13.3,5.3-26.5,7.9-39.9c0.3-1.6,0.7-3.2,1-4.8c0.1-1.2,0.7-2.3,1.6-3.2
	c3.5-3.7,6.7-7.8,10.3-11.6c4-4.1,8.1-8.1,12-12.2c0.7-0.7,1.3-1.3,2.2-1.8c1.2-0.7,1.6-1.6,1.8-2.9c0.4-3.1,1-6.2,1.6-9.1
	c0.3-2.1,1-2.5,3.1-2.5c4.1,0,8.1,0.4,12,1.3c8.2,1.8,16.6,3.1,24.9,4.5c8.8,1.6,17.6,3.4,26.4,5c0.9,0.1,1.8,0.4,2.6,0.7
	C674.6,136.2,675.1,136.9,675.1,138.7z M578.9,168.3c-0.7-0.3-1,0.1-1.2,0.7c-0.3,1.5-0.6,2.9-0.9,4.4c-4.7,24.5-9.5,48.8-14.4,73.3
	c-0.4,1.9-0.3,1.9,1.6,2.2c12.9,2.6,25.7,5.3,38.6,7.8c10.4,2.1,21,4.3,31.4,6.3c1.3,0.3,1.3,0.3,1.6-1c1-5.3,1.9-10.7,2.9-16
	c2.3-12.6,4.5-25.2,6.9-37.8c1.5-7.9,2.8-15.8,4.3-23.9c0.1-0.9-0.1-1.2-0.9-1.3c-0.7-0.1-1.5-0.3-2.3-0.4
	c-19.3-4.1-38.7-8.1-57.9-12.2C585.2,169.6,582,169,578.9,168.3z M638.9,263.3c0.6,0.1,0.9-0.1,1.3-0.3c7.9-3.4,16-6.2,24-9.2
	c5.4-2.1,10.7-4.1,16-6.3c0.9-0.4,1.3-0.9,1.5-1.9c0.1-1.5,0.3-2.8,0.6-4.3c0.7-4.7,1.8-9.4,2.5-14.1c1.5-9.5,2.3-19.1,3.4-28.4
	c0.6-5.4,1.3-10.8,2.1-16.3c0.3-1.9,0.7-4,1.2-5.9c0.3-1.3,0.3-1.3-1-1.2c-1.5,0.3-2.8,0.6-4.3,1c-10.6,2.6-21,5.4-31.7,7.5
	c-1,0.1-1.2,0.7-1.3,1.6c-1.6,8.6-3.1,17.4-4.7,26.1c-2.8,15.2-5.4,30.3-8.2,45.6C639.6,259.1,639.2,261.2,638.9,263.3z
	 M670.4,151.6c-0.3-0.4-0.7-0.3-1-0.3c-5.4-0.9-10.8-1.9-16.3-2.8c-11-1.8-22.1-4-33.3-5.4c-4.5-0.6-9.1-1-13.6-1.9
	c-2.5-0.4-4.1,0.4-5.7,2.1c-6.9,6.7-13.6,13.8-20.1,21c-0.1,0.1-0.4,0.4-0.3,0.9c0.7,0.1,1.5,0.3,2.2,0.4c14.1,2.9,28,5.9,42.1,8.8
	c8.6,1.8,17.3,3.7,25.9,5.4c0.9,0.1,1.3,0.1,1.9-0.7c5.7-9.1,11.9-17.7,17.9-26.7C670.1,152.3,670.5,152,670.4,151.6z M609.1,127.4
	c-0.1,0-0.6,0-0.9,0c-0.6,0-0.9,0.1-1,0.7c-0.6,2.9-1.2,5.9-1.9,8.8c-0.1,0.4,0.1,0.7,0.6,0.7c0.3,0,0.6,0.1,0.9,0.1
	c9.4,1.3,18.8,2.5,28.1,4.1c8.5,1.5,17.1,2.8,25.7,4.3c2.9,0.4,5.7,1,8.6,1.5c0.6,0.1,1,0.1,1.2-0.6c0.4-2.6,0.7-5.1,1.2-7.8
	c0.1-0.6-0.1-0.9-0.7-0.9c-0.3-0.1-0.6-0.1-1-0.1c-8.8-1.6-17.6-3.4-26.4-5c-7.2-1.3-14.4-2.3-21.4-4
	C617.8,128.3,613.7,127.7,609.1,127.4z M655.3,180.1c11.6-2.5,22.9-5.4,34.4-8.4c-0.4-0.6-0.7-1-1.2-1.5c-3.2-4.3-7-8.1-10.3-12.3
	c-1-1.5-2.2-2.9-3.4-4.3c-0.3-0.3-0.6-0.7-1.2-0.7C667.5,162,661.6,171.2,655.3,180.1z"/>
<path fill="#022433" d="M1034.4,225.7c3.1-10.2,3.9-20.8,3.4-31.5c-0.2-4.3-0.8-8.5-1.8-12.6c-1.2-4.6-3.1-8.9-5.8-12.9
	c-3.2-4.6-7.7-7.1-13.4-7.2c-5.5-0.2-10.7,1.4-15.4,3.9c-4.6,2.4-8.7,5.6-12.6,9.1c-1,0.9-1.8,1.9-2.9,2.9c-2.2-3-5.1-5.2-7.8-7.8
	c1.1-0.1,1.7,0,2.4-0.1c6.9-0.7,13-3.1,18-8c3.2-3.2,5.3-7.1,7.2-11.1c1-2.3,1.9-4.7,2.3-7.3c0.4-2.3-0.6-3.4-2.8-3.3
	c-3.5,0.2-6.9,0.5-10.3,1.4c-10.2,2.9-17.3,9.4-21.1,19.2c-0.6,1.3-1,2.8-1.6,4.2c-0.7,0-1.1-0.5-1.6-0.8c-1.7-1.2-3.3-2.5-5.3-3.4
	c-0.8-0.4-1.5-0.7-2.3-1c-1-0.3-1.8-0.1-2.2,0.8c-0.3,0.8,0,1.5,0.8,2c0.1,0.1,0.3,0.1,0.4,0.2c1.5,0.6,2.9,1.5,4.2,2.5
	c3.7,2.7,7.1,5.5,10.7,8.5c1.6,1.3,3,2.6,4.6,4.4c-0.8,0.2-1.4,0-1.8-0.1c-6.4-0.7-12.8-0.9-19.1-0.5c-4.5,0.4-8.6,2.1-12,5.2
	c-2.2,2-4.2,4-6.1,6.3c-2.8,3.3-4.3,7-4.6,11.4c-0.2,3.6,0,7.2,1.1,10.6c1.7,5.6,4.3,10.7,7.9,15.2c7.8,9.5,16.4,18.1,27,24.7
	c1.9,1.1,3.8,2.2,5.9,3c4.5,1.6,8.9,1.1,13.1-0.8c1.8-0.8,3.6-1.8,5.3-2.9c3.3-1.8,6.7-3,10.5-3.2c1.5-0.2,3-0.1,4.4-0.3
	c6-0.6,10.7-3.4,14.7-7.7C1031,235,1033,230.5,1034.4,225.7z M975.4,164.8c3.3-9.6,9.2-16.9,19.3-20.1c2.7-0.8,5.2-1.4,8-1.4
	c0.5,0,1.1-0.2,1.6,0.1c-0.2,2.1-1,4-1.9,5.8c-2.2,4.8-4.9,9.2-9.2,12.3c-5.2,3.6-10.8,5-17,4.6C975.1,165.8,975,165.8,975.4,164.8z
	 M1018.1,241.3c-1.9,0.9-4.1,1.5-6.2,1.6c-1.6,0.1-3.4,0.2-5,0.3c-3.8,0.3-7.1,1.4-10.3,3.3c-1.3,0.8-2.7,1.3-4,2.1
	c-5.1,2.8-9.9,3-15,0c-0.3-0.1-0.6-0.4-0.9-0.5l-1.5-0.9c-10.3-6.2-18.5-14.8-26.2-24.1c-3-3.6-5.1-7.6-6.7-12.1
	c-1.3-3.6-1.8-7.4-1.5-11.3c0.2-3.6,1.6-6.7,3.8-9.3c1.8-2.2,3.8-4.2,6-6.2c2.8-2.4,6-3.8,9.7-4c6.9-0.5,13.9-0.3,20.9,0.4
	c1,0.1,1.9,0.3,2.7,0.6c1.3,0.4,2.4-0.1,3.4-0.9c0.4-0.4,0.8-0.7,1.2-1.2c4-4.5,8.8-7.9,13.9-10.9c4.1-2.3,8.6-3.6,13.3-3.8
	c5.1,0,9.1,1.9,11.9,6.3c3.2,4.9,5,10.3,6,15.9c1.3,8.1,1.1,16.1,0.3,24.1c-0.7,5.7-1.9,11.3-3.9,16.8
	C1027.8,233.9,1023.9,238.4,1018.1,241.3z"/>
<path fill="#022433" d="M721.6,233.6c-2.1-2.3-3.8-4.8-5-7.6c-3.2-7.3-4-14.7-0.4-22.1c3.4-7.3,9.1-12.2,16.6-15
	c2.2-0.9,4.4-1.5,6.7-1.6c0.9,0,1.2-0.3,1.2-1.2c0-2.9,0.3-5.7,1-8.5c1-4.4,2.9-8.5,6-11.9c4.1-4.5,9.2-6.6,15.5-5.4
	c4.8,0.9,8.8,3.4,12.5,6.4c0.3,0.3,0.6,0.4,0.9,0.9c0.4,0.6,0.9,0.6,1.6,0.3c1.9-1,4-1.8,6-2.3c2.8-0.7,5.4-1.3,8.4-0.9
	c7.3,1,14.2,7.6,15.2,15c1.2,7.6-1.3,14.1-6.2,19.8c-0.3,0.4-0.7,0.7-1,1c-0.6,0.4-0.6,0.9-0.1,1.5c1.2,1.5,2.2,3.1,2.9,4.8
	c2.5,5,2.9,10.1,0.4,15.2c-0.4,0.9-0.1,1.6,0.3,2.2c4.1,6.5,8.4,12.9,12.5,19.5c1.6,2.6,3.2,5.1,4.5,7.9c0.9,1.9,0.9,3.7-0.3,5.4
	c-2.1,2.9-3.7,5.9-5.9,8.6c-0.3,0.3-0.4,0.6-0.7,0.9c-1,1.3-2.2,1.6-3.8,1.2c-2.9-0.9-5.7-1.8-8.5-2.6c-6.6-2.2-13.2-4.3-19.6-6.7
	c-1-0.3-2.1-0.6-3.1-0.9c-1.3-0.4-1.3-0.3-2.1,0.9c-2.3,4.1-5.4,7.3-9.5,9.7c-4.8,2.8-10.1,4.1-15.7,2.9c-3.8-0.7-7.2-2.6-10-5.3
	c-1-0.9-0.9-0.9-2.1-0.3c-3.7,2.3-7.5,3.7-11.9,3.8c-7.6,0.4-16.1-6-17.7-14.1c-0.4-2.2-0.4-4.4,0.1-6.6c1.5-6.2,4.7-11,10.1-14.2
	C720.9,234.1,721.2,233.9,721.6,233.6z M755.6,267.8c6.2-0.1,11-2.5,15.1-6.6c3.1-3.1,5.3-6.9,5.7-11.4c0.4-3.5-0.1-6.9-1-10.1
	c-1.3-5-4-9.2-6.9-13.3c-0.3-0.4-0.7-1-1-1.5c-0.4-0.7-0.1-1.6,0.4-2.1c0.6-0.4,1.5-0.4,2.2,0.1c0.1,0.1,0.4,0.4,0.6,0.6
	c2.1,2.8,4,5.6,5.6,8.6c1,2.2,1,2.2,3.5,1.9c0.3,0,0.6-0.1,0.9-0.1c4.1-0.7,7.9-2.2,11.4-4.3c2.8-1.6,5.1-3.7,7-6.2
	c2.9-4,4.1-8.4,2.3-13.3c-0.7-1.9-1.6-3.7-2.8-5.3c-1.6-2.5-3.8-4.7-6-6.6c-0.4-0.4-1-0.9-1.5-1.3c-0.7-0.7-0.7-1.6-0.1-2.2
	c0.6-0.7,1.5-0.7,2.3-0.1c0.3,0.1,0.6,0.4,0.9,0.7c1,0.9,2.1,1.9,3.1,2.8c0.4,0.4,0.7,0.4,1.2,0c0.9-0.9,1.6-1.8,2.3-2.8
	c1.9-3.1,3.2-6.6,3.8-10.3c0.3-2.1,0.1-4-0.3-5.9c-1.2-4.8-4.4-8.1-8.8-10.1c-1.9-0.9-3.8-1.2-5.9-1c-2.9,0.3-5.7,1.2-8.5,2.3
	c-1.8,0.7-1.8,0.7-0.9,2.5c0.6,0.9,1,1.9,1.5,2.8c0.3,0.9,0,1.6-0.7,1.9s-1.3,0.1-1.9-0.6c-0.4-0.7-0.9-1.5-1.3-2.2
	c-2.8-4.8-6.9-8.1-11.9-10.1c-5-2.1-9.8-1.8-14.2,1.9c-1.8,1.5-2.9,3.2-4.1,5.1c-2.6,4.5-3.4,9.5-3.7,14.7c0,1.2,0.3,1.8,1.3,2.1
	c0.9,0.3,1.8,0.7,2.5,1.3s1,1.3,0.6,2.1c-0.3,0.7-1.2,0.9-2.1,0.6c-0.6-0.1-1-0.4-1.5-0.7c-1.6-0.7-3.2-1-5-0.9
	c-2.1,0-4,0.7-5.7,1.3c-6,2.2-11,5.9-14.2,11.6c-2.5,4.5-3.4,9.4-2.5,14.4c1.2,6.3,4.3,11.4,8.9,15.7c0.4,0.4,0.9,0.7,1.3,1.3
	c0.4,0.6,0.4,1.3-0.1,2.1c-0.4,0.6-1.2,0.7-1.8,0.4c-0.3-0.1-0.6-0.3-0.9-0.6c-1-1-1.2-1.2-2.8-0.1c-4.3,2.8-6.7,6.7-8.1,11.6
	c-0.3,1.3-0.6,2.6-0.6,4c0.3,6,5.6,12,11.6,13c4.8,0.9,9.2-0.7,13.2-3.2c0.6-0.4,0.7-0.7,0.3-1.3c-1.3-2.3-2.3-5-2.8-7.6
	c-0.1-0.9-0.3-1.6-0.1-2.5c0.1-0.7,0.6-1.2,1.3-1.3c0.7,0,1.2,0.3,1.5,0.9c0.1,0.3,0.1,0.6,0.3,1c0.4,2.5,1.3,5,2.5,7.2
	C744.3,264.4,749.3,267.5,755.6,267.8z M780.1,249.7c-0.6,1.2-0.4,2.5-0.9,3.7c-0.1,0.6,0.3,0.7,0.7,0.9c5.6,1.5,11,3.5,16.6,5.3
	c4.5,1.5,8.9,3.1,13.6,4.4c1.5,0.4,1.5,0.4,2.5-0.9c2.1-2.5,3.5-5.3,5.4-8.1c0.6-0.9,0.6-1.6,0.1-2.5c-1-2.1-2.2-4.1-3.4-6
	c-4.1-6.6-8.4-13-12.5-19.6c-0.1-0.3-0.3-0.7-1-0.9c-0.1,0.1-0.1,0.4-0.4,0.6c-0.9,0.7-1,1.5-0.4,2.6c0.9,1.6,1.5,3.2,2.2,4.8
	c1.3,3.1,2.9,6.2,4,9.2c0.3,0.9,0.6,1.8,0.4,2.8c-0.1,1.6-1.3,2.5-2.9,2.1c-0.7-0.1-1.5-0.6-2.1-1.2c-1.8-1.2-3.2-2.6-4.5-4.1
	c-2.5-2.5-4.8-5-7.3-7.5c-0.3-0.3-0.6-0.9-1.2-0.6c-1,0.4-2.2,0.7-3.2,1.2c0.3,0.7,0.7,1,1.2,1.5c3.5,3.5,6.9,7.2,10.4,10.7
	c1,1.2,2.2,2.2,2.9,3.5c0.6,1,1.3,1.9,0.6,3.2c-0.9,1.3-2.1,1-3.2,0.7c-3.4-0.7-6.5-1.9-9.7-3.1
	C785.2,251.8,782.7,250.8,780.1,249.7z M778.5,237.3c-0.3,0.4,0,0.7,0,1c0.7,2.2,1.2,4.5,1.2,6.9c0,1,0.4,1.5,1.3,1.8
	c4.3,1.5,8.4,2.8,12.6,4.3c0.4,0.1,1,0.4,1.6,0.4c0-0.3,0-0.4,0-0.6c-4.4-4.5-8.9-8.9-13.2-13.6c-0.3-0.3-0.4-0.4-0.9-0.4
	C780.2,237.1,779.4,237.3,778.5,237.3z M792.3,233.5c3.4,3.4,6.7,6.4,10,9.7c0.1-0.1,0.1-0.1,0.3-0.3c-1.8-4.1-3.7-8.4-5.6-12.6
	C795.5,231.6,794,232.4,792.3,233.5z"/>
<path fill="#022433" d="M764.5,197.6c5.1,0.1,9.5,2.2,13,6c0.9,1,1.8,2.1,2.5,3.2c0.6,1,0.4,1.8-0.3,2.3c-0.7,0.6-1.8,0.4-2.5-0.4
	c-0.7-0.9-1.5-1.9-2.2-2.8c-3.1-3.4-6.9-5.1-11.4-5c-2.2,0-4.1,0.7-6,1.8c-4.5,2.6-7.5,6.6-8.9,11.7c-1.3,4.7-1.5,9.4,1,13.9
	c0.1,0.1,0.1,0.3,0.1,0.4c0.3,0.9,0.1,1.6-0.6,2.1c-0.7,0.4-1.5,0.1-2.1-0.6c-0.3-0.3-0.4-0.7-0.7-1.2c-2.1-4-2.5-8.1-1.9-12.5
	c1.2-7.2,4.7-12.9,11-16.7C758.7,198.3,761.5,197.4,764.5,197.6z"/>
<path fill="#022433" d="M786.2,192.1c0,1.2-0.1,2.2-0.4,3.2c-0.3,1-1,1.6-1.9,1.5s-1.5-0.9-1.5-2.1c0-0.7,0.3-1.5,0.3-2.3
	c0.3-5.6-4.1-10.6-11.4-7.9c-1.9,0.7-3.7,1.9-4.8,3.5c-0.9,1.2-1.8,1.3-2.5,0.9c-0.7-0.6-0.7-1.6,0-2.6c3.4-4.3,7.6-6.4,13.2-5.7
	c4.7,0.6,8.4,4.8,8.9,9.8C786.2,191.1,786.2,191.7,786.2,192.1z"/>
<path fill="#022433" d="M1013.8,84.7c-0.4-1.5-1.2-2.8-2.2-4c-1.5-1.6-3.2-2.9-5.3-4c-0.9-0.4-1.6-0.9-2.6-1.3
	c0.3-0.6,0.6-1,0.9-1.5c0.7-1.3,1.3-2.6,1.6-4.1c0.6-3.7-1.3-7-4.8-8.4c-3.4-1.3-7-0.3-9.1,2.9c-0.9,1.5-1.6,3.2-1.5,5.1
	c0.1,0.7-0.1,1.2-0.9,1.6c-6.4,3.7-12.9,7.5-19.3,11.1c-0.7,0.4-1,0.4-1.6-0.3c-0.9-1.3-1.5-1.3-2.9-0.6c-1.6,0.9-3.4,1.5-5.1,1.9
	c-3.7,0.9-7.3,0.4-10.8-0.1c-5.4-1-10.7-2.2-16.1-2.8c-8.8-0.9-17.2,0.4-24.9,4.8c-10.1,5.9-15.2,14.5-15,26.2
	c0.3,11,5,20.1,13.8,26.8c7.8,6,16.4,7.5,25.8,4.8c5.4-1.6,10.6-4,14.5-8.2c2.9-3.1,5.4-6.6,7.3-10.4c1.3-2.8,2.6-5.4,4-8.2
	c3.2-7.2,7.9-13,13.9-18c0.6-0.4,1-0.9,1.6-1.3c0.9-0.7,1-1.8,0.6-2.8c-0.1-0.3-0.3-0.6-0.4-0.9c-0.1-0.4-0.1-0.7,0.3-0.9
	c0.3-0.1,0.6-0.3,0.9-0.4c5.7-2.5,11.3-5.1,17.1-7.5c0.9-0.3,1.3-0.1,1.9,0.4c2.3,2.1,5,3.8,7.8,5.3c2,1,4.1,1.8,6.3,1.5
	C1012.7,91.2,1014.8,88.1,1013.8,84.7z M970.8,96.2c-4.4,3.7-8.2,7.8-11.1,12.6c-2.1,3.4-3.7,6.9-5.3,10.4
	c-2.1,4.5-4.5,8.9-7.9,12.6c-2.5,2.8-5.4,5-8.8,6.3c-4,1.6-8.1,3.1-12.5,2.9c-5.3,0-10.1-1.5-14.4-4.5c-9.8-7.2-14.4-16.7-13.5-28.7
	c0.6-7.9,4.5-14.1,11.1-18.5c6.2-4,12.9-6,20.2-6c5.4,0.1,10.7,0.9,16,2.1c2.3,0.4,4.7,0.9,7,1.3c4.8,0.7,9.4,0.1,13.9-1.8
	c1.2-0.4,1.2-0.4,1.8,0.6c1.3,2.3,2.8,4.7,4,7.2C972.7,95.1,972.7,94.5,970.8,96.2z M1008,88.5c-1.2,0-2.3-0.4-3.4-0.9
	c-3.1-1.6-5.9-3.4-8.4-5.7c-1-1-2.1-1.2-3.4-0.6c-6.3,2.5-12.3,5.3-18.5,8.1c-1.3,0.6-1.3,0.6-1.9-0.6c-0.4-0.9-0.9-1.6-1.3-2.5
	c-0.3-0.4-0.1-0.7,0.3-1c0.3-0.1,0.4-0.3,0.7-0.4c6.6-3.4,13-7.2,19.5-11c0.3-0.1,0.6-0.3,0.7-0.4c1.2-0.7,1.8-1.8,1.5-3.1
	c-0.1-1.3,0-2.6,0.7-3.8c1.5-2.6,4.5-3.2,6.9-1.3c1.3,1,1.6,2.5,1.5,4c-0.2,1.8-1,3.2-2.2,4.5c-2.1,2.3-1.9,3.1,1,4.3
	c2,0.7,3.9,1.8,5.6,3.1c1.3,1,2.3,2.2,3.1,3.8C1011.4,87.1,1010.5,88.5,1008,88.5z"/>
<path fill="#022433" d="M774.5,107.8c-0.6-8.4-3.1-16-7.5-23.2c-4.1-6.3-8.8-12.2-14.4-17.1c-2.1-1.8-4.1-3.5-6.2-5.4
	c-1.5-1.3-2.1-1.5-3.5-0.1c-0.1,0.3-0.3,0.6-0.6,0.7c-4.8,5.3-10.6,8.9-17,12c-6.3,3.1-13.2,5-20.1,6.4c-6.2,1.3-12.3,1.9-18.6,1.8
	c-1.3,0-1.3,0-1.6-1.3c-0.6-3.1-2.2-5.6-4.5-7.5c-4.1-3.2-8.8-4.1-13.6-3.1c-7.9,1.6-13.3,6.3-15.8,14.1c-0.9,2.9-1.3,6-1,9.2
	c0.6,4.8,2.2,9.2,5.7,12.8c5.4,5.3,11.9,7,19.2,5.9c6.7-1,11.9-4.5,15.2-10.6c1.3-2.3,2.1-5,1.5-7.8c-0.4-2.6-1.8-4.7-3.2-6.9
	c-0.3-0.4-0.7-0.9-1.2-1.5c20.4-0.3,39.1-5.1,55-18.3c0.1,0.4-0.1,0.9-0.3,1.2c-1.2,2.9-2.3,6-3.5,8.9c-3.5,8.2-7.9,15.8-12.3,23.5
	c-2.2,3.8-4.7,7.3-7.3,10.8c-0.4,0.6-0.7,0.9-1.5,0.4c-3.5-1.8-7-1.8-10.6-0.3c-7,2.9-10.4,8.6-11.1,16c-0.6,5.6,1.3,10.4,5.1,14.7
	c4.1,4.7,9.1,7.3,15.4,7.3c6,0,11-2.5,14.8-7.2c1.8-2.2,3.1-4.5,4.1-7.2c1.9-5,2.1-10.1-0.1-15c-1.6-3.5-4.4-5.7-8.4-6.4
	c-1.5-0.3-3.1-0.1-4.8-0.3c5-6.3,8.8-12.9,12.5-19.6s7.3-13.5,9.8-20.8c0.1,0,0.3,0.1,0.4,0.1c0.3,1.8,0.4,3.5,0.7,5.3
	c1.6,9.5,4.7,18.5,9.8,26.8c4.4,7,10,13,16.1,18.8c0.3,0.3,0.6,0.4,0.9,0.6c1.2,0.6,2.3,0.1,2.6-1c0.1-0.6,0.3-1.2,0.3-1.8
	C774.8,117.6,775,112.6,774.5,107.8z M686.9,101.6c-3.1,4.7-7.5,7.3-13,8.1c-0.9,0.1-1.8,0.1-2.3,0.1c-3.7-0.1-7-0.7-10-2.6
	c-6.5-4.3-8.6-10.3-7.8-17.6c0.9-7,4.5-12,11.3-14.5c4.8-1.8,9.5-1.3,13.8,1.8c1.5,1,2.3,2.5,3.1,4c0.4,1.2,0.6,2.2,0.1,3.4
	c-0.3,1,0,1.8,0.6,2.3c0.6,0.6,1.2,1,1.8,1.6c1,0.9,1.8,1.9,2.5,3.1C689.2,94.8,689.1,98.3,686.9,101.6z M725.7,118.1
	c2.8,0.4,4.7,2.1,5.9,4.5c1.8,4.1,1.6,8.2,0.1,12.3c-0.9,2.3-2.1,4.5-3.7,6.4c-3.2,4-7.3,5.7-12.3,5.9c-4.3,0-7.9-1.5-11-4.4
	c-0.9-0.9-1.8-1.9-2.6-2.8c-5-5.9-4.1-14.2-0.4-19.5c2.1-2.9,5.1-4.7,8.6-5.4c1.5-0.3,2.9-0.1,4.4,0.3c0.9,0.3,1.8,0.7,2.2,1.6
	c0.7,1.2,1.8,1.5,2.9,1.3C721.9,117.8,723.8,117.6,725.7,118.1z M771.2,120.4c-8.1-7.5-14.4-15.8-18.5-25.8
	c-3.5-8.8-5.1-18-5.7-27.4c0.7-0.1,0.9,0.3,1.2,0.6c6.2,5.4,11.6,11.6,16,18.6c4.3,6.9,6.6,14.4,7.2,22.4c0.3,3.4,0.3,6.6,0.3,10
	C771.5,119.1,771.5,119.7,771.2,120.4z"/>
<path fill="#022433" d="M581.2,89.3c-0.7-1-1.6-1.5-3.1-1.2c-2.2,0.3-4.1,1-5.9,2.3c-0.7,0.4-1.5,1-2.2,1.5
	c-1.5,1.2-2.9,2.2-4.4,3.5c-10.7,8.9-21,18.8-30.3,29.2C525,136,515,147.7,505,159.5c-4.7,5.4-9.1,11-12.9,17.1
	c-2.2,3.4-4.1,6.7-5.1,10.6c-0.7,2.3-1,4.7-0.7,6.9c0.3,2.8,1.6,5.6,3.8,7.9c1.2,1.3,2.5,2.5,3.8,3.7c0.3,0.3,0.7,0.4,0.9,0.9
	c-0.4,0.4-1,0.6-1.6,0.7c-6.2,2.1-12.5,4-18.6,6c-1.9,0.6-3.8,1.3-5.7,2.3c-0.7,0.4-1.5,0.9-2.1,1.6c-1.2,1.5-0.7,3.2,0.9,4
	c1,0.4,2.2,0.6,3.2,0.6h2.1c-0.4,0.6-1.2,0.7-1.6,1c-3.2,1.6-6.3,3.2-9.2,5.3c-1,0.7-1.9,1.5-2.6,2.6c-1,1.8-0.1,3.5,1.9,3.8
	c1,0.1,2.1,0.1,3.1-0.1c2.2-0.4,4.4-1,6.6-1.8c0.4-0.1,1-0.6,1.6-0.3c-0.3,0.6-0.9,0.9-1.3,1.3c-2.6,2.2-5,4.7-7.2,7.3
	c-0.7,0.9-1.3,1.8-1.8,2.8c-0.4,1.2-0.6,2.3,0.3,3.2c0.9,1,1.9,1,3.1,0.7c1.3-0.3,2.6-0.9,3.8-1.6c2.5-1.5,5-3.2,7.3-4.8
	c0.3-0.3,0.6-0.6,1.2-0.6c-1,1.3-1.9,2.5-2.8,3.8s-1.9,2.6-2.6,4c-0.9,1.5-1.9,3.1-2.5,4.7c-0.4,1.5-0.9,2.8,0.4,4
	c1,0.9,2.5,0.7,4.1-0.4c1.3-0.9,2.5-2.1,3.7-3.4c2.6-2.8,5-5.9,7.5-8.8c0.3-0.4,0.6-0.9,1.2-1.2c0.3,0.6-0.1,1-0.4,1.6
	c-0.9,2.2-1.6,4.4-2.2,6.6c-0.3,1.2-0.4,2.3-0.1,3.5c0.6,3.2,3.2,4.1,5.9,2.1c1-0.9,1.9-2.1,2.6-3.2c2.9-4.3,5.1-8.9,7.2-13.6
	c0.3-0.7,0.4-1.5,1-2.2c0.4,1.6,0.7,3.1,1.2,4.5c0.4,1.3,1,2.6,2.2,3.5c1.5,1.2,3.2,0.9,4.4-0.6c0.9-1.2,1.3-2.5,1.5-4
	c0.1-1.6,0-3.4-0.1-5c-0.6-5.9-1.2-11.7-2.2-17.4c-0.3-1.8-0.6-3.5-0.9-5.6c2.2,0.9,4.3,1.6,6.3,1.9c4.3,0.7,8.2-0.1,11.6-2.9
	c1.2-1,2.3-2.1,3.4-3.2c4.8-5.1,8.8-10.7,12.3-16.7c2.5-4.3,4.7-8.8,7-13.2c5.6-10.6,10.8-21.1,15.7-32c4.1-9.2,7.8-18.8,11.6-28
	c2.8-6.7,5.3-13.5,7-20.5c0.4-1.6,0.9-3.4,0.9-5C582.9,92.3,582.3,90.7,581.2,89.3z M506.3,243.2c-0.7,0-0.7-0.4-0.9-0.9
	c-0.6-1.6-0.9-3.2-1.2-5c-0.1-1.3-0.1-2.8-0.6-4.1c-0.1-0.6-0.3-1-0.6-1.5c-0.9-1-2.2-1-3.1,0c-0.4,0.6-0.6,1.2-0.9,1.8
	c-1.8,4.5-3.7,9.1-6,13.5c-1,2.1-2.2,4-3.5,5.9c-0.4,0.7-1,1.5-1.9,2.1c-0.4-1-0.1-2.1,0.1-2.9c1.5-4.5,3.2-9.1,5.9-13.2
	c0.9-1.5,1.8-2.9,2.5-4.5c0.3-0.7,0.7-1.5,0.9-2.3c0.1-0.7-0.1-1.5-0.7-1.9c-0.7-0.4-1.5-0.6-2.2,0c-0.7,0.4-1.2,1.2-1.8,1.8
	c-3.7,4.5-7.3,8.9-11.1,13.5c-1.8,2.2-3.7,4.2-5.6,6.4c-0.4,0.4-0.7,0.9-1.6,1.3c0.4-0.9,0.7-1.3,1-1.9c2.2-3.7,4.8-6.9,7.5-10.1
	c2.5-3.1,5-6,7.5-9.1c0.3-0.4,0.7-0.9,0.9-1.3c0.4-0.9,0.1-1.8-0.4-2.3c-0.6-0.4-1.5-0.6-2.3,0c-0.6,0.4-1.2,0.9-1.9,1.5
	c-4.5,3.7-9.1,7.3-13.9,10.7c-1.5,1-3.1,2.1-4.5,2.9c-0.3,0.3-0.7,0.6-1.3,0.4c0-0.6,0.4-0.9,0.7-1.2c2.2-2.8,4.8-5.1,7.6-7.5
	c2.9-2.5,6.2-4.5,9.1-6.9c0.6-0.4,1.2-0.7,1.5-1.3c0.4-0.6,0.6-1.3,0.1-2.1c-0.4-0.7-1.2-0.9-1.9-0.7c-0.7,0.1-1.3,0.4-2.1,0.7
	c-5.3,2.3-10.6,4.3-16.1,5.7c-0.3,0-0.6,0.1-0.9,0.1c0.6-0.9,1.3-1.3,2.1-1.8c5.3-3.1,10.8-5.6,16.4-7.9c0.9-0.3,1.6-0.6,2.5-1
	c1-0.6,1.6-1.5,1.3-2.3c-0.3-0.9-1-1.5-2.2-1.2c-2.5,0.3-5,0.7-7.3,1.2c-1.9,0.3-3.7,0.6-5.7,0.6c0.1-0.6,0.6-0.6,1-0.7
	c3.5-1.3,7.2-2.3,10.7-3.7c4.3-1.5,8.5-2.8,12.5-4.4c1.8-0.7,2.9-0.7,4.3,0.4c0.9,0.7,2.3,1.2,2.9,2.1c0.6,0.9,0.6,2.3,0.7,3.5
	c1.3,7.3,2.2,14.7,2.9,22C506.8,239.5,507.1,241.3,506.3,243.2z M579.3,95.9c-0.7,3.8-2.1,7.6-3.2,11.3c-2.8,8.1-6.2,15.8-9.2,23.7
	c-6.6,17-14.8,33.4-23.3,49.5c-2.6,5.1-5.3,10.4-8.5,15.2c-2.6,4-5.6,7.8-8.9,11.3c-0.9,1-1.9,1.9-2.9,2.9c-2.6,2.5-5.9,3.1-9.4,2.5
	c-2.9-0.6-5.7-1.6-8.4-3.2c-4.5-2.6-8.9-5.4-12.6-9.1c-0.7-0.7-1.3-1.5-1.8-2.2c-1-1.8-1.5-3.7-1.5-6.2c0-1.3,0.3-2.8,0.9-4.3
	c1.3-3.2,2.8-6.3,4.7-9.1c3.4-5.3,7.3-10.3,11.4-15.1c10.4-12.3,20.8-24.5,31.7-36.5c9.5-10.4,19.6-20.1,30.3-29.2
	c0.7-0.7,1.6-1.3,2.3-1.9c1-0.9,2.2-1.8,3.2-2.5c0.7-0.6,1.5-1,2.3-1.3c1.9-0.9,2.5-0.6,2.9,1.6C579.5,94.1,579.5,95,579.3,95.9z"/>
<path fill="#022433" d="M496.7,182.5c1.9,0.9,4.1,1.8,5.9,3.4c0.4,0.4,0.4,1,0.1,1.6s-0.9,0.9-1.5,0.7c-0.3,0-0.6-0.1-0.9-0.3
	c-1.5-0.9-2.9-1.6-4.4-2.5c-0.7-0.4-1-1-0.7-1.9C495.3,182.8,495.8,182.6,496.7,182.5z"/>
<path fill="#022433" d="M517.3,206.2c-0.1-0.1-0.4-0.1-0.7-0.3c-1.2-0.6-2.3-1.3-3.4-2.1c-0.1-0.1-0.4-0.3-0.6-0.4
	c-0.6-0.6-0.7-1.3-0.3-1.9c0.4-0.6,1-0.9,1.9-0.6c0.6,0.1,1,0.6,1.6,0.9c1,0.6,1.9,1,2.8,1.6c0.6,0.4,0.9,1.2,0.4,1.9
	C518.8,206.2,518.2,206.4,517.3,206.2z"/>
<path fill="#022433" d="M519.4,184c0,1.2-0.9,2.1-1.9,1.6c-1.6-0.7-3.2-1.8-4.7-2.8c-0.6-0.4-0.7-1.3-0.3-1.9c0.4-0.6,1-0.9,1.8-0.4
	c1.6,0.7,3.1,1.6,4.5,2.6C519.2,183.2,519.4,183.5,519.4,184z"/>
<path fill="#022433" d="M551.3,149.7c-0.1,0-0.4,0-0.6-0.1c-1.5-0.9-2.9-1.8-4.3-2.8c-0.6-0.4-0.7-1.2-0.3-1.8s1-0.9,1.8-0.6
	c1.8,0.7,3.2,1.8,4.7,2.9c0.6,0.4,0.6,1,0.3,1.6C552.7,149.5,552.1,149.7,551.3,149.7z"/>
<path fill="#022433" d="M534.5,170.8c0.1,0,0.4,0.1,0.6,0.3c1.2,0.6,2.3,1.3,3.4,2.1c0.9,0.6,1.2,1.5,0.7,2.2
	c-0.4,0.7-1.3,1-2.3,0.4c-1.3-0.7-2.5-1.5-3.7-2.3c-0.6-0.4-0.7-1.3-0.4-1.9C533,170.9,533.6,170.6,534.5,170.8z"/>
<path fill="#022433" d="M545.3,128.1c0.1,0,0.4,0,0.6,0.1c1.5,0.9,2.8,1.8,4.1,2.8c0.6,0.6,0.6,1.3,0.1,1.9
	c-0.4,0.6-1.2,0.9-1.9,0.4c-1.5-0.9-2.8-1.8-4-2.9c-0.4-0.4-0.6-1-0.3-1.6C544.2,128.3,544.7,128.1,545.3,128.1z"/>
<path fill="#022433" d="M559,121.4c1,0,4.5,2.5,4.8,3.4c0.1,0.6,0.1,1-0.3,1.5c-0.4,0.6-1,0.7-1.6,0.4c-1.5-0.7-2.8-1.8-4-2.9
	c-0.4-0.4-0.4-1-0.1-1.6C558.1,121.7,558.5,121.4,559,121.4z"/>
<path fill="#022433" d="M529.1,143.5c0.1,0,0.4,0.1,0.7,0.1c1,0.6,2.2,1.2,3.2,1.8c0.9,0.6,1.2,1.5,0.6,2.3
	c-0.4,0.7-1.3,0.9-2.2,0.3c-1.2-0.6-2.2-1.3-3.2-2.1c-0.6-0.4-0.7-1-0.4-1.6C527.9,143.8,528.3,143.5,529.1,143.5z"/>
<path fill="#022433" d="M559.5,111.2c1,0.4,2.2,0.9,3.1,1.9c0.4,0.6,0.4,1.2,0.1,1.9c-0.4,0.6-1.2,0.7-1.8,0.4
	c-1-0.4-1.9-1.2-2.8-1.8c-0.6-0.4-0.7-1-0.4-1.6C558.1,111.4,558.7,111.2,559.5,111.2z"/>
<path fill="#022433" d="M911.7,22.3c-4.1-3.1-8.6-4.5-13.6-5c-3.1-0.1-6.2,0-9.1,0.3c-10,0.9-19.8,2.5-29.6,4.7
	c-5,1.2-9.8,2.6-14.2,5c-5,2.6-7.6,6.7-7.8,12.5c0,2.6,0.1,5.3,0.9,7.9c0.1,0.7,0.4,1.5,0.4,2.2c-0.6,0.1-1.2-0.1-1.6-0.1
	c-2.1-0.4-4.3-0.7-6.5-0.6c-1.8,0.1-2.6,1.6-1.6,3.2c0.6,0.9,1.2,1.6,1.8,2.3c3.8,4.3,8.4,7.8,13.3,10.7c0.6,0.3,1.2,0.4,1.6,1
	c-0.1,0.1-0.1,0.3-0.3,0.4c-3.1,2.9-6.5,5.6-10.4,7.3c-2.3,1-4.7,1.3-7.2,0.4c-0.4-0.1-0.9-0.3-1.3-0.3c-1.3-0.4-2.2,0-2.8,1.2
	c-0.4,0.9-0.9,1.9-1.3,2.9c-0.4,1.2-0.1,2.2,0.9,2.9c1.2,0.9,2.5,1.6,3.8,2.3c4.1,2.1,8.2,1.9,12.3-0.3c2.5-1.3,4.8-2.9,7.2-4.8
	c0.3-0.3,0.7-0.7,1.2-0.7c0.1,0.4,0.1,0.7,0,1c-0.3,2.9-0.3,5.9-0.1,8.8c0.3,3.7,1.5,6.9,2.9,10.1c0.3,0.7,0.7,1.3,1.3,1.9
	c1,1.2,2.5,1.2,3.4-0.1c0.1-0.3,0.3-0.6,0.4-0.9c2.5-4.5,3.5-9.4,3.7-14.5c0-0.6-0.1-1.3,0.1-1.9h0.1c0.4,0.4,1,1,1.5,1.5
	c3.7,4,8.2,6.2,13.3,7.3c1.6,0.4,3.2,0.4,5,0.4c1.6-0.1,2.3-0.9,2.1-2.5c-0.1-0.7,0.1-1,0.7-1.2c3.5-0.9,6.6-2.8,9.5-5
	c3.2-2.5,6.2-5.4,8.9-8.6c7.8-8.9,12.8-19.2,16.4-30.3c0.9-2.6,1.2-5.3,1.2-8.1C918.2,30.4,916.2,25.8,911.7,22.3z M877.2,88
	c-1,0.1-2.1-0.1-3.1-0.4c-7-1.9-12.2-6.2-15.1-12.9c-0.1-0.4-0.3-0.9-0.6-1.2c-0.4-0.7-1.3-1-2.1-0.7c-0.7,0.3-1.2,0.9-1,1.8
	c0.1,1.2,0.1,2.2,0.3,3.4c0.6,4.8,0.3,9.5-0.9,14.2c-0.3,1.2-0.7,2.3-1.3,3.4c-0.6-0.1-0.6-0.6-0.7-0.9c-2.2-4.8-2.2-9.8-1.8-15
	c0.1-1.5,0.4-2.9,0.7-4.4c0-0.4,0.1-0.7,0.1-1.2c0-1.6-1.3-2.3-2.6-1.5c-1.2,0.7-2.2,1.6-3.4,2.5c-2.6,2.1-5.3,4-8.1,5.6
	c-3.8,1.9-7.5,1.2-11.1-1.2c-0.4-0.3-0.7-0.6-0.4-1.2c0.3-0.4,0.4-0.7,1-0.4c4.2,1.5,8.2,0,11.9-2.1c3.8-2.2,7.2-5,10.3-8.2
	c1.3-1.5,1.2-2.8-0.6-3.8c-2.2-1.2-4.5-2.3-6.6-3.8c-2.9-2.1-5.7-4.4-8.2-7c0.3-0.6,0.7-0.3,1-0.3c5.9,1,10.7,3.8,15.1,7.6
	c0.1,0.1,0.3,0.3,0.4,0.4c0.6,0.6,1.3,1.2,2.2,0.7c0.9-0.4,1-1.3,0.9-2.2c-0.3-2.6-0.6-5.1-0.9-7.8c-0.3-2.2-0.3-4.4-0.1-6.6
	c0-0.4,0-0.9,0.3-1.5c0.6,0.9,1,1.8,1.3,2.6c1.6,4,2.5,8.2,2.8,12.6c0,1,0,2.2,1.2,2.8s1.9-0.1,2.9-0.7c4.7-2.9,9.5-5.1,14.8-6.7
	c0.1,0,0.3-0.1,0.6,0.1c-0.1,0.6-0.6,1.2-1,1.8c-3.4,4.1-7.2,7.6-11.7,10.6c-0.6,0.4-1.3,0.7-1.9,1.3c-1.2,0.9-1.2,1.9-0.1,2.9
	c0.3,0.3,0.7,0.6,1.2,0.9c3.7,2.6,7.2,5.6,10.1,9.1c1.5,1.8,2.6,3.5,3.7,5.6C876.9,86.5,877.2,87.1,877.2,88z M914.9,35.4
	c0.1,2.8-0.3,5.6-1.2,8.4c-2.8,8.4-6.5,16.1-11.6,23.3c-3.8,5.3-8.1,10-13.2,13.9c-2.2,1.8-4.5,3.2-7.2,4c-1.5,0.4-1.6,0.4-2.3-1
	c-2.9-5.6-7.3-9.7-12.5-13.3c-0.4-0.3-1-0.6-1.3-1.2c0.1-0.4,0.4-0.6,0.9-0.7c3.5-2.3,6.6-5.1,9.5-8.2c1.6-1.8,3.1-3.7,4.1-5.9
	c0.3-0.7,0.7-1.5,0.7-2.2c0.3-1.6-0.7-2.8-2.3-2.5c-1,0.1-2.1,0.4-3.1,0.7c-4.8,1.3-9.4,3.5-13.8,6.2c-0.4,0.3-0.7,0.6-1.5,0.6
	c-0.3-0.7-0.1-1.5-0.3-2.3c-0.6-6.2-2.8-11.9-6.3-17c-0.1-0.3-0.3-0.4-0.6-0.6c-1-1-2.2-0.7-2.9,0.4c-0.3,0.4-0.3,1-0.4,1.6
	c-0.7,4.7-0.9,9.4-0.4,14.1c0,0.6,0.1,1.3,0.1,1.9c-0.3,0.3-0.6,0-0.7-0.1c-1.6-1.2-3.2-2.2-5-3.1c-0.4-0.3-0.9-0.6-1.2-1.2
	c-1-3.5-2.1-7.2-1.9-10.8c0-4.5,2.2-7.9,6.2-10c4.1-2.2,8.5-3.5,13-4.5c9.2-2.1,18.5-3.5,27.9-4.4c3.2-0.3,6.5-0.6,9.8-0.4
	c4.4,0.3,8.5,1.5,12.2,4.4C913,27.7,914.7,31.1,914.9,35.4z"/>
<path fill="#022433" d="M907.4,171.2c0,2.9,0,5.9,0,8.8c0,0.7,0,1.3,0.6,1.9c7.3,9.1,13.2,19.1,18.3,29.6
	c6.2,12.5,11.1,25.5,15.4,38.7c0.7,2.5,1.3,5.1,1.8,7.6c0.1,1,0.1,2.1,0.1,3.1c-0.1,2.2-1.5,3.1-3.5,2.6c-3.8-0.9-7.6-1.9-11.4-2.9
	c-18.9-5.6-35.9-14.8-51.5-26.7c-4.7-3.5-9.1-7.3-13-11.6c-0.7-0.7-1.5-1-2.3-1.2c-5.6-0.4-11.3-0.9-16.9-1.6
	c-1.8-0.3-3.4-0.4-5.1-0.7c-0.6-0.1-1.2-0.3-1.8-0.6c-1.2-0.7-1.6-1.9-1-3.2c0.3-0.7,0.9-1.3,1.5-1.9c2.5-2.9,5.4-5.4,8.4-7.9
	c1.8-1.6,1.6-1.2,0.4-2.9c-8.2-12.2-15.8-24.8-21-38.7c-3.5-9.4-6.5-19.1-8.4-29c-0.4-2.3-0.9-4.7-0.9-7.2c0-1.3,0-1.3-1.3-1.5
	c-7.3-1-14.5-2.5-21.8-4c-0.7-0.1-1.3-0.3-1.9-0.6c-2.2-0.9-2.6-2.6-1.3-4.5c0.1-0.3,0.4-0.6,0.7-0.7c4-4.1,7.8-8.6,11.7-12.8
	c2.3-2.3,4.8-4.7,7.3-6.9c2.8-2.3,4.7-1.9,6.3,1.5c0.9,2.1,1.3,4.1,1.6,6.3c0.7,5.7,1.2,11.4,1.5,17.2c0.1,1.6,0.1,1.6,1.6,2.1
	c5.6,1.6,10.8,3.8,16.1,6.2c6.2,2.9,12.9,5.7,19.3,9.2c11.9,6.3,22.7,14.1,32.5,23.3c1.3,1.2,1.3,1.2,2.6,0c2.3-2.2,4.7-4.2,7.2-6.4
	c1-0.9,2.1-1.6,3.4-2.1c1.5-0.6,2.8-0.1,3.4,1.5c0.4,1.2,0.6,2.5,0.7,3.7C907.3,162.8,907.3,167.1,907.4,171.2z M819.8,126.6
	c-0.1,0.6-0.1,1.2,0,1.9c0.4,3.2,1.2,6.3,1.9,9.4c2.5,10.7,5.6,21.1,10.1,31.1c7.8,16.9,17.6,32.5,30.3,46.3
	c7.2,7.9,15.2,14.8,23.9,20.8c3.5,2.3,7,4.7,10.7,6.7c2.1,1.2,1.5,1.2,2.9-0.4c0.6-0.6,1.2-1.3,1.6-1.9c6-7.2,12.5-13.9,19.9-19.6
	c0.9-0.6,1.8-1.3,2.5-2.1c1.8-1.5,1.5-0.9,0.6-2.9c-1-2.1-2.1-4.1-3.1-6.2c-6-12-13.3-23.2-22.6-33c-2.2-2.3-4.2-4.7-6.4-6.9
	c-9.5-10.3-20.7-18.6-32.7-25.7c-6.7-4-13.9-7-21.1-10.4c-5.4-2.5-10.8-5-16.6-6.7C821.4,126.9,820.7,126.5,819.8,126.6z
	 M901.9,245.7c0.1,0.1,0.1,0.3,0.3,0.3c0.4,0.3,0.7,0.4,1.2,0.7c9.2,4.7,18.8,8.6,28.9,11.3c2.2,0.6,4.5,1.2,6.7,1.8
	c0.9,0.1,1,0.1,0.9-0.9c-0.1-1.8-0.6-3.5-1-5.3c-2.9-11-7.3-21.4-11.6-31.8c-0.1-0.3-0.1-0.7-0.7-0.9
	C917.4,228.2,909.2,236.4,901.9,245.7z M812.6,98.6c-6.9,5.9-12.8,12.6-18.8,19.2c0.1,0.4,0.3,0.4,0.4,0.4
	c6.7,1.3,13.5,2.6,20.2,3.7c1.3,0.1,1.5,0.1,1.3-1.3c-0.3-4.7-0.6-9.4-1.2-14.1c-0.1-1.9-0.3-3.8-1-5.7
	C813.5,100.3,813.3,99.4,812.6,98.6z M903.8,176.8c0.7-3.7,0-17.4-0.9-19.2c-0.3,0.1-0.6,0.3-0.9,0.6c-2.6,2.2-5.3,4.4-7.8,6.6
	c-0.9,0.7-0.9,0.9-0.1,1.8c3.1,3.4,6.2,6.6,9.1,10C903.3,176.5,903.5,176.6,903.8,176.8z M859.1,217.4c-0.1-0.3-0.1-0.4-0.1-0.4
	c-2.8-3.4-5.9-6.6-8.5-10.1c-0.6-0.7-0.9-0.4-1.3,0c-2.5,2.3-5,4.7-7.3,7.3c-0.3,0.3-0.7,0.6-0.6,1.2
	C846.9,216.3,852.9,216.9,859.1,217.4z"/>
<path fill="#022433" d="M907.7,218.5c0-1.3,0-2.3,0-3.4c0-1.8,0.3-3.5,1-5.1c1.3-2.9,4-4.7,7.2-4.4c2.6,0.1,5.1,1.3,7.3,2.6
	c0.9,0.6,1.2,1.5,0.7,2.3c-0.4,0.9-1.3,1.3-2.5,0.9c-0.4-0.1-1-0.4-1.5-0.7c-1-0.6-2.2-1-3.4-1.3c-2.8-0.7-4.5,0.4-5.1,3.2
	c-0.3,1.8-0.4,3.5-0.1,5.1c0.1,0.9,0.3,1.8,0.3,2.6c0.1,1.6-0.9,2.5-2.5,2.2c-0.6-0.1-1.3-0.3-1.9-0.6c-2.1-0.6-4.3-0.9-6.3-0.1
	c-2.8,0.9-4.3,2.9-4.1,5.9c0,1,0.3,2.2,0.6,3.2c0.1,0.6,0.3,1,0.4,1.6c0.3,1-0.1,1.8-0.9,2.1c-0.9,0.3-1.6,0-2.2-1
	c-0.1-0.4-0.4-0.9-0.6-1.3c-0.4-1.5-0.9-2.9-0.9-4.4c-0.3-4.5,2.3-8.2,6.7-9.5C902.6,217.8,905.1,218,907.7,218.5z"/>
<path fill="#022433" d="M889.4,197.1c1,0,2.2,0.1,3.2,0.4c0.7,0.1,1,0,1-0.7c0-2.1,0.3-4.1,0.9-6c1.2-4.3,4.1-6.6,9.4-5.9
	c1.8,0.3,3.5,1,5.1,1.8c0.3,0.1,0.6,0.3,0.7,0.4c0.7,0.6,0.9,1.5,0.6,2.2c-0.4,0.7-1.3,1.2-2.2,0.9c-0.3-0.1-0.6-0.3-1-0.4
	c-0.9-0.4-1.9-0.9-2.8-1.2c-3.5-1-5.4,0.1-6.3,3.7c-0.6,2.2-0.7,4.5-0.3,6.7c0.1,0.6,0.1,1.2,0.1,1.8c-0.1,1.3-1.2,2.1-2.3,1.6
	c-0.6-0.1-1.2-0.4-1.6-0.7c-1.6-0.7-3.2-1.2-5.1-1c-3.7,0.3-5.9,3.1-5.1,6.7c0.3,1.2,0.6,2.3,0.9,3.5c0.3,1-0.1,1.8-0.9,2.1
	c-0.7,0.3-1.8,0-2.1-0.9c-0.9-2.2-1.6-4.4-1.5-6.9C880.2,200.4,884.1,197,889.4,197.1z"/>
<path fill="#022433" d="M869,170.2c-0.3-2.1-0.3-3.8,0.1-5.7c0.7-3.4,2.6-5.9,6-7c1.3-0.4,2.6-0.4,4.1,0c2.1,0.6,3.8,1.8,5.6,2.9
	c0.3,0.1,0.6,0.4,0.7,0.7c0.4,0.7,0.4,1.5-0.1,2.2c-0.6,0.7-1.3,0.9-2.1,0.4c-0.4-0.1-0.9-0.4-1.2-0.7c-1-0.7-2.1-1.3-3.4-1.8
	c-2.2-0.9-4.2,0-5.4,1.9c-0.9,1.6-1.2,3.2-0.9,5c0.1,1.2,0.4,2.3,0.7,3.5c0.3,1,0.3,2.1-0.7,2.8c-0.9,0.7-1.8,0.4-2.8,0
	c-1.2-0.4-2.3-0.9-3.5-1.3c-0.7-0.3-1.6-0.4-2.5-0.3c-1.6,0.3-2.8,1.3-3.1,2.9c-0.3,1.3-0.1,2.6,0.3,4c0.3,0.9,0.7,1.6,0.9,2.5
	c0.3,0.9-0.1,1.6-0.9,1.9c-0.7,0.3-1.5,0.1-1.9-0.4c-2.3-2.6-2.8-8.6-0.7-11.6c1.8-2.5,5-3.5,8.2-2.6
	C867.4,169.7,868.2,170.2,869,170.2z"/>
<path fill="#022433" d="M835.3,150.4c0-0.3,0-0.9,0.1-1.5c0.6-4.4,4-6.7,8.4-6c2.1,0.4,4,1.2,5.7,2.3c0.7,0.4,1.2,0.9,1.2,1.8
	c0,1.2-1,1.9-2.2,1.5c-0.6-0.1-1-0.4-1.5-0.7c-1.2-0.7-2.5-1.2-3.8-1.5c-2.2-0.3-3.8,0.7-4.3,2.9c-0.4,1.9-0.1,3.8,0.6,5.7
	c0.1,0.6,0.4,1.2,0.7,1.8c0.3,0.9,0,1.8-0.7,2.1s-1.6,0-2.1-0.7C836.1,155.8,835.3,153.3,835.3,150.4z"/>
<path fill="#022433" d="M837.8,172.1c0-5.3,3.7-8.5,8.5-7.9c1.5,0.1,3.1,0.6,4.4,1.2c0.3,0.1,0.6,0.3,0.9,0.4
	c0.6,0.6,0.9,1.2,0.6,2.1c-0.3,0.7-1.2,1.2-1.9,1c-0.9-0.1-1.6-0.6-2.5-0.7c-1-0.3-2.1-0.6-3.1-0.4c-2.5,0.4-3.7,1.9-3.5,4.4
	c0,1.3,0.3,2.8,0.7,4c0.1,0.4,0.3,0.9,0.3,1.3c0,0.7-0.3,1.3-1,1.6s-1.2,0-1.6-0.6c-0.1-0.1-0.3-0.4-0.4-0.7
	C838.4,175.7,837.8,173.7,837.8,172.1z"/>
<path fill="#022433" d="M865.4,201.2c0.1,0.9,0.3,1.8,0.3,2.6c0.1,1-0.4,1.8-1.2,1.9c-0.9,0.1-1.8-0.3-2.1-1.3
	c-0.7-2.9-0.9-5.9,0.4-8.6c1.5-3.1,4-4.7,7.3-4.7c1.8,0,3.5,0.3,5.1,1c1.3,0.6,1.8,1.5,1.3,2.5c-0.4,1-1.5,1.3-2.8,0.9
	c-0.4-0.1-1-0.4-1.5-0.6c-4-1-6.6,1-6.9,5.1C865.5,200.5,865.5,201,865.4,201.2C865.5,201.2,865.5,201.2,865.4,201.2z"/>
<path fill="#022433" d="M924.9,232.2c1.3-0.1,2.6,1.2,2.9,2.6c0.1,1.5-0.9,2.8-2.3,2.9c-1.3,0.1-2.6-1-2.8-2.5
	C922.4,233.6,923.4,232.3,924.9,232.2z"/>
</svg>
