<svg width="60" height="7" viewBox="0 0 60 7" fill="none" xmlns="http://www.w3.org/2000/svg">
<path d="M59 3.5C57.4533 1.3185 55.52 1.3185 53.2 3.5C50.2675 6.83333 48.3342 6.83333 47.4 3.5C45.8533 0.166667 43.92 0.166667 41.6 3.5C39.8205 5.2801 37.8872 5.2801 35.8 3.5C34.2533 1.7199 32.32 1.7199 30 3.5C27.4867 5.57679 25.5533 5.57679 24.2 3.5C22.6533 1.42321 20.72 1.42321 18.4 3.5C15.4074 6.78098 13.4741 6.78098 12.6 3.5C11.0533 0.219023 9.12 0.219023 6.8 3.5C4.57872 6.50175 2.64539 6.50175 1 3.5" stroke="#FF4E78" stroke-width="2"/>
</svg>
